<?xml version="1.0" standalone="no"?>
<!DOCTYPE svg PUBLIC "-//W3C//DTD SVG 1.1//EN" "http://www.w3.org/Graphics/SVG/1.1/DTD/svg11.dtd" >
<svg xmlns="http://www.w3.org/2000/svg" xmlns:xlink="http://www.w3.org/1999/xlink" version="1.1">
<metadata>
Created by FontForge 20170731 at Mon Apr 16 12:40:43 2007
 By Aleksey,,,
Copyright (c) 2005 Parachute :, www.parachute.gr.  All rights reserved.
</metadata>
<defs>
<font id="PFHandbookPro-Medium" horiz-adv-x="1818" >
  <font-face 
    font-family="PF Handbook Pro Medium"
    font-weight="500"
    font-stretch="normal"
    units-per-em="1000"
    panose-1="2 0 5 6 5 0 0 2 0 4"
    ascent="750"
    descent="-250"
    x-height="440"
    cap-height="617"
    bbox="-169.095 -232 1760 1525.67"
    underline-thickness="70"
    underline-position="-190"
    unicode-range="U+0020-FB05"
  />
<missing-glyph horiz-adv-x="444" 
d="M0 700h444v-700h-444v700zM352 59q-32 60 -65 118.5t-65 118.5q-33 -61 -65 -118t-65 -119h260zM352 641h-260q32 -60 65 -118.5t65 -118.5zM385 117v466l-129 -233zM59 117q32 59 64 116.5t64 116.5q-34 62 -64 116.5t-64 116.5v-466z" />
    <glyph glyph-name="fj" unicode="fj" horiz-adv-x="461" 
d="M172 451q0 -10 12 -10h212q7 0 9.5 -3.5t2.5 -8.5v-489q-1 -25 -8 -47.5t-21 -39t-36.5 -26.5t-53.5 -10q-22 0 -35.5 2t-24.5 5q-8 2 -12.5 5.5t-2.5 13.5l11 54q3 14 22 10q5 -2 13.5 -3t15.5 -1q26 0 32.5 16.5t6.5 38.5v389q0 10 -2 13t-13 3h-116q-12 0 -12 -12
v-339q0 -12 -13 -12h-68q-13 0 -13 12v338q0 13 -11 13h-40q-11 0 -11 13v53q0 12 13 12h38q12 0 12 11v58q0 63 40.5 99t114.5 36q47 -2 77 -10t47 -19q7 -5 9.5 -8.5t-0.5 -10.5l-23 -51q-4 -8 -10.5 -8t-13.5 3q-16 7 -36 12t-46 5q-34 0 -50 -19t-16 -48v-40z" />
    <glyph glyph-name="ffj" unicode="ffj" horiz-adv-x="699" 
d="M646 -60q-1 -25 -8 -47.5t-21 -39t-36.5 -26.5t-53.5 -10q-22 0 -35.5 2t-24.5 5q-8 2 -12.5 5.5t-2.5 13.5l11 54q3 14 22 10q5 -2 13.5 -3t15.5 -1q26 0 32.5 16.5t6.5 38.5v388q0 6 -1.5 10.5t-7.5 6.5h-122q-8 0 -10 -3.5t-2 -8.5v-339q0 -12 -13 -12h-69
q-12 0 -12 12v338q0 13 -11 13h-121q-12 0 -12 -12v-339q0 -12 -13 -12h-68q-13 0 -13 12v338q0 13 -11 13h-40q-11 0 -11 13v53q0 12 13 12h38q12 0 12 11v37q0 60 40.5 100t114.5 40q32 0 59 -6.5t47 -14.5q1 0 2 -0.5t3 -0.5t4 0.5t8 5.5q21 16 51 26.5t74 10.5
q47 -2 77 -10t47 -19q7 -5 9.5 -8.5t-0.5 -10.5l-23 -51q-4 -8 -10.5 -8t-13.5 3q-16 7 -41.5 12t-51.5 5q-31 0 -48 -19t-17 -48v-45q0 -10 11 -10h213q7 0 9.5 -3.5t2.5 -8.5v-489zM305 441q11 0 11 11v64q0 10 -4 11q-14 6 -31.5 10t-40.5 4q-33 0 -50.5 -18t-17.5 -49
v-23q0 -10 12 -10h121z" />
    <glyph glyph-name="ff" unicode="ff" horiz-adv-x="529" 
d="M234 632q33 0 59 -7t46 -15q1 -1 5 -1q5 0 7 2q20 19 51.5 30t70.5 11q30 0 56.5 -7t44.5 -16q3 -2 6 -4.5t3 -7.5q0 -3 -2 -9l-18 -45q-5 -12 -13 -12q-3 0 -5 0.5t-4 1.5q-14 5 -29.5 8t-35.5 3q-32 0 -48.5 -18.5t-16.5 -44.5v-50q0 -10 11 -10h80q13 0 13 -13v-53
q0 -12 -13 -12h-79q-8 0 -10 -3.5t-2 -8.5v-339q0 -12 -13 -12h-69q-12 0 -12 12v338q0 13 -11 13h-122q-12 0 -12 -12v-339q0 -12 -13 -12h-68q-13 0 -13 12v338q0 13 -11 13h-40q-11 0 -11 13v53q0 12 13 12h38q12 0 12 11v46q0 28 10.5 52.5t30.5 42.5t48.5 28.5
t65.5 10.5zM305 441q11 0 11 11v67q0 10 -4 11q-15 6 -33 10t-41 4q-35 0 -50.5 -19t-15.5 -48v-26q0 -10 12 -10h121z" />
    <glyph glyph-name="fi" unicode="fi" horiz-adv-x="462" 
d="M172 451q0 -10 12 -10h206q11 0 14.5 -4t3.5 -15v-410q0 -12 -13 -12h-68q-12 0 -12 12v334q0 10 -2 13.5t-13 3.5h-116q-12 0 -12 -12v-339q0 -12 -13 -12h-68q-13 0 -13 12v338q0 13 -11 13h-40q-11 0 -11 13v53q0 12 13 12h38q12 0 12 11v70q2 58 43 91.5t112 33.5
q43 0 74.5 -9t49.5 -21q8 -6 9.5 -9.5t-2.5 -13.5l-21 -46q-5 -9 -11 -9t-13 4q-16 6 -36 11t-46 5q-32 0 -49 -18.5t-17 -47.5v-42z" />
    <glyph glyph-name="fl" unicode="fl" horiz-adv-x="496" 
d="M184 363q-12 0 -12 -12v-339q0 -12 -13 -12h-68q-13 0 -13 12v338q0 13 -11 13h-40q-11 0 -11 13v53q0 12 13 12h38q12 0 12 11v68q2 59 42.5 92.5t112.5 33.5q27 0 49.5 -4.5t44.5 -11.5q3 -1 5 -1.5t5 -0.5h4.5t4.5 1q11 3 24 6.5t25 3.5q8 0 10 -4.5t2 -15.5v-487
q0 -32 9 -42t33 -10h12q8 0 10 -5.5t2 -10.5v-55q0 -11 -7.5 -13.5t-17.5 -2.5q-6 -1 -12 -1h-8q-34 0 -56.5 10t-35.5 28.5t-18 45.5t-5 61v396q0 9 -14 15q-13 5 -28 7.5t-34 2.5q-29 0 -47.5 -18.5t-18.5 -47.5v-41q0 -10 12 -10h74q10 0 13.5 -3.5t3.5 -14.5v-44
q0 -11 -5 -13.5t-12 -2.5h-74z" />
    <glyph glyph-name="ffi" unicode="ffi" horiz-adv-x="700" 
d="M472 650q43 0 74.5 -9t49.5 -20q8 -6 9.5 -10t-2.5 -13l-21 -47q-5 -8 -11 -8t-13 3q-17 7 -37 12t-46 5q-31 0 -48 -19t-17 -48v-45q0 -10 11 -10h209q11 0 13.5 -4t2.5 -15v-410q0 -12 -13 -12h-68q-12 0 -12 12v335q0 10 -2 13t-13 3h-116q-8 0 -10 -3.5t-2 -8.5v-339
q0 -12 -13 -12h-69q-12 0 -12 12v338q0 13 -11 13h-121q-12 0 -12 -12v-339q0 -12 -13 -12h-68q-13 0 -13 12v338q0 13 -11 13h-40q-11 0 -11 13v53q0 12 13 12h38q12 0 12 11v44q0 28 10.5 52.5t30.5 42.5t48.5 28.5t65.5 10.5q33 0 59 -7t46 -15q1 -1 5 -1q2 0 4.5 0.5
t8.5 5.5q21 16 50 26.5t65 10.5zM305 441q11 0 11 11v66q0 6 -2 8.5t-11 6.5q-28 10 -63 10q-68 0 -68 -67v-25q0 -10 12 -10h121z" />
    <glyph glyph-name="ffl" unicode="ffl" horiz-adv-x="713" 
d="M234 630q33 0 59 -7t46 -15q1 -1 5 -1t7 3q20 18 51.5 29t69.5 11q27 0 50.5 -4t41.5 -11q6 -2 11 -2h2.5t6.5 1t14.5 3t26.5 6q2 0 3.5 0.5t3.5 0.5q8 0 10.5 -4.5t2.5 -14.5v-493q0 -32 9 -42t33 -10h12q8 0 9.5 -5.5t1.5 -10.5v-55q0 -13 -13 -15q-8 -2 -17.5 -2
h-13.5q-34 0 -56.5 10t-35.5 28.5t-18 45.5t-5 61v397q0 11 -4.5 14t-9.5 5q-13 5 -26 7.5t-36 2.5q-29 0 -47.5 -19t-18.5 -48v-45q0 -10 12 -10h72q11 0 14 -3.5t3 -14.5v-44q0 -11 -4.5 -13.5t-12.5 -2.5h-72q-12 0 -12 -12v-339q0 -12 -13 -12h-68q-13 0 -13 12v338
q0 13 -11 13h-120q-12 0 -12 -12v-339q0 -12 -13 -12h-68q-13 0 -13 12v338q0 13 -11 13h-40q-11 0 -11 13v53q0 12 13 12h38q12 0 12 11v50q1 27 12 50t31 40.5t48 27.5t64 10zM305 441q11 0 11 11v66q0 6 -1 8t-3 4q-14 5 -31.5 9t-40.5 4q-68 0 -68 -67v-25q0 -10 12 -10
h121z" />
    <glyph glyph-name="ft" unicode="ft" horiz-adv-x="546" 
d="M411 452q0 -12 12 -12h86q13 0 13 -12v-53q0 -13 -13 -13h-86q-12 0 -12 -10v-216q0 -24 11 -40t39 -16q8 0 23 2t23 4t10 2q10 0 12 -11l11 -53q1 -1 1 -4q0 -8 -4 -11.5t-12 -5.5q-14 -3 -36 -5.5t-43 -2.5q-68 0 -97.5 33.5t-30.5 86.5v237q0 10 -12 11h-122
q-12 0 -12 -12v-339q0 -12 -13 -12h-68q-13 0 -13 12v338q0 13 -11 13h-40q-11 0 -11 13v53q0 12 13 12h38q12 0 12 11v66q1 25 9.5 48t25 40t40.5 27t54 10q22 0 41.5 -3t31.5 -6q8 -2 12 -6.5t2 -13.5l-11 -54q-1 -10 -12 -10h-4.5t-5.5 1q-10 3 -21.5 4.5t-19.5 1.5
q-26 0 -37.5 -16.5t-11.5 -39.5v-50q0 -10 12 -10h121q12 0 12 13v77q0 12 13 15l65 16q10 2 13 -2.5t3 -9.5v-98z" />
    <glyph glyph-name=".notdef" horiz-adv-x="444" 
d="M0 700h444v-700h-444v700zM352 59q-32 60 -65 118.5t-65 118.5q-33 -61 -65 -118t-65 -119h260zM352 641h-260q32 -60 65 -118.5t65 -118.5zM385 117v466l-129 -233zM59 117q32 59 64 116.5t64 116.5q-34 62 -64 116.5t-64 116.5v-466z" />
    <glyph glyph-name=".null" horiz-adv-x="0" 
 />
    <glyph glyph-name="nonmarkingreturn" horiz-adv-x="333" 
 />
    <glyph glyph-name="space" unicode=" " horiz-adv-x="228" 
 />
    <glyph glyph-name="exclam" unicode="!" horiz-adv-x="270" 
d="M176 177q0 -3 -2 -6.5t-7 -3.5h-44q-5 0 -7.5 3.5t-2.5 5.5l-20 429q0 12 12 12h76q12 0 12 -11zM142 108q25 0 43 -17t19 -41q0 -24 -17.5 -41.5t-43.5 -17.5q-25 0 -43 17.5t-18 40.5q0 25 18 42t42 17z" />
    <glyph glyph-name="quotedbl" unicode="&#x22;" horiz-adv-x="304" 
d="M252 422q0 -5 -3.5 -8t-8.5 -3h-50q-5 0 -9 2.5t-4 8.5v183q0 12 13 12h50q5 0 9 -2.5t3 -7.5v-185zM130 422q0 -5 -4 -8t-9 -3h-49q-13 0 -13 11v183q0 12 12 12h51q5 0 9 -2.5t3 -7.5v-185z" />
    <glyph glyph-name="numbersign" unicode="#" horiz-adv-x="486" 
d="M457 377q-1 -5 -4 -8t-11 -3h-56q-3 0 -6 -1q-6 -2 -7 -7l-23 -106q-2 -7 0 -10t10 -3h60q13 0 11 -12l-9 -42q-2 -12 -14 -12h-67q-10 0 -11 -7l-26 -115q-2 -9 -11 -9h-46q-11 0 -13 4.5t0 10.5l23 104q1 6 -1 9.5t-10 3.5h-70q-8 0 -10 -8l-28 -115q-2 -9 -11 -9h-46
q-16 0 -14 14q0 2 3.5 18t8.5 36q5 23 12 51q2 6 0 9t-10 3h-51q-7 0 -8.5 3t-1.5 7l9 44q3 12 14 12h56q10 0 12 9l24 106q1 5 -0.5 8.5t-10.5 3.5h-59q-8 0 -9.5 3t-0.5 8l9 43q3 11 14 11h67q8 0 10 9l24 111q2 8 12 8h46q11 0 13 -4t0 -10l-22 -100q-4 -14 10 -14h70
q8 0 10 9l27 111q0 8 11 8h45q11 0 13 -4t1 -10l-22 -100q-2 -6 0 -9.5t10 -3.5h52q9 0 10.5 -5t-0.5 -11zM299 353q2 6 0 9.5t-10 3.5h-68q-11 0 -13 -10l-22 -104q-2 -7 0 -10t10 -3h69q9 0 11 9z" />
    <glyph glyph-name="dollar" unicode="$" horiz-adv-x="486" 
d="M427 182q0 -36 -11 -64t-30 -48t-45.5 -32.5t-56.5 -18.5q-9 -2 -12 -6.5t-3 -12.5v-53q0 -12 -12 -12h-36q-12 0 -12 11v54q0 5 -3 9.5t-14 6.5q-35 4 -67.5 17t-59.5 39q-6 5 -5.5 11t5.5 11l31 38q12 13 25 0q23 -21 53 -31.5t55 -10.5q22 0 42 5.5t35 16.5t24 27.5
t9 37.5q0 22 -11 38t-28 27.5t-37 19t-38 13.5q-26 9 -54.5 20.5t-52.5 30t-40 46.5t-16 69q0 30 10.5 56.5t28 47t41.5 34.5t51 21q16 4 16 17v50q0 11 12 11h36q12 0 12 -11v-48q0 -6 3 -10t15 -6q31 -5 60 -18t54 -36q11 -11 0 -23l-31 -37q-10 -14 -25 -1
q-23 21 -51.5 31.5t-53.5 10.5q-17 0 -33 -6t-29.5 -17t-21.5 -28t-8 -39q0 -20 11 -34.5t27 -24.5t35 -16.5t35 -11.5q31 -9 61.5 -22t55 -32.5t39.5 -47.5t15 -69z" />
    <glyph glyph-name="percent" unicode="%" horiz-adv-x="730" 
d="M252 -22q-2 -5 -5.5 -6.5t-7.5 -1.5h-39q-8 0 -9 4t1 9l280 655q3 6 7 7.5t9 1.5h33q11 0 12.5 -4.5t-1.5 -11.5zM298 343q0 -53 -34 -81t-91 -28q-56 0 -91 27.5t-35 81.5v169q0 52 35 80.5t91 28.5q55 0 90 -28t35 -81v-169zM223 512q0 21 -14 34t-36 13q-23 0 -37 -13
t-14 -34v-169q0 -21 14 -34t37 -13q22 0 36 12.5t14 34.5v169zM683 105q0 -53 -34 -81t-91 -28q-56 0 -91 27.5t-35 81.5v169q0 52 35 80.5t91 28.5q55 0 90 -28t35 -81v-169zM608 274q0 21 -14 34t-36 13q-23 0 -37 -13t-14 -34v-169q0 -21 14 -34t37 -13q22 0 36 12.5
t14 34.5v169z" />
    <glyph glyph-name="ampersand" unicode="&#x26;" horiz-adv-x="597" 
d="M252 488q-44 0 -72 -25t-28 -63v-221q0 -19 3 -37t13.5 -32.5t30.5 -23.5t53 -9h16q33 0 53.5 10t32.5 26t16.5 35.5t4.5 38.5v93q-1 2 -2.5 6t-9.5 4h-105q-12 0 -12 12v56q0 12 13 12h208q29 0 58 8t60 28q5 4 10 4q7 0 11 -7l23 -37q3 -6 3 -11q0 -7 -7 -12
q-32 -26 -69.5 -37.5t-69.5 -13.5q-9 -2 -13.5 -5t-4.5 -13v-87q0 -41 -12.5 -76t-37.5 -61t-62.5 -41t-87.5 -15h-15q-52 0 -89 13.5t-60.5 38.5t-34.5 58.5t-11 74.5v220q0 39 15 71t41 54.5t61 34.5t76 12h146q5 0 9.5 -3.5t4.5 -9.5v-57q0 -13 -13 -13h-146z" />
    <glyph glyph-name="quotesingle" unicode="'" horiz-adv-x="189" 
d="M133 422q0 -5 -4 -8t-9 -3h-49q-5 0 -9.5 2.5t-4.5 8.5v183q0 6 4 9t9 3h51q13 0 13 -10z" />
    <glyph glyph-name="parenleft" unicode="(" horiz-adv-x="338" 
d="M295 649q-26 -41 -49 -87t-40.5 -94.5t-27.5 -99t-10 -101.5q0 -47 10.5 -98.5t27 -101.5t38 -96t42.5 -80q7 -11 5 -17.5t-7 -8.5l-25 -16q-20 -13 -35 6q-28 37 -56 83t-50 98.5t-35.5 111t-13.5 119.5q0 62 15.5 122.5t39 115.5t51.5 101t53 80q6 8 12.5 9t14.5 -4
l34 -18q16 -8 6 -24z" />
    <glyph glyph-name="parenright" unicode=")" horiz-adv-x="324" 
d="M259 267q0 -61 -13.5 -119.5t-35.5 -111t-50 -98.5t-56 -83q-15 -19 -35 -6l-25 16q-5 2 -7 8.5t5 17.5q21 34 42.5 80t38 96t27 101.5t10.5 98.5q0 51 -10 101.5t-27.5 99t-40.5 94.5t-49 87q-10 16 6 24l34 18q8 5 14.5 4t12.5 -9q25 -34 53 -80t51.5 -101t39 -115.5
t15.5 -122.5z" />
    <glyph glyph-name="asterisk" unicode="*" horiz-adv-x="378" 
d="M344 528q2 -8 1 -14t-11 -8l-91 -20q-4 -1 -5.5 -3.5t2.5 -6.5l56 -67q5 -5 8.5 -12t-5.5 -14l-32 -24q-7 -5 -14 -5t-13 11l-46 80q-5 8 -10 0l-48 -81q-5 -8 -10.5 -9.5t-15.5 5.5l-30 21q-8 5 -9 11.5t7 16.5l60 67q6 7 -2 9l-91 22q-16 3 -12 19l13 37q5 19 23 12
l86 -37q7 -4 7 4l-10 97q-1 7 2.5 11.5t16.5 4.5h37q19 0 18 -18l-11 -93q-2 -9 7 -6l85 36q18 7 24 -11l13 -35v0z" />
    <glyph glyph-name="plus" unicode="+" horiz-adv-x="486" 
d="M446 252q0 -18 -17 -18h-142q-6 0 -7.5 -1t-1.5 -6v-140q0 -16 -17 -16h-39q-18 0 -18 16v140q0 7 -9 7h-138q-18 0 -18 17v35q0 17 18 17h138q9 0 9 8v139q0 17 17 17h39q18 0 18 -17v-137q0 -6 1.5 -8t7.5 -2h142q17 0 17 -17v-34v0z" />
    <glyph glyph-name="comma" unicode="," horiz-adv-x="221" 
d="M120 -97q-3 -11 -9 -14.5t-14 -3.5h-29q-12 0 -14.5 8t-2.5 17l12 176q0 11 5.5 17.5t17.5 6.5h66q17 0 20.5 -7.5t-0.5 -20.5z" />
    <glyph glyph-name="hyphen" unicode="-" horiz-adv-x="332" 
d="M276 210q0 -12 -12 -12h-202q-13 0 -13 12v51q0 12 12 12h202q13 0 13 -11v-52v0z" />
    <glyph glyph-name="period" unicode="." horiz-adv-x="221" 
d="M166 51q0 -24 -17.5 -41.5t-43.5 -17.5q-24 0 -41.5 17.5t-17.5 41.5t17.5 41.5t41.5 17.5q26 0 43.5 -17t17.5 -42z" />
    <glyph glyph-name="slash" unicode="/" horiz-adv-x="311" 
d="M71 -52q-4 -14 -20 -14h-35q-9 0 -11 5t0 13l232 709q5 14 25 14h31q17 0 12 -16z" />
    <glyph glyph-name="zero" unicode="0" horiz-adv-x="486" 
d="M428 166q0 -83 -51.5 -127.5t-133.5 -44.5q-41 0 -75 11t-58.5 32.5t-38 53.5t-13.5 75v288q0 40 13.5 72t38 54.5t58.5 34t74 11.5t74 -11.5t59 -33t39 -53.5t14 -74v-288zM332 454q0 40 -25 64.5t-64 24.5q-40 0 -65 -25t-25 -64v-288q0 -41 25 -65.5t64 -24.5
q40 0 65 24t25 66v288z" />
    <glyph glyph-name="one" unicode="1" horiz-adv-x="486" 
d="M309 13q0 -13 -13 -13h-70q-13 0 -13 12v472q0 16 -16 8l-66 -38q-11 -7 -18.5 -5t-7.5 13v54q0 8 1.5 14.5t9.5 11.5l106 65q15 10 28 10h42q17 0 17 -16v-588v0z" />
    <glyph glyph-name="two" unicode="2" horiz-adv-x="486" 
d="M419 13q0 -13 -12 -13h-342q-17 0 -17 17v37q0 12 1.5 20.5t12.5 22.5l214 273q14 17 27.5 41.5t13.5 46.5q0 36 -21.5 60.5t-70.5 24.5q-29 0 -50.5 -14t-34.5 -32q-6 -8 -12.5 -11.5t-14.5 1.5l-41 30q-9 6 -10 12t4 13q30 45 75 64.5t96 19.5q38 0 70.5 -10t56 -30.5
t37 -51t13.5 -71.5q0 -19 -6 -38t-15 -36.5t-19.5 -32.5t-19.5 -27l-183 -233q-10 -13 6 -13l230 -1q12 0 12 -11v-58v0z" />
    <glyph glyph-name="three" unicode="3" horiz-adv-x="486" 
d="M406 171q0 -84 -50.5 -130.5t-134.5 -46.5q-36 0 -67.5 8t-57.5 30q-14 12 -25.5 24.5t-19.5 27.5q-2 5 -1.5 10t8.5 10l52 30q12 8 19 -4q16 -23 38.5 -38.5t51.5 -15.5q44 0 68.5 24t24.5 62v46q0 35 -22 61t-60 26h-69q-13 0 -13 12v57q0 12 12 12h63q40 0 63 22.5
t23 58.5q0 41 -25.5 63.5t-62.5 22.5q-28 0 -50.5 -12t-36.5 -33q-4 -7 -10.5 -11t-14.5 1l-46 27q-16 10 -6 25q26 45 74 65.5t98 20.5q88 0 131.5 -44t43.5 -119q0 -18 -4.5 -36.5t-13.5 -35.5t-22.5 -30.5t-31.5 -19.5q-7 -3 -4.5 -6t7.5 -5q19 -6 33 -18.5t22 -29
t12 -34t4 -33.5v-44v0z" />
    <glyph glyph-name="four" unicode="4" horiz-adv-x="486" 
d="M241 609q5 8 16 8h68q9 0 11.5 -6t-0.5 -11l-192 -377q-2 -3 -2 -7t8 -4h117q8 0 9.5 5t1.5 10v154q0 11 11 11h72q6 0 9 -3.5t3 -8.5v-152q0 -9 2 -12.5t10 -3.5h54q11 0 11 -11v-57q0 -12 -11 -12h-52q-6 0 -10 -3t-4 -12v-106q0 -11 -11 -11h-73q-11 0 -11 11v107
q0 14 -14 14h-214q-5 0 -9.5 3t-4.5 11v35q0 17 2 25t7 19z" />
    <glyph glyph-name="five" unicode="5" horiz-adv-x="486" 
d="M414 166q0 -40 -14.5 -72t-40 -54t-59.5 -34t-74 -12q-31 0 -55.5 4.5t-45 15t-37 28t-31.5 44.5q-8 13 5 19l54 29q8 5 11.5 3t7.5 -7q19 -25 37.5 -39.5t50.5 -14.5q40 0 68 23.5t28 62.5v75q0 38 -27 62t-66 24q-19 0 -32.5 -4.5t-26.5 -13.5q-9 -5 -17 -7t-17 2
l-38 17q-8 4 -13 9.5t-5 15.5v262q0 13 13 13h294q13 0 13 -12v-59q0 -11 -12 -11h-201q-13 0 -13 -11v-118q0 -18 20 -9q12 5 24 7.5t24 2.5q39 0 71 -12.5t55 -35t36 -54t13 -68.5v-71v0z" />
    <glyph glyph-name="six" unicode="6" horiz-adv-x="486" 
d="M428 163q0 -41 -14 -72t-39 -53t-58.5 -33t-73.5 -11t-74.5 11t-59.5 32t-39.5 52.5t-14.5 72.5v293q0 40 14 71.5t38.5 53.5t58.5 34t73 12q31 0 58.5 -6t49.5 -20q41 -25 60 -66q5 -11 -5 -17l-49 -31q-8 -5 -14 -1.5t-9 8.5q-17 23 -38 36.5t-52 13.5
q-38 0 -64.5 -24.5t-26.5 -62.5v-77q0 -8 4.5 -10.5t10.5 2.5q17 14 41 21t44 7q80 0 129.5 -44.5t49.5 -122.5v-69zM333 231q0 41 -27.5 63.5t-65.5 22.5q-37 0 -64 -24t-27 -61v-69q0 -40 27.5 -63.5t65.5 -23.5t64.5 24.5t26.5 62.5v68z" />
    <glyph glyph-name="seven" unicode="7" horiz-adv-x="486" 
d="M437 568q0 -8 -3 -17.5t-6 -15.5q-1 -5 -11 -27.5t-26 -57t-35.5 -77.5t-40.5 -88.5t-42 -90t-38 -81.5t-29.5 -64t-17.5 -37q-5 -12 -16 -12h-76q-7 0 -10.5 4t-0.5 11l228 501q4 8 1.5 13.5t-13.5 5.5h-139q-11 0 -14 -3t-3 -10v-42q0 -14 -12 -14h-57q-13 0 -13 13
v125q0 13 12 13h338q11 0 17.5 -3.5t6.5 -14.5v-31v0z" />
    <glyph glyph-name="eight" unicode="8" horiz-adv-x="486" 
d="M244 628q39 0 73 -12t59 -34.5t39 -54.5t14 -72q0 -34 -16.5 -67t-43.5 -53q-9 -8 -1 -13q30 -19 49.5 -54t19.5 -80q0 -47 -15.5 -83t-42 -60.5t-62.5 -37.5t-76 -13q-41 0 -76 11t-61 34t-41 57.5t-15 82.5q0 47 21.5 86t55.5 57q9 5 1 10q-17 9 -29.5 23t-20.5 31
t-12.5 34.5t-4.5 33.5q0 39 14.5 71t39.5 55t58.5 35.5t72.5 12.5zM336 456q0 38 -25 64.5t-67 26.5q-40 0 -67 -26.5t-27 -65.5q0 -36 26 -62.5t68 -26.5q39 0 65.5 26t26.5 64zM243 287q-19 0 -37 -7.5t-32.5 -22t-23 -34.5t-8.5 -44q0 -51 27.5 -77t70.5 -26
q20 0 38.5 7.5t33 21.5t23 34t8.5 46q0 48 -29.5 75t-70.5 27z" />
    <glyph glyph-name="nine" unicode="9" horiz-adv-x="486" 
d="M424 165q0 -40 -14 -71.5t-39 -53.5t-59 -34t-73 -12q-31 0 -58 5.5t-51 19.5q-20 13 -36 31t-26 38q-5 11 6 17l54 30q8 5 12 1t8 -9q17 -23 37.5 -37t52.5 -14q38 0 64.5 24.5t26.5 63.5v79q0 17 -14 8q-14 -12 -36 -21t-50 -9q-38 0 -71 11.5t-57 33.5t-38 53t-14 70
v63q0 40 14.5 72.5t40 55t59.5 34.5t74 12q42 0 76 -11.5t59 -33.5t38.5 -54t13.5 -73v-289zM329 454q0 19 -7.5 35.5t-20.5 28.5t-30 19t-36 7q-37 0 -64 -26t-27 -63v-66q0 -40 28 -62.5t66 -22.5q37 0 64 24t27 61v65z" />
    <glyph glyph-name="colon" unicode=":" horiz-adv-x="221" 
d="M171 330q0 -25 -17.5 -42.5t-43.5 -17.5q-24 0 -41.5 17t-17.5 42q0 23 17.5 41t41.5 18t42.5 -17.5t18.5 -40.5zM171 51q0 -24 -17.5 -41.5t-43.5 -17.5q-24 0 -41.5 17.5t-17.5 40.5q0 25 17.5 42.5t41.5 17.5q26 0 43.5 -17t17.5 -42z" />
    <glyph glyph-name="semicolon" unicode=";" horiz-adv-x="221" 
d="M171 329q0 -24 -17.5 -41.5t-43.5 -17.5q-25 0 -42.5 17t-17.5 41q0 23 17.5 41t42.5 18q26 0 43.5 -17t17.5 -41zM114 -97q-3 -11 -9.5 -14.5t-14.5 -3.5h-29q-11 0 -14 8t-2 17l10 176q1 11 6.5 18t17.5 7h66q16 0 20 -8t0 -22z" />
    <glyph glyph-name="less" unicode="&#x3c;" horiz-adv-x="486" 
d="M452 16q0 -8 -6 -12.5t-14 0.5l-380 199q-20 11 -20 26v44q0 8 3 14.5t14 11.5l383 203q8 5 14 0.5t6 -11.5v-50q0 -6 -1 -13.5t-12 -12.5l-304 -154q-15 -8 0 -16l304 -154q11 -5 12 -12.5t1 -13.5v-49v0z" />
    <glyph glyph-name="equal" unicode="=" horiz-adv-x="486" 
d="M446 318q0 -22 -24 -22h-359q-24 0 -24 21v28q0 20 24 20h359q24 0 24 -20v-27zM446 143q0 -22 -24 -22h-359q-24 0 -24 21v28q0 20 24 20h359q24 0 24 -20v-27z" />
    <glyph glyph-name="greater" unicode="&#x3e;" horiz-adv-x="486" 
d="M33 65q0 6 1 13.5t12 12.5l304 154q15 8 0 16l-304 154q-11 5 -12 12.5t-1 13.5v50q0 7 6 11.5t14 -0.5l383 -203q11 -5 14 -11.5t3 -14.5v-44q0 -15 -20 -26l-380 -199q-8 -5 -14 -0.5t-6 12.5v49z" />
    <glyph glyph-name="question" unicode="?" horiz-adv-x="498" 
d="M437 464q0 -50 -29.5 -90.5t-72.5 -67.5q-38 -23 -61.5 -47.5t-23.5 -62.5v-19q0 -5 -4 -8.5t-9 -3.5h-66q-10 0 -13.5 3.5t-3.5 14.5v30q0 38 22 76t62 64q40 28 68.5 51.5t30.5 55.5q3 33 -20.5 59t-62.5 26q-34 0 -54.5 -14t-39.5 -40q-4 -5 -8.5 -7t-12.5 3l-47 31
q-7 5 -7.5 9.5t3.5 12.5q28 48 70 67.5t95 19.5q39 0 72.5 -10.5t58.5 -31.5t39 -51.5t14 -69.5zM200 108q25 0 42.5 -16.5t18.5 -41.5q0 -24 -17.5 -41.5t-43.5 -17.5q-25 0 -42.5 17.5t-17.5 40.5q0 25 17.5 42t42.5 17z" />
    <glyph glyph-name="at" unicode="@" horiz-adv-x="743" 
d="M555 184q13 0 27.5 6t27.5 22.5t21.5 44.5t8.5 73q0 54 -22.5 97t-57.5 72t-79 44.5t-86 15.5q-58 0 -107.5 -20.5t-86 -56.5t-57 -85t-20.5 -105q0 -57 19.5 -106.5t55.5 -85.5t86.5 -57t112.5 -21q82 0 161 32q8 2 14.5 3t10.5 -10l9 -26q4 -11 0.5 -16.5t-10.5 -8.5
q-41 -14 -86 -23t-94 -9q-77 0 -140.5 22.5t-108.5 65t-70 103t-25 137.5q0 69 25 128t69 102.5t105.5 68.5t133.5 25q67 0 124 -21t99 -58.5t66 -89.5t24 -113q0 -60 -14 -100t-36 -64t-49 -34.5t-53 -10.5q-61 0 -93 35q-2 3 -4 3t-5 -3q-17 -15 -40 -25t-46 -10
q-52 0 -87 30.5t-35 82.5q0 53 34 83t88 30q29 0 49 -13q5 -2 9 1t4 8v4q0 19 -13.5 32t-46.5 13q-19 0 -37.5 -5.5t-34.5 -11.5q-10 -4 -14 7l-11 34q-3 10 5 14q50 22 99 22q67 0 97 -34.5t30 -85.5v-93q0 -26 12 -42.5t42 -16.5zM368 294q-24 0 -39.5 -16t-15.5 -39
t15.5 -39t39.5 -16t39.5 16t15.5 39q0 18 -13 36.5t-42 18.5z" />
    <glyph glyph-name="A" unicode="A" horiz-adv-x="470" 
d="M451 19q2 -5 0.5 -12t-12.5 -7h-71q-14 0 -17 10l-28 115q-2 5 -3 7t-6 2h-162q-6 0 -7 -2.5t-3 -5.5l-27 -116q-3 -10 -16 -10h-66q-20 0 -15 18l147 586q3 13 18 13h100q7 0 11 -2t6 -10zM261 384l-26 120q-1 4 -3 4t-3 -3l-25 -118l-38 -163q-1 -5 0 -7t6 -2h121
q9 0 6 9z" />
    <glyph glyph-name="B" unicode="B" horiz-adv-x="496" 
d="M441 455q0 -16 -5 -33.5t-14 -33.5t-21.5 -30t-26.5 -23q-4 -4 1 -7q43 -20 64 -59.5t21 -82.5q0 -41 -12.5 -75.5t-36.5 -59t-58.5 -38t-77.5 -13.5h-203q-15 0 -15 14v589q0 14 15 14h190q83 0 131 -41.5t48 -120.5zM273 87q42 0 64.5 27.5t22.5 69.5q0 19 -5 37
t-16.5 32.5t-30 23.5t-45.5 9h-96q-11 0 -11 -12v-176q0 -11 11 -11h106zM261 370q40 0 60.5 24.5t20.5 58.5q0 36 -21.5 57t-61.5 21h-93q-10 0 -10 -10v-138q0 -13 10 -13h95z" />
    <glyph glyph-name="C" unicode="C" horiz-adv-x="451" 
d="M251 -6q-42 0 -77.5 12t-61 34.5t-39.5 54.5t-14 73v284q0 40 14 72t39 54.5t59.5 35t75.5 12.5q49 0 94 -16.5t83 -66.5q5 -6 4.5 -11.5t-8.5 -12.5l-46 -36q-6 -5 -13 -2.5t-11 8.5q-17 23 -44 36.5t-57 13.5q-45 0 -68.5 -25.5t-23.5 -63.5v-282q0 -37 25 -62t70 -25
q29 0 55 14.5t43 33.5q5 5 10.5 9.5t13.5 -1.5l50 -35q12 -7 5 -20q-32 -46 -78.5 -67t-99.5 -21z" />
    <glyph glyph-name="D" unicode="D" horiz-adv-x="510" 
d="M78 0q-16 0 -16 14v589q0 14 16 14h190q93 0 140 -48t47 -134v-248q0 -91 -47.5 -139t-137.5 -48h-192zM265 87q47 0 69 25t22 68v259q0 49 -26.5 70.5t-70.5 21.5h-85q-13 0 -13 -12v-419q0 -13 12 -13h92z" />
    <glyph glyph-name="E" unicode="E" horiz-adv-x="454" 
d="M408 87q14 0 14 -14v-58q0 -15 -14 -15h-332q-15 0 -15 14v589q0 14 15 14h327q6 0 10.5 -3t4.5 -11v-57q0 -15 -14 -15h-233q-12 0 -12 -10v-145q0 -13 12 -13h192q14 0 14 -15v-57q0 -14 -13 -14h-193q-12 0 -12 -12v-166q0 -12 13 -12h236z" />
    <glyph glyph-name="F" unicode="F" horiz-adv-x="421" 
d="M159 15q0 -15 -15 -15h-69q-15 0 -15 14v589q0 14 15 14h319q14 0 14 -13v-58q0 -15 -14 -15h-224q-12 0 -12 -10v-150q0 -11 11 -11h189q13 0 13 -15v-58q0 -14 -13 -14h-188q-11 0 -11 -13v-245z" />
    <glyph glyph-name="G" unicode="G" horiz-adv-x="496" 
d="M252 626q52 0 101.5 -19t77.5 -69q8 -12 -5 -22l-48 -36q-7 -4 -13 -1t-11 9q-20 28 -46 39t-53 11q-48 0 -73 -27t-25 -66v-277q0 -38 26.5 -62.5t70.5 -24.5q40 0 65 23t25 65v77q0 9 -8 9h-64q-15 0 -15 14v58q0 14 15 14h155q17 0 17 -14v-161q0 -39 -14 -71
t-39.5 -54.5t-60.5 -34.5t-77 -12t-77.5 11.5t-61.5 33.5t-40.5 54t-14.5 73v287q0 40 15 72t41 54.5t61 34.5t76 12z" />
    <glyph glyph-name="H" unicode="H" horiz-adv-x="538" 
d="M377 604q0 13 14 13h69q16 0 16 -12v-591q0 -14 -15 -14h-69q-15 0 -15 13v249q0 13 -13 13h-189q-8 0 -10.5 -3.5t-2.5 -9.5v-248q0 -14 -14 -14h-69q-16 0 -16 13v591q0 13 15 13h69q15 0 15 -12v-231q0 -13 11 -13h192q12 0 12 13v230z" />
    <glyph glyph-name="I" unicode="I" horiz-adv-x="249" 
d="M88 0q-15 0 -15 13v591q0 13 15 13h70q15 0 15 -13v-590q0 -14 -15 -14h-70z" />
    <glyph glyph-name="J" unicode="J" horiz-adv-x="289" 
d="M-7 -70q-2 8 -1 13t12 10q29 12 51 24.5t37 30.5t22.5 43.5t7.5 61.5v491q0 13 15 13h67q15 0 15 -13v-492q0 -47 -9 -86t-30.5 -70t-57.5 -54t-90 -37q-8 -2 -14 0.5t-8 13.5z" />
    <glyph glyph-name="K" unicode="K" horiz-adv-x="517" 
d="M472 13q0 -13 -12 -13h-69q-13 0 -14 12l-12 181q-1 16 -5 34t-14.5 33t-29 25t-48.5 10q-51 0 -78 -30t-27 -77v-175q0 -13 -12 -13h-75q-12 0 -12 12v592q0 13 14 13h73q12 0 12 -12v-228q0 -8 4 -7t7 4l190 234q5 5 9 7t12 2h77q9 0 11.5 -5t-2.5 -11l-180 -222
q-8 -11 5 -11q20 0 38 -3q59 -10 90.5 -53t33.5 -110z" />
    <glyph glyph-name="L" unicode="L" horiz-adv-x="439" 
d="M407 87q14 0 14 -14v-58q0 -15 -13 -15h-327q-15 0 -15 14v590q0 13 14 13h70q14 0 14 -12v-506q0 -6 1.5 -9t9.5 -3h232z" />
    <glyph glyph-name="M" unicode="M" horiz-adv-x="635" 
d="M584 15q0 -15 -15 -15h-65q-14 0 -14 13v353q0 2 -1.5 2.5t-2.5 -1.5l-42 -113l-85 -219q-2 -5 -7 -10.5t-14 -5.5h-43q-8 0 -13.5 2t-9.5 12l-82 214l-41 117q-1 1 -2.5 1.5t-1.5 -1.5v-350q0 -14 -14 -14h-65q-15 0 -15 14v583q0 20 20 20h50q13 0 18 -2.5t10 -13.5
q2 -4 11 -28t22 -58t28 -73.5t27.5 -73.5t21.5 -58t11 -28l44 -120q4 -8 9 -1q3 10 9 26.5t12.5 34.5t12.5 35t10 27l120 317q8 16 28 16h49q20 0 20 -19v-583v0z" />
    <glyph glyph-name="N" unicode="N" horiz-adv-x="534" 
d="M127 617q13 0 18.5 -4.5t10.5 -12.5l220 -397q1 -1 3 -1q1 0 1 1v400q0 14 14 14h64q15 0 15 -13v-584q0 -12 -6 -16t-14 -4h-44q-12 0 -18 3t-11 12l-221 395q0 2 -2 2l-1 -2v-397q0 -13 -15 -13h-64q-16 0 -16 13v580q0 12 4 18t18 6h44z" />
    <glyph glyph-name="O" unicode="O" horiz-adv-x="513" 
d="M454 171q0 -42 -15 -74.5t-41 -55.5t-62.5 -35t-78.5 -12t-78 11.5t-63 34t-42 55.5t-15 76v278q0 41 15 74t41.5 56t62.5 35t78 12q41 0 77 -12t63 -34.5t42.5 -55.5t15.5 -75v-278zM355 448q0 38 -26 64.5t-72 26.5q-47 0 -73.5 -26.5t-26.5 -64.5v-276q0 -39 25.5 -65
t73.5 -26q46 0 72.5 25.5t26.5 65.5v276z" />
    <glyph glyph-name="P" unicode="P" horiz-adv-x="472" 
d="M447 433q0 -38 -14 -71t-39.5 -57t-60 -38t-75.5 -14h-86q-10 0 -10 -11v-228q0 -14 -15 -14h-68q-16 0 -16 14v590q0 13 16 13h178q44 0 79.5 -14t60 -38.5t37.5 -58t13 -73.5zM349 434q0 18 -6 35.5t-17.5 31t-28.5 22t-40 8.5h-84q-12 0 -12 -11v-170q0 -12 11 -12h85
q42 0 67 26.5t25 69.5z" />
    <glyph glyph-name="Q" unicode="Q" horiz-adv-x="513" 
d="M454 171q0 -70 -40.5 -115.5t-106.5 -56.5q-9 -1 -9 -13q1 -41 39 -41q9 0 26.5 4t33.5 9q17 9 21 -6l15 -40q2 -7 1 -12t-10 -10q-23 -14 -50 -19t-47 -5q-60 0 -89.5 31.5t-29.5 90.5q0 6 -3 9t-6 4q-61 14 -100.5 57.5t-39.5 112.5v278q0 41 15 74t41.5 56t62.5 35
t78 12q41 0 77 -12t63 -34.5t42.5 -55.5t15.5 -75v-278zM355 448q0 38 -26 64.5t-72 26.5q-47 0 -73.5 -26.5t-26.5 -64.5v-276q0 -39 25.5 -65t73.5 -26q46 0 72.5 25.5t26.5 65.5v276z" />
    <glyph glyph-name="R" unicode="R" horiz-adv-x="498" 
d="M265 617q93 0 140.5 -47t47.5 -129q0 -26 -7.5 -51t-20.5 -47t-29 -41t-33 -34q-5 -5 -2 -11q0 -1 6 -13.5t18.5 -40t33.5 -72t52 -109.5q5 -11 0 -16.5t-13 -5.5h-64q-18 0 -24 5.5t-11 15.5l-97 216q-2 4 -4.5 6.5t-9.5 2.5h-77q-8 0 -8 -10v-222q0 -14 -16 -14h-68
q-15 0 -15 13v590q0 14 14 14h187zM282 331q10 0 18 6q26 19 39.5 47t13.5 49q0 19 -5 37t-16.5 31.5t-30 21.5t-46.5 8h-81q-12 0 -12 -11v-177q0 -12 11 -12h109z" />
    <glyph glyph-name="S" unicode="S" horiz-adv-x="470" 
d="M436 174q0 -42 -16 -75t-44.5 -56.5t-67 -35.5t-84.5 -12q-57 0 -108.5 19t-83.5 57q-7 7 -7 12.5t8 14.5l38 39q8 7 13.5 5t13.5 -10q25 -24 58.5 -37.5t65.5 -13.5q56 0 86 24t30 66q0 23 -10.5 39t-27.5 28t-39 21t-46 17q-29 10 -59.5 23.5t-55.5 33.5t-40.5 49
t-15.5 70q0 40 14.5 72.5t40 54.5t60 34t73.5 12q43 0 87 -10t84 -38q10 -7 8.5 -13t-6.5 -14l-25 -43q-5 -8 -12 -8t-15 4q-32 17 -60 26.5t-54 9.5q-20 0 -37.5 -4.5t-30.5 -15t-21 -27t-8 -41.5q0 -19 10.5 -33t26.5 -24.5t36 -18.5t38 -15q33 -12 65.5 -26t59 -34
t42.5 -50.5t16 -75.5z" />
    <glyph glyph-name="T" unicode="T" horiz-adv-x="429" 
d="M413 546q0 -15 -14 -15h-125q-12 0 -12 -10l-1 -507q0 -14 -14 -14h-69q-16 0 -16 13l1 507q0 5 -2 8t-10 3h-120q-15 0 -15 15v57q0 14 15 14h368q14 0 14 -13v-58v0z" />
    <glyph glyph-name="U" unicode="U" horiz-adv-x="514" 
d="M157 167q0 -37 27.5 -61.5t71.5 -24.5q46 0 73 25t27 63v435q0 13 15 13h69q15 0 15 -12v-438q0 -41 -16 -73t-43 -54.5t-63 -34t-76 -11.5q-41 0 -77 11.5t-63 33.5t-42.5 54.5t-15.5 73.5v437q0 13 14 13h70q14 0 14 -12v-438v0z" />
    <glyph glyph-name="V" unicode="V" horiz-adv-x="462" 
d="M291 12q-3 -12 -19 -12h-77q-15 0 -19 13l-165 585q-2 8 1 13.5t15 5.5h71q14 0 17 -10l80 -316l38 -160q1 -3 2.5 -3t2.5 3l37 160l78 316q3 10 16 10h68q15 0 16.5 -7t-0.5 -13z" />
    <glyph glyph-name="W" unicode="W" horiz-adv-x="693" 
d="M548 11q-3 -11 -17 -11h-77q-6 0 -10.5 2t-6.5 8l-34 162t-35 162l-20 101q0 1 -1 1q-2 0 -2 -1q-5 -25 -10 -51l-10 -52q-16 -81 -33.5 -161t-33.5 -161q-4 -10 -18 -10h-76q-7 0 -11 1.5t-6 7.5l-137 591q0 6 1.5 11.5t12.5 5.5h74q8 0 11 -4t4 -10q17 -78 32.5 -156
t32.5 -156l24 -129q2 -2 3 -2q3 0 3 2q5 31 11.5 63t11.5 62q17 81 33.5 160t33.5 160q1 4 4 7t13 3h65q13 0 16 -12l70 -318l25 -125q0 -3 2 -3q4 0 4 3l12 64t11 64l62 315q3 12 16 12h69q11 0 14 -5.5t1 -13.5z" />
    <glyph glyph-name="X" unicode="X" horiz-adv-x="466" 
d="M240 222q-4 8 -9 0l-103 -208q-5 -11 -11 -12.5t-16 -1.5h-69q-13 0 -15.5 6.5t1.5 14.5q37 70 75.5 143t76.5 143q6 11 6 16t-6 15l-138 262q-3 8 1 13t15 5h73q16 0 25 -15q23 -46 44 -91t43 -91q4 -4 6 -2.5t4 3.5l87 181q9 15 25 15h68q11 0 15.5 -6t-0.5 -15
l-139 -262q-7 -12 0 -26q38 -72 77.5 -145.5t77.5 -145.5q4 -8 0.5 -13t-14.5 -5h-70q-10 0 -15.5 2t-10.5 12z" />
    <glyph glyph-name="Y" unicode="Y" horiz-adv-x="450" 
d="M96 617q10 0 15.5 -2.5t9.5 -11.5l99 -258q6 -7 9 -1q25 64 50 129t48 128q5 9 9.5 12.5t18.5 3.5h64q14 0 15.5 -5.5t-1.5 -12.5l-154 -356q-3 -8 -4 -12.5t-1 -12.5v-203q0 -15 -15 -15h-69q-15 0 -15 14v206q0 12 -5 21l-154 357q-3 8 -1 13.5t13 5.5h68v0z" />
    <glyph glyph-name="Z" unicode="Z" horiz-adv-x="431" 
d="M402 14q0 -14 -14 -14h-332q-13 0 -18.5 6.5t-5.5 14.5v31q0 15 8 31q4 8 22 41t42 79t52 98.5t52 98t41.5 78.5t21.5 41q7 12 -7 12h-201q-14 0 -14 15v58q0 13 15 13h306q14 0 19 -4.5t5 -15.5v-32q0 -11 -4.5 -23t-8.5 -20l-223 -423q-9 -12 5 -12h225q5 0 9.5 -3
t4.5 -11v-59v0z" />
    <glyph glyph-name="bracketleft" unicode="[" horiz-adv-x="339" 
d="M276 -136q0 -12 -12 -12h-156q-12 0 -12 12v810q0 14 13 14h155q12 0 12 -13v-56q0 -12 -12 -12h-60q-14 0 -14 -15v-646q0 -15 14 -15h60q12 0 12 -12v-55v0z" />
    <glyph glyph-name="backslash" unicode="\" horiz-adv-x="311" 
d="M305 -48q2 -8 0 -13t-11 -5h-35q-16 0 -21 14l-233 711q-5 16 11 16h32q20 0 25 -14l232 -709v0z" />
    <glyph glyph-name="bracketright" unicode="]" horiz-adv-x="332" 
d="M230 -136q0 -12 -12 -12h-156q-12 0 -12 12v55q0 12 12 12h60q14 0 14 15v646q0 14 -14 14h-60q-12 0 -12 13v55q0 14 12 14h155q13 0 13 -13v-811v0z" />
    <glyph glyph-name="asciicircum" unicode="^" horiz-adv-x="558" 
d="M472 416q12 -15 -5 -29l-23 -16q-6 -5 -13.5 -1t-15.5 12l-133 141q-5 7 -11 5q-3 0 -8 -7l-123 -144q-8 -8 -15 -11t-15 2l-27 17q-16 10 -2 27l151 203q5 5 9.5 8.5t15.5 3.5h43q10 0 14.5 -2.5t10.5 -10.5l147 -198v0z" />
    <glyph glyph-name="underscore" unicode="_" horiz-adv-x="500" 
d="M505 -143q0 -12 -12 -12h-486q-13 0 -13 11v47q0 11 13 11h485q13 0 13 -11v-46v0z" />
    <glyph glyph-name="grave" unicode="`" horiz-adv-x="402" 
d="M278 521q8 -11 -4 -19l-24 -15q-6 -4 -12.5 -3t-10.5 6l-107 119q-4 5 -5.5 11.5t8.5 12.5l52 31q6 4 12 1t10 -9l81 -135v0z" />
    <glyph glyph-name="a" unicode="a" horiz-adv-x="450" 
d="M394 12q0 -12 -11 -12h-66q-11 0 -11 10v14q0 7 -4 8t-9 -4q-15 -12 -41.5 -22.5t-57.5 -10.5q-74 0 -114 40t-40 113q0 70 42.5 112t120.5 42q18 0 40.5 -5t41.5 -16q15 -10 15 6v14q0 31 -19 50.5t-63 19.5q-10 0 -24 -2t-29 -5t-29 -7t-24 -9q-13 -6 -18 8l-18 45
q-3 12 7 17q31 14 70 22.5t77 8.5q90 0 127 -44t37 -119v-274zM292 151q0 33 -20.5 57t-59.5 24q-41 0 -62.5 -23.5t-21.5 -57.5q0 -35 19.5 -58t61.5 -23q41 0 62 25t21 56z" />
    <glyph glyph-name="b" unicode="b" horiz-adv-x="460" 
d="M417 163q0 -35 -11 -66t-32 -53.5t-51 -35.5t-68 -13q-32 0 -58.5 8.5t-41.5 27.5q-5 5 -8.5 4.5t-3.5 -9.5v-14q0 -5 -2 -8.5t-9 -3.5h-65q-13 0 -13 12v612q0 13 13 13h69q12 0 12 -12v-203q0 -11 5 -11t13 6q17 13 39.5 21.5t55.5 8.5q42 0 71.5 -13.5t48.5 -37
t27.5 -54t8.5 -64.5v-115zM323 278q0 36 -20.5 62t-66.5 26q-38 0 -63 -26t-25 -62v-115q0 -36 22.5 -61.5t64.5 -25.5t64.5 22.5t22.5 64.5z" />
    <glyph glyph-name="c" unicode="c" horiz-adv-x="412" 
d="M388 80q-30 -45 -70.5 -65.5t-91.5 -20.5q-83 0 -133 45t-50 123v114q0 40 14 71.5t39 54t59 34.5t73 12q48 0 88 -20.5t69 -62.5q3 -5 2.5 -12t-7.5 -12l-45 -32q-11 -8 -16.5 -3.5t-10.5 12.5q-15 23 -40 35.5t-42 12.5q-38 0 -63 -24t-25 -61v-121q0 -36 25 -59.5
t62 -23.5q18 0 32.5 5t25 12.5t18 16.5t12.5 16q6 8 11 9t14 -5l41 -27q18 -12 9 -24z" />
    <glyph glyph-name="d" unicode="d" horiz-adv-x="460" 
d="M408 12q0 -12 -13 -12h-64q-8 0 -9.5 3.5t-2.5 8.5v9q-1 16 -11 6q-19 -18 -44 -25.5t-57 -7.5q-42 0 -72.5 13t-50.5 36t-29.5 53.5t-9.5 66.5v115q0 34 11 64.5t32 54t51.5 37t69.5 13.5q34 0 54.5 -8.5t32.5 -17.5q8 -6 12.5 -6t4.5 11v199q0 12 13 12h69q13 0 13 -13
v-612zM314 278q0 36 -21.5 62t-66.5 26q-40 0 -63.5 -26t-23.5 -62v-115q0 -38 22 -62.5t66 -24.5q37 0 61.5 25.5t24.5 61.5z" />
    <glyph glyph-name="e" unicode="e" horiz-adv-x="448" 
d="M408 227q0 -11 -7 -18.5t-16 -7.5h-226q-9 0 -14 -5.5t-5 -12.5v-17q0 -36 24 -62.5t63 -26.5q30 0 51.5 14.5t37.5 34.5q5 6 9.5 7.5t12.5 -3.5l44 -28q8 -5 11 -9.5t-1 -11.5q-25 -46 -68.5 -66.5t-94.5 -20.5q-41 0 -75 12t-58 33.5t-37 52.5t-13 69v113q0 39 13.5 71
t37.5 55t57 36t73 13t73.5 -12.5t57.5 -35t37 -55t13 -71.5v-48zM313 284q-2 38 -24 60.5t-61 22.5q-42 0 -61 -25t-22 -62q-1 -5 1.5 -8t11.5 -3h144q11 0 11 15z" />
    <glyph glyph-name="f" unicode="f" horiz-adv-x="292" 
d="M285 561q-3 -15 -23 -9q-8 2 -20 4t-21 2q-27 0 -38 -16t-11 -40v-51q0 -10 12 -10h78q13 0 13 -12v-53q0 -13 -12 -13h-78q-13 0 -13 -12v-339q0 -12 -13 -12h-68q-7 0 -9.5 3.5t-2.5 8.5v338q0 13 -12 13h-39q-12 0 -12 13v53q0 12 13 12h38q12 0 12 11v62
q0 27 8.5 50.5t25 41t40.5 28t55 10.5q22 0 41.5 -2.5t30.5 -6.5q8 -3 12.5 -6.5t2.5 -14.5z" />
    <glyph glyph-name="g" unicode="g" horiz-adv-x="454" 
d="M446 374q0 -8 -2.5 -10.5t-12.5 -1.5q-13 2 -25.5 1t-18.5 -3q-4 -2 -8.5 -3.5t-1.5 -7.5q15 -29 15 -62q0 -36 -14.5 -65.5t-39.5 -51.5t-59 -34t-72 -12q-7 0 -13 -0.5t-10 -0.5q-23 -3 -40 -21t-21 -38q-2 -8 7 -7q13 3 28 5t29 3.5t26 2.5t20 1q37 0 73.5 -7
t65.5 -23.5t47 -43t18 -65.5q0 -22 -8 -41.5t-21 -36t-31 -29.5t-37 -22q-8 -4 -15 -4t-11 7l-26 42q-7 12 8 21q6 4 14 10.5t15 15t12 17t5 17.5q0 34 -30.5 47t-76.5 13q-32 0 -75 -5t-80 -10q-13 -2 -18.5 1t-9.5 9q-20 28 -20 71q0 26 18 51.5t46 39.5q10 5 0 14
q-29 21 -47 54t-18 75q0 34 14.5 63t39 51t56.5 34.5t66 12.5q32 0 62 -9.5t55 -26.5q6 -5 13 0q26 17 48 25.5t46 8.5q9 0 12 -4t3 -12v-56zM296 282q0 33 -23 57.5t-60 24.5q-41 0 -65 -24.5t-24 -57.5q0 -32 22 -56.5t61 -24.5q43 0 66 24t23 57z" />
    <glyph glyph-name="h" unicode="h" horiz-adv-x="473" 
d="M420 13q0 -13 -13 -13h-70q-13 0 -13 12v265q0 38 -21 63t-65 25q-39 0 -62.5 -25t-23.5 -63v-27v-18.5v-22v-36t-0.5 -61.5t-0.5 -99q0 -13 -12 -13h-70q-13 0 -13 12v78t0.5 56.5t0.5 46v46v55.5t-0.5 75.5t-0.5 106.5v148q0 13 12 13h70q12 0 12 -13v-200q0 -7 5 -9
t11 3q20 14 44.5 21.5t48.5 7.5q79 0 119.5 -47t40.5 -122l1 -265v0z" />
    <glyph glyph-name="i" unicode="i" horiz-adv-x="213" 
d="M166 570q0 -23 -17.5 -39.5t-40.5 -16.5q-24 0 -41 16t-17 40q0 23 17 39.5t40 16.5q24 0 41.5 -16.5t17.5 -39.5zM154 12q0 -3 -1 -6q-2 -6 -11 -6h-70q-13 0 -13 12v416q0 13 12 13h70q13 0 13 -13v-416z" />
    <glyph glyph-name="j" unicode="j" horiz-adv-x="225" 
d="M175 570q0 -23 -17 -40t-41 -17t-40.5 16.5t-16.5 40.5q0 23 16.5 39.5t39.5 16.5q25 0 42 -16.5t17 -39.5zM164 -54q0 -27 -6.5 -50.5t-21.5 -41.5t-38.5 -28.5t-57.5 -10.5q-20 0 -33.5 2t-22.5 4q-7 2 -12 5.5t-3 14.5l10 53q3 14 22 10q6 -1 13.5 -1.5t12.5 -0.5
q24 1 33.5 14.5t9.5 40.5v472q0 12 13 12h69q7 0 9.5 -3.5t2.5 -8.5v-483z" />
    <glyph glyph-name="k" unicode="k" horiz-adv-x="452" 
d="M424 18q0 -18 -15 -18h-65q-9 0 -12 3.5t-4 11.5l-5 91q-1 19 -5.5 36t-14 29.5t-25.5 20t-40 7.5q-46 0 -66.5 -27.5t-20.5 -64.5v-95q0 -12 -12 -12h-71q-12 0 -12 12v612q0 13 12 13h70q12 0 12 -12v-335q0 -12 7 -12q3 0 7 4l136 151q5 5 8.5 6t11.5 1h86
q9 0 10.5 -5.5t-2.5 -9.5l-129 -142q-3 -3 -3 -6q0 -4 6 -5q39 -4 64 -18.5t39.5 -37t20.5 -51t8 -60.5z" />
    <glyph glyph-name="l" unicode="l" horiz-adv-x="236" 
d="M62 627q0 10 9 10h76q10 0 10 -9v-495q0 -32 9 -42t33 -10h12q8 0 9.5 -6t1.5 -11v-54q0 -9 -3.5 -12t-10.5 -4q-8 -2 -17 -2h-14q-34 0 -56 8.5t-35 25t-18.5 42t-5.5 59.5v500v0z" />
    <glyph glyph-name="m" unicode="m" horiz-adv-x="713" 
d="M661 13q0 -13 -12 -13h-70q-12 0 -12 12v267q0 17 -4.5 33t-14.5 28t-25.5 19t-37.5 7q-17 0 -31.5 -7.5t-25.5 -19.5t-17.5 -27.5t-6.5 -32.5v-266q0 -13 -12 -13h-69q-13 0 -13 12v267q0 17 -6 33t-16.5 28t-25 19t-32.5 7q-38 0 -59.5 -26t-21.5 -61v-266
q0 -13 -13 -13h-70q-13 0 -13 12v267q0 36 12.5 67t35.5 53.5t55 35.5t71 13q38 0 70.5 -15.5t53.5 -39.5q7 -7 13 -1q20 23 54.5 39.5t74.5 16.5q39 0 70 -12.5t53 -35t33.5 -53.5t11.5 -68v-266v0z" />
    <glyph glyph-name="n" unicode="n" horiz-adv-x="471" 
d="M418 13q0 -13 -12 -13h-70q-13 0 -13 12v265q0 38 -21 63t-66 25q-39 0 -62.5 -24.5t-23.5 -62.5v-265q0 -13 -13 -13h-69q-14 0 -14 12v416q0 13 13 13h69q11 0 11 -12v-20q0 -8 4 -7.5t9 5.5q18 19 50 29.5t59 10.5q77 0 113 -46.5t36 -121.5v-266v0z" />
    <glyph glyph-name="o" unicode="o" horiz-adv-x="458" 
d="M410 164q0 -82 -48 -126t-133 -44t-133.5 44t-48.5 124v117q0 38 13 69.5t37 54t57.5 34.5t73.5 12q84 0 133 -44t49 -125v-116zM142 164q0 -38 21 -63t65 -25q41 0 64 24t23 64v114q0 39 -22 63.5t-64 24.5t-64.5 -24.5t-22.5 -63.5v-114z" />
    <glyph glyph-name="p" unicode="p" horiz-adv-x="462" 
d="M418 162q0 -34 -10.5 -64.5t-31.5 -54t-51.5 -37t-69.5 -13.5q-33 0 -55 8.5t-33 17.5q-8 6 -13 6t-5 -11v-182q0 -12 -12 -12h-69q-13 0 -13 13v595q0 12 13 12h67q8 0 9 -3.5t1 -8.5v-9q0 -8 4 -9.5t9 3.5q26 20 50.5 26.5t51.5 6.5q41 0 70.5 -13t49 -36t29 -53.5
t9.5 -66.5v-115zM323 277q0 38 -22.5 62.5t-64.5 24.5q-38 0 -62.5 -25.5t-24.5 -61.5v-115q0 -36 24.5 -62t63.5 -26t62.5 26t23.5 62v115z" />
    <glyph glyph-name="q" unicode="q" horiz-adv-x="462" 
d="M412 -167q0 -13 -13 -13h-69q-12 0 -12 12v182q0 11 -5 11t-13 -6q-11 -9 -37 -17.5t-59 -8.5q-40 0 -69.5 13.5t-48.5 37t-28 54t-9 64.5v115q0 35 10.5 66t31.5 54t51.5 36t71.5 13q24 0 48 -6.5t47 -26.5q5 -5 9 -3.5t4 8.5v10q0 5 1 8.5t9 3.5h67q13 0 13 -12v-595z
M318 277q0 36 -22.5 61.5t-64.5 25.5q-37 0 -62 -24.5t-25 -62.5v-115q0 -36 21 -62t65 -26q39 0 63.5 26t24.5 62v115z" />
    <glyph glyph-name="r" unicode="r" horiz-adv-x="305" 
d="M294 361q-2 -10 -6 -11.5t-10 -0.5q-8 2 -16 3t-15 1q-27 0 -45 -8.5t-29 -23t-15.5 -34.5t-4.5 -44v-230q0 -13 -13 -13h-69q-14 0 -14 12v416q0 13 13 13h60q13 0 13 -12v-39q0 -5 3.5 -6.5t7.5 3.5q17 23 46 42t67 19q7 0 16.5 -1t14.5 -3q9 -2 11 -6.5t0 -11.5z" />
    <glyph glyph-name="s" unicode="s" horiz-adv-x="402" 
d="M366 124q0 -58 -45 -93.5t-119 -35.5q-53 0 -99 22t-69 72q-2 6 -2 8q0 6 6 9l52 26q8 4 11 2t8 -8q17 -26 42 -40t56 -14q28 0 47 13t19 36q0 21 -14 32t-40 21l-64 22q-23 8 -43 18.5t-35 25t-23.5 33.5t-8.5 45q0 32 13 56t34.5 40t49.5 24.5t59 8.5q39 0 79.5 -12.5
t71.5 -43.5q9 -9 0 -18l-33 -43q-5 -5 -9 -5q-6 0 -12 5q-20 15 -46.5 26t-48.5 11q-12 0 -23.5 -2.5t-21 -8t-15.5 -13.5t-6 -20q0 -32 54 -51q29 -10 60 -20.5t56.5 -26.5t42 -40t16.5 -61z" />
    <glyph glyph-name="t" unicode="t" horiz-adv-x="315" 
d="M306 26q2 -11 -2 -14.5t-12 -6.5q-17 -6 -41.5 -8.5t-45.5 -2.5q-36 0 -60 9.5t-38.5 26.5t-20.5 39.5t-6 49.5v233q0 11 -12 11h-38q-14 0 -14 12v53q0 13 12 13h39q13 0 13 13v80q0 5 2.5 9t9.5 6l65 15q9 2 12.5 -2t3.5 -9v-100q0 -12 13 -12h85q13 0 13 -12v-54
q0 -12 -13 -12h-86q-12 0 -12 -11v-215q0 -26 10 -41t37 -15q8 0 25 2t27 4q14 3 18.5 -1t6.5 -12l9 -48v0z" />
    <glyph glyph-name="u" unicode="u" horiz-adv-x="466" 
d="M411 13q0 -13 -12 -13h-69q-11 0 -11 12v13q0 8 -4 7.5t-9 -5.5q-20 -17 -46 -25t-54 -8q-77 0 -117.5 46.5t-40.5 121.5v266q0 13 12 13h70q13 0 13 -12v-265q0 -38 20.5 -63t65.5 -25q40 0 63.5 24.5t23.5 62.5v265q0 13 13 13h69q13 0 13 -12v-416v0z" />
    <glyph glyph-name="v" unicode="v" horiz-adv-x="418" 
d="M260 13q-4 -13 -21 -13h-59q-11 0 -15 2.5t-7 11.5l-144 409q-3 8 -0.5 13t11.5 5h64q20 0 24 -16l59 -188l33 -117q2 -5 4.5 -5t4.5 4l31 113l59 190q2 5 6.5 12t16.5 7h66q9 0 11.5 -5.5t0.5 -11.5z" />
    <glyph glyph-name="w" unicode="w" horiz-adv-x="630" 
d="M501 16q-3 -10 -8 -13t-12 -3h-55q-10 0 -14.5 2t-7.5 12l-57 181l-32 118q-4 8 -7 0l-33 -125l-54 -174q-3 -11 -8 -12.5t-13 -1.5h-55q-9 0 -14 2.5t-8 12.5l-112 409q-3 8 0 13t11 5h69q18 0 22 -17l34 -152l28 -132q1 -4 4 -4t4 4l36 129l47 152q2 9 6.5 14.5
t14.5 5.5h53q7 0 12 -3t9 -15l55 -177l29 -106q1 -3 4 -3.5t4 3.5l21 102l39 181q2 8 7 13t16 5h67q9 0 11.5 -5.5t0.5 -12.5z" />
    <glyph glyph-name="x" unicode="x" horiz-adv-x="396" 
d="M389 18q5 -8 2 -13t-13 -5h-66q-11 0 -17.5 4.5t-13.5 16.5l-74 127q-8 12 -16 -2l-76 -132q-6 -10 -12.5 -12t-14.5 -2h-65q-11 0 -13 6t2 12l124 195q7 10 7 17q0 6 -6 15l-112 176q-6 10 -2 14.5t12 4.5h66q11 0 15.5 -1.5t10.5 -11.5l68 -117q4 -7 6.5 -6t6.5 8
l66 115q6 10 10.5 11.5t15.5 1.5h66q11 0 13.5 -5.5t-2.5 -13.5l-113 -176q-6 -11 -6 -16q0 -6 5 -14z" />
    <glyph glyph-name="y" unicode="y" horiz-adv-x="428" 
d="M220 -162q-2 -8 -9 -14.5t-21 -6.5h-50q-11 0 -15.5 6.5t0.5 20.5l45 140q2 7 2 11.5t-9 4.5h-10q-19 0 -25 20l-112 404q-7 19 13 19h66q11 0 16 -4.5t7 -11.5l44 -180l34 -149q2 -8 6.5 -8.5t7.5 8.5l50 160l52 166q3 7 7.5 13t17.5 6h59q22 0 15 -22z" />
    <glyph glyph-name="z" unicode="z" horiz-adv-x="415" 
d="M381 13q0 -13 -12 -13h-313q-12 0 -17 5.5t-5 13.5v28q0 7 2 15t7 15l188 269q4 5 2.5 9.5t-9.5 4.5h-167q-13 0 -13 12v56q0 13 12 13h285q14 0 19 -5t5 -15v-33q0 -8 -2 -16.5t-6 -14.5l-183 -261q-8 -15 8 -15h186q13 0 13 -12v-56v0z" />
    <glyph glyph-name="braceleft" unicode="{" horiz-adv-x="351" 
d="M313 -142q0 -11 -10 -11h-15q-81 0 -119 34.5t-38 114.5l-1 138q0 37 -18.5 60t-47.5 34q-14 5 -19.5 9.5t-5.5 12.5v43q0 11 6 15t17 9q30 14 49 36t19 59v124q0 80 38.5 114.5t119.5 34.5h15q10 0 10 -11v-55q0 -13 -13 -13h-10q-20 0 -33 -3.5t-20.5 -11t-10 -21
t-2.5 -32.5v-148q0 -35 -18.5 -64t-48.5 -47q-11 -8 0 -13q33 -17 50 -53t17 -68v-150q0 -20 2.5 -33t10 -21t20.5 -11t33 -3h10q13 0 13 -14v-55v0z" />
    <glyph glyph-name="bar" unicode="|" horiz-adv-x="231" 
d="M149 -102q0 -13 -12 -13h-43q-14 0 -14 12v767q0 12 13 12h43q13 0 13 -11v-767z" />
    <glyph glyph-name="braceright" unicode="}" horiz-adv-x="351" 
d="M309 250q0 -8 -5.5 -12.5t-19.5 -9.5q-29 -11 -47.5 -34t-18.5 -60l-1 -138q0 -80 -38.5 -114.5t-119.5 -34.5h-15q-10 0 -10 11v55q0 14 13 14h10q41 0 54 14t13 54v150q0 32 17 68t50 53q11 5 0 13q-30 18 -48.5 47t-18.5 64v148q0 39 -13 53.5t-54 14.5h-10
q-13 0 -13 13v55q0 11 10 11h15q81 0 120 -34.5t39 -114.5v-124q0 -37 18.5 -59t49.5 -36q11 -5 17 -9t6 -15v-43v0z" />
    <glyph glyph-name="asciitilde" unicode="~" horiz-adv-x="486" 
d="M470 301q-22 -34 -54.5 -54t-70.5 -20q-29 0 -56.5 9.5t-53.5 21.5t-49 21.5t-43 9.5q-18 0 -32.5 -8t-32.5 -31q-11 -11 -22 -2l-40 33q-9 7 -2 19q9 17 23 31t31.5 24t36.5 15.5t38 5.5q27 0 52.5 -9t50 -20.5t48.5 -21t48 -9.5q21 -1 35 12t25 24q14 15 28 3l33 -26
q17 -14 7 -28z" />
    <glyph glyph-name="exclamdown" unicode="&#xa1;" horiz-adv-x="270" 
d="M110 255q0 3 2 6.5t7 3.5h44q5 0 7.5 -3.5t2.5 -5.5l20 -429q0 -12 -12 -12h-76q-12 0 -12 11zM144 324q-26 0 -44 16.5t-18 41.5q0 24 17.5 41.5t43.5 17.5q25 0 43 -17.5t18 -40.5q0 -25 -18 -42t-42 -17z" />
    <glyph glyph-name="cent" unicode="&#xa2;" horiz-adv-x="486" 
d="M255 366q-38 0 -63 -24t-25 -61v-121q0 -36 25 -59.5t62 -23.5q18 0 32.5 5t25 12.5t18 16.5t12.5 16q6 8 11 9t14 -5l41 -27q18 -12 9 -24q-45 -66 -115 -81q-11 -2 -13 -6.5t-2 -9.5v-43q0 -12 -12 -12h-37q-12 0 -12 11v44q0 11 -6 12.5l-10 2.5q-64 12 -101 55
t-37 109v114q0 68 38.5 111.5t100.5 56.5q4 1 9.5 3t5.5 10v47q0 11 12 11h37q12 0 12 -11v-44q0 -12 4.5 -13.5t11.5 -3.5q33 -7 61 -27t50 -51q3 -5 2.5 -12t-7.5 -12l-45 -32q-11 -8 -16.5 -3.5t-10.5 12.5q-15 23 -40 35.5t-42 12.5z" />
    <glyph glyph-name="sterling" unicode="&#xa3;" horiz-adv-x="486" 
d="M449 537q2 -5 1.5 -10.5t-7.5 -9.5l-50 -30q-8 -5 -13 -3.5t-10 8.5q-14 25 -36 38.5t-52 13.5q-44 0 -67.5 -24t-23.5 -62v-92q0 -14 13 -14h11h10.5h25t55.5 -1q13 0 13 -11v-55q0 -13 -12 -13q-38 0 -55.5 0.5t-25 0.5h-10.5h-11q-14 0 -14 -14v-53q0 -35 -3 -64.5
t-17 -49.5q-2 -4 -1.5 -7t6.5 -2h235q13 0 13 -12v-58q0 -14 -12 -14q-36 0 -57 0.5t-37.5 0.5h-34h-46h-73.5h-117q-13 0 -13 12v55q0 11 14 16q17 5 26.5 14.5t14 21.5t5.5 25t1 24v90q0 7 -2 10t-10 4h-35q-12 0 -12 12v55q0 12 12 12h35q12 0 12 14v81q0 39 13 72
t37.5 57t59 37.5t77.5 13.5q52 0 96.5 -19.5t70.5 -69.5z" />
    <glyph glyph-name="currency" unicode="&#xa4;" horiz-adv-x="492" 
d="M93 434q10 10 20 1l43 -47q20 14 42.5 20t45.5 6t45.5 -6.5t42.5 -19.5l49 47q4 5 11 6t12 -6l31 -31q12 -12 1 -22l-48 -46q27 -39 27 -91q0 -23 -6 -46.5t-20 -44.5l45 -43q5 -5 6 -10t-5 -11l-34 -33q-9 -9 -20 0q-12 11 -23.5 22t-23.5 22q-20 -12 -43.5 -19.5
t-44.5 -7.5q-50 0 -90 30l-48 -48h1q-9 -13 -21 -1l-34 33q-5 4 -5 9.5t5 10.5l48 51q-12 20 -19 43.5t-7 44.5q0 47 26 87q-10 11 -21 23.5t-22 23.5q-5 6 -6 9.5t7 11.5zM152 245q0 -39 27.5 -66.5t66.5 -27.5t66 27.5t27 66.5t-27 66.5t-66 27.5q-20 0 -37 -7.5
t-29.5 -20t-20 -30t-7.5 -36.5z" />
    <glyph glyph-name="yen" unicode="&#xa5;" horiz-adv-x="486" 
d="M433 258q5 0 8.5 -3.5t3.5 -8.5v-40q0 -6 -3.5 -9t-8.5 -3h-132q-8 0 -10 -4.5t-2 -11.5v-166q0 -12 -13 -12h-69q-13 0 -13 12v165q0 6 -2 11t-13 5h-120q-13 0 -13 13v40q0 12 13 12h374zM59 303q-13 0 -13 12v40q0 12 13 12h64q5 0 6.5 4.5t-0.5 8.5l-95 218
q-3 7 -1.5 13t12.5 6h69q10 0 14 -2t9 -12l99 -246q3 -7 7 -8t7 7l99 245q4 9 9 12.5t16 3.5h64q11 0 12.5 -5.5t-1.5 -12.5l-96 -221q-2 -4 -1.5 -7.5t7.5 -3.5h74q12 0 12 -12v-39q0 -13 -12 -13h-374z" />
    <glyph glyph-name="brokenbar" unicode="&#xa6;" horiz-adv-x="227" 
d="M149 310q-2 -9 -9 -9h-48q-10 0 -10 9v357q0 9 10 9h47q10 0 10 -8v-358zM149 -106q-2 -9 -9 -9h-48q-10 0 -10 9l1 354q0 9 10 9h47q10 0 10 -8z" />
    <glyph glyph-name="section" unicode="&#xa7;" horiz-adv-x="461" 
d="M243 587q-32 0 -53.5 -11t-21.5 -31q0 -25 17.5 -39t62.5 -30q32 -11 60.5 -23.5t50 -28t34 -36.5t12.5 -49q0 -83 -78 -117q-6 -2 -10 -2q-10 0 -12 6l-22 45q-1 1 -1 4q0 10 11 14q12 7 18 16t6 24t-7.5 25.5t-21 19t-31 15t-36.5 13.5q-31 11 -57 22.5t-45 27
t-30 35.5t-11 48q0 56 44.5 91t121.5 35q39 0 82 -16t71 -52q3 -3 3 -7q0 -6 -8 -14l-32 -31q-6 -6 -12 -6q-7 0 -15 10q-17 19 -42 30.5t-48 11.5zM236 -71q-49 0 -96.5 18t-74.5 53q-3 3 -3 7t2.5 7.5t5.5 6.5l35 31q7 5 12 5q7 0 15 -9q17 -20 47 -33t60 -13q15 0 30.5 3
t28 9t20 15.5t7.5 23.5q0 22 -21.5 36.5t-57.5 26.5q-31 10 -61 23t-53.5 30.5t-38 39.5t-14.5 51q0 37 21.5 64.5t59.5 45.5q3 2 5.5 3t5.5 1q8 0 14 -10l19 -37q2 -6 2 -9q0 -9 -10 -13q-11 -7 -20.5 -17.5t-9.5 -21.5q0 -20 20 -34.5t63 -29.5q33 -12 63.5 -24.5
t53.5 -29.5t37 -39.5t14 -52.5q0 -31 -14 -55t-39 -40t-58 -24t-70 -8z" />
    <glyph glyph-name="dieresis" unicode="&#xa8;" horiz-adv-x="463" 
d="M364 550q0 -23 -15 -38t-38 -15t-38.5 15t-15.5 38q0 22 15 37.5t38 15.5t38.5 -15.5t15.5 -37.5zM195 550q0 -23 -15 -38t-38 -15t-38.5 15t-15.5 38q0 22 15.5 37.5t37.5 15.5q23 0 38.5 -15.5t15.5 -37.5z" />
    <glyph glyph-name="copyright" unicode="&#xa9;" horiz-adv-x="707" 
d="M652 240q0 -58 -22 -102.5t-62 -75t-94.5 -46.5t-118.5 -16q-65 0 -119 16.5t-93 48t-60.5 75.5t-21.5 100v136q0 55 21.5 100t60.5 76t93 48t119 17q64 0 118.5 -16t94.5 -47t62 -75.5t22 -102.5v-136zM601 379q0 40 -16 75.5t-47 61.5t-77 41t-107 15t-106.5 -15.5
t-75.5 -42t-45 -61.5t-15 -74v-141q0 -38 15 -73t45 -61.5t75.5 -42.5t106.5 -16t107 15.5t77 42t47 61.5t16 74v141zM468 182q-20 -30 -48 -43t-60 -13q-53 0 -86 28.5t-33 81.5v132q0 51 33.5 80.5t86.5 29.5q35 0 62.5 -13.5t42.5 -41.5q4 -9 -4 -13l-30 -21q-9 -6 -14 4
q-20 33 -57 33q-26 0 -43 -16t-17 -42v-132q0 -25 16.5 -41t42.5 -16q19 0 33 8.5t24 22.5q3 4 6.5 6t9.5 -2l33 -21q3 -2 3.5 -5.5t-1.5 -5.5z" />
    <glyph glyph-name="ordfeminine" unicode="&#xaa;" horiz-adv-x="304" 
d="M271 257q0 -8 -2 -11t-10 -3h-45q-12 0 -12 11v5q0 6 -6 2q-12 -10 -30 -15.5t-34 -5.5q-52 0 -80 26t-28 74q0 46 31.5 73.5t83.5 27.5q11 0 25 -3t25 -12q2 -2 4.5 -2.5t2.5 4.5v5q0 18 -10.5 28t-38.5 10q-14 0 -36 -4t-37 -10q-10 -4 -14 7l-10 30q-4 10 8 17
q20 11 45.5 15.5t50.5 4.5q63 0 90 -28.5t27 -77.5v-168zM191 342q0 18 -13.5 30t-33.5 12t-33 -12t-13 -30t13 -31t33 -13q23 0 35 13t12 31z" />
    <glyph glyph-name="guillemotleft" unicode="&#xab;" horiz-adv-x="513" 
d="M348 212q-6 -8 -5.5 -11.5t4.5 -8.5l121 -148q7 -8 3 -16t-13 -8h-56q-12 0 -19 4.5t-17 15.5l-113 139q-11 14 -10 24t9 21l116 144q6 7 12.5 11.5t20.5 4.5h57q12 0 15.5 -6.5t-3.5 -14.5zM159 212q-6 -8 -5.5 -11.5t4.5 -8.5l121 -148q7 -8 3 -16t-13 -8h-56
q-12 0 -19 4.5t-17 15.5l-113 139q-11 14 -10 24t10 21l115 144q6 7 12.5 11.5t20.5 4.5h57q12 0 15.5 -6.5t-3.5 -14.5z" />
    <glyph glyph-name="logicalnot" unicode="&#xac;" horiz-adv-x="486" 
d="M446 84q0 -13 -11 -13h-43q-12 0 -12 12v139q0 4 -1.5 8t-8.5 4h-314q-7 0 -12 4.5t-5 10.5v41q0 6 5 9.5t11 3.5h376q5 0 10 -4.5t5 -9.5v-205z" />
    <glyph glyph-name="sfthyphen" unicode="&#xad;" horiz-adv-x="332" 
d="M276 210q0 -12 -12 -12h-202q-13 0 -13 12v51q0 12 12 12h202q13 0 13 -11v-52v0z" />
    <glyph glyph-name="registered" unicode="&#xae;" horiz-adv-x="409" 
d="M366 439q0 -32 -12.5 -56.5t-34 -41.5t-51.5 -25.5t-65 -8.5q-71 0 -116 35t-45 97v73q0 62 45 97.5t116 35.5q35 0 65 -9t51.5 -26t34 -41.5t12.5 -56.5v-73zM332 514q0 42 -32.5 71t-96.5 29q-65 0 -96 -30t-31 -70v-76q0 -40 31 -70t96 -30q64 0 96.5 29.5t32.5 70.5
v76zM273 395q1 -3 0.5 -8t-7.5 -5h-19q-4 1 -6.5 2t-4.5 6l-27 63q-1 5 -6 5h-18v-67q0 -9 -7 -9h-21q-8 0 -8 8v171q0 8 8 8h55q30 0 45 -15.5t15 -37.5q0 -14 -7 -26.5t-20 -20.5q-5 -2 -2 -8zM236 514q0 23 -24 23h-28v-49h28q8 0 16 7.5t8 18.5z" />
    <glyph glyph-name="macron" unicode="&#xaf;" horiz-adv-x="450" 
d="M358 530q0 -15 -15 -15h-209q-16 0 -16 15v41q0 15 15 15h209q16 0 16 -14v-42v0z" />
    <glyph glyph-name="degree" unicode="&#xb0;" horiz-adv-x="312" 
d="M276 522q0 -24 -10 -45t-27 -36.5t-40 -24.5t-48 -9q-26 0 -47.5 9t-38 24.5t-25.5 36.5t-9 45t9 45t25.5 36t38 24t47.5 9q58 0 91.5 -33t33.5 -81zM213 522q0 25 -17 42.5t-45 17.5q-23 0 -41 -17t-18 -43t17 -44t42 -18t43.5 18t18.5 44z" />
    <glyph glyph-name="plusminus" unicode="&#xb1;" horiz-adv-x="486" 
d="M440 27q0 -22 -24 -22h-359q-24 0 -24 21v28q0 20 24 20h359q24 0 24 -20v-27zM453 304q0 -18 -17 -18h-142q-6 0 -7.5 -1t-1.5 -6v-140q0 -16 -17 -16h-39q-18 0 -18 16v140q0 7 -9 7h-138q-18 0 -18 17v35q0 17 18 17h138q9 0 9 8v139q0 17 17 17h39q18 0 18 -17v-137
q0 -6 1.5 -8t7.5 -2h142q17 0 17 -17v-34z" />
    <glyph glyph-name="twosuperior" unicode="&#xb2;" horiz-adv-x="311" 
d="M281 342q0 -15 -14 -15h-221q-9 0 -12.5 3t-3.5 12v26q0 9 1 14t8 14l137 161q11 13 18.5 25t7.5 23q0 19 -13 31.5t-39 12.5q-16 0 -28.5 -8.5t-20.5 -16.5q-13 -15 -26 -8l-31 20q-7 6 -7 11t5 12q22 29 52.5 41t61.5 12q51 0 86 -27t35 -75q0 -25 -13.5 -48t-28.5 -41
q-11 -12 -24.5 -28t-28 -33t-28.5 -33t-24 -29q-3 -3 -2 -5.5t3 -2.5h136q14 0 14 -14v-34v0z" />
    <glyph glyph-name="threesuperior" unicode="&#xb3;" horiz-adv-x="311" 
d="M264 435q0 -52 -34 -81.5t-91 -29.5q-38 1 -66 14t-46 45q-2 6 -2 8q0 8 8 12l30 16q3 2 6.5 3.5t5.5 1.5q7 0 12 -8q21 -30 51 -30q22 0 37 12.5t15 32.5v26q0 19 -14 32t-35 13h-40q-9 0 -12 3t-3 10v33q0 15 14 15h41q22 0 35 12t13 30q0 20 -13.5 31.5t-36.5 11.5
q-33 0 -49 -23q-7 -12 -18 -12q-4 0 -8 2l-30 18q-8 4 -8 12q0 5 4 13q18 26 47 39.5t63 13.5q56 0 89.5 -28t33.5 -76q0 -20 -10.5 -39.5t-30.5 -33.5q-2 -2 -2 -3l2 -2q21 -9 31.5 -28.5t10.5 -39.5v-26v0z" />
    <glyph glyph-name="acute" unicode="&#xb4;" horiz-adv-x="446" 
d="M234 490q-4 -5 -10.5 -6t-12.5 3l-24 15q-11 7 -4 19l81 135q4 6 10.5 9t11.5 0l52 -32q10 -6 8.5 -12.5t-5.5 -10.5z" />
    <glyph glyph-name="mu" unicode="&#xb5;" horiz-adv-x="478" 
d="M415 12q0 -12 -12 -12h-66q-13 0 -13 12v12q0 5 -4.5 6.5t-9.5 -2.5q-7 -7 -14.5 -11.5t-16.5 -9.5q-26 -13 -56 -13q-35 0 -60 19q-8 5 -12 1.5t-4 -8.5v-174q0 -13 -12 -13h-69q-14 0 -14 12v597q0 12 12 12h70q12 0 12 -12v-268q0 -35 25.5 -59.5t62.5 -24.5
t61.5 24.5t24.5 59.5v268q0 12 13 12h69q13 0 13 -12v-416v0z" />
    <glyph glyph-name="mu" unicode="&#x3bc;" horiz-adv-x="478" 
d="M415 12q0 -12 -12 -12h-66q-13 0 -13 12v12q0 5 -4.5 6.5t-9.5 -2.5q-7 -7 -14.5 -11.5t-16.5 -9.5q-26 -13 -56 -13q-35 0 -60 19q-8 5 -12 1.5t-4 -8.5v-174q0 -13 -12 -13h-69q-14 0 -14 12v597q0 12 12 12h70q12 0 12 -12v-268q0 -35 25.5 -59.5t62.5 -24.5
t61.5 24.5t24.5 59.5v268q0 12 13 12h69q13 0 13 -12v-416v0z" />
    <glyph glyph-name="paragraph" unicode="&#xb6;" horiz-adv-x="483" 
d="M428 85q0 -172 -186 -182q-5 0 -8 1.5t-5 9.5l-6 48q-1 6 1.5 10.5t8.5 5.5q34 4 55.5 12.5t34 22t17 32t4.5 42.5v539q0 5 3.5 8.5t8.5 3.5h59q6 0 9.5 -3.5t3.5 -8.5v-541zM202 306q-37 0 -67.5 12.5t-52.5 35t-34.5 52t-12.5 64.5q0 34 12.5 64.5t35 53.5t53 36.5
t66.5 13.5h83q5 0 8.5 -3.5t3.5 -8.5v-309q0 -11 -12 -11h-83z" />
    <glyph glyph-name="periodcentered" unicode="&#xb7;" horiz-adv-x="221" 
d="M110 175q-24 0 -41.5 17t-17.5 42q0 24 17.5 41.5t41.5 17.5q25 0 43 -17.5t18 -40.5q0 -25 -17.5 -42.5t-43.5 -17.5z" />
    <glyph glyph-name="cedilla" unicode="&#xb8;" horiz-adv-x="410" 
d="M318 -123q0 -15 -6.5 -29.5t-18.5 -26t-30 -18.5t-42 -7q-23 0 -43.5 6.5t-36.5 17.5q-9 6 -3 15l17 22q7 8 10.5 6.5t13.5 -6.5q8 -4 19 -7.5t21 -3.5q21 0 31.5 8.5t10.5 21.5q0 11 -6.5 21t-29.5 10h-29q-17 0 -26 10t-4 27l18 68q1 4 3.5 9t8.5 5h32q5 0 6.5 -5.5
t-0.5 -10.5l-12 -50q0 -4 7 -4h10q35 0 57 -21.5t22 -57.5z" />
    <glyph glyph-name="onesuperior" unicode="&#xb9;" horiz-adv-x="283" 
d="M76 596q-11 -6 -18.5 -4t-7.5 12v36q0 6 2 11t10 10l73 41q7 4 16 4h26q11 0 13.5 -4.5t2.5 -12.5v-347q0 -15 -15 -15h-42q-17 0 -17 15v270q0 7 -5 3l-38 -19v0z" />
    <glyph glyph-name="ordmasculine" unicode="&#xba;" horiz-adv-x="308" 
d="M280 347q0 -54 -35 -83t-92 -29q-56 0 -90.5 29t-34.5 81v73q0 49 34.5 79t90.5 30t91.5 -28.5t35.5 -80.5v-71zM205 417q0 20 -14 33t-38 13q-21 0 -35.5 -13t-14.5 -33v-71q0 -20 13.5 -33.5t36.5 -13.5q24 0 37 13t15 34v71z" />
    <glyph glyph-name="guillemotright" unicode="&#xbb;" horiz-adv-x="513" 
d="M461 224q9 -11 10 -21t-10 -24l-113 -139q-10 -11 -17 -15.5t-19 -4.5h-56q-9 0 -13 8t3 16l121 148q4 5 4.5 8.5t-5.5 11.5l-122 151q-7 8 -3.5 14.5t15.5 6.5h57q14 0 20.5 -4.5t12.5 -11.5zM273 224q8 -11 9 -21t-10 -24l-113 -139q-10 -11 -17 -15.5t-19 -4.5h-56
q-9 0 -13 8t3 16l121 148q4 5 4.5 8.5t-5.5 11.5l-122 151q-7 8 -3.5 14.5t15.5 6.5h57q14 0 20.5 -4.5t12.5 -11.5z" />
    <glyph glyph-name="onequarter" unicode="&#xbc;" horiz-adv-x="730" 
d="M88 506q-11 -6 -18.5 -4t-7.5 12v36q0 6 2 11t10 10l73 41q7 4 16 4h26q11 0 13.5 -4.5t2.5 -12.5v-347q0 -15 -15 -15h-42q-17 0 -17 15v270q0 7 -5 3zM222 -22q-2 -5 -5.5 -6.5t-7.5 -1.5h-39q-8 0 -9 4t1 9l280 655q3 6 7 7.5t9 1.5h33q11 0 12.5 -4.5t-1.5 -11.5z
M385 82q-10 0 -10 9v22q0 10 1 15.5t5 13.5l123 232q4 5 13 5h53q5 0 8 -2.5t-1 -8.5l-114 -219q-2 -2 -1 -4.5t6 -2.5h63q5 0 6.5 3t1.5 5v76q0 8 9 8h52q9 0 9 -9v-74q0 -9 7 -9h37q10 0 10 -8v-43q0 -9 -9 -9h-36q-9 0 -9 -8v-65q0 -9 -9 -9h-53q-8 0 -8 9v65q0 8 -10 8
h-144z" />
    <glyph glyph-name="onehalf" unicode="&#xbd;" horiz-adv-x="730" 
d="M655 14q0 -15 -14 -15h-221q-9 0 -12.5 3t-3.5 12v26q0 9 1 14t8 14l137 161q11 13 18.5 25t7.5 23q0 19 -13 31.5t-39 12.5q-16 0 -28.5 -8.5t-20.5 -16.5q-13 -15 -26 -8l-31 21q-12 9 -2 22q22 29 52.5 41t61.5 12q51 0 86 -27t35 -75q0 -25 -13.5 -48t-28.5 -40
q-11 -13 -24.5 -29t-28 -33t-28.5 -33t-24 -29q-3 -3 -2 -5.5t3 -2.5h136q14 0 14 -14v-34zM210 -22q-2 -5 -5.5 -6.5t-7.5 -1.5h-39q-8 0 -9 4t1 9l280 655q3 6 7 7.5t9 1.5h33q11 0 12.5 -4.5t-1.5 -11.5zM90 506q-11 -6 -18.5 -4t-7.5 12v36q0 6 2 11t10 10l73 41
q7 4 16 4h26q11 0 13.5 -4.5t2.5 -12.5v-347q0 -15 -15 -15h-42q-17 0 -17 15v270q0 7 -5 3z" />
    <glyph glyph-name="threequarters" unicode="&#xbe;" horiz-adv-x="730" 
d="M284 345q0 -52 -34 -81.5t-91 -29.5q-38 1 -66 14t-46 45q-2 6 -2 8q0 8 8 12l30 16q3 2 6.5 3.5t5.5 1.5q7 0 12 -8q21 -30 51 -30q22 0 37 12.5t15 32.5v26q0 19 -14 32t-35 13h-40q-9 0 -12 3t-3 10v33q0 15 14 15h41q22 0 35 12t13 30q0 20 -13.5 31.5t-36.5 11.5
q-33 0 -49 -23q-7 -12 -18 -12q-4 0 -8 2l-30 18q-8 4 -8 12q0 5 4 13q18 26 47 39.5t63 13.5q56 0 89.5 -28t33.5 -76q0 -20 -10.5 -39.5t-30.5 -33.5q-2 -2 -2 -3l2 -2q21 -9 31.5 -28.5t10.5 -39.5v-26zM412 82q-10 0 -10 9v22q0 10 1 15.5t5 13.5l123 232q4 5 13 5h53
q5 0 8 -2.5t-1 -8.5l-114 -219q-2 -2 -1 -4.5t6 -2.5h63q5 0 6.5 3t1.5 5v76q0 8 9 8h52q9 0 9 -9v-74q0 -9 7 -9h37q10 0 10 -8v-43q0 -9 -9 -9h-36q-9 0 -9 -8v-65q0 -9 -9 -9h-53q-8 0 -8 9v65q0 8 -10 8h-144zM252 -22q-2 -5 -5.5 -6.5t-7.5 -1.5h-39q-8 0 -9 4t1 9
l280 655q3 6 7 7.5t9 1.5h33q11 0 12.5 -4.5t-1.5 -11.5z" />
    <glyph glyph-name="questiondown" unicode="&#xbf;" horiz-adv-x="498" 
d="M85 -32q0 50 29.5 90.5t72.5 67.5q38 23 61.5 47.5t23.5 62.5v19q0 5 4 8.5t9 3.5h66q10 0 13.5 -3.5t3.5 -14.5v-30q0 -38 -22 -76t-62 -64q-41 -28 -69 -52t-30 -55q-3 -33 20.5 -59t62.5 -26q34 0 54.5 14t39.5 40q4 5 8.5 7t12.5 -3l47 -31q11 -8 4 -22
q-28 -48 -70 -67.5t-95 -19.5q-39 0 -72.5 10.5t-58.5 31.5t-39 51.5t-14 69.5zM261 383q0 23 17.5 40.5t43.5 17.5q25 0 42.5 -17.5t17.5 -40.5q0 -25 -17.5 -42t-42.5 -17q-26 0 -43.5 16.5t-17.5 42.5z" />
    <glyph glyph-name="Agrave" unicode="&#xc0;" horiz-adv-x="470" 
d="M451 19q2 -5 0.5 -12t-12.5 -7h-71q-14 0 -17 10l-28 115q-2 5 -3 7t-6 2h-162q-6 0 -7 -2.5t-3 -5.5l-27 -116q-3 -10 -16 -10h-66q-20 0 -15 18l147 586q3 13 18 13h100q7 0 11 -2t6 -10zM261 384l-26 120q-1 4 -3 4t-3 -3l-25 -118l-38 -163q-1 -5 0 -7t6 -2h121
q9 0 6 9zM116 788q4 5 11 5t12 -5l126 -95q12 -9 3 -19l-16 -23q-5 -5 -11.5 -6.5t-11.5 0.5l-144 71q-5 2 -9 8t3 15z" />
    <glyph glyph-name="Aacute" unicode="&#xc1;" horiz-adv-x="470" 
d="M451 19q2 -5 0.5 -12t-12.5 -7h-71q-14 0 -17 10l-28 115q-2 5 -3 7t-6 2h-162q-6 0 -7 -2.5t-3 -5.5l-27 -116q-3 -10 -16 -10h-66q-20 0 -15 18l147 586q3 13 18 13h100q7 0 11 -2t6 -10zM261 384l-26 120q-1 4 -3 4t-3 -3l-25 -118l-38 -163q-1 -5 0 -7t6 -2h121
q9 0 6 9zM375 739q7 -9 3 -15t-9 -8l-146 -73q-12 -5 -21 8l-16 23q-9 10 3 19l126 95q5 5 12 5t11 -5z" />
    <glyph glyph-name="Acircumflex" unicode="&#xc2;" horiz-adv-x="470" 
d="M451 19q2 -5 0.5 -12t-12.5 -7h-71q-14 0 -17 10l-28 115q-2 5 -3 7t-6 2h-162q-6 0 -7 -2.5t-3 -5.5l-27 -116q-3 -10 -16 -10h-66q-20 0 -15 18l147 586q3 13 18 13h100q7 0 11 -2t6 -10zM368 685q5 -5 6 -10.5t-6 -10.5l-22 -19q-5 -4 -9.5 -2t-11.5 6l-94 62
q-6 4 -12 0l-92 -63q-7 -5 -11 -5.5t-11 4.5l-20 19q-7 5 -6.5 10.5t5.5 10.5l96 94q5 5 9 8t12 3h50q8 0 12.5 -3t9.5 -8zM261 384l-26 120q-1 4 -3 4t-3 -3l-25 -118l-38 -163q-1 -5 0 -7t6 -2h121q9 0 6 9z" />
    <glyph glyph-name="Atilde" unicode="&#xc3;" horiz-adv-x="470" 
d="M451 19q2 -5 0.5 -12t-12.5 -7h-71q-14 0 -17 10l-28 115q-2 5 -3 7t-6 2h-162q-6 0 -7 -2.5t-3 -5.5l-27 -116q-3 -10 -16 -10h-66q-20 0 -15 18l147 586q3 13 18 13h100q7 0 11 -2t6 -10zM261 384l-26 120q-1 4 -3 4t-3 -3l-25 -118l-38 -163q-1 -5 0 -7t6 -2h121
q9 0 6 9zM370 711q-16 -31 -39.5 -45t-45.5 -14q-17 0 -32 5t-29.5 11.5t-28 11.5t-27.5 5q-19 0 -37 -27q-5 -5 -10.5 -4.5t-10.5 4.5l-26 19q-5 4 -4.5 9t2.5 10q13 25 35.5 41.5t49.5 16.5q15 0 30.5 -5.5t30.5 -12t28.5 -12t25.5 -5.5q11 0 20.5 8t16.5 19q5 10 16 4
l31 -18q11 -7 4 -21z" />
    <glyph glyph-name="Adieresis" unicode="&#xc4;" horiz-adv-x="470" 
d="M451 19q2 -5 0.5 -12t-12.5 -7h-71q-14 0 -17 10l-28 115q-2 5 -3 7t-6 2h-162q-6 0 -7 -2.5t-3 -5.5l-27 -116q-3 -10 -16 -10h-66q-20 0 -15 18l147 586q3 13 18 13h100q7 0 11 -2t6 -10zM261 384l-26 120q-1 4 -3 4t-3 -3l-25 -118l-38 -163q-1 -5 0 -7t6 -2h121
q9 0 6 9zM363 700q0 -23 -15 -38t-38 -15t-38.5 15t-15.5 38q0 22 15 37.5t38 15.5t38.5 -15.5t15.5 -37.5zM194 700q0 -23 -15 -38t-38 -15t-38.5 15t-15.5 38q0 22 15.5 37.5t37.5 15.5q23 0 38.5 -15.5t15.5 -37.5z" />
    <glyph glyph-name="Aring" unicode="&#xc5;" horiz-adv-x="470" 
d="M451 19q2 -5 0.5 -12t-12.5 -7h-71q-14 0 -17 10l-28 115q-2 5 -3 7t-6 2h-162q-6 0 -7 -2.5t-3 -5.5l-27 -116q-3 -10 -16 -10h-66q-20 0 -15 18l147 586q3 13 18 13h100q7 0 11 -2t6 -10zM317 720q0 -18 -7 -34t-19 -28.5t-28.5 -19.5t-35.5 -7q-18 0 -34.5 7t-29 18.5
t-19.5 27.5t-7 34t7 34.5t19 28.5t28.5 19.5t35.5 7.5q37 0 63.5 -25.5t26.5 -62.5zM261 384l-26 120q-1 4 -3 4t-3 -3l-25 -118l-38 -163q-1 -5 0 -7t6 -2h121q9 0 6 9zM270 719q0 17 -13 30.5t-30 13.5t-29 -13t-12 -31t12 -30.5t29 -12.5t30 12.5t13 30.5z" />
    <glyph glyph-name="AE" unicode="&#xc6;" horiz-adv-x="744" 
d="M699 87q14 0 14 -14v-59q0 -14 -14 -14h-334q-15 0 -15 13v117q0 5 -1.5 10t-11.5 5h-168q-6 0 -7.5 -2.5t-3.5 -6.5l-45 -124q-4 -12 -17 -12h-67q-11 0 -12.5 6.5t0.5 14.5q20 54 49.5 131t60.5 159.5t60.5 159.5t49.5 131q2 5 7 10t16 5h434q15 0 15 -13v-58
q0 -15 -14 -15h-234q-12 0 -12 -10v-150q0 -12 11 -12h193q14 0 14 -14v-58q0 -15 -13 -15h-194q-11 0 -11 -12v-161q0 -5 1.5 -8.5t9.5 -3.5h239zM194 238q-4 -8 5 -8h138q13 0 13 13v280q0 8 -9 8h-35q-8 0 -12 -8z" />
    <glyph glyph-name="Ccedilla" unicode="&#xc7;" horiz-adv-x="451" 
d="M351 -123q0 -15 -6.5 -29.5t-18.5 -26t-30 -18.5t-42 -7q-23 0 -43.5 6.5t-36.5 17.5q-9 6 -3 15l17 22q7 8 10.5 6.5t13.5 -6.5q8 -4 19 -7.5t21 -3.5q21 0 31.5 8.5t10.5 21.5q0 11 -6.5 21t-29.5 10h-29q-17 0 -26 10t-4 27l14 53q-69 9 -111.5 54t-42.5 117v284
q0 40 14 72t39 54.5t59.5 35t75.5 12.5q49 0 94 -16.5t83 -66.5q5 -6 4.5 -11.5t-8.5 -12.5l-46 -36q-6 -5 -13 -2.5t-11 8.5q-17 23 -44 36.5t-57 13.5q-45 0 -68.5 -25.5t-23.5 -63.5v-282q0 -37 25 -62t70 -25q29 0 55 14.5t43 33.5q5 5 10.5 9.5t13.5 -1.5l50 -35
q12 -7 5 -20q-31 -44 -74 -65t-92 -23l-8 -34q0 -4 7 -4h10q35 0 57 -21.5t22 -57.5z" />
    <glyph glyph-name="Egrave" unicode="&#xc8;" horiz-adv-x="454" 
d="M408 87q14 0 14 -14v-58q0 -15 -14 -15h-332q-15 0 -15 14v589q0 14 15 14h327q6 0 10.5 -3t4.5 -11v-57q0 -15 -14 -15h-233q-12 0 -12 -10v-145q0 -13 12 -13h192q14 0 14 -15v-57q0 -14 -13 -14h-193q-12 0 -12 -12v-166q0 -12 13 -12h236zM123 788q4 5 11 5t12 -5
l126 -95q12 -9 3 -19l-16 -23q-5 -5 -11.5 -6.5t-11.5 0.5l-144 71q-5 2 -9 8t3 15z" />
    <glyph glyph-name="Eacute" unicode="&#xc9;" horiz-adv-x="454" 
d="M408 87q14 0 14 -14v-58q0 -15 -14 -15h-332q-15 0 -15 14v589q0 14 15 14h327q6 0 10.5 -3t4.5 -11v-57q0 -15 -14 -15h-233q-12 0 -12 -10v-145q0 -13 12 -13h192q14 0 14 -15v-57q0 -14 -13 -14h-193q-12 0 -12 -12v-166q0 -12 13 -12h236zM355 739q7 -9 3 -15t-9 -8
l-146 -73q-12 -5 -21 8l-16 23q-9 10 3 19l126 95q5 5 12 5t11 -5z" />
    <glyph glyph-name="Ecircumflex" unicode="&#xca;" horiz-adv-x="454" 
d="M408 87q14 0 14 -14v-58q0 -15 -14 -15h-332q-15 0 -15 14v589q0 14 15 14h327q6 0 10.5 -3t4.5 -11v-57q0 -15 -14 -15h-233q-12 0 -12 -10v-145q0 -13 12 -13h192q14 0 14 -15v-57q0 -14 -13 -14h-193q-12 0 -12 -12v-166q0 -12 13 -12h236zM367 685q5 -5 6 -10.5
t-6 -10.5l-22 -19q-5 -4 -9.5 -2t-11.5 6l-94 62q-6 4 -12 0l-92 -63q-7 -5 -11 -5.5t-11 4.5l-20 19q-7 5 -6.5 10.5t5.5 10.5l96 94q5 5 9 8t12 3h50q8 0 12.5 -3t9.5 -8z" />
    <glyph glyph-name="Edieresis" unicode="&#xcb;" horiz-adv-x="454" 
d="M408 87q14 0 14 -14v-58q0 -15 -14 -15h-332q-15 0 -15 14v589q0 14 15 14h327q6 0 10.5 -3t4.5 -11v-57q0 -15 -14 -15h-233q-12 0 -12 -10v-145q0 -13 12 -13h192q14 0 14 -15v-57q0 -14 -13 -14h-193q-12 0 -12 -12v-166q0 -12 13 -12h236zM376 700q0 -23 -15 -38
t-38 -15t-38.5 15t-15.5 38q0 22 15 37.5t38 15.5t38.5 -15.5t15.5 -37.5zM207 700q0 -23 -15 -38t-38 -15t-38.5 15t-15.5 38q0 22 15.5 37.5t37.5 15.5q23 0 38.5 -15.5t15.5 -37.5z" />
    <glyph glyph-name="Igrave" unicode="&#xcc;" horiz-adv-x="249" 
d="M88 0q-15 0 -15 13v591q0 13 15 13h70q15 0 15 -13v-590q0 -14 -15 -14h-70zM8 788q4 5 11 5t12 -5l126 -95q12 -9 3 -19l-16 -23q-5 -5 -11.5 -6.5t-11.5 0.5l-144 71q-5 2 -9 8t3 15z" />
    <glyph glyph-name="Iacute" unicode="&#xcd;" horiz-adv-x="249" 
d="M88 0q-15 0 -15 13v591q0 13 15 13h70q15 0 15 -13v-590q0 -14 -15 -14h-70zM276 739q7 -9 3 -15t-9 -8l-146 -73q-12 -5 -21 8l-16 23q-9 10 3 19l126 95q5 5 12 5t11 -5z" />
    <glyph glyph-name="Icircumflex" unicode="&#xce;" horiz-adv-x="249" 
d="M88 0q-15 0 -15 13v591q0 13 15 13h70q15 0 15 -13v-590q0 -14 -15 -14h-70zM262 693q5 -5 6 -10.5t-6 -10.5l-22 -19q-5 -4 -9.5 -2t-11.5 6l-94 62q-6 4 -12 0l-92 -63q-7 -5 -11 -5.5t-11 4.5l-20 19q-7 5 -6.5 10.5t5.5 10.5l96 94q5 5 9 8t12 3h50q8 0 12.5 -3
t9.5 -8z" />
    <glyph glyph-name="Idieresis" unicode="&#xcf;" horiz-adv-x="249" 
d="M88 0q-15 0 -15 13v591q0 13 15 13h70q15 0 15 -13v-590q0 -14 -15 -14h-70zM256 700q0 -23 -15 -38t-38 -15t-38.5 15t-15.5 38q0 22 15 37.5t38 15.5t38.5 -15.5t15.5 -37.5zM87 700q0 -23 -15 -38t-38 -15t-38.5 15t-15.5 38q0 22 15.5 37.5t37.5 15.5
q23 0 38.5 -15.5t15.5 -37.5z" />
    <glyph glyph-name="Eth" unicode="&#xd0;" horiz-adv-x="510" 
d="M78 0q-16 0 -16 14v255q0 5 -1 8t-8 3h-29q-13 0 -13 13v41q0 13 12 13h30q9 0 9 11v245q0 14 16 14h190q93 0 140 -48t47 -134v-248q0 -91 -47.5 -139t-137.5 -48h-192zM265 87q47 0 69 25t22 68v259q0 49 -26.5 70.5t-70.5 21.5h-85q-13 0 -13 -12v-160q0 -8 2.5 -10
t7.5 -2h66q14 0 14 -13v-41q0 -13 -13 -13h-67q-10 0 -10 -7v-173q0 -13 12 -13h92z" />
    <glyph glyph-name="Ntilde" unicode="&#xd1;" horiz-adv-x="534" 
d="M127 617q13 0 18.5 -4.5t10.5 -12.5l220 -397q1 -1 3 -1q1 0 1 1v400q0 14 14 14h64q15 0 15 -13v-584q0 -12 -6 -16t-14 -4h-44q-12 0 -18 3t-11 12l-221 395q0 2 -2 2l-1 -2v-397q0 -13 -15 -13h-64q-16 0 -16 13v580q0 12 4 18t18 6h44zM404 707q-16 -31 -39.5 -45
t-45.5 -14q-17 0 -32 5t-29.5 11.5t-28 11.5t-27.5 5q-19 0 -37 -27q-5 -5 -10.5 -4.5t-10.5 4.5l-26 19q-5 4 -4.5 9t2.5 10q13 25 35.5 41.5t49.5 16.5q15 0 30.5 -5.5t30.5 -12t28.5 -12t25.5 -5.5q11 0 20.5 8t16.5 19q5 10 16 4l31 -18q11 -7 4 -21z" />
    <glyph glyph-name="Ograve" unicode="&#xd2;" horiz-adv-x="513" 
d="M454 171q0 -42 -15 -74.5t-41 -55.5t-62.5 -35t-78.5 -12t-78 11.5t-63 34t-42 55.5t-15 76v278q0 41 15 74t41.5 56t62.5 35t78 12q41 0 77 -12t63 -34.5t42.5 -55.5t15.5 -75v-278zM355 448q0 38 -26 64.5t-72 26.5q-47 0 -73.5 -26.5t-26.5 -64.5v-276q0 -39 25.5 -65
t73.5 -26q46 0 72.5 25.5t26.5 65.5v276zM164 788q4 5 11 5t12 -5l126 -95q12 -9 3 -19l-16 -23q-5 -5 -11.5 -6.5t-11.5 0.5l-144 71q-5 2 -9 8t3 15z" />
    <glyph glyph-name="Oacute" unicode="&#xd3;" horiz-adv-x="513" 
d="M454 171q0 -42 -15 -74.5t-41 -55.5t-62.5 -35t-78.5 -12t-78 11.5t-63 34t-42 55.5t-15 76v278q0 41 15 74t41.5 56t62.5 35t78 12q41 0 77 -12t63 -34.5t42.5 -55.5t15.5 -75v-278zM355 448q0 38 -26 64.5t-72 26.5q-47 0 -73.5 -26.5t-26.5 -64.5v-276q0 -39 25.5 -65
t73.5 -26q46 0 72.5 25.5t26.5 65.5v276zM392 739q7 -9 3 -15t-9 -8l-146 -73q-12 -5 -21 8l-16 23q-9 10 3 19l126 95q5 5 12 5t11 -5z" />
    <glyph glyph-name="Ocircumflex" unicode="&#xd4;" horiz-adv-x="513" 
d="M454 171q0 -42 -15 -74.5t-41 -55.5t-62.5 -35t-78.5 -12t-78 11.5t-63 34t-42 55.5t-15 76v278q0 41 15 74t41.5 56t62.5 35t78 12q41 0 77 -12t63 -34.5t42.5 -55.5t15.5 -75v-278zM355 448q0 38 -26 64.5t-72 26.5q-47 0 -73.5 -26.5t-26.5 -64.5v-276q0 -39 25.5 -65
t73.5 -26q46 0 72.5 25.5t26.5 65.5v276zM396 685q5 -5 6 -10.5t-6 -10.5l-22 -19q-5 -4 -9.5 -2t-11.5 6l-94 62q-6 4 -12 0l-92 -63q-7 -5 -11 -5.5t-11 4.5l-20 19q-7 5 -6.5 10.5t5.5 10.5l96 94q5 5 9 8t12 3h50q8 0 12.5 -3t9.5 -8z" />
    <glyph glyph-name="Otilde" unicode="&#xd5;" horiz-adv-x="513" 
d="M454 171q0 -42 -15 -74.5t-41 -55.5t-62.5 -35t-78.5 -12t-78 11.5t-63 34t-42 55.5t-15 76v278q0 41 15 74t41.5 56t62.5 35t78 12q41 0 77 -12t63 -34.5t42.5 -55.5t15.5 -75v-278zM355 448q0 38 -26 64.5t-72 26.5q-47 0 -73.5 -26.5t-26.5 -64.5v-276q0 -39 25.5 -65
t73.5 -26q46 0 72.5 25.5t26.5 65.5v276zM402 717q-16 -31 -39.5 -45t-45.5 -14q-17 0 -32 5t-29.5 11.5t-28 11.5t-27.5 5q-19 0 -37 -27q-5 -5 -10.5 -4.5t-10.5 4.5l-26 19q-5 4 -4.5 9t2.5 10q13 25 35.5 41.5t49.5 16.5q15 0 30.5 -5.5t30.5 -12t28.5 -12t25.5 -5.5
q11 0 20.5 8t16.5 19q5 10 16 4l31 -18q11 -7 4 -21z" />
    <glyph glyph-name="Odieresis" unicode="&#xd6;" horiz-adv-x="513" 
d="M454 171q0 -42 -15 -74.5t-41 -55.5t-62.5 -35t-78.5 -12t-78 11.5t-63 34t-42 55.5t-15 76v278q0 41 15 74t41.5 56t62.5 35t78 12q41 0 77 -12t63 -34.5t42.5 -55.5t15.5 -75v-278zM355 448q0 38 -26 64.5t-72 26.5q-47 0 -73.5 -26.5t-26.5 -64.5v-276q0 -39 25.5 -65
t73.5 -26q46 0 72.5 25.5t26.5 65.5v276zM392 700q0 -23 -15 -38t-38 -15t-38.5 15t-15.5 38q0 22 15 37.5t38 15.5t38.5 -15.5t15.5 -37.5zM223 700q0 -23 -15 -38t-38 -15t-38.5 15t-15.5 38q0 22 15.5 37.5t37.5 15.5q23 0 38.5 -15.5t15.5 -37.5z" />
    <glyph glyph-name="multiply" unicode="&#xd7;" horiz-adv-x="486" 
d="M86 106q-12 13 0 25l100 101q7 6 2 11l-102 101q-13 11 0 23l28 28q12 12 24 1l102 -101q5 -5 11 2l100 99q12 12 25 1l24 -25q12 -12 0 -25l-100 -99q-4 -4 -4.5 -6t3.5 -6l100 -101q11 -13 0 -24l-28 -28q-12 -14 -25 -1l-98 100q-4 5 -6 5.5t-7 -4.5l-100 -101
q-13 -11 -25 0l-24 24v0z" />
    <glyph glyph-name="Oslash" unicode="&#xd8;" horiz-adv-x="513" 
d="M128 22q-3 -6 -6.5 -11.5t-6.5 -10.5q-6 -11 -15 -6l-32 17q-6 3 -5.5 7t3.5 10l18 32q2 3 3 6.5t-2 6.5q-11 17 -19 42.5t-8 52.5v261v14.5t1 14.5q1 39 17 70t43 52.5t62 33t76 11.5q64 0 116 -29q4 -2 7 -2t5 4l15 25q7 10 16 4l31 -16q10 -5 3 -16l-22 -39
q-3 -6 0 -14q11 -17 18.5 -40.5t7.5 -49.5v-283q0 -42 -15.5 -74.5t-42 -55t-62 -34t-76.5 -11.5q-35 0 -65.5 7t-52.5 21q-3 3 -7 3t-5 -3zM157 202q0 -6 2.5 -6t4.5 3l165 298q2 5 3 8t-4 8q-11 11 -30.5 18.5t-41.5 7.5q-45 0 -72 -26.5t-27 -64.5v-246zM355 416
q0 10 -5 4l-168 -304q-4 -8 1 -11q25 -25 74 -25q44 0 71 25.5t27 65.5v245z" />
    <glyph glyph-name="Ugrave" unicode="&#xd9;" horiz-adv-x="514" 
d="M157 167q0 -37 27.5 -61.5t71.5 -24.5q46 0 73 25t27 63v435q0 13 15 13h69q15 0 15 -12v-438q0 -41 -16 -73t-43 -54.5t-63 -34t-76 -11.5q-41 0 -77 11.5t-63 33.5t-42.5 54.5t-15.5 73.5v437q0 13 14 13h70q14 0 14 -12v-438zM147 788q4 5 11 5t12 -5l126 -95
q12 -9 3 -19l-16 -23q-5 -5 -11.5 -6.5t-11.5 0.5l-144 71q-5 2 -9 8t3 15z" />
    <glyph glyph-name="Uacute" unicode="&#xda;" horiz-adv-x="514" 
d="M157 167q0 -37 27.5 -61.5t71.5 -24.5q46 0 73 25t27 63v435q0 13 15 13h69q15 0 15 -12v-438q0 -41 -16 -73t-43 -54.5t-63 -34t-76 -11.5q-41 0 -77 11.5t-63 33.5t-42.5 54.5t-15.5 73.5v437q0 13 14 13h70q14 0 14 -12v-438zM385 739q7 -9 3 -15t-9 -8l-146 -73
q-12 -5 -21 8l-16 23q-9 10 3 19l126 95q5 5 12 5t11 -5z" />
    <glyph glyph-name="Ucircumflex" unicode="&#xdb;" horiz-adv-x="514" 
d="M157 167q0 -37 27.5 -61.5t71.5 -24.5q46 0 73 25t27 63v435q0 13 15 13h69q15 0 15 -12v-438q0 -41 -16 -73t-43 -54.5t-63 -34t-76 -11.5q-41 0 -77 11.5t-63 33.5t-42.5 54.5t-15.5 73.5v437q0 13 14 13h70q14 0 14 -12v-438zM394 685q5 -5 6 -10.5t-6 -10.5l-22 -19
q-5 -4 -9.5 -2t-11.5 6l-94 62q-6 4 -12 0l-92 -63q-7 -5 -11 -5.5t-11 4.5l-20 19q-7 5 -6.5 10.5t5.5 10.5l96 94q5 5 9 8t12 3h50q8 0 12.5 -3t9.5 -8z" />
    <glyph glyph-name="Udieresis" unicode="&#xdc;" horiz-adv-x="514" 
d="M157 167q0 -37 27.5 -61.5t71.5 -24.5q46 0 73 25t27 63v435q0 13 15 13h69q15 0 15 -12v-438q0 -41 -16 -73t-43 -54.5t-63 -34t-76 -11.5q-41 0 -77 11.5t-63 33.5t-42.5 54.5t-15.5 73.5v437q0 13 14 13h70q14 0 14 -12v-438zM392 700q0 -23 -15 -38t-38 -15t-38.5 15
t-15.5 38q0 22 15 37.5t38 15.5t38.5 -15.5t15.5 -37.5zM223 700q0 -23 -15 -38t-38 -15t-38.5 15t-15.5 38q0 22 15.5 37.5t37.5 15.5q23 0 38.5 -15.5t15.5 -37.5z" />
    <glyph glyph-name="Yacute" unicode="&#xdd;" horiz-adv-x="450" 
d="M96 617q10 0 15.5 -2.5t9.5 -11.5l99 -258q6 -7 9 -1q25 64 50 129t48 128q5 9 9.5 12.5t18.5 3.5h64q14 0 15.5 -5.5t-1.5 -12.5l-154 -356q-3 -8 -4 -12.5t-1 -12.5v-203q0 -15 -15 -15h-69q-15 0 -15 14v206q0 12 -5 21l-154 357q-3 8 -1 13.5t13 5.5h68zM359 739
q7 -9 3 -15t-9 -8l-146 -73q-12 -5 -21 8l-16 23q-9 10 3 19l126 95q5 5 12 5t11 -5z" />
    <glyph glyph-name="Thorn" unicode="&#xde;" horiz-adv-x="472" 
d="M63 604q0 13 16 13h67q15 0 15 -12v-102q2 -8 11 -8h85q44 0 79.5 -14t60 -38.5t37.5 -59t13 -74.5q0 -37 -14 -69.5t-39.5 -57t-60 -38.5t-75.5 -14h-86q-10 0 -10 -11v-105q0 -14 -15 -14h-68q-15 0 -16 13v591zM349 311q0 18 -6.5 35.5t-18.5 31.5t-29 22.5t-38 8.5
h-84q-10 0 -12 -10v-173q0 -10 11 -10h85q42 0 67 26t25 69z" />
    <glyph glyph-name="germandbls" unicode="&#xdf;" horiz-adv-x="487" 
d="M435 159q0 -37 -13.5 -68.5t-36.5 -54.5q-23 -22 -51.5 -34t-60.5 -12h-55q-12 0 -12 11v49q0 10 5.5 12.5t13.5 2.5h33q18 0 33 8t26 21t17 29.5t6 33.5v84q0 37 -21 59t-59 22h-10q-12 0 -12 11v51q0 11 11 11h14q67 0 67 64q0 35 -21.5 60.5t-58.5 25.5
q-38 0 -61 -24.5t-23 -61.5v-446q0 -13 -12 -13h-70q-13 0 -13 12v443q0 37 12.5 68.5t35 54.5t55 36t73.5 13t74 -12.5t56 -35t35.5 -54t12.5 -68.5q0 -28 -11 -55t-37 -40q-5 -2 -4 -5t4 -5q29 -14 43.5 -44t14.5 -65v-84v0z" />
    <glyph glyph-name="agrave" unicode="&#xe0;" horiz-adv-x="450" 
d="M394 12q0 -12 -11 -12h-66q-11 0 -11 10v14q0 7 -4 8t-9 -4q-15 -12 -41.5 -22.5t-57.5 -10.5q-74 0 -114 40t-40 113q0 70 42.5 112t120.5 42q18 0 40.5 -5t41.5 -16q15 -10 15 6v14q0 31 -19 50.5t-63 19.5q-10 0 -24 -2t-29 -5t-29 -7t-24 -9q-13 -6 -18 8l-18 45
q-3 12 7 17q31 14 70 22.5t77 8.5q90 0 127 -44t37 -119v-274zM292 151q0 33 -20.5 57t-59.5 24q-41 0 -62.5 -23.5t-21.5 -57.5q0 -35 19.5 -58t61.5 -23q41 0 62 25t21 56zM278 521q8 -11 -4 -19l-24 -15q-6 -4 -12.5 -3t-10.5 6l-107 119q-4 5 -5.5 11.5t8.5 12.5l52 31
q6 4 12 1t10 -9z" />
    <glyph glyph-name="aacute" unicode="&#xe1;" horiz-adv-x="450" 
d="M394 12q0 -12 -11 -12h-66q-11 0 -11 10v14q0 7 -4 8t-9 -4q-15 -12 -41.5 -22.5t-57.5 -10.5q-74 0 -114 40t-40 113q0 70 42.5 112t120.5 42q18 0 40.5 -5t41.5 -16q15 -10 15 6v14q0 31 -19 50.5t-63 19.5q-10 0 -24 -2t-29 -5t-29 -7t-24 -9q-13 -6 -18 8l-18 45
q-3 12 7 17q31 14 70 22.5t77 8.5q90 0 127 -44t37 -119v-274zM292 151q0 33 -20.5 57t-59.5 24q-41 0 -62.5 -23.5t-21.5 -57.5q0 -35 19.5 -58t61.5 -23q41 0 62 25t21 56zM234 490q-4 -5 -10.5 -6t-12.5 3l-24 15q-11 7 -4 19l81 135q4 6 10.5 9t11.5 0l52 -32
q10 -6 8.5 -12.5t-5.5 -10.5z" />
    <glyph glyph-name="acircumflex" unicode="&#xe2;" horiz-adv-x="450" 
d="M394 12q0 -12 -11 -12h-66q-11 0 -11 10v14q0 7 -4 8t-9 -4q-15 -12 -41.5 -22.5t-57.5 -10.5q-74 0 -114 40t-40 113q0 70 42.5 112t120.5 42q18 0 40.5 -5t41.5 -16q15 -10 15 6v14q0 31 -19 50.5t-63 19.5q-10 0 -24 -2t-29 -5t-29 -7t-24 -9q-13 -6 -18 8l-18 45
q-3 12 7 17q31 14 70 22.5t77 8.5q90 0 127 -44t37 -119v-274zM292 151q0 33 -20.5 57t-59.5 24q-41 0 -62.5 -23.5t-21.5 -57.5q0 -35 19.5 -58t61.5 -23q41 0 62 25t21 56zM374 526q5 -5 6 -10.5t-6 -10.5l-23 -14q-8 -5 -12.5 -4t-9.5 6l-93 85q-8 7 -14 1l-91 -87
q-5 -5 -9.5 -5.5t-12.5 4.5l-22 14q-7 5 -6.5 10.5t5.5 10.5l98 124q5 5 9 8t12 3h50q8 0 12.5 -3t9.5 -8z" />
    <glyph glyph-name="atilde" unicode="&#xe3;" horiz-adv-x="450" 
d="M394 12q0 -12 -11 -12h-66q-11 0 -11 10v14q0 7 -4 8t-9 -4q-15 -12 -41.5 -22.5t-57.5 -10.5q-74 0 -114 40t-40 113q0 70 42.5 112t120.5 42q18 0 40.5 -5t41.5 -16q15 -10 15 6v14q0 31 -19 50.5t-63 19.5q-10 0 -24 -2t-29 -5t-29 -7t-24 -9q-13 -6 -18 8l-18 45
q-3 12 7 17q31 14 70 22.5t77 8.5q90 0 127 -44t37 -119v-274zM292 151q0 33 -20.5 57t-59.5 24q-41 0 -62.5 -23.5t-21.5 -57.5q0 -35 19.5 -58t61.5 -23q41 0 62 25t21 56zM381 567q-16 -31 -39.5 -45t-45.5 -14q-17 0 -32 5t-29.5 11.5t-28 11.5t-27.5 5q-19 0 -37 -27
q-5 -5 -10.5 -4.5t-10.5 4.5l-26 19q-5 4 -4.5 9t2.5 10q13 25 35.5 41.5t49.5 16.5q15 0 30.5 -5.5t30.5 -12t28.5 -12t25.5 -5.5q11 0 20.5 8t16.5 19q5 10 16 4l31 -18q11 -7 4 -21z" />
    <glyph glyph-name="adieresis" unicode="&#xe4;" horiz-adv-x="450" 
d="M394 12q0 -12 -11 -12h-66q-11 0 -11 10v14q0 7 -4 8t-9 -4q-15 -12 -41.5 -22.5t-57.5 -10.5q-74 0 -114 40t-40 113q0 70 42.5 112t120.5 42q18 0 40.5 -5t41.5 -16q15 -10 15 6v14q0 31 -19 50.5t-63 19.5q-10 0 -24 -2t-29 -5t-29 -7t-24 -9q-13 -6 -18 8l-18 45
q-3 12 7 17q31 14 70 22.5t77 8.5q90 0 127 -44t37 -119v-274zM292 151q0 33 -20.5 57t-59.5 24q-41 0 -62.5 -23.5t-21.5 -57.5q0 -35 19.5 -58t61.5 -23q41 0 62 25t21 56zM364 550q0 -23 -15 -38t-38 -15t-38.5 15t-15.5 38q0 22 15 37.5t38 15.5t38.5 -15.5t15.5 -37.5z
M195 550q0 -23 -15 -38t-38 -15t-38.5 15t-15.5 38q0 22 15.5 37.5t37.5 15.5q23 0 38.5 -15.5t15.5 -37.5z" />
    <glyph glyph-name="aring" unicode="&#xe5;" horiz-adv-x="450" 
d="M394 12q0 -12 -11 -12h-66q-11 0 -11 10v14q0 7 -4 8t-9 -4q-15 -12 -41.5 -22.5t-57.5 -10.5q-74 0 -114 40t-40 113q0 70 42.5 112t120.5 42q18 0 40.5 -5t41.5 -16q15 -10 15 6v14q0 31 -19 50.5t-63 19.5q-10 0 -24 -2t-29 -5t-29 -7t-24 -9q-13 -6 -18 8l-18 45
q-3 12 7 17q31 14 70 22.5t77 8.5q90 0 127 -44t37 -119v-274zM292 151q0 33 -20.5 57t-59.5 24q-41 0 -62.5 -23.5t-21.5 -57.5q0 -35 19.5 -58t61.5 -23q41 0 62 25t21 56zM311 563q0 -18 -7 -34t-19 -28.5t-28.5 -19.5t-35.5 -7q-18 0 -34.5 7t-29 18.5t-19.5 27.5t-7 34
t7 34.5t19 28.5t28.5 19.5t35.5 7.5q37 0 63.5 -25.5t26.5 -62.5zM264 562q0 17 -13 30.5t-30 13.5t-29 -13t-12 -31t12 -30.5t29 -12.5t30 12.5t13 30.5z" />
    <glyph glyph-name="ae" unicode="&#xe6;" horiz-adv-x="707" 
d="M348 46q-3 3 -7.5 4t-9.5 -4q-25 -24 -56.5 -37.5t-71.5 -13.5q-35 0 -64.5 10.5t-51.5 30t-34.5 48t-12.5 64.5q0 35 12 64t34 49.5t52.5 32t66.5 11.5q18 0 41 -7t37 -15q7 -5 12 -3.5t5 9.5v12q0 35 -27 53t-65 18q-20 0 -48 -8t-48 -17q-13 -6 -18 8l-18 46
q-3 12 7 17q31 14 62 22.5t69 8.5q42 0 75 -12.5t58 -34.5q4 -3 6 -2.5t6 2.5q50 47 127 47q40 0 73.5 -12.5t57.5 -35t37 -55t13 -71.5v-48q0 -11 -7 -18.5t-16 -7.5h-226q-9 0 -14 -5.5t-5 -12.5v-17q0 -36 24 -62.5t63 -26.5q30 0 51.5 14.5t37.5 34.5q5 6 9.5 7.5
t12.5 -3.5l44 -28q8 -5 11 -9.5t-1 -11.5q-25 -46 -68.5 -66.5t-94.5 -20.5q-45 0 -80 13.5t-60 38.5zM292 151q0 33 -23 57t-57 24q-36 0 -58.5 -23.5t-22.5 -57.5q0 -33 22.5 -57t57.5 -24q38 0 59.5 25t21.5 56zM572 284q-2 38 -24 60.5t-61 22.5q-42 0 -61 -25t-22 -62
q-1 -5 1.5 -8t11.5 -3h144q11 0 11 15z" />
    <glyph glyph-name="ccedilla" unicode="&#xe7;" horiz-adv-x="412" 
d="M318 -123q0 -15 -6.5 -29.5t-18.5 -26t-30 -18.5t-42 -7q-23 0 -43.5 6.5t-36.5 17.5q-9 6 -3 15l17 22q7 8 10.5 6.5t13.5 -6.5q8 -4 19 -7.5t21 -3.5q21 0 31.5 8.5t10.5 21.5q0 11 -6.5 21t-29.5 10h-29q-17 0 -26 10t-4 27l14 54q-63 11 -100 54.5t-37 109.5v114
q0 40 14 71.5t39 54t59 34.5t73 12q48 0 88 -20.5t69 -62.5q3 -5 2.5 -12t-7.5 -12l-45 -32q-11 -8 -16.5 -3.5t-10.5 12.5q-15 23 -40 35.5t-42 12.5q-38 0 -63 -24t-25 -61v-121q0 -36 25 -59.5t62 -23.5q18 0 32.5 5t25 12.5t18 16.5t12.5 16q6 8 11 9t14 -5l41 -27
q18 -12 9 -24q-29 -44 -68.5 -64.5t-89.5 -21.5l-8 -34q0 -4 7 -4h10q35 0 57 -21.5t22 -57.5z" />
    <glyph glyph-name="egrave" unicode="&#xe8;" horiz-adv-x="448" 
d="M408 227q0 -11 -7 -18.5t-16 -7.5h-226q-9 0 -14 -5.5t-5 -12.5v-17q0 -36 24 -62.5t63 -26.5q30 0 51.5 14.5t37.5 34.5q5 6 9.5 7.5t12.5 -3.5l44 -28q8 -5 11 -9.5t-1 -11.5q-25 -46 -68.5 -66.5t-94.5 -20.5q-41 0 -75 12t-58 33.5t-37 52.5t-13 69v113q0 39 13.5 71
t37.5 55t57 36t73 13t73.5 -12.5t57.5 -35t37 -55t13 -71.5v-48zM313 284q-2 38 -24 60.5t-61 22.5q-42 0 -61 -25t-22 -62q-1 -5 1.5 -8t11.5 -3h144q11 0 11 15zM272 521q8 -11 -4 -19l-24 -15q-6 -4 -12.5 -3t-10.5 6l-107 119q-4 5 -5.5 11.5t8.5 12.5l52 31q6 4 12 1
t10 -9z" />
    <glyph glyph-name="eacute" unicode="&#xe9;" horiz-adv-x="448" 
d="M408 227q0 -11 -7 -18.5t-16 -7.5h-226q-9 0 -14 -5.5t-5 -12.5v-17q0 -36 24 -62.5t63 -26.5q30 0 51.5 14.5t37.5 34.5q5 6 9.5 7.5t12.5 -3.5l44 -28q8 -5 11 -9.5t-1 -11.5q-25 -46 -68.5 -66.5t-94.5 -20.5q-41 0 -75 12t-58 33.5t-37 52.5t-13 69v113q0 39 13.5 71
t37.5 55t57 36t73 13t73.5 -12.5t57.5 -35t37 -55t13 -71.5v-48zM313 284q-2 38 -24 60.5t-61 22.5q-42 0 -61 -25t-22 -62q-1 -5 1.5 -8t11.5 -3h144q11 0 11 15zM234 490q-4 -5 -10.5 -6t-12.5 3l-24 15q-11 7 -4 19l81 135q4 6 10.5 9t11.5 0l52 -32q10 -6 8.5 -12.5
t-5.5 -10.5z" />
    <glyph glyph-name="ecircumflex" unicode="&#xea;" horiz-adv-x="448" 
d="M408 227q0 -11 -7 -18.5t-16 -7.5h-226q-9 0 -14 -5.5t-5 -12.5v-17q0 -36 24 -62.5t63 -26.5q30 0 51.5 14.5t37.5 34.5q5 6 9.5 7.5t12.5 -3.5l44 -28q8 -5 11 -9.5t-1 -11.5q-25 -46 -68.5 -66.5t-94.5 -20.5q-41 0 -75 12t-58 33.5t-37 52.5t-13 69v113q0 39 13.5 71
t37.5 55t57 36t73 13t73.5 -12.5t57.5 -35t37 -55t13 -71.5v-48zM313 284q-2 38 -24 60.5t-61 22.5q-42 0 -61 -25t-22 -62q-1 -5 1.5 -8t11.5 -3h144q11 0 11 15zM374 526q5 -5 6 -10.5t-6 -10.5l-23 -14q-8 -5 -12.5 -4t-9.5 6l-93 85q-8 7 -14 1l-91 -87q-5 -5 -9.5 -5.5
t-12.5 4.5l-22 14q-7 5 -6.5 10.5t5.5 10.5l98 124q5 5 9 8t12 3h50q8 0 12.5 -3t9.5 -8z" />
    <glyph glyph-name="edieresis" unicode="&#xeb;" horiz-adv-x="448" 
d="M408 227q0 -11 -7 -18.5t-16 -7.5h-226q-9 0 -14 -5.5t-5 -12.5v-17q0 -36 24 -62.5t63 -26.5q30 0 51.5 14.5t37.5 34.5q5 6 9.5 7.5t12.5 -3.5l44 -28q8 -5 11 -9.5t-1 -11.5q-25 -46 -68.5 -66.5t-94.5 -20.5q-41 0 -75 12t-58 33.5t-37 52.5t-13 69v113q0 39 13.5 71
t37.5 55t57 36t73 13t73.5 -12.5t57.5 -35t37 -55t13 -71.5v-48zM313 284q-2 38 -24 60.5t-61 22.5q-42 0 -61 -25t-22 -62q-1 -5 1.5 -8t11.5 -3h144q11 0 11 15zM370 550q0 -23 -15 -38t-38 -15t-38.5 15t-15.5 38q0 22 15 37.5t38 15.5t38.5 -15.5t15.5 -37.5zM201 550
q0 -23 -15 -38t-38 -15t-38.5 15t-15.5 38q0 22 15.5 37.5t37.5 15.5q23 0 38.5 -15.5t15.5 -37.5z" />
    <glyph glyph-name="igrave" unicode="&#xec;" horiz-adv-x="213" 
d="M154 12q0 -3 -1 -6q-2 -6 -11 -6h-70q-13 0 -13 12v416q0 13 12 13h70q13 0 13 -13v-416zM136 521q8 -11 -4 -19l-24 -15q-6 -4 -12.5 -3t-10.5 6l-107 119q-4 5 -5.5 11.5t8.5 12.5l52 31q6 4 12 1t10 -9z" />
    <glyph glyph-name="iacute" unicode="&#xed;" horiz-adv-x="213" 
d="M154 12q0 -3 -1 -6q-2 -6 -11 -6h-70q-13 0 -13 12v416q0 13 12 13h70q13 0 13 -13v-416zM118 490q-4 -5 -10.5 -6t-12.5 3l-24 15q-11 7 -4 19l81 135q4 6 10.5 9t11.5 0l52 -32q10 -6 8.5 -12.5t-5.5 -10.5z" />
    <glyph glyph-name="icircumflex" unicode="&#xee;" horiz-adv-x="213" 
d="M154 12q0 -3 -1 -6q-2 -6 -11 -6h-70q-13 0 -13 12v416q0 13 12 13h70q13 0 13 -13v-416zM250 526q5 -5 6 -10.5t-6 -10.5l-23 -14q-8 -5 -12.5 -4t-9.5 6l-93 85q-8 7 -14 1l-91 -87q-5 -5 -9.5 -5.5t-12.5 4.5l-22 14q-7 5 -6.5 10.5t5.5 10.5l98 124q5 5 9 8t12 3h50
q8 0 12.5 -3t9.5 -8z" />
    <glyph glyph-name="idieresis" unicode="&#xef;" horiz-adv-x="213" 
d="M154 12q0 -3 -1 -6q-2 -6 -11 -6h-70q-13 0 -13 12v416q0 13 12 13h70q13 0 13 -13v-416zM247 550q0 -23 -15 -38t-38 -15t-38.5 15t-15.5 38q0 22 15 37.5t38 15.5t38.5 -15.5t15.5 -37.5zM78 550q0 -23 -15 -38t-38 -15t-38.5 15t-15.5 38q0 22 15.5 37.5t37.5 15.5
q23 0 38.5 -15.5t15.5 -37.5z" />
    <glyph glyph-name="eth" unicode="&#xf0;" horiz-adv-x="457" 
d="M45 236q0 92 43 139t125 47q61 0 98 -31q1 -1 4 -1t3 4q0 10 -0.5 19.5t-1.5 18.5q-1 10 -5 27.5t-12 31.5q-4 3 -9 -2l-35 -37q-7 -7 -13 -1l-26 22q-7 5 2 14l32 34q8 8 8 10q0 5 -6 9.5t-10 6.5q-17 8 -38 11t-44 4q-6 0 -13 3t-7 12v51q0 14 19 14h16q42 -2 76.5 -10
t64.5 -30q4 -2 6.5 -4t7.5 3l40 41q3 3 7 2.5t6 -2.5l26 -26q5 -5 -2 -12l-40 -41q-3 -3 -3 -6q0 -2 3.5 -6t5.5 -9q12 -17 18.5 -42.5t10.5 -54.5t5 -59.5t1 -56.5v-167q-2 -81 -52 -124.5t-131 -43.5q-84 0 -132 43.5t-48 128.5v70zM139 164q0 -39 21.5 -63.5t64.5 -24.5
q44 0 66.5 24.5t22.5 63.5v68q0 21 -4 40.5t-14 35t-27.5 25t-44.5 9.5q-46 0 -65.5 -27t-19.5 -62v-89z" />
    <glyph glyph-name="ntilde" unicode="&#xf1;" horiz-adv-x="471" 
d="M418 13q0 -13 -12 -13h-70q-13 0 -13 12v265q0 38 -21 63t-66 25q-39 0 -62.5 -24.5t-23.5 -62.5v-265q0 -13 -13 -13h-69q-14 0 -14 12v416q0 13 13 13h69q11 0 11 -12v-20q0 -8 4 -7.5t9 5.5q18 19 50 29.5t59 10.5q77 0 113 -46.5t36 -121.5v-266zM364 567
q-16 -31 -39.5 -45t-45.5 -14q-17 0 -32 5t-29.5 11.5t-28 11.5t-27.5 5q-19 0 -37 -27q-5 -5 -10.5 -4.5t-10.5 4.5l-26 19q-5 4 -4.5 9t2.5 10q13 25 35.5 41.5t49.5 16.5q15 0 30.5 -5.5t30.5 -12t28.5 -12t25.5 -5.5q11 0 20.5 8t16.5 19q5 10 16 4l31 -18q11 -7 4 -21z
" />
    <glyph glyph-name="ograve" unicode="&#xf2;" horiz-adv-x="458" 
d="M410 164q0 -82 -48 -126t-133 -44t-133.5 44t-48.5 124v117q0 38 13 69.5t37 54t57.5 34.5t73.5 12q84 0 133 -44t49 -125v-116zM142 164q0 -38 21 -63t65 -25q41 0 64 24t23 64v114q0 39 -22 63.5t-64 24.5t-64.5 -24.5t-22.5 -63.5v-114zM276 521q8 -11 -4 -19l-24 -15
q-6 -4 -12.5 -3t-10.5 6l-107 119q-4 5 -5.5 11.5t8.5 12.5l52 31q6 4 12 1t10 -9z" />
    <glyph glyph-name="oacute" unicode="&#xf3;" horiz-adv-x="458" 
d="M410 164q0 -82 -48 -126t-133 -44t-133.5 44t-48.5 124v117q0 38 13 69.5t37 54t57.5 34.5t73.5 12q84 0 133 -44t49 -125v-116zM142 164q0 -38 21 -63t65 -25q41 0 64 24t23 64v114q0 39 -22 63.5t-64 24.5t-64.5 -24.5t-22.5 -63.5v-114zM246 490q-4 -5 -10.5 -6
t-12.5 3l-24 15q-11 7 -4 19l81 135q4 6 10.5 9t11.5 0l52 -32q10 -6 8.5 -12.5t-5.5 -10.5z" />
    <glyph glyph-name="ocircumflex" unicode="&#xf4;" horiz-adv-x="458" 
d="M410 164q0 -82 -48 -126t-133 -44t-133.5 44t-48.5 124v117q0 38 13 69.5t37 54t57.5 34.5t73.5 12q84 0 133 -44t49 -125v-116zM142 164q0 -38 21 -63t65 -25q41 0 64 24t23 64v114q0 39 -22 63.5t-64 24.5t-64.5 -24.5t-22.5 -63.5v-114zM374 526q5 -5 6 -10.5
t-6 -10.5l-23 -14q-8 -5 -12.5 -4t-9.5 6l-93 85q-8 7 -14 1l-91 -87q-5 -5 -9.5 -5.5t-12.5 4.5l-22 14q-7 5 -6.5 10.5t5.5 10.5l98 124q5 5 9 8t12 3h50q8 0 12.5 -3t9.5 -8z" />
    <glyph glyph-name="otilde" unicode="&#xf5;" horiz-adv-x="458" 
d="M410 164q0 -82 -48 -126t-133 -44t-133.5 44t-48.5 124v117q0 38 13 69.5t37 54t57.5 34.5t73.5 12q84 0 133 -44t49 -125v-116zM142 164q0 -38 21 -63t65 -25q41 0 64 24t23 64v114q0 39 -22 63.5t-64 24.5t-64.5 -24.5t-22.5 -63.5v-114zM377 567q-16 -31 -39.5 -45
t-45.5 -14q-17 0 -32 5t-29.5 11.5t-28 11.5t-27.5 5q-19 0 -37 -27q-5 -5 -10.5 -4.5t-10.5 4.5l-26 19q-5 4 -4.5 9t2.5 10q13 25 35.5 41.5t49.5 16.5q15 0 30.5 -5.5t30.5 -12t28.5 -12t25.5 -5.5q11 0 20.5 8t16.5 19q5 10 16 4l31 -18q11 -7 4 -21z" />
    <glyph glyph-name="odieresis" unicode="&#xf6;" horiz-adv-x="458" 
d="M410 164q0 -82 -48 -126t-133 -44t-133.5 44t-48.5 124v117q0 38 13 69.5t37 54t57.5 34.5t73.5 12q84 0 133 -44t49 -125v-116zM142 164q0 -38 21 -63t65 -25q41 0 64 24t23 64v114q0 39 -22 63.5t-64 24.5t-64.5 -24.5t-22.5 -63.5v-114zM370 550q0 -23 -15 -38
t-38 -15t-38.5 15t-15.5 38q0 22 15 37.5t38 15.5t38.5 -15.5t15.5 -37.5zM201 550q0 -23 -15 -38t-38 -15t-38.5 15t-15.5 38q0 22 15.5 37.5t37.5 15.5q23 0 38.5 -15.5t15.5 -37.5z" />
    <glyph glyph-name="divide" unicode="&#xf7;" horiz-adv-x="486" 
d="M314 439q0 -26 -18.5 -44.5t-46.5 -18.5t-46.5 18.5t-18.5 44.5t19 45t46 19q26 0 45.5 -18.5t19.5 -45.5zM314 98q0 -26 -18.5 -44.5t-46.5 -18.5t-46.5 18.5t-18.5 44.5t19 45t46 19q26 0 45.5 -18.5t19.5 -45.5zM449 256q0 -22 -24 -22h-359q-24 0 -24 21v28
q0 20 24 20h359q24 0 24 -20v-27z" />
    <glyph glyph-name="oslash" unicode="&#xf8;" horiz-adv-x="448" 
d="M106 26q-4 3 -7 -2l-14 -17q-4 -5 -6.5 -7t-10.5 4l-20 17q-7 5 -8 9t3 9l19 25q3 4 1.5 6t-2.5 4q-10 18 -16 41.5t-6 49.5v113q0 39 13 70.5t37 54t57 34.5t73 12q61 0 106 -27q5 -2 8 -1t5 3l13 17q5 7 9.5 6t11.5 -6l22 -18q10 -7 2 -18l-16 -22q-4 -5 -2.5 -8
t1.5 -4q23 -37 23 -92v-113q0 -83 -49.5 -127.5t-132.5 -44.5q-33 0 -62 8.5t-52 23.5zM307 282q0 8 -2 7.5t-4 -2.5l-140 -180q-3 -4 0 -8q9 -11 25 -17t33 -6q40 0 63.5 24.5t24.5 64.5v117zM134 165q0 -6 3 -4.5t5 4.5l134 176q2 3 1 5t-2 3q-21 18 -55 18
q-35 0 -60.5 -24.5t-25.5 -64.5v-113z" />
    <glyph glyph-name="ugrave" unicode="&#xf9;" horiz-adv-x="466" 
d="M411 13q0 -13 -12 -13h-69q-11 0 -11 12v13q0 8 -4 7.5t-9 -5.5q-20 -17 -46 -25t-54 -8q-77 0 -117.5 46.5t-40.5 121.5v266q0 13 12 13h70q13 0 13 -12v-265q0 -38 20.5 -63t65.5 -25q40 0 63.5 24.5t23.5 62.5v265q0 13 13 13h69q13 0 13 -12v-416zM271 521
q8 -11 -4 -19l-24 -15q-6 -4 -12.5 -3t-10.5 6l-107 119q-4 5 -5.5 11.5t8.5 12.5l52 31q6 4 12 1t10 -9z" />
    <glyph glyph-name="uacute" unicode="&#xfa;" horiz-adv-x="466" 
d="M411 13q0 -13 -12 -13h-69q-11 0 -11 12v13q0 8 -4 7.5t-9 -5.5q-20 -17 -46 -25t-54 -8q-77 0 -117.5 46.5t-40.5 121.5v266q0 13 12 13h70q13 0 13 -12v-265q0 -38 20.5 -63t65.5 -25q40 0 63.5 24.5t23.5 62.5v265q0 13 13 13h69q13 0 13 -12v-416zM256 490
q-4 -5 -10.5 -6t-12.5 3l-24 15q-11 7 -4 19l81 135q4 6 10.5 9t11.5 0l52 -32q10 -6 8.5 -12.5t-5.5 -10.5z" />
    <glyph glyph-name="ucircumflex" unicode="&#xfb;" horiz-adv-x="466" 
d="M411 13q0 -13 -12 -13h-69q-11 0 -11 12v13q0 8 -4 7.5t-9 -5.5q-20 -17 -46 -25t-54 -8q-77 0 -117.5 46.5t-40.5 121.5v266q0 13 12 13h70q13 0 13 -12v-265q0 -38 20.5 -63t65.5 -25q40 0 63.5 24.5t23.5 62.5v265q0 13 13 13h69q13 0 13 -12v-416zM376 526
q5 -5 6 -10.5t-6 -10.5l-23 -14q-8 -5 -12.5 -4t-9.5 6l-93 85q-8 7 -14 1l-91 -87q-5 -5 -9.5 -5.5t-12.5 4.5l-22 14q-7 5 -6.5 10.5t5.5 10.5l98 124q5 5 9 8t12 3h50q8 0 12.5 -3t9.5 -8z" />
    <glyph glyph-name="udieresis" unicode="&#xfc;" horiz-adv-x="466" 
d="M411 13q0 -13 -12 -13h-69q-11 0 -11 12v13q0 8 -4 7.5t-9 -5.5q-20 -17 -46 -25t-54 -8q-77 0 -117.5 46.5t-40.5 121.5v266q0 13 12 13h70q13 0 13 -12v-265q0 -38 20.5 -63t65.5 -25q40 0 63.5 24.5t23.5 62.5v265q0 13 13 13h69q13 0 13 -12v-416zM370 550
q0 -23 -15 -38t-38 -15t-38.5 15t-15.5 38q0 22 15 37.5t38 15.5t38.5 -15.5t15.5 -37.5zM201 550q0 -23 -15 -38t-38 -15t-38.5 15t-15.5 38q0 22 15.5 37.5t37.5 15.5q23 0 38.5 -15.5t15.5 -37.5z" />
    <glyph glyph-name="yacute" unicode="&#xfd;" horiz-adv-x="428" 
d="M220 -162q-2 -8 -9 -14.5t-21 -6.5h-50q-11 0 -15.5 6.5t0.5 20.5l45 140q2 7 2 11.5t-9 4.5h-10q-19 0 -25 20l-112 404q-7 19 13 19h66q11 0 16 -4.5t7 -11.5l44 -180l34 -149q2 -8 6.5 -8.5t7.5 8.5l50 160l52 166q3 7 7.5 13t17.5 6h59q22 0 15 -22zM225 490
q-4 -5 -10.5 -6t-12.5 3l-24 15q-11 7 -4 19l81 135q4 6 10.5 9t11.5 0l52 -32q10 -6 8.5 -12.5t-5.5 -10.5z" />
    <glyph glyph-name="thorn" unicode="&#xfe;" horiz-adv-x="462" 
d="M417 163q0 -36 -12 -67t-34 -54t-52.5 -36t-67.5 -13q-32 0 -52 7.5t-33 18.5q-8 7 -12.5 4.5t-4.5 -8.5v-183q0 -13 -12 -13h-70q-13 0 -13 12v793q0 12 13 12h65q6 0 9 -2t3 -10v-206q0 -11 6 -9t12 7q13 12 34 21.5t53 9.5q77 0 122.5 -46t45.5 -122v-116zM322 278
q0 37 -24.5 62t-61.5 25q-38 0 -62.5 -25t-24.5 -61v-116q0 -36 24 -62t63 -26q38 0 62 25.5t24 62.5v115z" />
    <glyph glyph-name="ydieresis" unicode="&#xff;" horiz-adv-x="428" 
d="M220 -162q-2 -8 -9 -14.5t-21 -6.5h-50q-11 0 -15.5 6.5t0.5 20.5l45 140q2 7 2 11.5t-9 4.5h-10q-19 0 -25 20l-112 404q-7 19 13 19h66q11 0 16 -4.5t7 -11.5l44 -180l34 -149q2 -8 6.5 -8.5t7.5 8.5l50 160l52 166q3 7 7.5 13t17.5 6h59q22 0 15 -22zM353 550
q0 -23 -15 -38t-38 -15t-38.5 15t-15.5 38q0 22 15 37.5t38 15.5t38.5 -15.5t15.5 -37.5zM184 550q0 -23 -15 -38t-38 -15t-38.5 15t-15.5 38q0 22 15.5 37.5t37.5 15.5q23 0 38.5 -15.5t15.5 -37.5z" />
    <glyph glyph-name="Amacron" unicode="&#x100;" horiz-adv-x="470" 
d="M451 19q2 -5 0.5 -12t-12.5 -7h-71q-14 0 -17 10l-28 115q-2 5 -3 7t-6 2h-162q-6 0 -7 -2.5t-3 -5.5l-27 -116q-3 -10 -16 -10h-66q-20 0 -15 18l147 586q3 13 18 13h100q7 0 11 -2t6 -10zM261 384l-26 120q-1 4 -3 4t-3 -3l-25 -118l-38 -163q-1 -5 0 -7t6 -2h121
q9 0 6 9zM346 682q0 -15 -15 -15h-209q-16 0 -16 15v41q0 15 15 15h209q16 0 16 -14v-42z" />
    <glyph glyph-name="amacron" unicode="&#x101;" horiz-adv-x="450" 
d="M394 12q0 -12 -11 -12h-66q-11 0 -11 10v14q0 7 -4 8t-9 -4q-15 -12 -41.5 -22.5t-57.5 -10.5q-74 0 -114 40t-40 113q0 70 42.5 112t120.5 42q18 0 40.5 -5t41.5 -16q15 -10 15 6v14q0 31 -19 50.5t-63 19.5q-10 0 -24 -2t-29 -5t-29 -7t-24 -9q-13 -6 -18 8l-18 45
q-3 12 7 17q31 14 70 22.5t77 8.5q90 0 127 -44t37 -119v-274zM292 151q0 33 -20.5 57t-59.5 24q-41 0 -62.5 -23.5t-21.5 -57.5q0 -35 19.5 -58t61.5 -23q41 0 62 25t21 56zM358 530q0 -15 -15 -15h-209q-16 0 -16 15v41q0 15 15 15h209q16 0 16 -14v-42z" />
    <glyph glyph-name="Abreve" unicode="&#x102;" horiz-adv-x="470" 
d="M451 19q2 -5 0.5 -12t-12.5 -7h-71q-14 0 -17 10l-28 115q-2 5 -3 7t-6 2h-162q-6 0 -7 -2.5t-3 -5.5l-27 -116q-3 -10 -16 -10h-66q-20 0 -15 18l147 586q3 13 18 13h100q7 0 11 -2t6 -10zM226 713q22 0 36 16t23 42q2 6 5.5 9t11.5 3h34q10 0 12.5 -4.5t1.5 -11.5
q-3 -25 -13 -48t-26 -40t-37.5 -27.5t-47.5 -10.5q-25 0 -46.5 10.5t-37.5 27.5t-26.5 40t-13.5 48q-1 7 1.5 11.5t12.5 4.5h34q8 0 11.5 -3t5.5 -9q9 -26 23 -42t36 -16zM261 384l-26 120q-1 4 -3 4t-3 -3l-25 -118l-38 -163q-1 -5 0 -7t6 -2h121q9 0 6 9z" />
    <glyph glyph-name="abreve" unicode="&#x103;" horiz-adv-x="450" 
d="M394 12q0 -12 -11 -12h-66q-11 0 -11 10v14q0 7 -4 8t-9 -4q-15 -12 -41.5 -22.5t-57.5 -10.5q-74 0 -114 40t-40 113q0 70 42.5 112t120.5 42q18 0 40.5 -5t41.5 -16q15 -10 15 6v14q0 31 -19 50.5t-63 19.5q-10 0 -24 -2t-29 -5t-29 -7t-24 -9q-13 -6 -18 8l-18 45
q-3 12 7 17q31 14 70 22.5t77 8.5q90 0 127 -44t37 -119v-274zM292 151q0 33 -20.5 57t-59.5 24q-41 0 -62.5 -23.5t-21.5 -57.5q0 -35 19.5 -58t61.5 -23q41 0 62 25t21 56zM236 563q22 0 37 16t24 42q2 6 4.5 9t10.5 3h34q10 0 12.5 -4.5t1.5 -11.5q-3 -25 -13 -48
t-26 -40t-37.5 -27.5t-47.5 -10.5q-25 0 -46.5 10.5t-37.5 27.5t-26.5 40t-13.5 48q-1 7 1.5 11.5t12.5 4.5h34q8 0 11.5 -3t5.5 -9q9 -26 23 -42t36 -16z" />
    <glyph glyph-name="Aogonek" unicode="&#x104;" horiz-adv-x="470" 
d="M335 10q8 8 13 9l-25 106q-2 5 -3 7t-6 2h-162q-6 0 -7 -2.5t-3 -5.5l-27 -116q-3 -10 -16 -10h-66q-20 0 -15 18l147 586q3 13 18 13h100q7 0 11 -2t6 -10l151 -586q2 -5 0.5 -12t-12.5 -7h-55q-21 -23 -34 -52t-13 -54q0 -13 5 -21t21 -8q15 0 32 7t29 15q8 5 13 -1
l16 -24q3 -5 2.5 -7.5t-5.5 -6.5q-17 -14 -43.5 -26t-54.5 -12q-45 0 -63 21.5t-18 53.5q0 16 5 33.5t14 34.5t20.5 31.5t24.5 25.5zM261 384l-26 120q-1 4 -3 4t-3 -3l-25 -118l-38 -163q-1 -5 0 -7t6 -2h121q9 0 6 9z" />
    <glyph glyph-name="aogonek" unicode="&#x105;" horiz-adv-x="450" 
d="M306 12v12q0 7 -4 8t-9 -4q-15 -12 -41.5 -22.5t-57.5 -10.5q-74 0 -114 40t-40 113q0 70 42.5 112t120.5 42q18 0 40.5 -5t41.5 -16q15 -10 15 6v14q0 31 -19 50.5t-63 19.5q-10 0 -24 -2t-29 -5t-29 -7t-24 -9q-13 -6 -18 8l-18 45q-3 12 7 17q31 14 70 22.5t77 8.5
q90 0 127 -44t37 -119v-274q0 -12 -11 -12h-30q-21 -23 -34 -52t-13 -54q0 -13 5 -21t21 -8q15 0 32 7t29 15q8 5 13 -1l16 -24q3 -5 2.5 -7.5t-5.5 -6.5q-17 -14 -43.5 -26t-54.5 -12q-45 0 -63 21.5t-18 53.5q0 16 5 33.5t14 34.5t20.5 31.5t24.5 25.5zM292 151
q0 33 -20.5 57t-59.5 24q-41 0 -62.5 -23.5t-21.5 -57.5q0 -35 19.5 -58t61.5 -23q41 0 62 25t21 56z" />
    <glyph glyph-name="Cacute" unicode="&#x106;" horiz-adv-x="451" 
d="M251 -6q-42 0 -77.5 12t-61 34.5t-39.5 54.5t-14 73v284q0 40 14 72t39 54.5t59.5 35t75.5 12.5q49 0 94 -16.5t83 -66.5q5 -6 4.5 -11.5t-8.5 -12.5l-46 -36q-6 -5 -13 -2.5t-11 8.5q-17 23 -44 36.5t-57 13.5q-45 0 -68.5 -25.5t-23.5 -63.5v-282q0 -37 25 -62t70 -25
q29 0 55 14.5t43 33.5q5 5 10.5 9.5t13.5 -1.5l50 -35q12 -7 5 -20q-32 -46 -78.5 -67t-99.5 -21zM369 739q7 -9 3 -15t-9 -8l-146 -73q-12 -5 -21 8l-16 23q-9 10 3 19l126 95q5 5 12 5t11 -5z" />
    <glyph glyph-name="cacute" unicode="&#x107;" horiz-adv-x="412" 
d="M388 80q-30 -45 -70.5 -65.5t-91.5 -20.5q-83 0 -133 45t-50 123v114q0 40 14 71.5t39 54t59 34.5t73 12q48 0 88 -20.5t69 -62.5q3 -5 2.5 -12t-7.5 -12l-45 -32q-11 -8 -16.5 -3.5t-10.5 12.5q-15 23 -40 35.5t-42 12.5q-38 0 -63 -24t-25 -61v-121q0 -36 25 -59.5
t62 -23.5q18 0 32.5 5t25 12.5t18 16.5t12.5 16q6 8 11 9t14 -5l41 -27q18 -12 9 -24zM223 490q-4 -5 -10.5 -6t-12.5 3l-24 15q-11 7 -4 19l81 135q4 6 10.5 9t11.5 0l52 -32q10 -6 8.5 -12.5t-5.5 -10.5z" />
    <glyph glyph-name="Ccircumflex" unicode="&#x108;" horiz-adv-x="451" 
d="M251 -6q-42 0 -77.5 12t-61 34.5t-39.5 54.5t-14 73v284q0 40 14 72t39 54.5t59.5 35t75.5 12.5q49 0 94 -16.5t83 -66.5q5 -6 4.5 -11.5t-8.5 -12.5l-46 -36q-6 -5 -13 -2.5t-11 8.5q-17 23 -44 36.5t-57 13.5q-45 0 -68.5 -25.5t-23.5 -63.5v-282q0 -37 25 -62t70 -25
q29 0 55 14.5t43 33.5q5 5 10.5 9.5t13.5 -1.5l50 -35q12 -7 5 -20q-32 -46 -78.5 -67t-99.5 -21zM392 685q5 -5 6 -10.5t-6 -10.5l-22 -19q-5 -4 -9.5 -2t-11.5 6l-94 62q-6 4 -12 0l-92 -63q-7 -5 -11 -5.5t-11 4.5l-20 19q-7 5 -6.5 10.5t5.5 10.5l96 94q5 5 9 8t12 3h50
q8 0 12.5 -3t9.5 -8z" />
    <glyph glyph-name="ccircumflex" unicode="&#x109;" horiz-adv-x="412" 
d="M388 80q-30 -45 -70.5 -65.5t-91.5 -20.5q-83 0 -133 45t-50 123v114q0 40 14 71.5t39 54t59 34.5t73 12q48 0 88 -20.5t69 -62.5q3 -5 2.5 -12t-7.5 -12l-45 -32q-11 -8 -16.5 -3.5t-10.5 12.5q-15 23 -40 35.5t-42 12.5q-38 0 -63 -24t-25 -61v-121q0 -36 25 -59.5
t62 -23.5q18 0 32.5 5t25 12.5t18 16.5t12.5 16q6 8 11 9t14 -5l41 -27q18 -12 9 -24zM367 526q5 -5 6 -10.5t-6 -10.5l-23 -14q-8 -5 -12.5 -4t-9.5 6l-93 85q-8 7 -14 1l-91 -87q-5 -5 -9.5 -5.5t-12.5 4.5l-22 14q-7 5 -6.5 10.5t5.5 10.5l98 124q5 5 9 8t12 3h50
q8 0 12.5 -3t9.5 -8z" />
    <glyph glyph-name="Cdotaccent" unicode="&#x10a;" horiz-adv-x="451" 
d="M251 -6q-42 0 -77.5 12t-61 34.5t-39.5 54.5t-14 73v284q0 40 14 72t39 54.5t59.5 35t75.5 12.5q49 0 94 -16.5t83 -66.5q5 -6 4.5 -11.5t-8.5 -12.5l-46 -36q-6 -5 -13 -2.5t-11 8.5q-17 23 -44 36.5t-57 13.5q-45 0 -68.5 -25.5t-23.5 -63.5v-282q0 -37 25 -62t70 -25
q29 0 55 14.5t43 33.5q5 5 10.5 9.5t13.5 -1.5l50 -35q12 -7 5 -20q-32 -46 -78.5 -67t-99.5 -21zM307 726q0 -23 -15.5 -38t-37.5 -15q-23 0 -38.5 14.5t-15.5 37.5q0 22 15 37.5t38 15.5t38.5 -15.5t15.5 -36.5z" />
    <glyph glyph-name="cdotaccent" unicode="&#x10b;" horiz-adv-x="412" 
d="M388 80q-30 -45 -70.5 -65.5t-91.5 -20.5q-83 0 -133 45t-50 123v114q0 40 14 71.5t39 54t59 34.5t73 12q48 0 88 -20.5t69 -62.5q3 -5 2.5 -12t-7.5 -12l-45 -32q-11 -8 -16.5 -3.5t-10.5 12.5q-15 23 -40 35.5t-42 12.5q-38 0 -63 -24t-25 -61v-121q0 -36 25 -59.5
t62 -23.5q18 0 32.5 5t25 12.5t18 16.5t12.5 16q6 8 11 9t14 -5l41 -27q18 -12 9 -24zM280 556q0 -23 -15.5 -38t-37.5 -15q-23 0 -38.5 14.5t-15.5 37.5q0 22 15 37.5t38 15.5t38.5 -15.5t15.5 -36.5z" />
    <glyph glyph-name="Ccaron" unicode="&#x10c;" horiz-adv-x="451" 
d="M251 -6q-42 0 -77.5 12t-61 34.5t-39.5 54.5t-14 73v284q0 40 14 72t39 54.5t59.5 35t75.5 12.5q49 0 94 -16.5t83 -66.5q5 -6 4.5 -11.5t-8.5 -12.5l-46 -36q-6 -5 -13 -2.5t-11 8.5q-17 23 -44 36.5t-57 13.5q-45 0 -68.5 -25.5t-23.5 -63.5v-282q0 -37 25 -62t70 -25
q29 0 55 14.5t43 33.5q5 5 10.5 9.5t13.5 -1.5l50 -35q12 -7 5 -20q-32 -46 -78.5 -67t-99.5 -21zM296 664q-5 -5 -9.5 -8t-12.5 -3h-50q-8 0 -12 3t-9 8l-96 94q-5 5 -5.5 10.5t6.5 10.5l20 19q7 5 11 4.5t11 -5.5l92 -63q6 -4 12 0l94 62q7 4 11.5 6t9.5 -2l22 -19
q7 -5 6 -10.5t-6 -10.5z" />
    <glyph glyph-name="ccaron" unicode="&#x10d;" horiz-adv-x="412" 
d="M388 80q-30 -45 -70.5 -65.5t-91.5 -20.5q-83 0 -133 45t-50 123v114q0 40 14 71.5t39 54t59 34.5t73 12q48 0 88 -20.5t69 -62.5q3 -5 2.5 -12t-7.5 -12l-45 -32q-11 -8 -16.5 -3.5t-10.5 12.5q-15 23 -40 35.5t-42 12.5q-38 0 -63 -24t-25 -61v-121q0 -36 25 -59.5
t62 -23.5q18 0 32.5 5t25 12.5t18 16.5t12.5 16q6 8 11 9t14 -5l41 -27q18 -12 9 -24zM281 503q-5 -5 -9.5 -8t-12.5 -3h-50q-8 0 -12 3t-9 8l-98 124q-5 5 -5.5 10.5t6.5 10.5l22 14q8 5 12.5 4.5t9.5 -5.5l91 -87q6 -7 14 1l93 85q5 5 9.5 6t12.5 -4l23 -14q7 -5 6 -10.5
t-6 -10.5z" />
    <glyph glyph-name="Dcaron" unicode="&#x10e;" horiz-adv-x="510" 
d="M78 0q-16 0 -16 14v589q0 14 16 14h190q93 0 140 -48t47 -134v-248q0 -91 -47.5 -139t-137.5 -48h-192zM265 87q47 0 69 25t22 68v259q0 49 -26.5 70.5t-70.5 21.5h-85q-13 0 -13 -12v-419q0 -13 12 -13h92zM264 664q-5 -5 -9.5 -8t-12.5 -3h-50q-8 0 -12 3t-9 8l-96 94
q-5 5 -5.5 10.5t6.5 10.5l20 19q7 5 11 4.5t11 -5.5l92 -63q6 -4 12 0l94 62q7 4 11.5 6t9.5 -2l22 -19q7 -5 6 -10.5t-6 -10.5z" />
    <glyph glyph-name="dcaron" unicode="&#x10f;" horiz-adv-x="562" 
d="M408 12q0 -12 -13 -12h-64q-8 0 -9.5 3.5t-2.5 8.5v9q-1 16 -11 6q-19 -18 -44 -25.5t-57 -7.5q-42 0 -72.5 13t-50.5 36t-29.5 53.5t-9.5 66.5v115q0 34 11 64.5t32 54t51.5 37t69.5 13.5q34 0 54.5 -8.5t32.5 -17.5q8 -6 12.5 -6t4.5 11v199q0 12 13 12h69q13 0 13 -13
v-612zM314 278q0 36 -21.5 62t-66.5 26q-40 0 -63.5 -26t-23.5 -62v-115q0 -38 22 -62.5t66 -24.5q37 0 61.5 25.5t24.5 61.5zM508 463q-5 -17 -22 -17h-27q-11 0 -13.5 7.5t-2.5 16.5l11 145q0 22 22 22h62q15 0 18.5 -7t-0.5 -19z" />
    <glyph glyph-name="Dcroat" unicode="&#x110;" horiz-adv-x="510" 
d="M78 0q-16 0 -16 14v255q0 5 -1 8t-8 3h-29q-13 0 -13 13v41q0 13 12 13h30q9 0 9 11v245q0 14 16 14h190q93 0 140 -48t47 -134v-248q0 -91 -47.5 -139t-137.5 -48h-192zM265 87q47 0 69 25t22 68v259q0 49 -26.5 70.5t-70.5 21.5h-85q-13 0 -13 -12v-160q0 -8 2.5 -10
t7.5 -2h66q14 0 14 -13v-41q0 -13 -13 -13h-67q-10 0 -10 -7v-173q0 -13 12 -13h92z" />
    <glyph glyph-name="dcroat" unicode="&#x111;" horiz-adv-x="460" 
d="M313 473q0 11 -10 11h-90q-12 0 -12 12v38q0 11 13 11h88q11 0 11 11v49q0 12 13 12h69q13 0 13 -13v-47q0 -12 9 -12h29q12 0 12 -12v-37q0 -12 -13 -12h-25q-10 0 -11 -3.5t-1 -9.5v-459q0 -12 -13 -12h-64q-8 0 -9.5 3.5t-2.5 8.5v9q-1 16 -11 6q-19 -18 -41 -25
t-54 -7q-38 0 -69 13t-53 35.5t-34 53t-12 66.5v103q0 34 11.5 64.5t33 54t52 37t67.5 13.5q34 0 54.5 -8.5t32.5 -17.5q8 -6 12.5 -6t4.5 11v59zM314 266q0 36 -24.5 62t-63.5 26t-63 -26t-24 -62v-103q0 -38 25 -62.5t63 -24.5q37 0 61.5 25.5t24.5 61.5z" />
    <glyph glyph-name="Emacron" unicode="&#x112;" horiz-adv-x="454" 
d="M408 87q14 0 14 -14v-58q0 -15 -14 -15h-332q-15 0 -15 14v589q0 14 15 14h327q6 0 10.5 -3t4.5 -11v-57q0 -15 -14 -15h-233q-12 0 -12 -10v-145q0 -13 12 -13h192q14 0 14 -15v-57q0 -14 -13 -14h-193q-12 0 -12 -12v-166q0 -12 13 -12h236zM356 682q0 -15 -15 -15
h-209q-16 0 -16 15v41q0 15 15 15h209q16 0 16 -14v-42z" />
    <glyph glyph-name="emacron" unicode="&#x113;" horiz-adv-x="448" 
d="M408 227q0 -11 -7 -18.5t-16 -7.5h-226q-9 0 -14 -5.5t-5 -12.5v-17q0 -36 24 -62.5t63 -26.5q30 0 51.5 14.5t37.5 34.5q5 6 9.5 7.5t12.5 -3.5l44 -28q8 -5 11 -9.5t-1 -11.5q-25 -46 -68.5 -66.5t-94.5 -20.5q-41 0 -75 12t-58 33.5t-37 52.5t-13 69v113q0 39 13.5 71
t37.5 55t57 36t73 13t73.5 -12.5t57.5 -35t37 -55t13 -71.5v-48zM313 284q-2 38 -24 60.5t-61 22.5q-42 0 -61 -25t-22 -62q-1 -5 1.5 -8t11.5 -3h144q11 0 11 15zM359 530q0 -15 -15 -15h-209q-16 0 -16 15v41q0 15 15 15h209q16 0 16 -14v-42z" />
    <glyph glyph-name="Ebreve" unicode="&#x114;" horiz-adv-x="454" 
d="M408 87q14 0 14 -14v-58q0 -15 -14 -15h-332q-15 0 -15 14v589q0 14 15 14h327q6 0 10.5 -3t4.5 -11v-57q0 -15 -14 -15h-233q-12 0 -12 -10v-145q0 -13 12 -13h192q14 0 14 -15v-57q0 -14 -13 -14h-193q-12 0 -12 -12v-166q0 -12 13 -12h236zM230 713q22 0 36 16t23 42
q2 6 5.5 9t11.5 3h34q10 0 12.5 -4.5t1.5 -11.5q-3 -25 -13 -48t-26 -40t-37.5 -27.5t-47.5 -10.5q-25 0 -46.5 10.5t-37.5 27.5t-26.5 40t-13.5 48q-1 7 1.5 11.5t12.5 4.5h34q8 0 11.5 -3t5.5 -9q9 -26 23 -42t36 -16z" />
    <glyph glyph-name="ebreve" unicode="&#x115;" horiz-adv-x="448" 
d="M408 227q0 -11 -7 -18.5t-16 -7.5h-226q-9 0 -14 -5.5t-5 -12.5v-17q0 -36 24 -62.5t63 -26.5q30 0 51.5 14.5t37.5 34.5q5 6 9.5 7.5t12.5 -3.5l44 -28q8 -5 11 -9.5t-1 -11.5q-25 -46 -68.5 -66.5t-94.5 -20.5q-41 0 -75 12t-58 33.5t-37 52.5t-13 69v113q0 39 13.5 71
t37.5 55t57 36t73 13t73.5 -12.5t57.5 -35t37 -55t13 -71.5v-48zM313 284q-2 38 -24 60.5t-61 22.5q-42 0 -61 -25t-22 -62q-1 -5 1.5 -8t11.5 -3h144q11 0 11 15zM229 563q22 0 37 16t24 42q2 6 4.5 9t10.5 3h34q10 0 12.5 -4.5t1.5 -11.5q-3 -25 -13 -48t-26 -40
t-37.5 -27.5t-47.5 -10.5q-25 0 -46.5 10.5t-37.5 27.5t-26.5 40t-13.5 48q-1 7 1.5 11.5t12.5 4.5h34q8 0 11.5 -3t5.5 -9q9 -26 23 -42t36 -16z" />
    <glyph glyph-name="Edotaccent" unicode="&#x116;" horiz-adv-x="454" 
d="M408 87q14 0 14 -14v-58q0 -15 -14 -15h-332q-15 0 -15 14v589q0 14 15 14h327q6 0 10.5 -3t4.5 -11v-57q0 -15 -14 -15h-233q-12 0 -12 -10v-145q0 -13 12 -13h192q14 0 14 -15v-57q0 -14 -13 -14h-193q-12 0 -12 -12v-166q0 -12 13 -12h236zM295 706q0 -23 -15.5 -38
t-37.5 -15q-23 0 -38.5 14.5t-15.5 37.5q0 22 15 37.5t38 15.5t38.5 -15.5t15.5 -36.5z" />
    <glyph glyph-name="edotaccent" unicode="&#x117;" horiz-adv-x="448" 
d="M408 227q0 -11 -7 -18.5t-16 -7.5h-226q-9 0 -14 -5.5t-5 -12.5v-17q0 -36 24 -62.5t63 -26.5q30 0 51.5 14.5t37.5 34.5q5 6 9.5 7.5t12.5 -3.5l44 -28q8 -5 11 -9.5t-1 -11.5q-25 -46 -68.5 -66.5t-94.5 -20.5q-41 0 -75 12t-58 33.5t-37 52.5t-13 69v113q0 39 13.5 71
t37.5 55t57 36t73 13t73.5 -12.5t57.5 -35t37 -55t13 -71.5v-48zM313 284q-2 38 -24 60.5t-61 22.5q-42 0 -61 -25t-22 -62q-1 -5 1.5 -8t11.5 -3h144q11 0 11 15zM288 556q0 -23 -15.5 -38t-37.5 -15q-23 0 -38.5 14.5t-15.5 37.5q0 22 15 37.5t38 15.5t38.5 -15.5
t15.5 -36.5z" />
    <glyph glyph-name="Eogonek" unicode="&#x118;" horiz-adv-x="454" 
d="M408 87q14 0 14 -14v-58q0 -15 -14 -15h-36q-21 -23 -34 -52t-13 -54q0 -13 5 -21t21 -8q15 0 32 7t29 15q8 5 13 -1l16 -24q3 -5 2.5 -7.5t-5.5 -6.5q-17 -14 -43.5 -26t-54.5 -12q-45 0 -63 21.5t-18 53.5q0 29 15.5 61t37.5 54h-236q-15 0 -15 14v589q0 14 15 14h327
q6 0 10.5 -3t4.5 -11v-57q0 -15 -14 -15h-233q-12 0 -12 -10v-145q0 -13 12 -13h192q14 0 14 -15v-57q0 -14 -13 -14h-193q-12 0 -12 -12v-166q0 -12 13 -12h236z" />
    <glyph glyph-name="eogonek" unicode="&#x119;" horiz-adv-x="448" 
d="M408 227q0 -11 -7 -18.5t-16 -7.5h-226q-9 0 -14 -5.5t-5 -12.5v-17q0 -36 24 -62.5t63 -26.5q30 0 51.5 14.5t37.5 34.5q5 6 9.5 7.5t12.5 -3.5l44 -28q8 -5 11 -9.5t-1 -11.5q-15 -28 -37 -46t-49 -28q-20 -23 -32 -51t-12 -52q0 -13 5 -21t21 -8q15 0 32 7t29 15
q8 5 13 -1l16 -24q3 -5 2.5 -7.5t-5.5 -6.5q-17 -14 -43.5 -26t-54.5 -12q-45 0 -63 21.5t-18 53.5q0 24 11 50.5t28 48.5h-6q-41 0 -75 12t-58 33.5t-37 52.5t-13 69v113q0 39 13.5 71t37.5 55t57 36t73 13t73.5 -12.5t57.5 -35t37 -55t13 -71.5v-48zM313 284
q-2 38 -24 60.5t-61 22.5q-42 0 -61 -25t-22 -62q-1 -5 1.5 -8t11.5 -3h144q11 0 11 15z" />
    <glyph glyph-name="Ecaron" unicode="&#x11a;" horiz-adv-x="454" 
d="M408 87q14 0 14 -14v-58q0 -15 -14 -15h-332q-15 0 -15 14v589q0 14 15 14h327q6 0 10.5 -3t4.5 -11v-57q0 -15 -14 -15h-233q-12 0 -12 -10v-145q0 -13 12 -13h192q14 0 14 -15v-57q0 -14 -13 -14h-193q-12 0 -12 -12v-166q0 -12 13 -12h236zM282 664q-5 -5 -9.5 -8
t-12.5 -3h-50q-8 0 -12 3t-9 8l-96 94q-5 5 -5.5 10.5t6.5 10.5l20 19q7 5 11 4.5t11 -5.5l92 -63q6 -4 12 0l94 62q7 4 11.5 6t9.5 -2l22 -19q7 -5 6 -10.5t-6 -10.5z" />
    <glyph glyph-name="ecaron" unicode="&#x11b;" horiz-adv-x="448" 
d="M408 227q0 -11 -7 -18.5t-16 -7.5h-226q-9 0 -14 -5.5t-5 -12.5v-17q0 -36 24 -62.5t63 -26.5q30 0 51.5 14.5t37.5 34.5q5 6 9.5 7.5t12.5 -3.5l44 -28q8 -5 11 -9.5t-1 -11.5q-25 -46 -68.5 -66.5t-94.5 -20.5q-41 0 -75 12t-58 33.5t-37 52.5t-13 69v113q0 39 13.5 71
t37.5 55t57 36t73 13t73.5 -12.5t57.5 -35t37 -55t13 -71.5v-48zM278 503q-5 -5 -9.5 -8t-12.5 -3h-50q-8 0 -12 3t-9 8l-98 124q-5 5 -5.5 10.5t6.5 10.5l22 14q8 5 12.5 4.5t9.5 -5.5l91 -87q6 -7 14 1l93 85q5 5 9.5 6t12.5 -4l23 -14q7 -5 6 -10.5t-6 -10.5zM313 284
q-2 38 -24 60.5t-61 22.5q-42 0 -61 -25t-22 -62q-1 -5 1.5 -8t11.5 -3h144q11 0 11 15z" />
    <glyph glyph-name="Gcircumflex" unicode="&#x11c;" horiz-adv-x="496" 
d="M252 626q52 0 101.5 -19t77.5 -69q8 -12 -5 -22l-48 -36q-7 -4 -13 -1t-11 9q-20 28 -46 39t-53 11q-48 0 -73 -27t-25 -66v-277q0 -38 26.5 -62.5t70.5 -24.5q40 0 65 23t25 65v77q0 9 -8 9h-64q-15 0 -15 14v58q0 14 15 14h155q17 0 17 -14v-161q0 -39 -14 -71
t-39.5 -54.5t-60.5 -34.5t-77 -12t-77.5 11.5t-61.5 33.5t-40.5 54t-14.5 73v287q0 40 15 72t41 54.5t61 34.5t76 12zM389 685q5 -5 6 -10.5t-6 -10.5l-22 -19q-5 -4 -9.5 -2t-11.5 6l-94 62q-6 4 -12 0l-92 -63q-7 -5 -11 -5.5t-11 4.5l-20 19q-7 5 -6.5 10.5t5.5 10.5
l96 94q5 5 9 8t12 3h50q8 0 12.5 -3t9.5 -8z" />
    <glyph glyph-name="gcircumflex" unicode="&#x11d;" horiz-adv-x="454" 
d="M446 374q0 -8 -2.5 -10.5t-12.5 -1.5q-13 2 -25.5 1t-18.5 -3q-4 -2 -8.5 -3.5t-1.5 -7.5q15 -29 15 -62q0 -36 -14.5 -65.5t-39.5 -51.5t-59 -34t-72 -12q-7 0 -13 -0.5t-10 -0.5q-23 -3 -40 -21t-21 -38q-2 -8 7 -7q13 3 28 5t29 3.5t26 2.5t20 1q37 0 73.5 -7
t65.5 -23.5t47 -43t18 -65.5q0 -22 -8 -41.5t-21 -36t-31 -29.5t-37 -22q-8 -4 -15 -4t-11 7l-26 42q-7 12 8 21q6 4 14 10.5t15 15t12 17t5 17.5q0 34 -30.5 47t-76.5 13q-32 0 -75 -5t-80 -10q-13 -2 -18.5 1t-9.5 9q-20 28 -20 71q0 26 18 51.5t46 39.5q10 5 0 14
q-29 21 -47 54t-18 75q0 34 14.5 63t39 51t56.5 34.5t66 12.5q32 0 62 -9.5t55 -26.5q6 -5 13 0q26 17 48 25.5t46 8.5q9 0 12 -4t3 -12v-56zM296 282q0 33 -23 57.5t-60 24.5q-41 0 -65 -24.5t-24 -57.5q0 -32 22 -56.5t61 -24.5q43 0 66 24t23 57zM358 526q5 -5 6 -10.5
t-6 -10.5l-23 -14q-8 -5 -12.5 -4t-9.5 6l-93 85q-8 7 -14 1l-91 -87q-5 -5 -9.5 -5.5t-12.5 4.5l-22 14q-7 5 -6.5 10.5t5.5 10.5l98 124q5 5 9 8t12 3h50q8 0 12.5 -3t9.5 -8z" />
    <glyph glyph-name="Gbreve" unicode="&#x11e;" horiz-adv-x="496" 
d="M252 626q52 0 101.5 -19t77.5 -69q8 -12 -5 -22l-48 -36q-7 -4 -13 -1t-11 9q-20 28 -46 39t-53 11q-48 0 -73 -27t-25 -66v-277q0 -38 26.5 -62.5t70.5 -24.5q40 0 65 23t25 65v77q0 9 -8 9h-64q-15 0 -15 14v58q0 14 15 14h155q17 0 17 -14v-161q0 -39 -14 -71
t-39.5 -54.5t-60.5 -34.5t-77 -12t-77.5 11.5t-61.5 33.5t-40.5 54t-14.5 73v287q0 40 15 72t41 54.5t61 34.5t76 12zM250 713q22 0 36 16t23 42q2 6 5.5 9t11.5 3h34q10 0 12.5 -4.5t1.5 -11.5q-3 -25 -13 -48t-26 -40t-37.5 -27.5t-47.5 -10.5q-25 0 -46.5 10.5
t-37.5 27.5t-26.5 40t-13.5 48q-1 7 1.5 11.5t12.5 4.5h34q8 0 11.5 -3t5.5 -9q9 -26 23 -42t36 -16z" />
    <glyph glyph-name="gbreve" unicode="&#x11f;" horiz-adv-x="454" 
d="M446 374q0 -8 -2.5 -10.5t-12.5 -1.5q-13 2 -25.5 1t-18.5 -3q-4 -2 -8.5 -3.5t-1.5 -7.5q15 -29 15 -62q0 -36 -14.5 -65.5t-39.5 -51.5t-59 -34t-72 -12q-7 0 -13 -0.5t-10 -0.5q-23 -3 -40 -21t-21 -38q-2 -8 7 -7q13 3 28 5t29 3.5t26 2.5t20 1q37 0 73.5 -7
t65.5 -23.5t47 -43t18 -65.5q0 -22 -8 -41.5t-21 -36t-31 -29.5t-37 -22q-8 -4 -15 -4t-11 7l-26 42q-7 12 8 21q6 4 14 10.5t15 15t12 17t5 17.5q0 34 -30.5 47t-76.5 13q-32 0 -75 -5t-80 -10q-13 -2 -18.5 1t-9.5 9q-20 28 -20 71q0 26 18 51.5t46 39.5q10 5 0 14
q-29 21 -47 54t-18 75q0 34 14.5 63t39 51t56.5 34.5t66 12.5q32 0 62 -9.5t55 -26.5q6 -5 13 0q26 17 48 25.5t46 8.5q9 0 12 -4t3 -12v-56zM296 282q0 33 -23 57.5t-60 24.5q-41 0 -65 -24.5t-24 -57.5q0 -32 22 -56.5t61 -24.5q43 0 66 24t23 57zM222 563q22 0 37 16
t24 42q2 6 4.5 9t10.5 3h34q10 0 12.5 -4.5t1.5 -11.5q-3 -25 -13 -48t-26 -40t-37.5 -27.5t-47.5 -10.5q-25 0 -46.5 10.5t-37.5 27.5t-26.5 40t-13.5 48q-1 7 1.5 11.5t12.5 4.5h34q8 0 11.5 -3t5.5 -9q9 -26 23 -42t36 -16z" />
    <glyph glyph-name="Gdotaccent" unicode="&#x120;" horiz-adv-x="496" 
d="M252 626q52 0 101.5 -19t77.5 -69q8 -12 -5 -22l-48 -36q-7 -4 -13 -1t-11 9q-20 28 -46 39t-53 11q-48 0 -73 -27t-25 -66v-277q0 -38 26.5 -62.5t70.5 -24.5q40 0 65 23t25 65v77q0 9 -8 9h-64q-15 0 -15 14v58q0 14 15 14h155q17 0 17 -14v-161q0 -39 -14 -71
t-39.5 -54.5t-60.5 -34.5t-77 -12t-77.5 11.5t-61.5 33.5t-40.5 54t-14.5 73v287q0 40 15 72t41 54.5t61 34.5t76 12zM307 706q0 -23 -15.5 -38t-37.5 -15q-23 0 -38.5 14.5t-15.5 37.5q0 22 15 37.5t38 15.5t38.5 -15.5t15.5 -36.5z" />
    <glyph glyph-name="gdotaccent" unicode="&#x121;" horiz-adv-x="454" 
d="M446 374q0 -8 -2.5 -10.5t-12.5 -1.5q-13 2 -25.5 1t-18.5 -3q-4 -2 -8.5 -3.5t-1.5 -7.5q15 -29 15 -62q0 -36 -14.5 -65.5t-39.5 -51.5t-59 -34t-72 -12q-7 0 -13 -0.5t-10 -0.5q-23 -3 -40 -21t-21 -38q-2 -8 7 -7q13 3 28 5t29 3.5t26 2.5t20 1q37 0 73.5 -7
t65.5 -23.5t47 -43t18 -65.5q0 -22 -8 -41.5t-21 -36t-31 -29.5t-37 -22q-8 -4 -15 -4t-11 7l-26 42q-7 12 8 21q6 4 14 10.5t15 15t12 17t5 17.5q0 34 -30.5 47t-76.5 13q-32 0 -75 -5t-80 -10q-13 -2 -18.5 1t-9.5 9q-20 28 -20 71q0 26 18 51.5t46 39.5q10 5 0 14
q-29 21 -47 54t-18 75q0 34 14.5 63t39 51t56.5 34.5t66 12.5q32 0 62 -9.5t55 -26.5q6 -5 13 0q26 17 48 25.5t46 8.5q9 0 12 -4t3 -12v-56zM296 282q0 33 -23 57.5t-60 24.5q-41 0 -65 -24.5t-24 -57.5q0 -32 22 -56.5t61 -24.5q43 0 66 24t23 57zM287 556
q0 -23 -15.5 -38t-37.5 -15q-23 0 -38.5 14.5t-15.5 37.5q0 22 15 37.5t38 15.5t38.5 -15.5t15.5 -36.5z" />
    <glyph glyph-name="Gcommaaccent" unicode="&#x122;" horiz-adv-x="496" 
d="M252 626q52 0 101.5 -19t77.5 -69q8 -12 -5 -22l-48 -36q-7 -4 -13 -1t-11 9q-20 28 -46 39t-53 11q-48 0 -73 -27t-25 -66v-277q0 -38 26.5 -62.5t70.5 -24.5q40 0 65 23t25 65v77q0 9 -8 9h-64q-15 0 -15 14v58q0 14 15 14h155q17 0 17 -14v-161q0 -39 -14 -71
t-39.5 -54.5t-60.5 -34.5t-77 -12t-77.5 11.5t-61.5 33.5t-40.5 54t-14.5 73v287q0 40 15 72t41 54.5t61 34.5t76 12zM258 -215q-5 -17 -22 -17h-27q-11 0 -13.5 7.5t-2.5 16.5l11 145q0 22 22 22h62q15 0 18.5 -7t-0.5 -19z" />
    <glyph glyph-name="gcommaaccent" unicode="&#x123;" horiz-adv-x="454" 
d="M228 689q5 17 22 17h27q11 0 13.5 -7.5t2.5 -16.5l-11 -145q0 -22 -22 -22h-62q-15 0 -18.5 7t0.5 19zM446 374q0 -8 -2.5 -10.5t-12.5 -1.5q-13 2 -25.5 1t-18.5 -3q-4 -2 -8.5 -3.5t-1.5 -7.5q15 -29 15 -62q0 -36 -14.5 -65.5t-39.5 -51.5t-59 -34t-72 -12
q-7 0 -13 -0.5t-10 -0.5q-23 -3 -40 -21t-21 -38q-2 -8 7 -7q13 3 28 5t29 3.5t26 2.5t20 1q37 0 73.5 -7t65.5 -23.5t47 -43t18 -65.5q0 -22 -8 -41.5t-21 -36t-31 -29.5t-37 -22q-8 -4 -15 -4t-11 7l-26 42q-7 12 8 21q6 4 14 10.5t15 15t12 17t5 17.5q0 34 -30.5 47
t-76.5 13q-32 0 -75 -5t-80 -10q-13 -2 -18.5 1t-9.5 9q-20 28 -20 71q0 26 18 51.5t46 39.5q10 5 0 14q-29 21 -47 54t-18 75q0 34 14.5 63t39 51t56.5 34.5t66 12.5q32 0 62 -9.5t55 -26.5q6 -5 13 0q26 17 48 25.5t46 8.5q9 0 12 -4t3 -12v-56zM296 282q0 33 -23 57.5
t-60 24.5q-41 0 -65 -24.5t-24 -57.5q0 -32 22 -56.5t61 -24.5q43 0 66 24t23 57z" />
    <glyph glyph-name="Hcircumflex" unicode="&#x124;" horiz-adv-x="538" 
d="M377 604q0 13 14 13h69q16 0 16 -12v-591q0 -14 -15 -14h-69q-15 0 -15 13v249q0 13 -13 13h-189q-8 0 -10.5 -3.5t-2.5 -9.5v-248q0 -14 -14 -14h-69q-16 0 -16 13v591q0 13 15 13h69q15 0 15 -12v-231q0 -13 11 -13h192q12 0 12 13v230zM405 685q5 -5 6 -10.5t-6 -10.5
l-22 -19q-5 -4 -9.5 -2t-11.5 6l-94 62q-6 4 -12 0l-92 -63q-7 -5 -11 -5.5t-11 4.5l-20 19q-7 5 -6.5 10.5t5.5 10.5l96 94q5 5 9 8t12 3h50q8 0 12.5 -3t9.5 -8z" />
    <glyph glyph-name="hcircumflex" unicode="&#x125;" horiz-adv-x="473" 
d="M420 13q0 -13 -13 -13h-70q-13 0 -13 12v265q0 38 -21 63t-65 25q-39 0 -62.5 -25t-23.5 -63v-27v-18.5v-22v-36t-0.5 -61.5t-0.5 -99q0 -13 -12 -13h-70q-13 0 -13 12v78t0.5 56.5t0.5 46v46v55.5t-0.5 75.5t-0.5 106.5v148q0 13 12 13h70q12 0 12 -13v-200q0 -7 5 -9
t11 3q20 14 44.5 21.5t48.5 7.5q79 0 119.5 -47t40.5 -122zM244 685q5 -5 6 -10.5t-6 -10.5l-22 -19q-5 -4 -9.5 -2t-11.5 6l-94 62q-6 4 -12 0l-92 -63q-7 -5 -11 -5.5t-11 4.5l-20 19q-7 5 -6.5 10.5t5.5 10.5l96 94q5 5 9 8t12 3h50q8 0 12.5 -3t9.5 -8z" />
    <glyph glyph-name="Hbar" unicode="&#x126;" horiz-adv-x="550" 
d="M372 541q11 0 11 14v49q0 13 14 13h68q16 0 16 -12v-52q0 -12 13 -12h26q13 0 13 -14v-31q0 -14 -14 -14h-25q-13 0 -13 -14v-454q0 -14 -15 -14h-68q-15 0 -15 13v249q0 13 -13 13h-189q-8 0 -10.5 -3t-2.5 -9v-249q0 -14 -14 -14h-69q-16 0 -16 13v455q0 7 -2.5 10.5
t-10.5 3.5h-25q-13 0 -13 14v31q0 14 12 14h27q5 0 8.5 2.5t3.5 9.5v51q0 13 15 13h69q15 0 15 -12v-50q0 -14 10 -14h194zM178 482q-10 0 -10 -14v-95q0 -8 2 -10t9 -2h192q12 0 12 12v95q0 14 -10 14h-195z" />
    <glyph glyph-name="hbar" unicode="&#x127;" horiz-adv-x="482" 
d="M159 558q0 -11 11 -11h144q13 0 13 -11v-34q0 -12 -12 -12h-146q-10 0 -10 -11v-71q0 -7 5 -9t11 3q20 14 45.5 21.5t49.5 7.5q79 0 118.5 -47t39.5 -122l1 -249q0 -13 -13 -13h-70q-13 0 -13 12v249q0 38 -22 63t-64 25q-39 0 -62.5 -25t-23.5 -63v-26v-15.5v-18v-32
t-0.5 -58.5t-0.5 -98q0 -13 -12 -13h-70q-13 0 -13 12v465q0 6 -1 9.5t-11 3.5h-25q-13 0 -13 12v33q0 12 12 12h29q9 0 9 12v45q0 13 12 13h70q12 0 12 -13v-46z" />
    <glyph glyph-name="Itilde" unicode="&#x128;" horiz-adv-x="249" 
d="M88 0q-15 0 -15 13v591q0 13 15 13h70q15 0 15 -13v-590q0 -14 -15 -14h-70zM263 737q-16 -31 -39.5 -45t-45.5 -14q-17 0 -32 5t-29.5 11.5t-28 11.5t-27.5 5q-19 0 -37 -27q-5 -5 -10.5 -4.5t-10.5 4.5l-26 19q-5 4 -4.5 9t2.5 10q13 25 35.5 41.5t49.5 16.5
q15 0 30.5 -5.5t30.5 -12t28.5 -12t25.5 -5.5q11 0 20.5 8t16.5 19q5 10 16 4l31 -18q11 -7 4 -21z" />
    <glyph glyph-name="itilde" unicode="&#x129;" horiz-adv-x="266" 
d="M178 12q0 -3 -1 -6q-2 -6 -11 -6h-70q-13 0 -13 12v416q0 13 12 13h70q13 0 13 -13v-416zM275 567q-16 -31 -39.5 -45t-45.5 -14q-17 0 -32 5t-29.5 11.5t-28 11.5t-27.5 5q-19 0 -37 -27q-5 -5 -10.5 -4.5t-10.5 4.5l-26 19q-5 4 -4.5 9t2.5 10q13 25 35.5 41.5
t49.5 16.5q15 0 30.5 -5.5t30.5 -12t28.5 -12t25.5 -5.5q11 0 20.5 8t16.5 19q5 10 16 4l31 -18q11 -7 4 -21z" />
    <glyph glyph-name="Imacron" unicode="&#x12a;" horiz-adv-x="249" 
d="M88 0q-15 0 -15 13v591q0 13 15 13h70q15 0 15 -13v-590q0 -14 -15 -14h-70zM238 682q0 -15 -15 -15h-209q-16 0 -16 15v41q0 15 15 15h209q16 0 16 -14v-42z" />
    <glyph glyph-name="imacron" unicode="&#x12b;" horiz-adv-x="231" 
d="M163 12q0 -3 -1 -6q-2 -6 -11 -6h-70q-13 0 -13 12v416q0 13 12 13h70q13 0 13 -13v-416zM237 530q0 -15 -15 -15h-209q-16 0 -16 15v41q0 15 15 15h209q16 0 16 -14v-42z" />
    <glyph glyph-name="Ibreve" unicode="&#x12c;" horiz-adv-x="271" 
d="M136 713q22 0 36 16t23 42q2 6 5.5 9t11.5 3h34q10 0 12.5 -4.5t1.5 -11.5q-3 -25 -13 -48t-26 -40t-37.5 -27.5t-47.5 -10.5q-25 0 -46.5 10.5t-37.5 27.5t-26.5 40t-13.5 48q-1 7 1.5 11.5t12.5 4.5h34q8 0 11.5 -3t5.5 -9q9 -26 23 -42t36 -16zM104 0q-15 0 -15 13
v591q0 13 15 13h70q15 0 15 -13v-590q0 -14 -15 -14h-70z" />
    <glyph glyph-name="ibreve" unicode="&#x12d;" horiz-adv-x="253" 
d="M175 12q0 -3 -1 -6q-2 -6 -11 -6h-70q-13 0 -13 12v416q0 13 12 13h70q13 0 13 -13v-416zM127 569q22 0 37 16t24 42q2 6 4.5 9t10.5 3h34q10 0 12.5 -4.5t1.5 -11.5q-3 -25 -13 -48t-26 -40t-37.5 -27.5t-47.5 -10.5q-25 0 -46.5 10.5t-37.5 27.5t-26.5 40t-13.5 48
q-1 7 1.5 11.5t12.5 4.5h34q8 0 11.5 -3t5.5 -9q9 -26 23 -42t36 -16z" />
    <glyph glyph-name="Iogonek" unicode="&#x12e;" horiz-adv-x="249" 
d="M133 0q-21 -23 -34 -52t-13 -54q0 -13 5 -21t21 -8q15 0 32 7t29 15q8 5 13 -1l16 -24q3 -5 2.5 -7.5t-5.5 -6.5q-17 -14 -43.5 -26t-54.5 -12q-45 0 -63 21.5t-18 53.5q0 30 16.5 63t39.5 55q-3 3 -3 10v591q0 13 15 13h70q15 0 15 -13v-590q0 -14 -15 -14h-25z" />
    <glyph glyph-name="iogonek" unicode="&#x12f;" horiz-adv-x="213" 
d="M154 12q0 -3 -1 -6q-2 -6 -11 -6h-22q-21 -23 -34 -52t-13 -54q0 -13 5 -21t21 -8q15 0 32 7t29 15q8 5 13 -1l16 -24q3 -5 2.5 -7.5t-5.5 -6.5q-17 -14 -43.5 -26t-54.5 -12q-45 0 -63 21.5t-18 53.5q0 30 16 62.5t39 54.5q-3 3 -3 10v416q0 13 12 13h70q13 0 13 -13
v-416zM166 570q0 -23 -17.5 -39.5t-40.5 -16.5q-24 0 -41 16t-17 40q0 23 17 39.5t40 16.5q24 0 41.5 -16.5t17.5 -39.5z" />
    <glyph glyph-name="Idotaccent" unicode="&#x130;" horiz-adv-x="249" 
d="M88 0q-15 0 -15 13v591q0 13 15 13h70q15 0 15 -13v-590q0 -14 -15 -14h-70zM177 726q0 -23 -15.5 -38t-37.5 -15q-23 0 -38.5 14.5t-15.5 37.5q0 22 15 37.5t38 15.5t38.5 -15.5t15.5 -36.5z" />
    <glyph glyph-name="dotlessi" unicode="&#x131;" horiz-adv-x="213" 
d="M154 12q0 -3 -1 -6q-2 -6 -11 -6h-70q-13 0 -13 12v416q0 13 12 13h70q13 0 13 -13v-416v0z" />
    <glyph glyph-name="IJ" unicode="&#x132;" horiz-adv-x="485" 
d="M88 0q-15 0 -15 13v591q0 13 15 13h70q15 0 15 -13v-590q0 -14 -15 -14h-70zM189 -70q-2 8 -1 13t12 10q29 12 51 24.5t37 30.5t22.5 43.5t7.5 61.5v491q0 13 15 13h67q15 0 15 -13v-492q0 -47 -9 -86t-30.5 -70t-57.5 -54t-90 -37q-8 -2 -14 0.5t-8 13.5z" />
    <glyph glyph-name="ij" unicode="&#x133;" horiz-adv-x="418" 
d="M368 570q0 -23 -17 -40t-41 -17t-40.5 16.5t-16.5 40.5q0 23 16.5 39.5t39.5 16.5q25 0 42 -16.5t17 -39.5zM357 -54q0 -27 -6.5 -50.5t-21.5 -41.5t-38.5 -28.5t-57.5 -10.5q-20 0 -33.5 2t-22.5 4q-7 2 -12 5.5t-3 14.5l10 53q3 14 22 10q6 -1 13.5 -1.5t12.5 -0.5
q24 1 33.5 14.5t9.5 40.5v472q0 12 13 12h69q7 0 9.5 -3.5t2.5 -8.5v-483zM167 570q0 -23 -17.5 -39.5t-40.5 -16.5q-24 0 -41 16t-17 40q0 23 17 39.5t40 16.5q24 0 41.5 -16.5t17.5 -39.5zM155 12q0 -3 -1 -6q-2 -6 -11 -6h-70q-13 0 -13 12v416q0 13 12 13h70
q13 0 13 -13v-416z" />
    <glyph glyph-name="Jcircumflex" unicode="&#x134;" horiz-adv-x="289" 
d="M-7 -70q-2 8 -1 13t12 10q29 12 51 24.5t37 30.5t22.5 43.5t7.5 61.5v491q0 13 15 13h67q15 0 15 -13v-492q0 -47 -9 -86t-30.5 -70t-57.5 -54t-90 -37q-8 -2 -14 0.5t-8 13.5zM312 685q5 -5 6 -10.5t-6 -10.5l-22 -19q-5 -4 -9.5 -2t-11.5 6l-94 62q-6 4 -12 0l-92 -63
q-7 -5 -11 -5.5t-11 4.5l-20 19q-7 5 -6.5 10.5t5.5 10.5l96 94q5 5 9 8t12 3h50q8 0 12.5 -3t9.5 -8z" />
    <glyph glyph-name="jcircumflex" unicode="&#x135;" horiz-adv-x="275" 
d="M182 -54q0 -27 -6.5 -50.5t-21.5 -41.5t-38.5 -28.5t-57.5 -10.5q-20 0 -33.5 2t-22.5 4q-7 2 -12 5.5t-3 14.5l10 53q3 14 22 10q6 -1 13.5 -1.5t12.5 -0.5q24 1 33.5 14.5t9.5 40.5v472q0 12 13 12h69q7 0 9.5 -3.5t2.5 -8.5v-483zM281 526q5 -5 6 -10.5t-6 -10.5
l-23 -14q-8 -5 -12.5 -4t-9.5 6l-93 85q-8 7 -14 1l-91 -87q-5 -5 -9.5 -5.5t-12.5 4.5l-22 14q-7 5 -6.5 10.5t5.5 10.5l98 124q5 5 9 8t12 3h50q8 0 12.5 -3t9.5 -8z" />
    <glyph glyph-name="Kcommaaccent" unicode="&#x136;" horiz-adv-x="517" 
d="M472 13q0 -13 -12 -13h-69q-13 0 -14 12l-12 181q-1 16 -5 34t-14.5 33t-29 25t-48.5 10q-51 0 -78 -30t-27 -77v-175q0 -13 -12 -13h-75q-12 0 -12 12v592q0 13 14 13h73q12 0 12 -12v-228q0 -8 4 -7t7 4l190 234q5 5 9 7t12 2h77q9 0 11.5 -5t-2.5 -11l-180 -222
q-8 -11 5 -11q20 0 38 -3q59 -10 90.5 -53t33.5 -110zM266 -197q-5 -17 -22 -17h-27q-11 0 -13.5 7.5t-2.5 16.5l11 145q0 22 22 22h62q15 0 18.5 -7t-0.5 -19z" />
    <glyph glyph-name="kcommaaccent" unicode="&#x137;" horiz-adv-x="463" 
d="M424 18q0 -18 -15 -18h-65q-9 0 -12 3.5t-4 11.5l-5 91q-1 19 -5.5 36t-14 29.5t-25.5 20t-40 7.5q-46 0 -66.5 -27.5t-20.5 -64.5v-95q0 -12 -12 -12h-71q-12 0 -12 12v612q0 13 12 13h70q12 0 12 -12v-335q0 -12 7 -12q3 0 7 4l136 151q5 5 8.5 6t11.5 1h86
q9 0 10.5 -5.5t-2.5 -9.5l-129 -142q-3 -3 -3 -6q0 -4 6 -5q39 -4 64 -18.5t39.5 -37t20.5 -51t8 -60.5zM236 -215q-5 -17 -22 -17h-27q-11 0 -13.5 7.5t-2.5 16.5l11 145q0 22 22 22h62q15 0 18.5 -7t-0.5 -19z" />
    <glyph glyph-name="kgreenlandic" unicode="&#x138;" horiz-adv-x="463" 
d="M424 18q0 -18 -15 -18h-65q-9 0 -12 3.5t-4 11.5l-5 91q-1 19 -5.5 36t-14 29.5t-25.5 20t-40 7.5q-46 0 -66.5 -27.5t-20.5 -64.5v-95q0 -12 -12 -12h-71q-12 0 -12 12v414q0 13 12 13h70q12 0 12 -12v-137q0 -12 7 -12q3 0 7 4l136 151q5 5 8.5 6t11.5 1h86
q9 0 10.5 -5.5t-2.5 -9.5l-129 -142q-3 -3 -3 -6q0 -4 6 -5q39 -4 64 -18.5t39.5 -37t20.5 -51t8 -60.5z" />
    <glyph glyph-name="Lacute" unicode="&#x139;" horiz-adv-x="439" 
d="M407 87q14 0 14 -14v-58q0 -15 -13 -15h-327q-15 0 -15 14v590q0 13 14 13h70q14 0 14 -12v-506q0 -6 1.5 -9t9.5 -3h232zM262 739q7 -9 3 -15t-9 -8l-146 -73q-12 -5 -21 8l-16 23q-9 10 3 19l126 95q5 5 12 5t11 -5z" />
    <glyph glyph-name="lacute" unicode="&#x13a;" horiz-adv-x="234" 
d="M62 627q0 10 9 10h76q10 0 10 -9v-495q0 -32 9 -42t33 -10h12q8 0 9.5 -6t1.5 -11v-54q0 -9 -3.5 -12t-10.5 -4q-8 -2 -17 -2h-14q-34 0 -56 8.5t-35 25t-18.5 42t-5.5 59.5v500zM262 775q7 -9 3 -15t-9 -8l-146 -73q-12 -5 -21 8l-16 23q-9 10 3 19l126 95q5 5 12 5
t11 -5z" />
    <glyph glyph-name="Lcommaaccent" unicode="&#x13b;" horiz-adv-x="439" 
d="M407 87q14 0 14 -14v-58q0 -15 -13 -15h-327q-15 0 -15 14v590q0 13 14 13h70q14 0 14 -12v-506q0 -6 1.5 -9t9.5 -3h232zM240 -215q-5 -17 -22 -17h-27q-11 0 -13.5 7.5t-2.5 16.5l11 145q0 22 22 22h62q15 0 18.5 -7t-0.5 -19z" />
    <glyph glyph-name="lcommaaccent" unicode="&#x13c;" horiz-adv-x="234" 
d="M62 627q0 10 9 10h76q10 0 10 -9v-495q0 -32 9 -42t33 -10h12q8 0 9.5 -6t1.5 -11v-54q0 -9 -3.5 -12t-10.5 -4q-8 -2 -17 -2h-14q-34 0 -56 8.5t-35 25t-18.5 42t-5.5 59.5v500zM122 -215q-5 -17 -22 -17h-27q-11 0 -13.5 7.5t-2.5 16.5l11 145q0 22 22 22h62
q15 0 18.5 -7t-0.5 -19z" />
    <glyph glyph-name="Lcaron" unicode="&#x13d;" horiz-adv-x="439" 
d="M407 87q14 0 14 -14v-58q0 -15 -13 -15h-327q-15 0 -15 14v590q0 13 14 13h70q14 0 14 -12v-506q0 -6 1.5 -9t9.5 -3h232zM336 1320q-5 -5 -9.5 -8t-12.5 -3h-50q-8 0 -12 3t-9 8l-96 94q-5 5 -5.5 10.5t6.5 10.5l20 19q7 5 11 4.5t11 -5.5l92 -63q6 -4 12 0l94 62
q7 4 11.5 6t9.5 -2l22 -19q7 -5 6 -10.5t-6 -10.5zM324 443q-5 -17 -22 -17h-27q-11 0 -13.5 7.5t-2.5 16.5l11 145q0 22 22 22h62q15 0 18.5 -7t-0.5 -19z" />
    <glyph glyph-name="lcaron" unicode="&#x13e;" horiz-adv-x="329" 
d="M62 627q0 10 9 10h76q10 0 10 -9v-495q0 -32 9 -42t33 -10h12q8 0 9.5 -6t1.5 -11v-54q0 -9 -3.5 -12t-10.5 -4q-8 -2 -17 -2h-14q-34 0 -56 8.5t-35 25t-18.5 42t-5.5 59.5v500zM278 463q-5 -17 -22 -17h-27q-11 0 -13.5 7.5t-2.5 16.5l11 145q0 22 22 22h62
q15 0 18.5 -7t-0.5 -19z" />
    <glyph glyph-name="Ldot" unicode="&#x13f;" horiz-adv-x="439" 
d="M407 87q14 0 14 -14v-58q0 -15 -13 -15h-327q-15 0 -15 14v590q0 13 14 13h70q14 0 14 -12v-506q0 -6 1.5 -9t9.5 -3h232zM344 306q0 -23 -15.5 -38t-37.5 -15q-23 0 -38.5 14.5t-15.5 37.5q0 22 15 37.5t38 15.5t38.5 -15.5t15.5 -36.5z" />
    <glyph glyph-name="ldot" unicode="&#x140;" horiz-adv-x="322" 
d="M314 326q0 -23 -15.5 -38t-37.5 -15q-23 0 -38.5 14.5t-15.5 37.5q0 22 15 37.5t38 15.5t38.5 -15.5t15.5 -36.5zM62 627q0 10 9 10h76q10 0 10 -9v-495q0 -32 9 -42t33 -10h12q8 0 9.5 -6t1.5 -11v-54q0 -9 -3.5 -12t-10.5 -4q-8 -2 -17 -2h-14q-34 0 -56 8.5t-35 25
t-18.5 42t-5.5 59.5v500z" />
    <glyph glyph-name="Lslash" unicode="&#x141;" horiz-adv-x="455" 
d="M312 346q3 -5 1.5 -10t-6.5 -7l-108 -63q-8 -4 -8 -15v-152q0 -13 12 -13h230q15 0 15 -13v-58q0 -15 -14 -15h-326q-15 0 -15 14v181q0 9 -7 4l-43 -25q-11 -6 -17 5l-19 32q-6 11 4 17l73 43q4 3 6.5 6t2.5 9v317q0 14 14 14h69q15 0 15 -13v-263q0 -5 3 -5h2l80 48
q11 5 17 -5z" />
    <glyph glyph-name="lslash" unicode="&#x142;" horiz-adv-x="307" 
d="M100 215q2 18 -11 9l-51 -30q-4 -2 -8.5 -2t-6.5 5l-20 34q-5 9 4 14l84 49q5 4 7 7t2 11v315q0 10 9 10h74q10 0 10 -9v-261q0 -4 2.5 -6.5t6.5 -0.5l68 40q9 6 15 -3l20 -34q2 -4 1.5 -8t-5.5 -6l-96 -57q-8 -5 -10 -9.5t-2 -12.5q0 -35 0.5 -69t0.5 -69q0 -32 9 -42
t33 -10h12q8 0 9.5 -5.5t1.5 -10.5v-55q0 -12 -10.5 -14.5t-33.5 -2.5q-33 0 -55 8t-35 23.5t-18.5 39.5t-6.5 57v95v0z" />
    <glyph glyph-name="Nacute" unicode="&#x143;" horiz-adv-x="534" 
d="M127 617q13 0 18.5 -4.5t10.5 -12.5l220 -397q1 -1 3 -1q1 0 1 1v400q0 14 14 14h64q15 0 15 -13v-584q0 -12 -6 -16t-14 -4h-44q-12 0 -18 3t-11 12l-221 395q0 2 -2 2l-1 -2v-397q0 -13 -15 -13h-64q-16 0 -16 13v580q0 12 4 18t18 6h44zM415 739q7 -9 3 -15t-9 -8
l-146 -73q-12 -5 -21 8l-16 23q-9 10 3 19l126 95q5 5 12 5t11 -5z" />
    <glyph glyph-name="nacute" unicode="&#x144;" horiz-adv-x="471" 
d="M418 13q0 -13 -12 -13h-70q-13 0 -13 12v265q0 38 -21 63t-66 25q-39 0 -62.5 -24.5t-23.5 -62.5v-265q0 -13 -13 -13h-69q-14 0 -14 12v416q0 13 13 13h69q11 0 11 -12v-20q0 -8 4 -7.5t9 5.5q18 19 50 29.5t59 10.5q77 0 113 -46.5t36 -121.5v-266zM219 490
q-4 -5 -10.5 -6t-12.5 3l-24 15q-11 7 -4 19l81 135q4 6 10.5 9t11.5 0l52 -32q10 -6 8.5 -12.5t-5.5 -10.5z" />
    <glyph glyph-name="Ncommaaccent" unicode="&#x145;" horiz-adv-x="534" 
d="M127 617q13 0 18.5 -4.5t10.5 -12.5l220 -397q1 -1 3 -1q1 0 1 1v400q0 14 14 14h64q15 0 15 -13v-584q0 -12 -6 -16t-14 -4h-44q-12 0 -18 3t-11 12l-221 395q0 2 -2 2l-1 -2v-397q0 -13 -15 -13h-64q-16 0 -16 13v580q0 12 4 18t18 6h44zM268 -195q-5 -17 -22 -17h-27
q-11 0 -13.5 7.5t-2.5 16.5l11 145q0 22 22 22h62q15 0 18.5 -7t-0.5 -19z" />
    <glyph glyph-name="ncommaaccent" unicode="&#x146;" horiz-adv-x="471" 
d="M418 13q0 -13 -12 -13h-70q-13 0 -13 12v265q0 38 -21 63t-66 25q-39 0 -62.5 -24.5t-23.5 -62.5v-265q0 -13 -13 -13h-69q-14 0 -14 12v416q0 13 13 13h69q11 0 11 -12v-20q0 -8 4 -7.5t9 5.5q18 19 50 29.5t59 10.5q77 0 113 -46.5t36 -121.5v-266zM245 -215
q-5 -17 -22 -17h-27q-11 0 -13.5 7.5t-2.5 16.5l11 145q0 22 22 22h62q15 0 18.5 -7t-0.5 -19z" />
    <glyph glyph-name="Ncaron" unicode="&#x147;" horiz-adv-x="534" 
d="M127 617q13 0 18.5 -4.5t10.5 -12.5l220 -397q1 -1 3 -1q1 0 1 1v400q0 14 14 14h64q15 0 15 -13v-584q0 -12 -6 -16t-14 -4h-44q-12 0 -18 3t-11 12l-221 395q0 2 -2 2l-1 -2v-397q0 -13 -15 -13h-64q-16 0 -16 13v580q0 12 4 18t18 6h44zM310 664q-5 -5 -9.5 -8
t-12.5 -3h-50q-8 0 -12 3t-9 8l-96 94q-5 5 -5.5 10.5t6.5 10.5l20 19q7 5 11 4.5t11 -5.5l92 -63q6 -4 12 0l94 62q7 4 11.5 6t9.5 -2l22 -19q7 -5 6 -10.5t-6 -10.5z" />
    <glyph glyph-name="ncaron" unicode="&#x148;" horiz-adv-x="471" 
d="M418 13q0 -13 -12 -13h-70q-13 0 -13 12v265q0 38 -21 63t-66 25q-39 0 -62.5 -24.5t-23.5 -62.5v-265q0 -13 -13 -13h-69q-14 0 -14 12v416q0 13 13 13h69q11 0 11 -12v-20q0 -8 4 -7.5t9 5.5q18 19 50 29.5t59 10.5q77 0 113 -46.5t36 -121.5v-266zM276 503
q-5 -5 -9.5 -8t-12.5 -3h-50q-8 0 -12 3t-9 8l-98 124q-5 5 -5.5 10.5t6.5 10.5l22 14q8 5 12.5 4.5t9.5 -5.5l91 -87q6 -7 14 1l93 85q5 5 9.5 6t12.5 -4l23 -14q7 -5 6 -10.5t-6 -10.5z" />
    <glyph glyph-name="napostrophe" unicode="&#x149;" horiz-adv-x="540" 
d="M477 13q0 -13 -12 -13h-70q-13 0 -13 12v265q0 38 -21 63t-66 25q-39 0 -62.5 -24.5t-23.5 -62.5v-265q0 -13 -13 -13h-69q-14 0 -14 12v416q0 13 13 13h69q11 0 11 -12v-20q0 -8 4 -7.5t9 5.5q18 19 50 29.5t59 10.5q77 0 113 -46.5t36 -121.5v-266zM70 435
q-5 -17 -22 -17h-27q-11 0 -13.5 7.5t-2.5 16.5l11 145q0 22 22 22h62q15 0 18.5 -7t-0.5 -19z" />
    <glyph glyph-name="Eng" unicode="&#x14a;" horiz-adv-x="532" 
d="M471 -52q0 -29 -6.5 -53.5t-22.5 -42t-42.5 -27.5t-65.5 -10q-14 0 -31 2.5t-29 7.5q-8 3 -9 7t0 10l8 45q2 9 7 10t12 1q11 -2 22 -2.5t17 -0.5q27 0 38.5 12t11.5 38v49q0 13 -5 30q-9 19 -18 37t-20 37q-5 9 -18.5 32.5t-32 55t-38.5 67t-38.5 67t-32.5 55t-19 32.5
q0 1 -2 1q-1 0 -1 -1v-394q0 -13 -15 -13h-64q-16 0 -16 13v590q0 14 15 14h51q13 0 18.5 -4.5t10.5 -12.5l218 -391q1 -2 2 -2t1 2v394q0 14 15 14h64q15 0 15 -13v-656v0z" />
    <glyph glyph-name="eng" unicode="&#x14b;" horiz-adv-x="471" 
d="M418 -54q0 -27 -7 -51t-23 -42t-43 -28.5t-67 -10.5q-13 0 -29 2t-27 8q-7 4 -8 7.5t1 10.5l7 40q2 11 6.5 12t11.5 0q10 -1 16 -1.5t13 -0.5q32 0 43 14.5t11 46.5v324q0 38 -21 63t-65 25q-39 0 -63 -24.5t-24 -62.5v-265q0 -13 -13 -13h-69q-14 0 -14 12v416
q0 13 13 13h69q11 0 11 -12v-20q0 -8 4 -7.5t9 5.5q26 23 56 31.5t53 8.5q77 0 113 -46.5t36 -121.5v-333z" />
    <glyph glyph-name="Omacron" unicode="&#x14c;" horiz-adv-x="513" 
d="M454 171q0 -42 -15 -74.5t-41 -55.5t-62.5 -35t-78.5 -12t-78 11.5t-63 34t-42 55.5t-15 76v278q0 41 15 74t41.5 56t62.5 35t78 12q41 0 77 -12t63 -34.5t42.5 -55.5t15.5 -75v-278zM355 448q0 38 -26 64.5t-72 26.5q-47 0 -73.5 -26.5t-26.5 -64.5v-276q0 -39 25.5 -65
t73.5 -26q46 0 72.5 25.5t26.5 65.5v276zM369 682q0 -15 -15 -15h-209q-16 0 -16 15v41q0 15 15 15h209q16 0 16 -14v-42z" />
    <glyph glyph-name="omacron" unicode="&#x14d;" horiz-adv-x="458" 
d="M410 164q0 -82 -48 -126t-133 -44t-133.5 44t-48.5 124v117q0 38 13 69.5t37 54t57.5 34.5t73.5 12q84 0 133 -44t49 -125v-116zM142 164q0 -38 21 -63t65 -25q41 0 64 24t23 64v114q0 39 -22 63.5t-64 24.5t-64.5 -24.5t-22.5 -63.5v-114zM352 530q0 -15 -15 -15h-209
q-16 0 -16 15v41q0 15 15 15h209q16 0 16 -14v-42z" />
    <glyph glyph-name="Obreve" unicode="&#x14e;" horiz-adv-x="513" 
d="M454 171q0 -42 -15 -74.5t-41 -55.5t-62.5 -35t-78.5 -12t-78 11.5t-63 34t-42 55.5t-15 76v278q0 41 15 74t41.5 56t62.5 35t78 12q41 0 77 -12t63 -34.5t42.5 -55.5t15.5 -75v-278zM355 448q0 38 -26 64.5t-72 26.5q-47 0 -73.5 -26.5t-26.5 -64.5v-276q0 -39 25.5 -65
t73.5 -26q46 0 72.5 25.5t26.5 65.5v276zM247 714q22 0 36 16t23 42q2 6 5.5 9t11.5 3h34q10 0 12.5 -4.5t1.5 -11.5q-3 -25 -13 -48t-26 -40t-37.5 -27.5t-47.5 -10.5q-25 0 -46.5 10.5t-37.5 27.5t-26.5 40t-13.5 48q-1 7 1.5 11.5t12.5 4.5h34q8 0 11.5 -3t5.5 -9
q9 -26 23 -42t36 -16z" />
    <glyph glyph-name="obreve" unicode="&#x14f;" horiz-adv-x="458" 
d="M410 164q0 -82 -48 -126t-133 -44t-133.5 44t-48.5 124v117q0 38 13 69.5t37 54t57.5 34.5t73.5 12q84 0 133 -44t49 -125v-116zM142 164q0 -38 21 -63t65 -25q41 0 64 24t23 64v114q0 39 -22 63.5t-64 24.5t-64.5 -24.5t-22.5 -63.5v-114zM231 563q22 0 37 16t24 42
q2 6 4.5 9t10.5 3h34q10 0 12.5 -4.5t1.5 -11.5q-3 -25 -13 -48t-26 -40t-37.5 -27.5t-47.5 -10.5q-25 0 -46.5 10.5t-37.5 27.5t-26.5 40t-13.5 48q-1 7 1.5 11.5t12.5 4.5h34q8 0 11.5 -3t5.5 -9q9 -26 23 -42t36 -16z" />
    <glyph glyph-name="Ohungarumlaut" unicode="&#x150;" horiz-adv-x="513" 
d="M454 171q0 -42 -15 -74.5t-41 -55.5t-62.5 -35t-78.5 -12t-78 11.5t-63 34t-42 55.5t-15 76v278q0 41 15 74t41.5 56t62.5 35t78 12q41 0 77 -12t63 -34.5t42.5 -55.5t15.5 -75v-278zM355 448q0 38 -26 64.5t-72 26.5q-47 0 -73.5 -26.5t-26.5 -64.5v-276q0 -39 25.5 -65
t73.5 -26q46 0 72.5 25.5t26.5 65.5v276zM468 748q8 -9 4.5 -15t-8.5 -9l-138 -82q-5 -3 -11.5 -2t-11.5 6l-18 21q-10 10 1 19l118 105q5 5 11.5 6t11.5 -4zM306 748q8 -9 4.5 -15t-8.5 -9l-138 -82q-5 -3 -11.5 -2t-11.5 6l-18 21q-10 10 1 19l118 105q5 5 11.5 6t11.5 -4
z" />
    <glyph glyph-name="ohungarumlaut" unicode="&#x151;" horiz-adv-x="458" 
d="M410 164q0 -82 -48 -126t-133 -44t-133.5 44t-48.5 124v117q0 38 13 69.5t37 54t57.5 34.5t73.5 12q84 0 133 -44t49 -125v-116zM142 164q0 -38 21 -63t65 -25q41 0 64 24t23 64v114q0 39 -22 63.5t-64 24.5t-64.5 -24.5t-22.5 -63.5v-114zM207 656q4 6 10 9t12 -1
l52 -31q10 -6 8.5 -12.5t-5.5 -11.5l-107 -119q-4 -5 -10.5 -6t-12.5 3l-24 15q-12 8 -4 19zM341 656q4 6 10 9t12 -1l52 -31q10 -6 8.5 -12.5t-5.5 -11.5l-107 -119q-4 -5 -10.5 -6t-12.5 3l-24 15q-12 8 -4 19z" />
    <glyph glyph-name="OE" unicode="&#x152;" horiz-adv-x="688" 
d="M641 87q14 0 14 -14v-58q0 -15 -14 -15h-333q-12 -3 -27.5 -4.5t-29.5 -1.5q-43 0 -78.5 11t-61 33t-40 54.5t-14.5 75.5v284q0 41 14.5 73t40.5 54.5t61 34.5t77 12q35 0 67 -9h319q15 0 15 -13v-58q0 -15 -14 -15h-233q-12 0 -12 -10v-150q0 -12 11 -12h193
q14 0 14 -14v-59q0 -14 -13 -14h-194q-11 0 -11 -12v-161q0 -12 13 -12h236zM251 81q23 0 42 8v443q-10 3 -20 5t-21 2q-45 0 -71.5 -25.5t-26.5 -63.5v-280q0 -40 25.5 -64.5t71.5 -24.5z" />
    <glyph glyph-name="oe" unicode="&#x153;" horiz-adv-x="720" 
d="M679 227q0 -11 -7 -18.5t-16 -7.5h-226q-9 0 -14 -5.5t-5 -12.5v-17q0 -36 24 -62.5t63 -26.5q30 0 51.5 14.5t37.5 34.5q5 6 9.5 7.5t12.5 -3.5l44 -28q8 -5 11 -9.5t-1 -11.5q-25 -46 -68.5 -66.5t-94.5 -20.5q-38 0 -70 11t-54 34q-8 8 -11.5 6.5t-9.5 -6.5
q-24 -24 -56 -34.5t-70 -10.5q-40 0 -73.5 11.5t-57.5 33t-37.5 52.5t-13.5 71v117q0 38 13 69.5t37 54t57.5 34.5t73.5 12q37 0 71 -12.5t56 -35.5q5 -6 9.5 -7t11.5 6q23 23 54.5 36t67.5 13q40 0 73.5 -12.5t57.5 -35t37 -55t13 -71.5v-48zM584 284q-2 38 -24 60.5
t-61 22.5q-42 0 -61 -25t-22 -62q-1 -5 1.5 -8t11.5 -3h144q11 0 11 15zM315 278q0 39 -24 63.5t-62 24.5t-62.5 -24.5t-24.5 -63.5v-114q0 -38 24 -63t62 -25t63 24t25 64z" />
    <glyph glyph-name="Racute" unicode="&#x154;" horiz-adv-x="498" 
d="M265 617q93 0 140.5 -47t47.5 -129q0 -26 -7.5 -51t-20.5 -47t-29 -41t-33 -34q-5 -5 -2 -11q0 -1 6 -13.5t18.5 -40t33.5 -72t52 -109.5q5 -11 0 -16.5t-13 -5.5h-64q-18 0 -24 5.5t-11 15.5l-97 216q-2 4 -4.5 6.5t-9.5 2.5h-77q-8 0 -8 -10v-222q0 -14 -16 -14h-68
q-15 0 -15 13v590q0 14 14 14h187zM282 331q10 0 18 6q26 19 39.5 47t13.5 49q0 19 -5 37t-16.5 31.5t-30 21.5t-46.5 8h-81q-12 0 -12 -11v-177q0 -12 11 -12h109zM367 739q7 -9 3 -15t-9 -8l-146 -73q-12 -5 -21 8l-16 23q-9 10 3 19l126 95q5 5 12 5t11 -5z" />
    <glyph glyph-name="racute" unicode="&#x155;" horiz-adv-x="305" 
d="M294 361q-2 -10 -6 -11.5t-10 -0.5q-8 2 -16 3t-15 1q-27 0 -45 -8.5t-29 -23t-15.5 -34.5t-4.5 -44v-230q0 -13 -13 -13h-69q-14 0 -14 12v416q0 13 13 13h60q13 0 13 -12v-39q0 -5 3.5 -6.5t7.5 3.5q17 23 46 42t67 19q7 0 16.5 -1t14.5 -3q9 -2 11 -6.5t0 -11.5z
M169 490q-4 -5 -10.5 -6t-12.5 3l-24 15q-11 7 -4 19l81 135q4 6 10.5 9t11.5 0l52 -32q10 -6 8.5 -12.5t-5.5 -10.5z" />
    <glyph glyph-name="Rcommaaccent" unicode="&#x156;" horiz-adv-x="498" 
d="M265 617q93 0 140.5 -47t47.5 -129q0 -26 -7.5 -51t-20.5 -47t-29 -41t-33 -34q-5 -5 -2 -11q0 -1 6 -13.5t18.5 -40t33.5 -72t52 -109.5q5 -11 0 -16.5t-13 -5.5h-64q-18 0 -24 5.5t-11 15.5l-97 216q-2 4 -4.5 6.5t-9.5 2.5h-77q-8 0 -8 -10v-222q0 -14 -16 -14h-68
q-15 0 -15 13v590q0 14 14 14h187zM282 331q10 0 18 6q26 19 39.5 47t13.5 49q0 19 -5 37t-16.5 31.5t-30 21.5t-46.5 8h-81q-12 0 -12 -11v-177q0 -12 11 -12h109zM250 -215q-5 -17 -22 -17h-27q-11 0 -13.5 7.5t-2.5 16.5l11 145q0 22 22 22h62q15 0 18.5 -7t-0.5 -19z
" />
    <glyph glyph-name="rcommaaccent" unicode="&#x157;" horiz-adv-x="318" 
d="M294 361q-2 -10 -6 -11.5t-10 -0.5q-8 2 -16 3t-15 1q-27 0 -45 -8.5t-29 -23t-15.5 -34.5t-4.5 -44v-230q0 -13 -13 -13h-69q-14 0 -14 12v416q0 13 13 13h60q13 0 13 -12v-39q0 -5 3.5 -6.5t7.5 3.5q17 23 46 42t67 19q7 0 16.5 -1t14.5 -3q9 -2 11 -6.5t0 -11.5z
M106 -215q-5 -17 -22 -17h-27q-11 0 -13.5 7.5t-2.5 16.5l11 145q0 22 22 22h62q15 0 18.5 -7t-0.5 -19z" />
    <glyph glyph-name="Rcaron" unicode="&#x158;" horiz-adv-x="498" 
d="M265 617q93 0 140.5 -47t47.5 -129q0 -26 -7.5 -51t-20.5 -47t-29 -41t-33 -34q-5 -5 -2 -11q0 -1 6 -13.5t18.5 -40t33.5 -72t52 -109.5q5 -11 0 -16.5t-13 -5.5h-64q-18 0 -24 5.5t-11 15.5l-97 216q-2 4 -4.5 6.5t-9.5 2.5h-77q-8 0 -8 -10v-222q0 -14 -16 -14h-68
q-15 0 -15 13v590q0 14 14 14h187zM282 331q10 0 18 6q26 19 39.5 47t13.5 49q0 19 -5 37t-16.5 31.5t-30 21.5t-46.5 8h-81q-12 0 -12 -11v-177q0 -12 11 -12h109zM284 664q-5 -5 -9.5 -8t-12.5 -3h-50q-8 0 -12 3t-9 8l-96 94q-5 5 -5.5 10.5t6.5 10.5l20 19q7 5 11 4.5
t11 -5.5l92 -63q6 -4 12 0l94 62q7 4 11.5 6t9.5 -2l22 -19q7 -5 6 -10.5t-6 -10.5z" />
    <glyph glyph-name="rcaron" unicode="&#x159;" horiz-adv-x="305" 
d="M294 361q-2 -10 -6 -11.5t-10 -0.5q-8 2 -16 3t-15 1q-27 0 -45 -8.5t-29 -23t-15.5 -34.5t-4.5 -44v-230q0 -13 -13 -13h-69q-14 0 -14 12v416q0 13 13 13h60q13 0 13 -12v-39q0 -5 3.5 -6.5t7.5 3.5q17 23 46 42t67 19q7 0 16.5 -1t14.5 -3q9 -2 11 -6.5t0 -11.5z
M210 503q-5 -5 -9.5 -8t-12.5 -3h-50q-8 0 -12 3t-9 8l-98 124q-5 5 -5.5 10.5t6.5 10.5l22 14q8 5 12.5 4.5t9.5 -5.5l91 -87q6 -7 14 1l93 85q5 5 9.5 6t12.5 -4l23 -14q7 -5 6 -10.5t-6 -10.5z" />
    <glyph glyph-name="Sacute" unicode="&#x15a;" horiz-adv-x="470" 
d="M436 174q0 -42 -16 -75t-44.5 -56.5t-67 -35.5t-84.5 -12q-57 0 -108.5 19t-83.5 57q-7 7 -7 12.5t8 14.5l38 39q8 7 13.5 5t13.5 -10q25 -24 58.5 -37.5t65.5 -13.5q56 0 86 24t30 66q0 23 -10.5 39t-27.5 28t-39 21t-46 17q-29 10 -59.5 23.5t-55.5 33.5t-40.5 49
t-15.5 70q0 40 14.5 72.5t40 54.5t60 34t73.5 12q43 0 87 -10t84 -38q10 -7 8.5 -13t-6.5 -14l-25 -43q-5 -8 -12 -8t-15 4q-32 17 -60 26.5t-54 9.5q-20 0 -37.5 -4.5t-30.5 -15t-21 -27t-8 -41.5q0 -19 10.5 -33t26.5 -24.5t36 -18.5t38 -15q33 -12 65.5 -26t59 -34
t42.5 -50.5t16 -75.5zM345 739q7 -9 3 -15t-9 -8l-146 -73q-12 -5 -21 8l-16 23q-9 10 3 19l126 95q5 5 12 5t11 -5z" />
    <glyph glyph-name="sacute" unicode="&#x15b;" horiz-adv-x="402" 
d="M366 124q0 -58 -45 -93.5t-119 -35.5q-53 0 -99 22t-69 72q-2 6 -2 8q0 6 6 9l52 26q8 4 11 2t8 -8q17 -26 42 -40t56 -14q28 0 47 13t19 36q0 21 -14 32t-40 21l-64 22q-23 8 -43 18.5t-35 25t-23.5 33.5t-8.5 45q0 32 13 56t34.5 40t49.5 24.5t59 8.5q39 0 79.5 -12.5
t71.5 -43.5q9 -9 0 -18l-33 -43q-5 -5 -9 -5q-6 0 -12 5q-20 15 -46.5 26t-48.5 11q-12 0 -23.5 -2.5t-21 -8t-15.5 -13.5t-6 -20q0 -32 54 -51q29 -10 60 -20.5t56.5 -26.5t42 -40t16.5 -61zM200 490q-4 -5 -10.5 -6t-12.5 3l-24 15q-11 7 -4 19l81 135q4 6 10.5 9t11.5 0
l52 -32q10 -6 8.5 -12.5t-5.5 -10.5z" />
    <glyph glyph-name="Scircumflex" unicode="&#x15c;" horiz-adv-x="470" 
d="M436 174q0 -42 -16 -75t-44.5 -56.5t-67 -35.5t-84.5 -12q-57 0 -108.5 19t-83.5 57q-7 7 -7 12.5t8 14.5l38 39q8 7 13.5 5t13.5 -10q25 -24 58.5 -37.5t65.5 -13.5q56 0 86 24t30 66q0 23 -10.5 39t-27.5 28t-39 21t-46 17q-29 10 -59.5 23.5t-55.5 33.5t-40.5 49
t-15.5 70q0 40 14.5 72.5t40 54.5t60 34t73.5 12q43 0 87 -10t84 -38q10 -7 8.5 -13t-6.5 -14l-25 -43q-5 -8 -12 -8t-15 4q-32 17 -60 26.5t-54 9.5q-20 0 -37.5 -4.5t-30.5 -15t-21 -27t-8 -41.5q0 -19 10.5 -33t26.5 -24.5t36 -18.5t38 -15q33 -12 65.5 -26t59 -34
t42.5 -50.5t16 -75.5zM378 685q5 -5 6 -10.5t-6 -10.5l-22 -19q-5 -4 -9.5 -2t-11.5 6l-94 62q-6 4 -12 0l-92 -63q-7 -5 -11 -5.5t-11 4.5l-20 19q-7 5 -6.5 10.5t5.5 10.5l96 94q5 5 9 8t12 3h50q8 0 12.5 -3t9.5 -8z" />
    <glyph glyph-name="scircumflex" unicode="&#x15d;" horiz-adv-x="402" 
d="M366 124q0 -58 -45 -93.5t-119 -35.5q-53 0 -99 22t-69 72q-2 6 -2 8q0 6 6 9l52 26q8 4 11 2t8 -8q17 -26 42 -40t56 -14q28 0 47 13t19 36q0 21 -14 32t-40 21l-64 22q-23 8 -43 18.5t-35 25t-23.5 33.5t-8.5 45q0 32 13 56t34.5 40t49.5 24.5t59 8.5q39 0 79.5 -12.5
t71.5 -43.5q9 -9 0 -18l-33 -43q-5 -5 -9 -5q-6 0 -12 5q-20 15 -46.5 26t-48.5 11q-12 0 -23.5 -2.5t-21 -8t-15.5 -13.5t-6 -20q0 -32 54 -51q29 -10 60 -20.5t56.5 -26.5t42 -40t16.5 -61zM351 526q5 -5 6 -10.5t-6 -10.5l-23 -14q-8 -5 -12.5 -4t-9.5 6l-93 85
q-8 7 -14 1l-91 -87q-5 -5 -9.5 -5.5t-12.5 4.5l-22 14q-7 5 -6.5 10.5t5.5 10.5l98 124q5 5 9 8t12 3h50q8 0 12.5 -3t9.5 -8z" />
    <glyph glyph-name="Scedilla" unicode="&#x15e;" horiz-adv-x="470" 
d="M323 -123q0 -15 -6.5 -29.5t-18.5 -26t-30 -18.5t-42 -7q-23 0 -43.5 6.5t-36.5 17.5q-9 6 -3 15l17 22q7 8 10.5 6.5t13.5 -6.5q8 -4 19 -7.5t21 -3.5q21 0 31.5 8.5t10.5 21.5q0 11 -6.5 21t-29.5 10h-29q-17 0 -26 10t-4 27l14 53q-46 5 -86.5 23.5t-66.5 50.5
q-7 7 -7 12.5t8 14.5l38 39q8 7 13.5 5t13.5 -10q25 -24 58.5 -37.5t65.5 -13.5q56 0 86 24t30 66q0 23 -10.5 39t-27.5 28t-39 21t-46 17q-29 10 -59.5 23.5t-55.5 33.5t-40.5 49t-15.5 70q0 40 14.5 72.5t40 54.5t60 34t73.5 12q43 0 87 -10t84 -38q10 -7 8.5 -13
t-6.5 -14l-25 -43q-5 -8 -12 -8t-15 4q-32 17 -60 26.5t-54 9.5q-20 0 -37.5 -4.5t-30.5 -15t-21 -27t-8 -41.5q0 -19 10.5 -33t26.5 -24.5t36 -18.5t38 -15q33 -12 65.5 -26t59 -34t42.5 -50.5t16 -75.5q0 -41 -15 -73.5t-42 -55.5t-64 -36t-80 -14l-8 -35q0 -4 7 -4h10
q35 0 57 -21.5t22 -57.5z" />
    <glyph glyph-name="scedilla" unicode="&#x15f;" horiz-adv-x="402" 
d="M300 -123q0 -15 -6.5 -29.5t-18.5 -26t-30 -18.5t-42 -7q-23 0 -43.5 6.5t-36.5 17.5q-9 6 -3 15l17 22q7 8 10.5 6.5t13.5 -6.5q8 -4 19 -7.5t21 -3.5q21 0 31.5 8.5t10.5 21.5q0 11 -6.5 21t-29.5 10h-29q-17 0 -26 10t-4 27l14 54q-42 6 -75.5 27.5t-52.5 63.5
q-2 6 -2 8q0 6 6 9l52 26q8 4 11 2t8 -8q17 -26 42 -40t56 -14q28 0 47 13t19 36q0 21 -14 32t-40 21l-64 22q-23 8 -43 18.5t-35 25t-23.5 33.5t-8.5 45q0 32 13 56t34.5 40t49.5 24.5t59 8.5q39 0 79.5 -12.5t71.5 -43.5q9 -9 0 -18l-33 -43q-5 -5 -9 -5q-6 0 -12 5
q-20 15 -46.5 26t-48.5 11q-12 0 -23.5 -2.5t-21 -8t-15.5 -13.5t-6 -20q0 -32 54 -51q29 -10 60 -20.5t56.5 -26.5t42 -40t16.5 -61q0 -57 -42 -91.5t-112 -37.5l-8 -35q0 -4 7 -4h10q35 0 57 -21.5t22 -57.5z" />
    <glyph glyph-name="Scaron" unicode="&#x160;" horiz-adv-x="470" 
d="M436 174q0 -42 -16 -75t-44.5 -56.5t-67 -35.5t-84.5 -12q-57 0 -108.5 19t-83.5 57q-7 7 -7 12.5t8 14.5l38 39q8 7 13.5 5t13.5 -10q25 -24 58.5 -37.5t65.5 -13.5q56 0 86 24t30 66q0 23 -10.5 39t-27.5 28t-39 21t-46 17q-29 10 -59.5 23.5t-55.5 33.5t-40.5 49
t-15.5 70q0 40 14.5 72.5t40 54.5t60 34t73.5 12q43 0 87 -10t84 -38q10 -7 8.5 -13t-6.5 -14l-25 -43q-5 -8 -12 -8t-15 4q-32 17 -60 26.5t-54 9.5q-20 0 -37.5 -4.5t-30.5 -15t-21 -27t-8 -41.5q0 -19 10.5 -33t26.5 -24.5t36 -18.5t38 -15q33 -12 65.5 -26t59 -34
t42.5 -50.5t16 -75.5zM283 664q-5 -5 -9.5 -8t-12.5 -3h-50q-8 0 -12 3t-9 8l-96 94q-5 5 -5.5 10.5t6.5 10.5l20 19q7 5 11 4.5t11 -5.5l92 -63q6 -4 12 0l94 62q7 4 11.5 6t9.5 -2l22 -19q7 -5 6 -10.5t-6 -10.5z" />
    <glyph glyph-name="scaron" unicode="&#x161;" horiz-adv-x="402" 
d="M366 124q0 -58 -45 -93.5t-119 -35.5q-53 0 -99 22t-69 72q-2 6 -2 8q0 6 6 9l52 26q8 4 11 2t8 -8q17 -26 42 -40t56 -14q28 0 47 13t19 36q0 21 -14 32t-40 21l-64 22q-23 8 -43 18.5t-35 25t-23.5 33.5t-8.5 45q0 32 13 56t34.5 40t49.5 24.5t59 8.5q39 0 79.5 -12.5
t71.5 -43.5q9 -9 0 -18l-33 -43q-5 -5 -9 -5q-6 0 -12 5q-20 15 -46.5 26t-48.5 11q-12 0 -23.5 -2.5t-21 -8t-15.5 -13.5t-6 -20q0 -32 54 -51q29 -10 60 -20.5t56.5 -26.5t42 -40t16.5 -61zM251 503q-5 -5 -9.5 -8t-12.5 -3h-50q-8 0 -12 3t-9 8l-98 124q-5 5 -5.5 10.5
t6.5 10.5l22 14q8 5 12.5 4.5t9.5 -5.5l91 -87q6 -7 14 1l93 85q5 5 9.5 6t12.5 -4l23 -14q7 -5 6 -10.5t-6 -10.5z" />
    <glyph glyph-name="Tcommaaccent" unicode="&#x162;" horiz-adv-x="429" 
d="M413 546q0 -15 -14 -15h-125q-12 0 -12 -10l-1 -507q0 -14 -14 -14h-69q-16 0 -16 13l1 507q0 5 -2 8t-10 3h-120q-15 0 -15 15v57q0 14 15 14h368q14 0 14 -13v-58zM201 -215q-5 -17 -22 -17h-27q-11 0 -13.5 7.5t-2.5 16.5l11 145q0 22 22 22h62q15 0 18.5 -7t-0.5 -19
z" />
    <glyph glyph-name="tcommaaccent" unicode="&#x163;" horiz-adv-x="344" 
d="M306 26q2 -11 -2 -14.5t-12 -6.5q-17 -6 -41.5 -8.5t-45.5 -2.5q-36 0 -60 9.5t-38.5 26.5t-20.5 39.5t-6 49.5v233q0 11 -12 11h-38q-14 0 -14 12v53q0 13 12 13h39q13 0 13 13v80q0 5 2.5 9t9.5 6l65 15q9 2 12.5 -2t3.5 -9v-100q0 -12 13 -12h85q13 0 13 -12v-54
q0 -12 -13 -12h-86q-12 0 -12 -11v-215q0 -26 10 -41t37 -15q8 0 25 2t27 4q14 3 18.5 -1t6.5 -12zM155 -215q-5 -17 -22 -17h-27q-11 0 -13.5 7.5t-2.5 16.5l11 145q0 22 22 22h62q15 0 18.5 -7t-0.5 -19z" />
    <glyph glyph-name="Tcaron" unicode="&#x164;" horiz-adv-x="429" 
d="M413 546q0 -15 -14 -15h-125q-12 0 -12 -10l-1 -507q0 -14 -14 -14h-69q-16 0 -16 13l1 507q0 5 -2 8t-10 3h-120q-15 0 -15 15v57q0 14 15 14h368q14 0 14 -13v-58zM261 664q-5 -5 -9.5 -8t-12.5 -3h-50q-8 0 -12 3t-9 8l-96 94q-5 5 -5.5 10.5t6.5 10.5l20 19
q7 5 11 4.5t11 -5.5l92 -63q6 -4 12 0l94 62q7 4 11.5 6t9.5 -2l22 -19q7 -5 6 -10.5t-6 -10.5z" />
    <glyph glyph-name="tcaron" unicode="&#x165;" horiz-adv-x="360" 
d="M309 26q2 -11 -2 -14.5t-12 -6.5q-17 -6 -41.5 -8.5t-45.5 -2.5q-36 0 -60 9.5t-38.5 26.5t-20.5 39.5t-6 49.5v233q0 11 -12 11h-38q-14 0 -14 12v53q0 13 12 13h39q13 0 13 13v80q0 5 2.5 9t9.5 6l65 15q9 2 12.5 -2t3.5 -9v-100q0 -12 13 -12h85q13 0 13 -12v-54
q0 -12 -13 -12h-86q-12 0 -12 -11v-215q0 -26 10 -41t37 -15q8 0 25 2t27 4q14 3 18.5 -1t6.5 -12zM331 1387q-5 -5 -9.5 -8t-12.5 -3h-50q-8 0 -12 3t-9 8l-96 94q-5 5 -5.5 10.5t6.5 10.5l20 19q7 5 11 4.5t11 -5.5l92 -63q6 -4 12 0l94 62q7 4 11.5 6t9.5 -2l22 -19
q7 -5 6 -10.5t-6 -10.5zM310 523q-5 -17 -22 -17h-27q-11 0 -13.5 7.5t-2.5 16.5l11 145q0 22 22 22h62q15 0 18.5 -7t-0.5 -19z" />
    <glyph glyph-name="Tbar" unicode="&#x166;" horiz-adv-x="429" 
d="M162 293q0 6 -1.5 9.5t-7.5 3.5h-93q-12 0 -12 14v33q0 14 13 14h90q11 0 11 14v139q0 5 -1.5 8t-8.5 3h-121q-15 0 -15 15v57q0 14 15 14h368q14 0 14 -13v-58q0 -15 -14 -15h-126q-12 0 -12 -10v-140q0 -14 10 -14h93q14 0 14 -14v-33q0 -14 -13 -14h-95q-9 0 -9 -13
v-279q0 -14 -15 -14h-69q-15 0 -15 13v280z" />
    <glyph glyph-name="tbar" unicode="&#x167;" horiz-adv-x="322" 
d="M188 453q0 -12 13 -12h85q13 0 13 -12v-54q0 -12 -13 -12h-86q-12 0 -12 -11v-55q0 -12 11 -12h87q13 0 13 -11v-35q0 -12 -13 -12h-85q-13 0 -13 -13v-77q0 -26 10 -41t37 -15q8 0 25 2t27 4q14 3 18.5 -1t6.5 -12l9 -48q2 -11 -2 -14.5t-12 -6.5q-17 -6 -41.5 -8.5
t-45.5 -2.5q-36 0 -60 9.5t-38.5 26.5t-20.5 39.5t-6 49.5v95q0 13 -12 13h-47q-12 0 -12 11v35q0 12 11 12h47q13 0 13 14v53q0 11 -12 11h-46q-13 0 -13 12v53q0 13 12 13h46q13 0 13 13l-1 80q0 5 3 9t10 6l65 15q9 2 12.5 -2t3.5 -9v-100v0z" />
    <glyph glyph-name="Utilde" unicode="&#x168;" horiz-adv-x="514" 
d="M157 167q0 -37 27.5 -61.5t71.5 -24.5q46 0 73 25t27 63v435q0 13 15 13h69q15 0 15 -12v-438q0 -41 -16 -73t-43 -54.5t-63 -34t-76 -11.5q-41 0 -77 11.5t-63 33.5t-42.5 54.5t-15.5 73.5v437q0 13 14 13h70q14 0 14 -12v-438zM394 717q-16 -31 -39.5 -45t-45.5 -14
q-17 0 -32 5t-29.5 11.5t-28 11.5t-27.5 5q-19 0 -37 -27q-5 -5 -10.5 -4.5t-10.5 4.5l-26 19q-5 4 -4.5 9t2.5 10q13 25 35.5 41.5t49.5 16.5q15 0 30.5 -5.5t30.5 -12t28.5 -12t25.5 -5.5q11 0 20.5 8t16.5 19q5 10 16 4l31 -18q11 -7 4 -21z" />
    <glyph glyph-name="utilde" unicode="&#x169;" horiz-adv-x="466" 
d="M411 13q0 -13 -12 -13h-69q-11 0 -11 12v13q0 8 -4 7.5t-9 -5.5q-20 -17 -46 -25t-54 -8q-77 0 -117.5 46.5t-40.5 121.5v266q0 13 12 13h70q13 0 13 -12v-265q0 -38 20.5 -63t65.5 -25q40 0 63.5 24.5t23.5 62.5v265q0 13 13 13h69q13 0 13 -12v-416zM373 567
q-16 -31 -39.5 -45t-45.5 -14q-17 0 -32 5t-29.5 11.5t-28 11.5t-27.5 5q-19 0 -37 -27q-5 -5 -10.5 -4.5t-10.5 4.5l-26 19q-5 4 -4.5 9t2.5 10q13 25 35.5 41.5t49.5 16.5q15 0 30.5 -5.5t30.5 -12t28.5 -12t25.5 -5.5q11 0 20.5 8t16.5 19q5 10 16 4l31 -18q11 -7 4 -21z
" />
    <glyph glyph-name="Umacron" unicode="&#x16a;" horiz-adv-x="514" 
d="M157 167q0 -37 27.5 -61.5t71.5 -24.5q46 0 73 25t27 63v435q0 13 15 13h69q15 0 15 -12v-438q0 -41 -16 -73t-43 -54.5t-63 -34t-76 -11.5q-41 0 -77 11.5t-63 33.5t-42.5 54.5t-15.5 73.5v437q0 13 14 13h70q14 0 14 -12v-438zM373 682q0 -15 -15 -15h-209
q-16 0 -16 15v41q0 15 15 15h209q16 0 16 -14v-42z" />
    <glyph glyph-name="umacron" unicode="&#x16b;" horiz-adv-x="466" 
d="M411 13q0 -13 -12 -13h-69q-11 0 -11 12v13q0 8 -4 7.5t-9 -5.5q-20 -17 -46 -25t-54 -8q-77 0 -117.5 46.5t-40.5 121.5v266q0 13 12 13h70q13 0 13 -12v-265q0 -38 20.5 -63t65.5 -25q40 0 63.5 24.5t23.5 62.5v265q0 13 13 13h69q13 0 13 -12v-416zM351 530
q0 -15 -15 -15h-209q-16 0 -16 15v41q0 15 15 15h209q16 0 16 -14v-42z" />
    <glyph glyph-name="Ubreve" unicode="&#x16c;" horiz-adv-x="514" 
d="M157 167q0 -37 27.5 -61.5t71.5 -24.5q46 0 73 25t27 63v435q0 13 15 13h69q15 0 15 -12v-438q0 -41 -16 -73t-43 -54.5t-63 -34t-76 -11.5q-41 0 -77 11.5t-63 33.5t-42.5 54.5t-15.5 73.5v437q0 13 14 13h70q14 0 14 -12v-438zM256 713q22 0 37 16t24 42q2 6 4.5 9
t10.5 3h34q10 0 12.5 -4.5t1.5 -11.5q-3 -25 -13 -48t-26 -40t-37.5 -27.5t-47.5 -10.5q-25 0 -46.5 10.5t-37.5 27.5t-26.5 40t-13.5 48q-1 7 1.5 11.5t12.5 4.5h34q8 0 11.5 -3t5.5 -9q9 -26 23 -42t36 -16z" />
    <glyph glyph-name="ubreve" unicode="&#x16d;" horiz-adv-x="466" 
d="M411 13q0 -13 -12 -13h-69q-11 0 -11 12v13q0 8 -4 7.5t-9 -5.5q-20 -17 -46 -25t-54 -8q-77 0 -117.5 46.5t-40.5 121.5v266q0 13 12 13h70q13 0 13 -12v-265q0 -38 20.5 -63t65.5 -25q40 0 63.5 24.5t23.5 62.5v265q0 13 13 13h69q13 0 13 -12v-416zM232 563
q22 0 37 16t24 42q2 6 4.5 9t10.5 3h34q10 0 12.5 -4.5t1.5 -11.5q-3 -25 -13 -48t-26 -40t-37.5 -27.5t-47.5 -10.5q-25 0 -46.5 10.5t-37.5 27.5t-26.5 40t-13.5 48q-1 7 1.5 11.5t12.5 4.5h34q8 0 11.5 -3t5.5 -9q9 -26 23 -42t36 -16z" />
    <glyph glyph-name="Uring" unicode="&#x16e;" horiz-adv-x="514" 
d="M157 167q0 -37 27.5 -61.5t71.5 -24.5q46 0 73 25t27 63v435q0 13 15 13h69q15 0 15 -12v-438q0 -41 -16 -73t-43 -54.5t-63 -34t-76 -11.5q-41 0 -77 11.5t-63 33.5t-42.5 54.5t-15.5 73.5v437q0 13 14 13h70q14 0 14 -12v-438zM341 725q0 -18 -7 -34t-19 -28.5
t-28.5 -19.5t-35.5 -7q-18 0 -34.5 7t-29 18.5t-19.5 27.5t-7 34t7 34.5t19 28.5t28.5 19.5t35.5 7.5q37 0 63.5 -25.5t26.5 -62.5zM294 724q0 17 -13 30.5t-30 13.5t-29 -13t-12 -31t12 -30.5t29 -12.5t30 12.5t13 30.5z" />
    <glyph glyph-name="uring" unicode="&#x16f;" horiz-adv-x="466" 
d="M411 13q0 -13 -12 -13h-69q-11 0 -11 12v13q0 8 -4 7.5t-9 -5.5q-20 -17 -46 -25t-54 -8q-77 0 -117.5 46.5t-40.5 121.5v266q0 13 12 13h70q13 0 13 -12v-265q0 -38 20.5 -63t65.5 -25q40 0 63.5 24.5t23.5 62.5v265q0 13 13 13h69q13 0 13 -12v-416zM323 563
q0 -18 -7 -34t-19 -28.5t-28.5 -19.5t-35.5 -7q-18 0 -34.5 7t-29 18.5t-19.5 27.5t-7 34t7 34.5t19 28.5t28.5 19.5t35.5 7.5q37 0 63.5 -25.5t26.5 -62.5zM276 562q0 17 -13 30.5t-30 13.5t-29 -13t-12 -31t12 -30.5t29 -12.5t30 12.5t13 30.5z" />
    <glyph glyph-name="Uhungarumlaut" unicode="&#x170;" horiz-adv-x="514" 
d="M157 167q0 -37 27.5 -61.5t71.5 -24.5q46 0 73 25t27 63v435q0 13 15 13h69q15 0 15 -12v-438q0 -41 -16 -73t-43 -54.5t-63 -34t-76 -11.5q-41 0 -77 11.5t-63 33.5t-42.5 54.5t-15.5 73.5v437q0 13 14 13h70q14 0 14 -12v-438zM481 748q8 -9 4.5 -15t-8.5 -9l-138 -82
q-5 -3 -11.5 -2t-11.5 6l-18 21q-10 10 1 19l118 105q5 5 11.5 6t11.5 -4zM319 748q8 -9 4.5 -15t-8.5 -9l-138 -82q-5 -3 -11.5 -2t-11.5 6l-18 21q-10 10 1 19l118 105q5 5 11.5 6t11.5 -4z" />
    <glyph glyph-name="uhungarumlaut" unicode="&#x171;" horiz-adv-x="466" 
d="M411 13q0 -13 -12 -13h-69q-11 0 -11 12v13q0 8 -4 7.5t-9 -5.5q-20 -17 -46 -25t-54 -8q-77 0 -117.5 46.5t-40.5 121.5v266q0 13 12 13h70q13 0 13 -12v-265q0 -38 20.5 -63t65.5 -25q40 0 63.5 24.5t23.5 62.5v265q0 13 13 13h69q13 0 13 -12v-416zM215 656q4 6 10 9
t12 -1l52 -31q10 -6 8.5 -12.5t-5.5 -11.5l-107 -119q-4 -5 -10.5 -6t-12.5 3l-24 15q-12 8 -4 19zM349 656q4 6 10 9t12 -1l52 -31q10 -6 8.5 -12.5t-5.5 -11.5l-107 -119q-4 -5 -10.5 -6t-12.5 3l-24 15q-12 8 -4 19z" />
    <glyph glyph-name="Uogonek" unicode="&#x172;" horiz-adv-x="514" 
d="M157 167q0 -37 27.5 -61.5t71.5 -24.5q46 0 73 25t27 63v435q0 13 15 13h69q15 0 15 -12v-438q0 -38 -14 -68.5t-38 -52.5t-56 -35t-68 -16q-19 -22 -30.5 -49.5t-11.5 -51.5q0 -13 5 -21t21 -8q15 0 32 7t29 15q8 5 13 -1l16 -24q3 -5 2.5 -7.5t-5.5 -6.5
q-17 -14 -43.5 -26t-54.5 -12q-45 0 -63 21.5t-18 53.5q0 28 14.5 58.5t34.5 53.5q-34 4 -63.5 17.5t-51 35t-34 51t-12.5 66.5v437q0 13 14 13h70q14 0 14 -12v-438v0z" />
    <glyph glyph-name="uogonek" unicode="&#x173;" horiz-adv-x="466" 
d="M319 12v13q0 8 -4 7.5t-9 -5.5q-20 -17 -46 -25t-54 -8q-77 0 -117.5 46.5t-40.5 121.5v266q0 13 12 13h70q13 0 13 -12v-265q0 -38 20.5 -63t65.5 -25q40 0 63.5 24.5t23.5 62.5v265q0 13 13 13h69q13 0 13 -12v-416q0 -13 -12 -13h-31q-21 -23 -34 -52t-13 -54
q0 -13 5 -21t21 -8q15 0 32 7t29 15q8 5 13 -1l16 -24q3 -5 2.5 -7.5t-5.5 -6.5q-17 -14 -43.5 -26t-54.5 -12q-45 0 -63 21.5t-18 53.5q0 16 5 33.5t14 34.5t20.5 31.5t24.5 25.5v2z" />
    <glyph glyph-name="Wcircumflex" unicode="&#x174;" horiz-adv-x="693" 
d="M548 11q-3 -11 -17 -11h-77q-6 0 -10.5 2t-6.5 8l-34 162t-35 162l-20 101q0 1 -1 1q-2 0 -2 -1q-5 -25 -10 -51l-10 -52q-16 -81 -33.5 -161t-33.5 -161q-4 -10 -18 -10h-76q-7 0 -11 1.5t-6 7.5l-137 591q0 6 1.5 11.5t12.5 5.5h74q8 0 11 -4t4 -10q17 -78 32.5 -156
t32.5 -156l24 -129q2 -2 3 -2q3 0 3 2q5 31 11.5 63t11.5 62q17 81 33.5 160t33.5 160q1 4 4 7t13 3h65q13 0 16 -12l70 -318l25 -125q0 -3 2 -3q4 0 4 3l12 64t11 64l62 315q3 12 16 12h69q11 0 14 -5.5t1 -13.5zM482 685q5 -5 6 -10.5t-6 -10.5l-22 -19q-5 -4 -9.5 -2
t-11.5 6l-94 62q-6 4 -12 0l-92 -63q-7 -5 -11 -5.5t-11 4.5l-20 19q-7 5 -6.5 10.5t5.5 10.5l96 94q5 5 9 8t12 3h50q8 0 12.5 -3t9.5 -8z" />
    <glyph glyph-name="wcircumflex" unicode="&#x175;" horiz-adv-x="630" 
d="M501 16q-3 -10 -8 -13t-12 -3h-55q-10 0 -14.5 2t-7.5 12l-57 181l-32 118q-4 8 -7 0l-33 -125l-54 -174q-3 -11 -8 -12.5t-13 -1.5h-55q-9 0 -14 2.5t-8 12.5l-112 409q-3 8 0 13t11 5h69q18 0 22 -17l34 -152l28 -132q1 -4 4 -4t4 4l36 129l47 152q2 9 6.5 14.5
t14.5 5.5h53q7 0 12 -3t9 -15l55 -177l29 -106q1 -3 4 -3.5t4 3.5l21 102l39 181q2 8 7 13t16 5h67q9 0 11.5 -5.5t0.5 -12.5zM457 526q5 -5 6 -10.5t-6 -10.5l-23 -14q-8 -5 -12.5 -4t-9.5 6l-93 85q-8 7 -14 1l-91 -87q-5 -5 -9.5 -5.5t-12.5 4.5l-22 14q-7 5 -6.5 10.5
t5.5 10.5l98 124q5 5 9 8t12 3h50q8 0 12.5 -3t9.5 -8z" />
    <glyph glyph-name="Ycircumflex" unicode="&#x176;" horiz-adv-x="450" 
d="M96 617q10 0 15.5 -2.5t9.5 -11.5l99 -258q6 -7 9 -1q25 64 50 129t48 128q5 9 9.5 12.5t18.5 3.5h64q14 0 15.5 -5.5t-1.5 -12.5l-154 -356q-3 -8 -4 -12.5t-1 -12.5v-203q0 -15 -15 -15h-69q-15 0 -15 14v206q0 12 -5 21l-154 357q-3 8 -1 13.5t13 5.5h68zM363 685
q5 -5 6 -10.5t-6 -10.5l-22 -19q-5 -4 -9.5 -2t-11.5 6l-94 62q-6 4 -12 0l-92 -63q-7 -5 -11 -5.5t-11 4.5l-20 19q-7 5 -6.5 10.5t5.5 10.5l96 94q5 5 9 8t12 3h50q8 0 12.5 -3t9.5 -8z" />
    <glyph glyph-name="ycircumflex" unicode="&#x177;" horiz-adv-x="428" 
d="M220 -162q-2 -8 -9 -14.5t-21 -6.5h-50q-11 0 -15.5 6.5t0.5 20.5l45 140q2 7 2 11.5t-9 4.5h-10q-19 0 -25 20l-112 404q-7 19 13 19h66q11 0 16 -4.5t7 -11.5l44 -180l34 -149q2 -8 6.5 -8.5t7.5 8.5l50 160l52 166q3 7 7.5 13t17.5 6h59q22 0 15 -22zM371 526
q5 -5 6 -10.5t-6 -10.5l-23 -14q-8 -5 -12.5 -4t-9.5 6l-93 85q-8 7 -14 1l-91 -87q-5 -5 -9.5 -5.5t-12.5 4.5l-22 14q-7 5 -6.5 10.5t5.5 10.5l98 124q5 5 9 8t12 3h50q8 0 12.5 -3t9.5 -8z" />
    <glyph glyph-name="Ydieresis" unicode="&#x178;" horiz-adv-x="450" 
d="M96 617q10 0 15.5 -2.5t9.5 -11.5l99 -258q6 -7 9 -1q25 64 50 129t48 128q5 9 9.5 12.5t18.5 3.5h64q14 0 15.5 -5.5t-1.5 -12.5l-154 -356q-3 -8 -4 -12.5t-1 -12.5v-203q0 -15 -15 -15h-69q-15 0 -15 14v206q0 12 -5 21l-154 357q-3 8 -1 13.5t13 5.5h68zM356 700
q0 -23 -15 -38t-38 -15t-38.5 15t-15.5 38q0 22 15 37.5t38 15.5t38.5 -15.5t15.5 -37.5zM187 700q0 -23 -15 -38t-38 -15t-38.5 15t-15.5 38q0 22 15.5 37.5t37.5 15.5q23 0 38.5 -15.5t15.5 -37.5z" />
    <glyph glyph-name="Zacute" unicode="&#x179;" horiz-adv-x="431" 
d="M402 14q0 -14 -14 -14h-332q-13 0 -18.5 6.5t-5.5 14.5v31q0 15 8 31q4 8 22 41t42 79t52 98.5t52 98t41.5 78.5t21.5 41q7 12 -7 12h-201q-14 0 -14 15v58q0 13 15 13h306q14 0 19 -4.5t5 -15.5v-32q0 -11 -4.5 -23t-8.5 -20l-223 -423q-9 -12 5 -12h225q5 0 9.5 -3
t4.5 -11v-59zM333 739q7 -9 3 -15t-9 -8l-146 -73q-12 -5 -21 8l-16 23q-9 10 3 19l126 95q5 5 12 5t11 -5z" />
    <glyph glyph-name="zacute" unicode="&#x17a;" horiz-adv-x="415" 
d="M381 13q0 -13 -12 -13h-313q-12 0 -17 5.5t-5 13.5v28q0 7 2 15t7 15l188 269q4 5 2.5 9.5t-9.5 4.5h-167q-13 0 -13 12v56q0 13 12 13h285q14 0 19 -5t5 -15v-33q0 -8 -2 -16.5t-6 -14.5l-183 -261q-8 -15 8 -15h186q13 0 13 -12v-56zM212 490q-4 -5 -10.5 -6t-12.5 3
l-24 15q-11 7 -4 19l81 135q4 6 10.5 9t11.5 0l52 -32q10 -6 8.5 -12.5t-5.5 -10.5z" />
    <glyph glyph-name="Zdotaccent" unicode="&#x17b;" horiz-adv-x="431" 
d="M402 14q0 -14 -14 -14h-332q-13 0 -18.5 6.5t-5.5 14.5v31q0 15 8 31q4 8 22 41t42 79t52 98.5t52 98t41.5 78.5t21.5 41q7 12 -7 12h-201q-14 0 -14 15v58q0 13 15 13h306q14 0 19 -4.5t5 -15.5v-32q0 -11 -4.5 -23t-8.5 -20l-223 -423q-9 -12 5 -12h225q5 0 9.5 -3
t4.5 -11v-59zM285 712q0 -23 -15.5 -38t-37.5 -15q-23 0 -38.5 14.5t-15.5 37.5q0 22 15 37.5t38 15.5t38.5 -15.5t15.5 -36.5z" />
    <glyph glyph-name="zdotaccent" unicode="&#x17c;" horiz-adv-x="415" 
d="M381 13q0 -13 -12 -13h-313q-12 0 -17 5.5t-5 13.5v28q0 7 2 15t7 15l188 269q4 5 2.5 9.5t-9.5 4.5h-167q-13 0 -13 12v56q0 13 12 13h285q14 0 19 -5t5 -15v-33q0 -8 -2 -16.5t-6 -14.5l-183 -261q-8 -15 8 -15h186q13 0 13 -12v-56zM274 556q0 -23 -15.5 -38
t-37.5 -15q-23 0 -38.5 14.5t-15.5 37.5q0 22 15 37.5t38 15.5t38.5 -15.5t15.5 -36.5z" />
    <glyph glyph-name="Zcaron" unicode="&#x17d;" horiz-adv-x="431" 
d="M402 14q0 -14 -14 -14h-332q-13 0 -18.5 6.5t-5.5 14.5v31q0 15 8 31q4 8 22 41t42 79t52 98.5t52 98t41.5 78.5t21.5 41q7 12 -7 12h-201q-14 0 -14 15v58q0 13 15 13h306q14 0 19 -4.5t5 -15.5v-32q0 -11 -4.5 -23t-8.5 -20l-223 -423q-9 -12 5 -12h225q5 0 9.5 -3
t4.5 -11v-59zM264 664q-5 -5 -9.5 -8t-12.5 -3h-50q-8 0 -12 3t-9 8l-96 94q-5 5 -5.5 10.5t6.5 10.5l20 19q7 5 11 4.5t11 -5.5l92 -63q6 -4 12 0l94 62q7 4 11.5 6t9.5 -2l22 -19q7 -5 6 -10.5t-6 -10.5z" />
    <glyph glyph-name="zcaron" unicode="&#x17e;" horiz-adv-x="415" 
d="M381 13q0 -13 -12 -13h-313q-12 0 -17 5.5t-5 13.5v28q0 7 2 15t7 15l188 269q4 5 2.5 9.5t-9.5 4.5h-167q-13 0 -13 12v56q0 13 12 13h285q14 0 19 -5t5 -15v-33q0 -8 -2 -16.5t-6 -14.5l-183 -261q-8 -15 8 -15h186q13 0 13 -12v-56zM253 503q-5 -5 -9.5 -8t-12.5 -3
h-50q-8 0 -12 3t-9 8l-98 124q-5 5 -5.5 10.5t6.5 10.5l22 14q8 5 12.5 4.5t9.5 -5.5l91 -87q6 -7 14 1l93 85q5 5 9.5 6t12.5 -4l23 -14q7 -5 6 -10.5t-6 -10.5z" />
    <glyph glyph-name="florin" unicode="&#x192;" horiz-adv-x="486" 
d="M310 289q-8 0 -11.5 -3.5t-3.5 -8.5l-30 -209q-7 -49 -22.5 -82t-36.5 -53.5t-47 -29t-53 -8.5q-19 0 -36 3.5t-28 7.5q-8 2 -13 6t-2 15l21 55q4 10 8.5 11t17.5 -2q38 -10 61.5 3.5t30.5 58.5l35 223q2 13 -8 13h-52q-17 0 -17 14v52q2 14 18 14h62q11 0 13 10l15 94
q7 46 22 76t35 47.5t45 24.5t51 7q20 0 37 -3.5t28 -6.5q8 -3 13 -6.5t2 -14.5l-21 -56q-4 -10 -8.5 -11.5t-17.5 2.5q-35 11 -60 -2.5t-32 -58.5l-14 -92q-1 -5 0.5 -7.5t7.5 -2.5h61q18 0 18 -14v-52q0 -14 -17 -14h-72z" />
    <glyph glyph-name="AEacute" unicode="&#x1fc;" horiz-adv-x="744" 
d="M699 87q14 0 14 -14v-59q0 -14 -14 -14h-334q-15 0 -15 13v117q0 5 -1.5 10t-11.5 5h-168q-6 0 -7.5 -2.5t-3.5 -6.5l-45 -124q-4 -12 -17 -12h-67q-11 0 -12.5 6.5t0.5 14.5q20 54 49.5 131t60.5 159.5t60.5 159.5t49.5 131q2 5 7 10t16 5h434q15 0 15 -13v-58
q0 -15 -14 -15h-234q-12 0 -12 -10v-150q0 -12 11 -12h193q14 0 14 -14v-58q0 -15 -13 -15h-194q-11 0 -11 -12v-161q0 -5 1.5 -8.5t9.5 -3.5h239zM194 238q-4 -8 5 -8h138q13 0 13 13v280q0 8 -9 8h-35q-8 0 -12 -8zM577 739q7 -9 3 -15t-9 -8l-146 -73q-12 -5 -21 8
l-16 23q-9 10 3 19l126 95q5 5 12 5t11 -5z" />
    <glyph glyph-name="aeacute" unicode="&#x1fd;" horiz-adv-x="707" 
d="M348 46q-3 3 -7.5 4t-9.5 -4q-25 -24 -56.5 -37.5t-71.5 -13.5q-35 0 -64.5 10.5t-51.5 30t-34.5 48t-12.5 64.5q0 35 12 64t34 49.5t52.5 32t66.5 11.5q18 0 41 -7t37 -15q7 -5 12 -3.5t5 9.5v12q0 35 -27 53t-65 18q-20 0 -48 -8t-48 -17q-13 -6 -18 8l-18 46
q-3 12 7 17q31 14 62 22.5t69 8.5q42 0 75 -12.5t58 -34.5q4 -3 6 -2.5t6 2.5q50 47 127 47q40 0 73.5 -12.5t57.5 -35t37 -55t13 -71.5v-48q0 -11 -7 -18.5t-16 -7.5h-226q-9 0 -14 -5.5t-5 -12.5v-17q0 -36 24 -62.5t63 -26.5q30 0 51.5 14.5t37.5 34.5q5 6 9.5 7.5
t12.5 -3.5l44 -28q8 -5 11 -9.5t-1 -11.5q-25 -46 -68.5 -66.5t-94.5 -20.5q-45 0 -80 13.5t-60 38.5zM292 151q0 33 -23 57t-57 24q-36 0 -58.5 -23.5t-22.5 -57.5q0 -33 22.5 -57t57.5 -24q38 0 59.5 25t21.5 56zM572 284q-2 38 -24 60.5t-61 22.5q-42 0 -61 -25t-22 -62
q-1 -5 1.5 -8t11.5 -3h144q11 0 11 15zM383 490q-4 -5 -10.5 -6t-12.5 3l-24 15q-11 7 -4 19l81 135q4 6 10.5 9t11.5 0l52 -32q10 -6 8.5 -12.5t-5.5 -10.5z" />
    <glyph glyph-name="Oslashacute" unicode="&#x1fe;" horiz-adv-x="513" 
d="M128 22q-3 -6 -6.5 -11.5t-6.5 -10.5q-6 -11 -15 -6l-32 17q-6 3 -5.5 7t3.5 10l18 32q2 3 3 6.5t-2 6.5q-11 17 -19 42.5t-8 52.5v261v14.5t1 14.5q1 39 17 70t43 52.5t62 33t76 11.5q64 0 116 -29q4 -2 7 -2t5 4l15 25q7 10 16 4l31 -16q10 -5 3 -16l-22 -39
q-3 -6 0 -14q11 -17 18.5 -40.5t7.5 -49.5v-283q0 -42 -15.5 -74.5t-42 -55t-62 -34t-76.5 -11.5q-35 0 -65.5 7t-52.5 21q-3 3 -7 3t-5 -3zM157 202q0 -6 2.5 -6t4.5 3l165 298q2 5 3 8t-4 8q-11 11 -30.5 18.5t-41.5 7.5q-45 0 -72 -26.5t-27 -64.5v-246zM355 416
q0 10 -5 4l-168 -304q-4 -8 1 -11q25 -25 74 -25q44 0 71 25.5t27 65.5v245zM395 739q7 -9 3 -15t-9 -8l-146 -73q-12 -5 -21 8l-16 23q-9 10 3 19l126 95q5 5 12 5t11 -5z" />
    <glyph glyph-name="oslashacute" unicode="&#x1ff;" horiz-adv-x="448" 
d="M106 26q-4 3 -7 -2l-14 -17q-4 -5 -6.5 -7t-10.5 4l-20 17q-7 5 -8 9t3 9l19 25q3 4 1.5 6t-2.5 4q-10 18 -16 41.5t-6 49.5v113q0 39 13 70.5t37 54t57 34.5t73 12q61 0 106 -27q5 -2 8 -1t5 3l13 17q5 7 9.5 6t11.5 -6l22 -18q10 -7 2 -18l-16 -22q-4 -5 -2.5 -8
t1.5 -4q23 -37 23 -92v-113q0 -83 -49.5 -127.5t-132.5 -44.5q-33 0 -62 8.5t-52 23.5zM307 282q0 8 -2 7.5t-4 -2.5l-140 -180q-3 -4 0 -8q9 -11 25 -17t33 -6q40 0 63.5 24.5t24.5 64.5v117zM134 165q0 -6 3 -4.5t5 4.5l134 176q2 3 1 5t-2 3q-21 18 -55 18
q-35 0 -60.5 -24.5t-25.5 -64.5v-113zM235 490q-4 -5 -10.5 -6t-12.5 3l-24 15q-11 7 -4 19l81 135q4 6 10.5 9t11.5 0l52 -32q10 -6 8.5 -12.5t-5.5 -10.5z" />
    <glyph glyph-name="Scommaaccent" unicode="&#x218;" horiz-adv-x="470" 
d="M436 174q0 -42 -16 -75t-44.5 -56.5t-67 -35.5t-84.5 -12q-57 0 -108.5 19t-83.5 57q-7 7 -7 12.5t8 14.5l38 39q8 7 13.5 5t13.5 -10q25 -24 58.5 -37.5t65.5 -13.5q56 0 86 24t30 66q0 23 -10.5 39t-27.5 28t-39 21t-46 17q-29 10 -59.5 23.5t-55.5 33.5t-40.5 49
t-15.5 70q0 40 14.5 72.5t40 54.5t60 34t73.5 12q43 0 87 -10t84 -38q10 -7 8.5 -13t-6.5 -14l-25 -43q-5 -8 -12 -8t-15 4q-32 17 -60 26.5t-54 9.5q-20 0 -37.5 -4.5t-30.5 -15t-21 -27t-8 -41.5q0 -19 10.5 -33t26.5 -24.5t36 -18.5t38 -15q33 -12 65.5 -26t59 -34
t42.5 -50.5t16 -75.5zM237 -215q-5 -17 -22 -17h-27q-11 0 -13.5 7.5t-2.5 16.5l11 145q0 22 22 22h62q15 0 18.5 -7t-0.5 -19z" />
    <glyph glyph-name="scommaaccent" unicode="&#x219;" horiz-adv-x="402" 
d="M366 124q0 -58 -45 -93.5t-119 -35.5q-53 0 -99 22t-69 72q-2 6 -2 8q0 6 6 9l52 26q8 4 11 2t8 -8q17 -26 42 -40t56 -14q28 0 47 13t19 36q0 21 -14 32t-40 21l-64 22q-23 8 -43 18.5t-35 25t-23.5 33.5t-8.5 45q0 32 13 56t34.5 40t49.5 24.5t59 8.5q39 0 79.5 -12.5
t71.5 -43.5q9 -9 0 -18l-33 -43q-5 -5 -9 -5q-6 0 -12 5q-20 15 -46.5 26t-48.5 11q-12 0 -23.5 -2.5t-21 -8t-15.5 -13.5t-6 -20q0 -32 54 -51q29 -10 60 -20.5t56.5 -26.5t42 -40t16.5 -61zM204 -215q-5 -17 -22 -17h-27q-11 0 -13.5 7.5t-2.5 16.5l11 145q0 22 22 22h62
q15 0 18.5 -7t-0.5 -19z" />
    <glyph glyph-name="schwa" unicode="&#x259;" horiz-adv-x="448" 
d="M45 216q0 12 7.5 19.5t16.5 7.5h225q10 0 14.5 5t4.5 12v17q0 37 -23.5 63t-63.5 26q-29 0 -51 -14.5t-38 -34.5q-6 -7 -11 -7t-11 3q-11 7 -21.5 14t-21.5 14q-5 4 -8.5 7t-3.5 8q0 1 2 7q5 9 11.5 18t14.5 17q26 26 61 38.5t76 12.5t75 -12t58 -33.5t37 -52.5t13 -69
v-113q0 -39 -13.5 -71t-37.5 -55t-57.5 -35.5t-73.5 -12.5q-55 0 -97 23.5t-65 66.5q-10 18 -14.5 39.5t-4.5 44.5v47zM141 159q0 -2 0.5 -4.5t0.5 -4.5q2 -30 25 -51.5t59 -21.5t59 22.5t25 54.5v5q0 2 0.5 2.5t0.5 1.5q0 11 -16 11h-144q-10 0 -10 -10v-5z" />
    <glyph glyph-name="primemod" unicode="&#x2b9;" horiz-adv-x="233" 
d="M85 381q-5 -8 -11.5 -10.5t-15.5 2.5l-30 17q-10 5 -10 12t3 15l94 212q4 9 12 13t16 0l58 -29q12 -6 11 -16t-5 -16z" />
    <glyph glyph-name="circumflex" unicode="&#x2c6;" horiz-adv-x="450" 
d="M374 526q5 -5 6 -10.5t-6 -10.5l-23 -14q-8 -5 -12.5 -4t-9.5 6l-93 85q-8 7 -14 1l-91 -87q-5 -5 -9.5 -5.5t-12.5 4.5l-22 14q-7 5 -6.5 10.5t5.5 10.5l98 124q5 5 9 8t12 3h50q8 0 12.5 -3t9.5 -8l97 -124v0z" />
    <glyph glyph-name="caron" unicode="&#x2c7;" horiz-adv-x="450" 
d="M284 503q-5 -5 -9.5 -8t-12.5 -3h-50q-8 0 -12 3t-9 8l-98 124q-5 5 -5.5 10.5t6.5 10.5l22 14q8 5 12.5 4.5t9.5 -5.5l91 -87q6 -7 14 1l93 85q5 5 9.5 6t12.5 -4l23 -14q7 -5 6 -10.5t-6 -10.5z" />
    <glyph glyph-name="breve" unicode="&#x2d8;" horiz-adv-x="450" 
d="M241 563q22 0 37 16t24 42q2 6 4.5 9t10.5 3h34q10 0 12.5 -4.5t1.5 -11.5q-3 -25 -13 -48t-26 -40t-37.5 -27.5t-47.5 -10.5q-25 0 -46.5 10.5t-37.5 27.5t-26.5 40t-13.5 48q-1 7 1.5 11.5t12.5 4.5h34q8 0 11.5 -3t5.5 -9q9 -26 23 -42t36 -16z" />
    <glyph glyph-name="dotaccent" unicode="&#x2d9;" horiz-adv-x="449" 
d="M295 556q0 -23 -15.5 -38t-37.5 -15q-23 0 -38.5 14.5t-15.5 37.5q0 22 15 37.5t38 15.5t38.5 -15.5t15.5 -36.5z" />
    <glyph glyph-name="ring" unicode="&#x2da;" horiz-adv-x="450" 
d="M340 563q0 -18 -7 -34t-19 -28.5t-28.5 -19.5t-35.5 -7q-18 0 -34.5 7t-29 18.5t-19.5 27.5t-7 34t7 34.5t19 28.5t28.5 19.5t35.5 7.5q37 0 63.5 -25.5t26.5 -62.5zM293 562q0 17 -13 30.5t-30 13.5t-29 -13t-12 -31t12 -30.5t29 -12.5t30 12.5t13 30.5z" />
    <glyph glyph-name="ogonek" unicode="&#x2db;" horiz-adv-x="452" 
d="M216 10q7 7 12 9t12 2h30q7 0 7 -6q0 -3 -2 -5q-25 -23 -41 -55.5t-16 -60.5q0 -13 5 -21t21 -8q15 0 32 7t29 15q8 5 13 -1l16 -24q3 -5 2.5 -7.5t-5.5 -6.5q-17 -14 -43.5 -26t-54.5 -12q-45 0 -63 21.5t-18 53.5q0 16 5 33.5t14 34.5t20.5 31.5t24.5 25.5z" />
    <glyph glyph-name="tilde" unicode="&#x2dc;" horiz-adv-x="449" 
d="M370 567q-16 -31 -39.5 -45t-45.5 -14q-17 0 -32 5t-29.5 11.5t-28 11.5t-27.5 5q-19 0 -37 -27q-5 -5 -10.5 -4.5t-10.5 4.5l-26 19q-5 4 -4.5 9t2.5 10q13 25 35.5 41.5t49.5 16.5q15 0 30.5 -5.5t30.5 -12t28.5 -12t25.5 -5.5q11 0 20.5 8t16.5 19q5 10 16 4l31 -18
q11 -7 4 -21z" />
    <glyph glyph-name="hungarumlaut" unicode="&#x2dd;" horiz-adv-x="458" 
d="M208 656q4 6 10 9t12 -1l52 -31q10 -6 8.5 -12.5t-5.5 -11.5l-107 -119q-4 -5 -10.5 -6t-12.5 3l-24 15q-12 8 -4 19zM342 656q4 6 10 9t12 -1l52 -31q10 -6 8.5 -12.5t-5.5 -11.5l-107 -119q-4 -5 -10.5 -6t-12.5 3l-24 15q-12 8 -4 19z" />
    <glyph glyph-name="tonos" unicode="&#x384;" horiz-adv-x="450" 
d="M246 490q-4 -5 -9 -7t-11 2l-27 20q-8 5 -5.5 11t5.5 11l77 129q4 6 9.5 11t15.5 -1l49 -33q10 -6 8.5 -12.5t-5.5 -10.5z" />
    <glyph glyph-name="dieresistonos" unicode="&#x385;" horiz-adv-x="466" 
d="M416 559q0 -23 -15.5 -38t-38.5 -15t-39 15t-16 38q0 22 16 37.5t39 15.5q22 0 38 -15.5t16 -37.5zM205 490q-4 -5 -10.5 -6t-12.5 3l-24 15q-12 8 -4 19l81 135q4 6 10 9t12 0l52 -32q10 -6 8.5 -12.5t-5.5 -10.5zM151 559q0 -23 -15.5 -38t-38.5 -15t-38.5 15t-15.5 38
q0 22 15.5 37.5t38.5 15.5t38 -15.5t15 -37.5h1z" />
    <glyph glyph-name="Alphatonos" unicode="&#x386;" horiz-adv-x="470" 
d="M451 19q2 -5 0.5 -12t-12.5 -7h-71q-14 0 -17 10l-28 115q-2 5 -3 7t-6 2h-162q-6 0 -7 -2.5t-3 -5.5l-27 -116q-3 -10 -16 -10h-66q-20 0 -15 18l147 586q3 13 18 13h100q7 0 11 -2t6 -10zM261 384l-26 120q-1 4 -3 4t-3 -3l-25 -118l-38 -163q-1 -5 0 -7t6 -2h121
q9 0 6 9zM-14 453q-4 -5 -9 -7t-11 2l-27 20q-8 5 -5.5 11t5.5 11l77 129q4 6 9.5 11t15.5 -1l49 -33q10 -6 8.5 -12.5t-5.5 -10.5z" />
    <glyph glyph-name="anoteleia" unicode="&#x387;" horiz-adv-x="221" 
d="M171 330q0 -25 -17.5 -42.5t-43.5 -17.5q-24 0 -41.5 17t-17.5 42q0 23 17.5 41t41.5 18t42.5 -17.5t18.5 -40.5z" />
    <glyph glyph-name="Epsilontonos" unicode="&#x388;" horiz-adv-x="454" 
d="M408 87q14 0 14 -14v-58q0 -15 -14 -15h-332q-15 0 -15 14v589q0 14 15 14h327q6 0 10.5 -3t4.5 -11v-57q0 -15 -14 -15h-233q-12 0 -12 -10v-145q0 -13 12 -13h192q14 0 14 -15v-57q0 -14 -13 -14h-193q-12 0 -12 -12v-166q0 -12 13 -12h236zM-90 453q-4 -5 -9 -7t-11 2
l-27 20q-8 5 -5.5 11t5.5 11l77 129q4 6 9.5 11t15.5 -1l49 -33q10 -6 8.5 -12.5t-5.5 -10.5z" />
    <glyph glyph-name="Etatonos" unicode="&#x389;" horiz-adv-x="538" 
d="M377 604q0 13 14 13h69q16 0 16 -12v-591q0 -14 -15 -14h-69q-15 0 -15 13v249q0 13 -13 13h-189q-8 0 -10.5 -3.5t-2.5 -9.5v-248q0 -14 -14 -14h-69q-16 0 -16 13v591q0 13 15 13h69q15 0 15 -12v-231q0 -13 11 -13h192q12 0 12 13v230zM-90 453q-4 -5 -9 -7t-11 2
l-27 20q-8 5 -5.5 11t5.5 11l77 129q4 6 9.5 11t15.5 -1l49 -33q10 -6 8.5 -12.5t-5.5 -10.5z" />
    <glyph glyph-name="Iotatonos" unicode="&#x38a;" horiz-adv-x="249" 
d="M88 0q-15 0 -15 13v591q0 13 15 13h70q15 0 15 -13v-590q0 -14 -15 -14h-70zM-73 453q-4 -5 -9 -7t-11 2l-27 20q-8 5 -5.5 11t5.5 11l77 129q4 6 9.5 11t15.5 -1l49 -33q10 -6 8.5 -12.5t-5.5 -10.5z" />
    <glyph glyph-name="Omicrontonos" unicode="&#x38c;" horiz-adv-x="513" 
d="M454 171q0 -42 -15 -74.5t-41 -55.5t-62.5 -35t-78.5 -12t-78 11.5t-63 34t-42 55.5t-15 76v278q0 41 15 74t41.5 56t62.5 35t78 12q41 0 77 -12t63 -34.5t42.5 -55.5t15.5 -75v-278zM355 448q0 38 -26 64.5t-72 26.5q-47 0 -73.5 -26.5t-26.5 -64.5v-276q0 -39 25.5 -65
t73.5 -26q46 0 72.5 25.5t26.5 65.5v276zM-68 453q-4 -5 -9 -7t-11 2l-27 20q-8 5 -5.5 11t5.5 11l77 129q4 6 9.5 11t15.5 -1l49 -33q10 -6 8.5 -12.5t-5.5 -10.5z" />
    <glyph glyph-name="Upsilontonos" unicode="&#x38e;" horiz-adv-x="450" 
d="M96 617q10 0 15.5 -2.5t9.5 -11.5l99 -258q6 -7 9 -1q25 64 50 129t48 128q5 9 9.5 12.5t18.5 3.5h64q14 0 15.5 -5.5t-1.5 -12.5l-154 -356q-3 -8 -4 -12.5t-1 -12.5v-203q0 -15 -15 -15h-69q-15 0 -15 14v206q0 12 -5 21l-154 357q-3 8 -1 13.5t13 5.5h68zM-116 453
q-4 -5 -9 -7t-11 2l-27 20q-8 5 -5.5 11t5.5 11l77 129q4 6 9.5 11t15.5 -1l49 -33q10 -6 8.5 -12.5t-5.5 -10.5z" />
    <glyph glyph-name="Omegatonos" unicode="&#x38f;" horiz-adv-x="538" 
d="M318 0q-10 0 -13 2.5t-3 10.5v71q0 14 11 18q29 10 45 32.5t16 53.5v256q0 19 -6 36t-18.5 30.5t-32.5 21.5t-48 8q-26 0 -45.5 -8t-33 -21.5t-20.5 -30.5t-7 -36v-255q0 -64 61 -87q7 -2 8.5 -6.5t1.5 -12.5v-69q0 -9 -2.5 -11.5t-12.5 -2.5h-154q-15 0 -15 13v58
q0 14 15 14h39q5 0 1 4q-26 19 -33.5 51t-7.5 66v237q0 40 15.5 74t43 58t65 37.5t81.5 13.5q98 0 151 -49.5t53 -133.5v-244q-1 -32 -10.5 -61.5t-32.5 -49.5q-2 -1 -1.5 -2t2.5 -1h42q14 0 14 -13v-59q0 -13 -13 -13h-156zM-56 453q-4 -5 -9 -7t-11 2l-27 20q-8 5 -5.5 11
t5.5 11l77 129q4 6 9.5 11t15.5 -1l49 -33q10 -6 8.5 -12.5t-5.5 -10.5z" />
    <glyph glyph-name="iotadieresistonos" unicode="&#x390;" horiz-adv-x="213" 
d="M154 12q0 -3 -1 -6q-2 -6 -11 -6h-70q-13 0 -13 12v416q0 13 12 13h70q13 0 13 -13v-416zM302 559q0 -23 -15.5 -38t-38.5 -15t-39 15t-16 38q0 22 16 37.5t39 15.5q22 0 38 -15.5t16 -37.5zM91 490q-4 -5 -10.5 -6t-12.5 3l-24 15q-12 8 -4 19l81 135q4 6 10 9t12 0
l52 -32q10 -6 8.5 -12.5t-5.5 -10.5zM37 559q0 -23 -15.5 -38t-38.5 -15t-38.5 15t-15.5 38q0 22 15.5 37.5t38.5 15.5t38 -15.5t15 -37.5h1z" />
    <glyph glyph-name="Alpha" unicode="&#x391;" horiz-adv-x="470" 
d="M451 19q2 -5 0.5 -12t-12.5 -7h-71q-14 0 -17 10l-28 115q-2 5 -3 7t-6 2h-162q-6 0 -7 -2.5t-3 -5.5l-27 -116q-3 -10 -16 -10h-66q-20 0 -15 18l147 586q3 13 18 13h100q7 0 11 -2t6 -10zM261 384l-26 120q-1 4 -3 4t-3 -3l-25 -118l-38 -163q-1 -5 0 -7t6 -2h121
q9 0 6 9z" />
    <glyph glyph-name="Beta" unicode="&#x392;" horiz-adv-x="496" 
d="M441 455q0 -16 -5 -33.5t-14 -33.5t-21.5 -30t-26.5 -23q-4 -4 1 -7q43 -20 64 -59.5t21 -82.5q0 -41 -12.5 -75.5t-36.5 -59t-58.5 -38t-77.5 -13.5h-203q-15 0 -15 14v589q0 14 15 14h190q83 0 131 -41.5t48 -120.5zM273 87q42 0 64.5 27.5t22.5 69.5q0 19 -5 37
t-16.5 32.5t-30 23.5t-45.5 9h-96q-11 0 -11 -12v-176q0 -11 11 -11h106zM261 370q40 0 60.5 24.5t20.5 58.5q0 36 -21.5 57t-61.5 21h-93q-10 0 -10 -10v-138q0 -13 10 -13h95z" />
    <glyph glyph-name="Gamma" unicode="&#x393;" horiz-adv-x="439" 
d="M175 14q0 -14 -14 -14h-70q-15 0 -15 13v591q0 13 15 13h324q14 0 14 -12v-60q0 -14 -14 -14h-229q-11 0 -11 -10v-507v0z" />
    <glyph glyph-name="Delta" unicode="&#x394;" horiz-adv-x="478" 
d="M28 0q-8 0 -11.5 5t-2.5 12l161 588q3 12 16 12h95q8 0 11 -3.5t4 -7.5q41 -147 81 -292.5t80 -292.5q2 -8 0.5 -14.5t-12.5 -6.5h-422zM272 355q-8 35 -16.5 70t-16.5 70q-2 9 -6 1q-7 -34 -16 -71.5t-17 -70.5q-10 -43 -18 -78.5t-15.5 -67t-14.5 -59.5t-13 -56v-8
t8 -3h183q5 0 7 3.5t0 8.5z" />
    <glyph glyph-name="Delta" unicode="&#x2206;" horiz-adv-x="478" 
d="M28 0q-8 0 -11.5 5t-2.5 12l161 588q3 12 16 12h95q8 0 11 -3.5t4 -7.5q41 -147 81 -292.5t80 -292.5q2 -8 0.5 -14.5t-12.5 -6.5h-422zM272 355q-8 35 -16.5 70t-16.5 70q-2 9 -6 1q-7 -34 -16 -71.5t-17 -70.5q-10 -43 -18 -78.5t-15.5 -67t-14.5 -59.5t-13 -56v-8
t8 -3h183q5 0 7 3.5t0 8.5z" />
    <glyph glyph-name="Epsilon" unicode="&#x395;" horiz-adv-x="454" 
d="M408 87q14 0 14 -14v-58q0 -15 -14 -15h-332q-15 0 -15 14v589q0 14 15 14h327q6 0 10.5 -3t4.5 -11v-57q0 -15 -14 -15h-233q-12 0 -12 -10v-145q0 -13 12 -13h192q14 0 14 -15v-57q0 -14 -13 -14h-193q-12 0 -12 -12v-166q0 -12 13 -12h236z" />
    <glyph glyph-name="Zeta" unicode="&#x396;" horiz-adv-x="431" 
d="M402 14q0 -14 -14 -14h-332q-13 0 -18.5 6.5t-5.5 14.5v31q0 15 8 31q4 8 22 41t42 79t52 98.5t52 98t41.5 78.5t21.5 41q7 12 -7 12h-201q-14 0 -14 15v58q0 13 15 13h306q14 0 19 -4.5t5 -15.5v-32q0 -11 -4.5 -23t-8.5 -20l-223 -423q-9 -12 5 -12h225q5 0 9.5 -3
t4.5 -11v-59v0z" />
    <glyph glyph-name="Eta" unicode="&#x397;" horiz-adv-x="538" 
d="M377 604q0 13 14 13h69q16 0 16 -12v-591q0 -14 -15 -14h-69q-15 0 -15 13v249q0 13 -13 13h-189q-8 0 -10.5 -3.5t-2.5 -9.5v-248q0 -14 -14 -14h-69q-16 0 -16 13v591q0 13 15 13h69q15 0 15 -12v-231q0 -13 11 -13h192q12 0 12 13v230z" />
    <glyph glyph-name="Theta" unicode="&#x398;" horiz-adv-x="532" 
d="M474 172q0 -42 -15 -75t-42.5 -56t-65.5 -35t-84 -12t-84 12t-65.5 34.5t-43 55.5t-15.5 76v276q0 41 15.5 74t43.5 56t66 35.5t82 12.5q95 0 151.5 -46.5t56.5 -131.5v-276zM375 446q0 38 -28.5 65.5t-79.5 27.5q-54 0 -82 -27.5t-28 -65.5v-273q0 -39 28 -65.5
t81 -26.5t81 26t28 66v273zM195 272q-11 0 -11 12v60q0 12 12 12h141q11 0 11 -12v-60q0 -12 -11 -12h-142z" />
    <glyph glyph-name="Iota" unicode="&#x399;" horiz-adv-x="249" 
d="M88 0q-15 0 -15 13v591q0 13 15 13h70q15 0 15 -13v-590q0 -14 -15 -14h-70z" />
    <glyph glyph-name="Kappa" unicode="&#x39a;" horiz-adv-x="517" 
d="M472 13q0 -13 -12 -13h-69q-13 0 -14 12l-12 181q-1 16 -5 34t-14.5 33t-29 25t-48.5 10q-51 0 -78 -30t-27 -77v-175q0 -13 -12 -13h-75q-12 0 -12 12v592q0 13 14 13h73q12 0 12 -12v-228q0 -8 4 -7t7 4l190 234q5 5 9 7t12 2h77q9 0 11.5 -5t-2.5 -11l-180 -222
q-8 -11 5 -11q20 0 38 -3q59 -10 90.5 -53t33.5 -110z" />
    <glyph glyph-name="Lambda" unicode="&#x39b;" horiz-adv-x="472" 
d="M118 12q-2 -8 -8 -10t-17 -2h-64q-11 0 -15 6t0 14q40 147 80 293t81 293q3 11 17 11h87q13 0 16 -10l161 -586q4 -7 1.5 -14t-14.5 -7h-73q-14 0 -17 11l-86 345l-32 127q0 2 -2 2.5t-3 -2.5l-37 -159z" />
    <glyph glyph-name="Mu" unicode="&#x39c;" horiz-adv-x="635" 
d="M584 15q0 -15 -15 -15h-65q-14 0 -14 13v353q0 2 -1.5 2.5t-2.5 -1.5l-42 -113l-85 -219q-2 -5 -7 -10.5t-14 -5.5h-43q-8 0 -13.5 2t-9.5 12l-82 214l-41 117q-1 1 -2.5 1.5t-1.5 -1.5v-350q0 -14 -14 -14h-65q-15 0 -15 14v583q0 20 20 20h50q13 0 18 -2.5t10 -13.5
q2 -4 11 -28t22 -58t28 -73.5t27.5 -73.5t21.5 -58t11 -28l44 -120q4 -8 9 -1q3 10 9 26.5t12.5 34.5t12.5 35t10 27l120 317q8 16 28 16h49q20 0 20 -19v-583v0z" />
    <glyph glyph-name="Nu" unicode="&#x39d;" horiz-adv-x="534" 
d="M127 617q13 0 18.5 -4.5t10.5 -12.5l220 -397q1 -1 3 -1q1 0 1 1v400q0 14 14 14h64q15 0 15 -13v-584q0 -12 -6 -16t-14 -4h-44q-12 0 -18 3t-11 12l-221 395q0 2 -2 2l-1 -2v-397q0 -13 -15 -13h-64q-16 0 -16 13v580q0 12 4 18t18 6h44z" />
    <glyph glyph-name="Xi" unicode="&#x39e;" horiz-adv-x="492" 
d="M447 15q0 -15 -14 -15h-372q-15 0 -15 15v57q0 15 15 15h124q13 0 13 12v161q0 12 -12 12h-80q-14 0 -14 15v57q0 15 14 15h80q12 0 12 12v150q0 10 -13 10h-120q-14 0 -14 15v57q0 7 4.5 10.5t10.5 3.5h362q6 0 10.5 -3.5t4.5 -10.5v-57q0 -15 -15 -15h-125
q-13 0 -13 -10v-150q0 -12 12 -12h85q14 0 14 -15v-57q0 -15 -13 -15h-86q-12 0 -12 -12v-161q0 -12 13 -12h130q14 0 14 -15v-57v0z" />
    <glyph glyph-name="Omicron" unicode="&#x39f;" horiz-adv-x="513" 
d="M454 171q0 -42 -15 -74.5t-41 -55.5t-62.5 -35t-78.5 -12t-78 11.5t-63 34t-42 55.5t-15 76v278q0 41 15 74t41.5 56t62.5 35t78 12q41 0 77 -12t63 -34.5t42.5 -55.5t15.5 -75v-278zM355 448q0 38 -26 64.5t-72 26.5q-47 0 -73.5 -26.5t-26.5 -64.5v-276q0 -39 25.5 -65
t73.5 -26q46 0 72.5 25.5t26.5 65.5v276z" />
    <glyph glyph-name="Pi" unicode="&#x3a0;" horiz-adv-x="563" 
d="M476 617q15 0 15 -13v-590q0 -14 -15 -14h-69q-15 0 -15 13v507q0 12 -12 12h-196q-8 0 -10 -3t-2 -9v-506q0 -14 -15 -14h-69q-16 0 -16 13v590q0 14 16 14h388v0z" />
    <glyph glyph-name="Rho" unicode="&#x3a1;" horiz-adv-x="472" 
d="M447 433q0 -38 -14 -71t-39.5 -57t-60 -38t-75.5 -14h-86q-10 0 -10 -11v-228q0 -14 -15 -14h-68q-16 0 -16 14v590q0 13 16 13h178q44 0 79.5 -14t60 -38.5t37.5 -58t13 -73.5zM349 434q0 18 -6 35.5t-17.5 31t-28.5 22t-40 8.5h-84q-12 0 -12 -11v-170q0 -12 11 -12h85
q42 0 67 26.5t25 69.5z" />
    <glyph glyph-name="Sigma" unicode="&#x3a3;" horiz-adv-x="436" 
d="M398 87q14 0 14 -15v-57q0 -15 -14 -15h-334q-13 0 -17.5 6.5t-4.5 14.5v33q0 15 8 31l110 216q4 8 6 15.5t-4 18.5l-108 192q-3 6 -6 14.5t-3 16.5v37q0 10 5 16t20 6h310q15 0 15 -13v-58q0 -15 -14 -15h-206q-7 0 -9 -3.5t1 -8.5l101 -174q8 -16 8.5 -26t-6.5 -22
l-106 -197q-7 -13 8 -13h226z" />
    <glyph glyph-name="Tau" unicode="&#x3a4;" horiz-adv-x="429" 
d="M413 546q0 -15 -14 -15h-125q-12 0 -12 -10l-1 -507q0 -14 -14 -14h-69q-16 0 -16 13l1 507q0 5 -2 8t-10 3h-120q-15 0 -15 15v57q0 14 15 14h368q14 0 14 -13v-58v0z" />
    <glyph glyph-name="Upsilon" unicode="&#x3a5;" horiz-adv-x="450" 
d="M96 617q10 0 15.5 -2.5t9.5 -11.5l99 -258q6 -7 9 -1q25 64 50 129t48 128q5 9 9.5 12.5t18.5 3.5h64q14 0 15.5 -5.5t-1.5 -12.5l-154 -356q-3 -8 -4 -12.5t-1 -12.5v-203q0 -15 -15 -15h-69q-15 0 -15 14v206q0 12 -5 21l-154 357q-3 8 -1 13.5t13 5.5h68v0z" />
    <glyph glyph-name="Phi" unicode="&#x3a6;" horiz-adv-x="594" 
d="M534 236q0 -35 -14.5 -65t-39 -53t-58 -38t-70.5 -18q-9 0 -9 -10v-39q0 -13 -14 -13h-68q-13 0 -13 12v41q0 9 -11 9q-38 3 -70.5 17t-56.5 37t-37.5 53.5t-13.5 66.5v166q0 36 13.5 66.5t37.5 53.5t57 37t72 17q8 0 8 6v22q0 13 14 13h68q14 0 14 -12v-22q0 -7 8 -7
q40 -3 74 -16.5t58 -36t37.5 -53.5t13.5 -67v-167zM441 399q0 17 -3.5 33.5t-13.5 29.5t-28 21.5t-47 9.5q-6 0 -6 -6v-333q0 -7 8 -7q38 5 64 27.5t26 58.5v166zM248 486q0 7 -8 7q-44 -2 -66 -27.5t-22 -57.5v-168q0 -38 21.5 -63t66.5 -30q8 0 8 7v332z" />
    <glyph glyph-name="Chi" unicode="&#x3a7;" horiz-adv-x="466" 
d="M240 222q-4 8 -9 0l-103 -208q-5 -11 -11 -12.5t-16 -1.5h-69q-13 0 -15.5 6.5t1.5 14.5q37 70 75.5 143t76.5 143q6 11 6 16t-6 15l-138 262q-3 8 1 13t15 5h73q16 0 25 -15q23 -46 44 -91t43 -91q4 -4 6 -2.5t4 3.5l87 181q9 15 25 15h68q11 0 15.5 -6t-0.5 -15
l-139 -262q-7 -12 0 -26q38 -72 77.5 -145.5t77.5 -145.5q4 -8 0.5 -13t-14.5 -5h-70q-10 0 -15.5 2t-10.5 12z" />
    <glyph glyph-name="Psi" unicode="&#x3a8;" horiz-adv-x="587" 
d="M353 217q15 2 30 9.5t26 18.5t18 25.5t7 30.5v303q0 14 15 14h69q6 0 10.5 -3.5t4.5 -9.5v-298q0 -35 -14 -66t-38.5 -55t-57.5 -38.5t-70 -17.5q-12 -2 -12 -11v-105q0 -14 -14 -14h-69q-14 0 -14 13v104q0 12 -11 13q-38 3 -70.5 17t-56.5 37.5t-37.5 55t-13.5 67.5
v297q0 14 14 14h68q15 0 15 -13v-304q0 -32 25 -55t55 -27q11 -1 11 9v385q0 14 15 14h68q15 0 15 -14v-386q0 -12 12 -10z" />
    <glyph glyph-name="Omega" unicode="&#x3a9;" horiz-adv-x="538" 
d="M318 0q-10 0 -13 2.5t-3 10.5v71q0 14 11 18q29 10 45 32.5t16 53.5v256q0 19 -6 36t-18.5 30.5t-32.5 21.5t-48 8q-26 0 -45.5 -8t-33 -21.5t-20.5 -30.5t-7 -36v-255q0 -64 61 -87q7 -2 8.5 -6.5t1.5 -12.5v-69q0 -9 -2.5 -11.5t-12.5 -2.5h-154q-15 0 -15 13v58
q0 14 15 14h39q5 0 1 4q-26 19 -33.5 51t-7.5 66v237q0 40 15.5 74t43 58t65 37.5t81.5 13.5q98 0 151 -49.5t53 -133.5v-244q-1 -32 -10.5 -61.5t-32.5 -49.5q-2 -1 -1.5 -2t2.5 -1h42q14 0 14 -13v-59q0 -13 -13 -13h-156z" />
    <glyph glyph-name="Iotadieresis" unicode="&#x3aa;" horiz-adv-x="249" 
d="M88 0q-15 0 -15 13v591q0 13 15 13h70q15 0 15 -13v-590q0 -14 -15 -14h-70zM249 700q0 -23 -15 -38t-38 -15t-38.5 15t-15.5 38q0 22 15 37.5t38 15.5t38.5 -15.5t15.5 -37.5zM80 700q0 -23 -15 -38t-38 -15t-38.5 15t-15.5 38q0 22 15.5 37.5t37.5 15.5
q23 0 38.5 -15.5t15.5 -37.5z" />
    <glyph glyph-name="Upsilondieresis" unicode="&#x3ab;" horiz-adv-x="450" 
d="M96 617q10 0 15.5 -2.5t9.5 -11.5l99 -258q6 -7 9 -1q25 64 50 129t48 128q5 9 9.5 12.5t18.5 3.5h64q14 0 15.5 -5.5t-1.5 -12.5l-154 -356q-3 -8 -4 -12.5t-1 -12.5v-203q0 -15 -15 -15h-69q-15 0 -15 14v206q0 12 -5 21l-154 357q-3 8 -1 13.5t13 5.5h68zM348 700
q0 -23 -15 -38t-38 -15t-38.5 15t-15.5 38q0 22 15 37.5t38 15.5t38.5 -15.5t15.5 -37.5zM179 700q0 -23 -15 -38t-38 -15t-38.5 15t-15.5 38q0 22 15.5 37.5t37.5 15.5q23 0 38.5 -15.5t15.5 -37.5z" />
    <glyph glyph-name="alphatonos" unicode="&#x3ac;" horiz-adv-x="463" 
d="M407 13q0 -13 -13 -13h-69q-12 0 -12 12v4q0 8 -5 8t-10 -5q-12 -9 -34 -17.5t-55 -8.5q-38 0 -68 13.5t-52 37t-33.5 54t-11.5 64.5v115q0 35 11 66t32.5 54t52.5 36t72 13q24 0 46 -6.5t45 -26.5q6 -5 9.5 -2.5t3.5 9.5v8q0 5 1.5 8.5t8.5 3.5h68q13 0 13 -12v-415z
M313 277q0 36 -24.5 61.5t-62.5 25.5t-63 -24.5t-25 -62.5v-115q0 -36 24 -62t63 -26q38 0 62.5 26t24.5 62zM246 490q-4 -5 -9 -7t-11 2l-27 20q-8 5 -5.5 11t5.5 11l77 129q4 6 9.5 11t15.5 -1l49 -33q10 -6 8.5 -12.5t-5.5 -10.5z" />
    <glyph glyph-name="epsilontonos" unicode="&#x3ad;" horiz-adv-x="403" 
d="M211 76q25 0 50 12.5t40 29.5q8 8 14 11.5t14 -4.5l40 -35q15 -14 6 -24q-32 -41 -76 -56.5t-91 -15.5q-37 0 -68 8.5t-53.5 26.5t-35 45t-12.5 63q0 21 13.5 46.5t39.5 37.5q4 2 4.5 5t-4.5 5q-26 8 -38.5 30t-12.5 45q0 33 13.5 59.5t36.5 45t53.5 28t64.5 9.5
q46 0 88.5 -15.5t71.5 -57.5q9 -14 -1 -22l-43 -35q-9 -7 -15 -4.5t-13 10.5q-17 22 -40 32t-46 10q-12 0 -25 -3.5t-23.5 -10.5t-17.5 -17.5t-7 -24.5q0 -26 17.5 -35t40.5 -9h65q12 0 12 -12v-52q0 -10 -12 -10h-67q-23 0 -41 -13t-18 -39q0 -17 7 -29t18.5 -20t25 -11.5
t25.5 -3.5zM208 490q-4 -5 -9 -7t-11 2l-27 20q-8 5 -5.5 11t5.5 11l77 129q4 6 9.5 11t15.5 -1l49 -33q10 -6 8.5 -12.5t-5.5 -10.5z" />
    <glyph glyph-name="etatonos" unicode="&#x3ae;" horiz-adv-x="471" 
d="M418 13q0 -13 -12 -13h-70q-13 0 -13 12v265q0 38 -21 63t-66 25q-39 0 -62.5 -24.5t-23.5 -62.5v-265q0 -13 -13 -13h-69q-14 0 -14 12v416q0 13 13 13h69q11 0 11 -12v-20q0 -8 4 -7.5t9 5.5q18 19 50 29.5t59 10.5q77 0 113 -46.5t36 -121.5v-266zM211 490
q-4 -5 -9 -7t-11 2l-27 20q-8 5 -5.5 11t5.5 11l77 129q4 6 9.5 11t15.5 -1l49 -33q10 -6 8.5 -12.5t-5.5 -10.5z" />
    <glyph glyph-name="iotatonos" unicode="&#x3af;" horiz-adv-x="213" 
d="M154 12q0 -3 -1 -6q-2 -6 -11 -6h-70q-13 0 -13 12v416q0 13 12 13h70q13 0 13 -13v-416zM136 490q-4 -5 -9 -7t-11 2l-27 20q-8 5 -5.5 11t5.5 11l77 129q4 6 9.5 11t15.5 -1l49 -33q10 -6 8.5 -12.5t-5.5 -10.5z" />
    <glyph glyph-name="upsilondieresistonos" unicode="&#x3b0;" horiz-adv-x="458" 
d="M413 160q0 -38 -13 -69t-37 -53.5t-57.5 -34.5t-74.5 -12q-83 0 -132 46t-49 122v269q0 13 13 13h68q13 0 13 -13v-268q0 -35 23 -61t64 -26t63.5 25.5t22.5 60.5v269q0 13 14 13h69q13 0 13 -13v-268zM416 559q0 -23 -15.5 -38t-38.5 -15t-39 15t-16 38q0 22 16 37.5
t39 15.5q22 0 38 -15.5t16 -37.5zM205 490q-4 -5 -10.5 -6t-12.5 3l-24 15q-12 8 -4 19l81 135q4 6 10 9t12 0l52 -32q10 -6 8.5 -12.5t-5.5 -10.5zM151 559q0 -23 -15.5 -38t-38.5 -15t-38.5 15t-15.5 38q0 22 15.5 37.5t38.5 15.5t38 -15.5t15 -37.5h1z" />
    <glyph glyph-name="alpha" unicode="&#x3b1;" horiz-adv-x="463" 
d="M407 13q0 -13 -13 -13h-69q-12 0 -12 12v4q0 8 -5 8t-10 -5q-12 -9 -34 -17.5t-55 -8.5q-38 0 -68 13.5t-52 37t-33.5 54t-11.5 64.5v115q0 35 11 66t32.5 54t52.5 36t72 13q24 0 46 -6.5t45 -26.5q6 -5 9.5 -2.5t3.5 9.5v8q0 5 1.5 8.5t8.5 3.5h68q13 0 13 -12v-415z
M313 277q0 36 -24.5 61.5t-62.5 25.5t-63 -24.5t-25 -62.5v-115q0 -36 24 -62t63 -26q38 0 62.5 26t24.5 62z" />
    <glyph glyph-name="beta" unicode="&#x3b2;" horiz-adv-x="469" 
d="M420 161q0 -35 -12.5 -66t-35 -53.5t-53.5 -35.5t-67 -13q-29 0 -49 7t-40 20q-12 9 -12 -4v-149q0 -13 -12 -13h-70q-13 0 -13 12v595q0 37 12.5 69.5t35.5 56.5t55.5 38t73.5 14q88 0 132.5 -48t44.5 -124q0 -30 -12.5 -60t-39.5 -44q-7 -3 0 -7q30 -17 46 -46t16 -64
v-85zM325 246q0 37 -24.5 58t-62.5 21h-35q-12 0 -12 12v51q0 12 11 12h39q30 0 52 20.5t22 53.5q0 35 -19 59.5t-61 24.5q-37 0 -60.5 -27t-23.5 -63v-307q0 -18 6.5 -33.5t18.5 -27t28 -18.5t34 -7q37 0 62 25t25 61v85z" />
    <glyph glyph-name="gamma" unicode="&#x3b3;" horiz-adv-x="417" 
d="M208 156q1 -6 6 -6q4 0 6 6v1q0 3 1 5q4 13 11 35.5t15.5 50t17.5 56.5t16.5 54t13.5 43.5t8 24.5q2 5 6.5 9.5t15.5 4.5h65q13 0 13 -11q0 -5 -1 -7q-34 -97 -70 -193t-65 -193q-5 -13 -6 -26t-1 -21v-157q0 -13 -14 -13h-69q-13 0 -13 12v155q0 14 -2 24.5t-5 19.5
q-23 75 -45.5 149.5t-45.5 149.5q-3 10 -8 20t-21 10h-9q-5 0 -7 1.5t-4 7.5q-3 13 -5.5 25t-4.5 25v3q0 9 11 13q36 13 57 13q33 0 48 -19.5t26 -58.5z" />
    <glyph glyph-name="delta" unicode="&#x3b4;" horiz-adv-x="458" 
d="M411 158q0 -38 -13.5 -69t-38 -53t-58 -33.5t-73.5 -11.5t-73 11.5t-57 33.5t-37.5 52t-13.5 68v103q0 43 19 82.5t57 59.5q8 4 8 7q0 4 -7 9q-16 12 -25.5 24.5t-14.5 24t-6.5 21t-1.5 16.5q0 36 13 61.5t35.5 41.5t52.5 23.5t63 7.5q39 -1 73 -7t63 -20q5 -3 8.5 -6.5
t-0.5 -13.5l-17 -45q-5 -12 -10.5 -11t-14.5 3q-20 8 -46.5 14t-50.5 6q-31 0 -50.5 -11.5t-19.5 -35.5q0 -14 13 -26.5t31 -22.5t37 -18t32 -14q25 -11 47.5 -25.5t39.5 -35t26.5 -47t9.5 -62.5v-101zM316 262q0 13 -3.5 27t-12.5 27.5t-24.5 24.5t-39.5 18q-6 2 -12 2
q-4 0 -13 -3q-33 -11 -51 -37.5t-18 -59.5v-103q0 -35 22 -60t64 -25q45 0 66.5 24.5t21.5 60.5v104z" />
    <glyph glyph-name="epsilon" unicode="&#x3b5;" horiz-adv-x="393" 
d="M211 76q25 0 50 12.5t40 29.5q8 8 14 11.5t14 -4.5l40 -35q15 -14 6 -24q-32 -41 -76 -56.5t-91 -15.5q-37 0 -68 8.5t-53.5 26.5t-35 45t-12.5 63q0 21 13.5 46.5t39.5 37.5q4 2 4.5 5t-4.5 5q-26 8 -38.5 30t-12.5 45q0 33 13.5 59.5t36.5 45t53.5 28t64.5 9.5
q46 0 88.5 -15.5t71.5 -57.5q9 -14 -1 -22l-43 -35q-9 -7 -15 -4.5t-13 10.5q-17 22 -40 32t-46 10q-12 0 -25 -3.5t-23.5 -10.5t-17.5 -17.5t-7 -24.5q0 -26 17.5 -35t40.5 -9h65q12 0 12 -12v-52q0 -10 -12 -10h-67q-23 0 -41 -13t-18 -39q0 -17 7 -29t18.5 -20t25 -11.5
t25.5 -3.5z" />
    <glyph glyph-name="zeta" unicode="&#x3b6;" horiz-adv-x="393" 
d="M401 619q14 0 19 -6t5 -16v-31q0 -21 -13 -31q-41 -26 -89.5 -66t-91 -86.5t-71 -95.5t-28.5 -94q0 -31 17.5 -53t45.5 -38.5t63 -29t70 -24.5q42 -15 57.5 -34t15.5 -45q-2 -23 -15.5 -55.5t-44.5 -78.5q-9 -15 -23 -8l-39 19q-9 4 -10.5 7.5t2.5 11.5q5 9 10.5 20.5
t10 22.5t7.5 20t3 15q0 22 -36 34q-31 10 -71 24.5t-75.5 38t-60 58t-24.5 85.5q0 50 23 100t57.5 95.5t76 84t77.5 64.5q3 3 4 5.5t-6 2.5h-179q-19 0 -19 19v49q0 16 19 16h313z" />
    <glyph glyph-name="eta" unicode="&#x3b7;" horiz-adv-x="471" 
d="M418 13q0 -13 -12 -13h-70q-13 0 -13 12v265q0 38 -24 63t-63 25t-62.5 -24.5t-23.5 -62.5v-265q0 -13 -13 -13h-69q-14 0 -14 12v416q0 13 13 13h69q11 0 11 -12v-13q0 -8 4 -7.5t9 5.5q37 33 89 33q39 0 70 -12t53 -34.5t34 -53.5t12 -68v-266v0z" />
    <glyph glyph-name="theta" unicode="&#x3b8;" horiz-adv-x="459" 
d="M413 163q0 -38 -13 -69t-36.5 -53.5t-57 -34.5t-74.5 -12t-74.5 12t-57.5 34t-37 53t-13 69v309q0 76 49 122t132 46q41 0 74.5 -12t57.5 -34.5t37 -53.5t13 -68v-308zM319 278q0 12 -13 12h-148q-12 0 -12 -12v-26.5t-0.5 -38t-0.5 -35v-16.5q0 -38 23.5 -62t62.5 -24
q37 0 62 25.5t25 60.5zM318 471q0 17 -6.5 32.5t-18.5 27t-27.5 18.5t-33.5 7q-38 0 -62.5 -24.5t-24.5 -60.5v-88q0 -15 14 -15h148q12 0 12 13z" />
    <glyph glyph-name="iota" unicode="&#x3b9;" horiz-adv-x="213" 
d="M154 12q0 -3 -1 -6q-2 -6 -11 -6h-70q-13 0 -13 12v416q0 13 12 13h70q13 0 13 -13v-416v0z" />
    <glyph glyph-name="kappa" unicode="&#x3ba;" horiz-adv-x="463" 
d="M424 18q0 -18 -15 -18h-65q-9 0 -12 3.5t-4 11.5l-5 91q-1 19 -5.5 36t-14 29.5t-25.5 20t-40 7.5q-46 0 -66.5 -27.5t-20.5 -64.5v-95q0 -12 -12 -12h-71q-12 0 -12 12v414q0 13 12 13h70q12 0 12 -12v-137q0 -12 7 -12q3 0 7 4l136 151q5 5 8.5 6t11.5 1h86
q9 0 10.5 -5.5t-2.5 -9.5l-129 -142q-3 -3 -3 -6q0 -4 6 -5q39 -4 64 -18.5t39.5 -37t20.5 -51t8 -60.5z" />
    <glyph glyph-name="lambda" unicode="&#x3bb;" horiz-adv-x="478" 
d="M416 13q0 -13 -13 -13h-69q-13 0 -13 12v269q0 35 -24.5 60t-61.5 25q-18 0 -34 -6.5t-28 -18t-18.5 -27t-6.5 -33.5v-268q0 -13 -13 -13h-69q-14 0 -14 12v268q0 37 13 67.5t35.5 52.5t53.5 34.5t68 12.5q23 0 45 -6t39 -21q9 -8 12 -4t3 6v49q0 35 -24.5 60.5
t-68.5 25.5q-22 0 -40 -4.5t-44 -15.5q-12 -5 -19.5 -5.5t-10.5 7.5l-18 43q-5 11 -2 16t11 10q27 16 64 23t67 7q41 0 74.5 -12.5t57 -34.5t36 -52.5t12.5 -66.5v-459v0z" />
    <glyph glyph-name="nu" unicode="&#x3bd;" horiz-adv-x="418" 
d="M260 13q-4 -13 -21 -13h-59q-11 0 -15 2.5t-7 11.5l-144 409q-3 8 -0.5 13t11.5 5h64q20 0 24 -16l59 -188l33 -117q2 -5 4.5 -5t4.5 4l31 113l59 190q2 5 6.5 12t16.5 7h66q9 0 11.5 -5.5t0.5 -11.5z" />
    <glyph glyph-name="xi" unicode="&#x3be;" horiz-adv-x="382" 
d="M125 171q0 -40 32 -62.5t101 -41.5q37 -10 59.5 -20.5t34.5 -22t16 -23t4 -24.5q0 -15 -10 -48t-47 -91q-5 -7 -11.5 -10t-13.5 1l-43 21q-12 6 -12 13q0 6 4 11q18 35 25 54.5t7 24.5q0 11 -15.5 18t-48.5 18q-91 25 -136.5 64.5t-45.5 106.5q0 45 26 86.5t78 61.5l3 3
q0 1 -3 3q-40 15 -59 44t-19 60q0 22 7.5 39.5t20.5 31.5t30 24.5t36 18.5q6 2 5 4.5t-7 2.5l-95 1q-20 0 -20 19v49q0 16 20 16h311q12 0 19 -4t7 -16v-32q0 -11 -2.5 -17.5t-12.5 -8.5q-105 -22 -161.5 -54t-56.5 -71q0 -34 29.5 -51t68.5 -17h90q19 0 19 -15v-43
q0 -18 -19 -18h-92q-54 0 -88.5 -29t-34.5 -77z" />
    <glyph glyph-name="omicron" unicode="&#x3bf;" horiz-adv-x="458" 
d="M410 164q0 -82 -48 -126t-133 -44t-133.5 44t-48.5 124v117q0 38 13 69.5t37 54t57.5 34.5t73.5 12q84 0 133 -44t49 -125v-116zM142 164q0 -38 21 -63t65 -25q41 0 64 24t23 64v114q0 39 -22 63.5t-64 24.5t-64.5 -24.5t-22.5 -63.5v-114z" />
    <glyph glyph-name="pi" unicode="&#x3c0;" horiz-adv-x="469" 
d="M415 13q0 -13 -13 -13h-68q-13 0 -13 12v333q0 14 -14 14h-145q-14 0 -14 -12v-334q0 -13 -13 -13h-69q-13 0 -13 12v416q0 13 13 13h336q13 0 13 -12v-416v0z" />
    <glyph glyph-name="rho" unicode="&#x3c1;" horiz-adv-x="455" 
d="M410 173q0 -36 -9 -68.5t-28 -57.5t-49 -39.5t-73 -14.5q-25 0 -49.5 6t-44.5 21q-8 5 -11 3t-3 -7v-184q0 -13 -13 -13h-69q-13 0 -14 12v446q0 39 13.5 71t37.5 54.5t58 34.5t75 12q81 0 130 -42.5t49 -118.5v-115zM316 282q0 37 -22.5 60.5t-64.5 23.5q-39 0 -63 -25
t-24 -64v-113q0 -37 23.5 -63t63.5 -26q45 0 66 25.5t21 62.5v119z" />
    <glyph glyph-name="sigma1" unicode="&#x3c2;" horiz-adv-x="401" 
d="M361 125q0 -31 -12.5 -55t-34 -41t-52 -26t-66.5 -9q-35 0 -65.5 9t-55.5 31q-14 13 -24 27t-17 28q-6 12 5 17l53 27q8 5 12.5 1.5t6.5 -7.5q17 -26 37 -40t50 -14t49.5 13t19.5 36q0 13 -8 22.5t-20 16t-25 11.5t-22 9q-17 7 -34 13t-33 14q-35 16 -58.5 41.5
t-23.5 67.5q0 35 14.5 60t37.5 41t52 23.5t59 7.5q41 0 74 -8t52 -17q7 -3 13 -8t2 -15l-16 -47q-5 -11 -13 -11t-16 4q-23 10 -50.5 15.5t-46.5 6.5q-12 0 -25 -2.5t-23 -8t-16.5 -14t-6.5 -20.5q0 -24 17.5 -34.5t40.5 -18.5q30 -11 60.5 -21t54.5 -26t39 -39.5t15 -59.5z
" />
    <glyph glyph-name="sigma" unicode="&#x3c3;" horiz-adv-x="461" 
d="M446 372q0 -12 -12 -12h-51q-8 0 -10 -4t3 -9q19 -14 24.5 -34t5.5 -40v-110q0 -39 -13 -70t-37 -53t-57.5 -34t-73.5 -12q-83 0 -132.5 44t-49.5 125v108q0 37 12 68.5t34.5 54t54 35t71.5 12.5h218q13 0 13 -12v-57zM310 271q0 37 -21 62.5t-64 25.5q-39 0 -63.5 -25
t-24.5 -62v-109q0 -36 21.5 -61.5t65.5 -25.5q42 0 64 25t22 62v108z" />
    <glyph glyph-name="tau" unicode="&#x3c4;" horiz-adv-x="330" 
d="M316 24q2 -11 -2.5 -14.5t-12.5 -5.5q-13 -4 -36.5 -6.5t-44.5 -2.5q-63 0 -94 35.5t-31 89.5v232q0 11 -12 11h-56q-13 0 -13 12v53q0 13 11 13h266q13 0 13 -12v-53q0 -13 -13 -13h-91q-12 0 -12 -11v-216q0 -26 11 -40.5t38 -14.5q8 0 22.5 1.5t22.5 3.5q20 7 23 -8
l11 -54v0z" />
    <glyph glyph-name="upsilon" unicode="&#x3c5;" horiz-adv-x="458" 
d="M413 160q0 -38 -13 -69t-37 -53.5t-57.5 -34.5t-74.5 -12q-83 0 -132 46t-49 122v269q0 13 13 13h68q13 0 13 -13v-268q0 -35 23 -61t64 -26t63.5 25.5t22.5 60.5v269q0 13 14 13h69q13 0 13 -13v-268v0z" />
    <glyph glyph-name="phi" unicode="&#x3c6;" horiz-adv-x="559" 
d="M517 159q0 -35 -13.5 -65t-37.5 -52.5t-56.5 -36t-70.5 -15.5q-8 -1 -9.5 -4t-1.5 -8v-146q0 -13 -13 -13h-69q-12 0 -12 12v146q0 13 -12 13q-38 2 -71 15t-57 35t-37.5 51.5t-13.5 65.5v125q0 56 28 94.5t78 57.5q8 3 11.5 2t7.5 -8l27 -52q7 -12 -8 -19
q-21 -11 -35 -31t-14 -43v-123q0 -34 24.5 -59t59.5 -28q11 0 11 11v351q0 13 13 13h74q40 0 75.5 -11.5t62.5 -33t43 -53.5t16 -72v-119zM422 276q0 35 -25 58.5t-59 28.5q-11 0 -11 -10v-268q0 -13 12 -11q33 5 57.5 28.5t24.5 56.5z" />
    <glyph glyph-name="chi" unicode="&#x3c7;" horiz-adv-x="396" 
d="M389 18q5 -8 2 -13t-13 -5h-66q-11 0 -17.5 4.5t-13.5 16.5l-74 127q-8 12 -16 -2l-76 -132q-6 -10 -12.5 -12t-14.5 -2h-65q-11 0 -13 6t2 12l124 195q7 10 7 17q0 6 -6 15l-112 176q-6 10 -2 14.5t12 4.5h66q11 0 15.5 -1.5t10.5 -11.5l68 -117q4 -7 6.5 -6t6.5 8
l66 115q6 10 10.5 11.5t15.5 1.5h66q11 0 13.5 -5.5t-2.5 -13.5l-113 -176q-6 -11 -6 -16q0 -6 5 -14z" />
    <glyph glyph-name="psi" unicode="&#x3c8;" horiz-adv-x="561" 
d="M516 162q0 -36 -13 -66.5t-36.5 -53t-55.5 -36.5t-70 -16q-11 -1 -11 -13v-145q0 -13 -13 -13h-70q-12 0 -12 12v146q0 5 -2.5 8.5t-10.5 4.5q-38 2 -70.5 15.5t-56 36t-36.5 53t-13 66.5v267q0 13 13 13h69q13 0 13 -12v-267q0 -36 23.5 -61t58.5 -28q11 0 11 11v369
q0 13 13 13h69q13 0 13 -13v-368q0 -12 12 -12q34 5 57 30t23 58v267q0 13 13 13h69q13 0 13 -12v-267v0z" />
    <glyph glyph-name="omega" unicode="&#x3c9;" horiz-adv-x="642" 
d="M595 162q0 -79 -43 -123.5t-115 -44.5q-35 0 -60.5 11.5t-40.5 30.5l-10.5 12t-6 4t-6 -4.5t-10.5 -11.5q-17 -19 -43.5 -30.5t-58.5 -11.5q-72 0 -113.5 42.5t-41.5 116.5v130q0 37 13 67t36 52t55 34t70 12q7 0 11.5 -2.5t4.5 -10.5v-56q0 -12 -12 -12q-36 -3 -60 -27
t-24 -59v-125q0 -44 19.5 -62.5t48.5 -18.5q32 0 49 25.5t17 59.5v144q0 12 13 12h66q13 0 13 -11v-145q0 -34 17 -59t51 -25q29 0 48 20.5t19 53.5v130q0 35 -24 60t-59 27q-13 0 -13 12v56q0 8 4.5 10.5t11.5 2.5q39 0 71 -12.5t55 -34.5t35.5 -52.5t12.5 -67.5v-119z" />
    <glyph glyph-name="iotadieresis" unicode="&#x3ca;" horiz-adv-x="213" 
d="M154 12q0 -3 -1 -6q-2 -6 -11 -6h-70q-13 0 -13 12v416q0 13 12 13h70q13 0 13 -13v-416zM254 550q0 -23 -15 -38t-38 -15t-38.5 15t-15.5 38q0 22 15 37.5t38 15.5t38.5 -15.5t15.5 -37.5zM85 550q0 -23 -15 -38t-38 -15t-38.5 15t-15.5 38q0 22 15.5 37.5t37.5 15.5
q23 0 38.5 -15.5t15.5 -37.5z" />
    <glyph glyph-name="upsilondieresis" unicode="&#x3cb;" horiz-adv-x="458" 
d="M365 550q0 -23 -15 -38t-38 -15t-38.5 15t-15.5 38q0 22 15 37.5t38 15.5t38.5 -15.5t15.5 -37.5zM196 550q0 -23 -15 -38t-38 -15t-38.5 15t-15.5 38q0 22 15.5 37.5t37.5 15.5q23 0 38.5 -15.5t15.5 -37.5zM413 160q0 -38 -13 -69t-37 -53.5t-57.5 -34.5t-74.5 -12
q-83 0 -132 46t-49 122v269q0 13 13 13h68q13 0 13 -13v-268q0 -35 23 -61t64 -26t63.5 25.5t22.5 60.5v269q0 13 14 13h69q13 0 13 -13v-268z" />
    <glyph glyph-name="omicrontonos" unicode="&#x3cc;" horiz-adv-x="458" 
d="M410 164q0 -82 -48 -126t-133 -44t-133.5 44t-48.5 124v117q0 38 13 69.5t37 54t57.5 34.5t73.5 12q84 0 133 -44t49 -125v-116zM142 164q0 -38 21 -63t65 -25q41 0 64 24t23 64v114q0 39 -22 63.5t-64 24.5t-64.5 -24.5t-22.5 -63.5v-114zM247 490q-4 -5 -9 -7t-11 2
l-27 20q-8 5 -5.5 11t5.5 11l77 129q4 6 9.5 11t15.5 -1l49 -33q10 -6 8.5 -12.5t-5.5 -10.5z" />
    <glyph glyph-name="upsilontonos" unicode="&#x3cd;" horiz-adv-x="458" 
d="M413 160q0 -38 -13 -69t-37 -53.5t-57.5 -34.5t-74.5 -12q-83 0 -132 46t-49 122v269q0 13 13 13h68q13 0 13 -13v-268q0 -35 23 -61t64 -26t63.5 25.5t22.5 60.5v269q0 13 14 13h69q13 0 13 -13v-268zM242 490q-4 -5 -9 -7t-11 2l-27 20q-8 5 -5.5 11t5.5 11l77 129
q4 6 9.5 11t15.5 -1l49 -33q10 -6 8.5 -12.5t-5.5 -10.5z" />
    <glyph glyph-name="omegatonos" unicode="&#x3ce;" horiz-adv-x="642" 
d="M595 162q0 -79 -43 -123.5t-115 -44.5q-35 0 -60.5 11.5t-40.5 30.5l-10.5 12t-6 4t-6 -4.5t-10.5 -11.5q-17 -19 -43.5 -30.5t-58.5 -11.5q-72 0 -113.5 42.5t-41.5 116.5v130q0 37 13 67t36 52t55 34t70 12q7 0 11.5 -2.5t4.5 -10.5v-56q0 -12 -12 -12q-36 -3 -60 -27
t-24 -59v-125q0 -44 19.5 -62.5t48.5 -18.5q32 0 49 25.5t17 59.5v144q0 12 13 12h66q13 0 13 -11v-145q0 -34 17 -59t51 -25q29 0 48 20.5t19 53.5v130q0 35 -24 60t-59 27q-13 0 -13 12v56q0 8 4.5 10.5t11.5 2.5q39 0 71 -12.5t55 -34.5t35.5 -52.5t12.5 -67.5v-119z
M339 490q-4 -5 -9 -7t-11 2l-27 20q-8 5 -5.5 11t5.5 11l77 129q4 6 9.5 11t15.5 -1l49 -33q10 -6 8.5 -12.5t-5.5 -10.5z" />
    <glyph glyph-name="afii10023" unicode="&#x401;" horiz-adv-x="454" 
d="M408 87q14 0 14 -14v-58q0 -15 -14 -15h-332q-15 0 -15 14v589q0 14 15 14h327q6 0 10.5 -3t4.5 -11v-57q0 -15 -14 -15h-233q-12 0 -12 -10v-145q0 -13 12 -13h192q14 0 14 -15v-57q0 -14 -13 -14h-193q-12 0 -12 -12v-166q0 -12 13 -12h236zM366 700q0 -23 -15 -38
t-38 -15t-38.5 15t-15.5 38q0 22 15 37.5t38 15.5t38.5 -15.5t15.5 -37.5zM197 700q0 -23 -15 -38t-38 -15t-38.5 15t-15.5 38q0 22 15.5 37.5t37.5 15.5q23 0 38.5 -15.5t15.5 -37.5z" />
    <glyph glyph-name="afii10051" unicode="&#x402;" horiz-adv-x="627" 
d="M466 194q1 24 -1.5 46t-13 39t-31 27.5t-55.5 10.5q-31 0 -56 -8.5t-42 -22.5q-3 -2 -5.5 -6.5t-2.5 -13.5v-253q0 -13 -15 -13h-68q-15 0 -15 12v508q0 5 -1.5 8t-9.5 3h-113q-14 0 -14 14v58q0 14 14 14h421q14 0 14 -14v-58q0 -14 -14 -14h-187q-12 0 -12 -10v-139
q0 -5 3.5 -5t6.5 2q39 14 66 19t52 5q83 0 131 -46.5t48 -127.5v-84q0 -29 -5.5 -60.5t-23.5 -59t-51 -48t-88 -27.5q-8 -2 -15.5 -0.5t-8.5 12.5q-2 14 -3.5 27t-3.5 26q0 9 4.5 12t15.5 6q27 6 42.5 17t23.5 25.5t10.5 32t2.5 36.5v50v0z" />
    <glyph glyph-name="afii10052" unicode="&#x403;" horiz-adv-x="439" 
d="M175 14q0 -14 -14 -14h-70q-15 0 -15 13v591q0 13 15 13h324q14 0 14 -12v-60q0 -14 -14 -14h-229q-11 0 -11 -10v-507zM348 739q7 -9 3 -15t-9 -8l-146 -73q-12 -5 -21 8l-16 23q-9 10 3 19l126 95q5 5 12 5t11 -5z" />
    <glyph glyph-name="afii10053" unicode="&#x404;" horiz-adv-x="463" 
d="M158 368q0 -10 10 -10h177q13 0 13 -15v-54q0 -15 -13 -15h-177q-5 0 -7.5 -1.5t-2.5 -7.5v-98q0 -37 25.5 -61.5t69.5 -24.5q29 0 54 14t42 33q5 5 10.5 9.5t13.5 -1.5q2 -1 9.5 -6t16 -11t16 -11t9.5 -6q5 -3 6.5 -9t-1.5 -11q-32 -46 -78 -67t-99 -21
q-41 0 -76.5 11.5t-61 33.5t-40 54t-14.5 73v287q0 40 14 72t39 54.5t59.5 34.5t75.5 12q50 0 95.5 -17t81.5 -66q4 -6 4 -11.5t-8 -12.5l-48 -36q-6 -4 -12.5 -2t-11.5 8q-18 23 -44 36.5t-56 13.5q-42 0 -66.5 -24t-24.5 -62v-85z" />
    <glyph glyph-name="afii10054" unicode="&#x405;" horiz-adv-x="470" 
d="M436 174q0 -42 -16 -75t-44.5 -56.5t-67 -35.5t-84.5 -12q-57 0 -108.5 19t-83.5 57q-7 7 -7 12.5t8 14.5l38 39q8 7 13.5 5t13.5 -10q25 -24 58.5 -37.5t65.5 -13.5q56 0 86 24t30 66q0 23 -10.5 39t-27.5 28t-39 21t-46 17q-29 10 -59.5 23.5t-55.5 33.5t-40.5 49
t-15.5 70q0 40 14.5 72.5t40 54.5t60 34t73.5 12q43 0 87 -10t84 -38q10 -7 8.5 -13t-6.5 -14l-25 -43q-5 -8 -12 -8t-15 4q-32 17 -60 26.5t-54 9.5q-20 0 -37.5 -4.5t-30.5 -15t-21 -27t-8 -41.5q0 -19 10.5 -33t26.5 -24.5t36 -18.5t38 -15q33 -12 65.5 -26t59 -34
t42.5 -50.5t16 -75.5z" />
    <glyph glyph-name="afii10055" unicode="&#x406;" horiz-adv-x="249" 
d="M88 0q-15 0 -15 13v591q0 13 15 13h70q15 0 15 -13v-590q0 -14 -15 -14h-70z" />
    <glyph glyph-name="afii10056" unicode="&#x407;" horiz-adv-x="249" 
d="M88 0q-15 0 -15 13v591q0 13 15 13h70q15 0 15 -13v-590q0 -14 -15 -14h-70zM250 700q0 -23 -15 -38t-38 -15t-38.5 15t-15.5 38q0 22 15 37.5t38 15.5t38.5 -15.5t15.5 -37.5zM81 700q0 -23 -15 -38t-38 -15t-38.5 15t-15.5 38q0 22 15.5 37.5t37.5 15.5
q23 0 38.5 -15.5t15.5 -37.5z" />
    <glyph glyph-name="afii10057" unicode="&#x408;" horiz-adv-x="289" 
d="M-7 -70q-2 8 -1 13t12 10q29 12 51 24.5t37 30.5t22.5 43.5t7.5 61.5v491q0 13 15 13h67q15 0 15 -13v-492q0 -47 -9 -86t-30.5 -70t-57.5 -54t-90 -37q-8 -2 -14 0.5t-8 13.5z" />
    <glyph glyph-name="afii10058" unicode="&#x409;" horiz-adv-x="805" 
d="M457 617q8 0 10.5 -3t4.5 -10v-224q0 -10 10 -10h103q43 0 78 -14t60.5 -39t39.5 -59t14 -73q0 -40 -13.5 -74t-38.5 -58.5t-61 -38.5t-80 -14h-195q-10 0 -13 3.5t-3 10.5v507q0 11 -10 11h-134q-10 0 -10 -12v-82q0 -121 -6 -200.5t-23.5 -130.5t-49.5 -78.5t-84 -44.5
q-17 -7 -23 11l-17 45q-5 13 12 22q31 15 50.5 34.5t30 58t14 105t3.5 176.5v167q0 14 15 14h316zM680 184q0 48 -27 74t-70 26h-100q-11 0 -11 -11v-179q2 -7 12 -7h99q43 0 70 28.5t27 68.5z" />
    <glyph glyph-name="afii10059" unicode="&#x40a;" horiz-adv-x="770" 
d="M646 184q0 48 -27.5 74t-69.5 26h-101q-11 0 -11 -12v-174q0 -11 12 -11h100q43 0 70 28t27 69zM743 185q0 -40 -13.5 -74t-39 -58.5t-61 -38.5t-80.5 -14h-195q-15 0 -15 14v259q0 5 -1.5 8t-9.5 3h-154q-12 0 -12 -13v-257q0 -14 -14 -14h-68q-16 0 -16 14v590
q0 13 15 13h68q15 0 15 -12v-222q0 -13 11 -13h156q10 0 10 13v222q0 12 15 12h68q15 0 15 -12v-224q0 -11 10 -11h111q43 0 77.5 -14t58.5 -39t36.5 -59t12.5 -73z" />
    <glyph glyph-name="afii10060" unicode="&#x40b;" horiz-adv-x="619" 
d="M458 617q14 0 14 -14v-58q0 -14 -14 -14h-188q-12 0 -12 -10v-139q0 -5 3.5 -5t6.5 2q29 11 57 17.5t61 6.5q83 0 131 -46.5t48 -127.5v-216q0 -13 -15 -13h-70q-15 0 -15 12v199q0 21 -4 40.5t-15.5 34t-31 23t-50.5 8.5q-29 0 -54.5 -8.5t-42.5 -22.5q-3 -2 -6 -6.5
t-3 -13.5v-253q0 -13 -14 -13h-69q-15 0 -15 12v508q0 5 -1.5 8t-9.5 3h-113q-14 0 -14 14v58q0 14 14 14h422v0z" />
    <glyph glyph-name="afii10061" unicode="&#x40c;" horiz-adv-x="517" 
d="M472 13q0 -13 -12 -13h-69q-13 0 -14 12l-12 181q-1 16 -5 34t-14.5 33t-29 25t-48.5 10q-51 0 -78 -30t-27 -77v-175q0 -13 -12 -13h-75q-12 0 -12 12v592q0 13 14 13h73q12 0 12 -12v-228q0 -8 4 -7t7 4l190 234q5 5 9 7t12 2h77q9 0 11.5 -5t-2.5 -11l-180 -222
q-8 -11 5 -11q20 0 38 -3q59 -10 90.5 -53t33.5 -110zM378 742q7 -9 3 -15t-9 -8l-146 -73q-12 -5 -21 8l-16 23q-9 10 3 19l126 95q5 5 12 5t11 -5z" />
    <glyph glyph-name="afii10062" unicode="&#x40e;" horiz-adv-x="442" 
d="M92 618q10 0 16 -2.5t8 -11.5l106 -334q2 -2 4 -2.5t3 1.5q28 98 52 178t47 156q3 8 8.5 11.5t18.5 3.5h59q13 0 15 -6t-1 -14q-38 -115 -75.5 -228t-75.5 -228q-12 -37 -24 -66t-28 -49t-39 -30.5t-59 -10.5h-44q-11 0 -14 3.5t-3 14.5v49q0 11 3 13.5t11 2.5h24
q20 0 32.5 5t23.5 24q12 21 12 36q0 9 -3 18l-155 445q-2 8 0.5 14t13.5 7h64zM224 698q22 0 36 16t23 42q2 6 5.5 9t11.5 3h34q10 0 12.5 -4.5t1.5 -11.5q-3 -25 -13 -48t-26 -40t-37.5 -27.5t-47.5 -10.5q-25 0 -46.5 10.5t-37.5 27.5t-26.5 40t-13.5 48q-1 7 1.5 11.5
t12.5 4.5h34q8 0 11.5 -3t5.5 -9q9 -26 23 -42t36 -16z" />
    <glyph glyph-name="afii10145" unicode="&#x40f;" horiz-adv-x="563" 
d="M88 0q-16 0 -16 15v589q0 13 15 13h71q14 0 14 -14v-504q0 -13 12 -13h196q8 0 10 3t2 10v505q0 13 14 13h72q13 0 13 -14v-589q0 -14 -15 -14h-132q-9 0 -12 -3t-4 -10v-113q0 -14 -6.5 -17.5t-13.5 -3.5h-53q-10 0 -14 4.5t-4 16.5v114q-1 6 -3.5 9t-13.5 3h-132v0z
" />
    <glyph glyph-name="afii10017" unicode="&#x410;" horiz-adv-x="470" 
d="M451 19q2 -5 0.5 -12t-12.5 -7h-71q-14 0 -17 10l-28 115q-2 5 -3 7t-6 2h-162q-6 0 -7 -2.5t-3 -5.5l-27 -116q-3 -10 -16 -10h-66q-20 0 -15 18l147 586q3 13 18 13h100q7 0 11 -2t6 -10zM261 384l-26 120q-1 4 -3 4t-3 -3l-25 -118l-38 -163q-1 -5 0 -7t6 -2h121
q9 0 6 9z" />
    <glyph glyph-name="afii10018" unicode="&#x411;" horiz-adv-x="491" 
d="M161 380q0 -11 11 -11h100q44 0 79.5 -14t61 -39t39 -58.5t13.5 -72.5q0 -40 -13.5 -74t-39 -58.5t-61 -38.5t-79.5 -14h-194q-15 0 -15 14v589q0 8 4.5 11t10.5 3h319q6 0 10.5 -3.5t4.5 -9.5v-58q0 -14 -15 -14h-225q-11 0 -11 -11v-141zM266 85q18 0 33 4
q32 9 50.5 35.5t18.5 58.5q0 41 -19 66t-52 32q-15 3 -32 3h-93q-12 0 -12 -13v-174q0 -12 13 -12h93z" />
    <glyph glyph-name="afii10019" unicode="&#x412;" horiz-adv-x="496" 
d="M441 455q0 -16 -5 -33.5t-14 -33.5t-21.5 -30t-26.5 -23q-4 -4 1 -7q43 -20 64 -59.5t21 -82.5q0 -41 -12.5 -75.5t-36.5 -59t-58.5 -38t-77.5 -13.5h-203q-15 0 -15 14v589q0 14 15 14h190q83 0 131 -41.5t48 -120.5zM273 87q42 0 64.5 27.5t22.5 69.5q0 19 -5 37
t-16.5 32.5t-30 23.5t-45.5 9h-96q-11 0 -11 -12v-176q0 -11 11 -11h106zM261 370q40 0 60.5 24.5t20.5 58.5q0 36 -21.5 57t-61.5 21h-93q-10 0 -10 -10v-138q0 -13 10 -13h95z" />
    <glyph glyph-name="afii10020" unicode="&#x413;" horiz-adv-x="439" 
d="M175 14q0 -14 -14 -14h-70q-15 0 -15 13v591q0 13 15 13h324q14 0 14 -12v-60q0 -14 -14 -14h-229q-11 0 -11 -10v-507v0z" />
    <glyph glyph-name="afii10021" unicode="&#x414;" horiz-adv-x="570" 
d="M96 -118q-2 -14 -6 -17t-12 -3h-51q-9 0 -13 3t-5 13v171q0 16 4 21.5t15 9.5l18 6q33 11 47.5 53t21.5 105q5 46 11 136.5t11 215.5q2 13 6.5 17t15.5 4h308q10 0 14.5 -4t4.5 -17v-500q0 -2 1 -5.5t6 -3.5h23q11 -1 14 -6t3 -15v-184q-1 -14 -5.5 -16.5t-12.5 -2.5h-51
q-9 0 -13 3.5t-6 15.5v108q0 8 -5 9t-10 1h-318q-11 0 -12.5 -2.5t-3.5 -11.5v-104zM233 531q-5 0 -7 -4t-2 -7q-1 -26 -3 -63.5t-4.5 -76t-5 -74.5t-4.5 -59l-4.5 -36t-6.5 -41t-10.5 -41t-15.5 -36q-2 -4 0 -5t5 -1h203q2 0 5.5 1t3.5 8v423q0 12 -14 12h-140z" />
    <glyph glyph-name="afii10022" unicode="&#x415;" horiz-adv-x="454" 
d="M408 87q14 0 14 -14v-58q0 -15 -14 -15h-332q-15 0 -15 14v589q0 14 15 14h327q6 0 10.5 -3t4.5 -11v-57q0 -15 -14 -15h-233q-12 0 -12 -10v-145q0 -13 12 -13h192q14 0 14 -15v-57q0 -14 -13 -14h-193q-12 0 -12 -12v-166q0 -12 13 -12h236z" />
    <glyph glyph-name="afii10024" unicode="&#x416;" horiz-adv-x="785" 
d="M59 207q5 62 37 103.5t92 51.5q7 1 14.5 1h15.5q13 0 4 11l-179 227q-5 6 -3 11t12 5h76q8 0 12 -2t9 -7l183 -229q2 -3 6 -4.5t5 5.5v225q0 12 12 12h73q14 0 14 -13v-226q0 -7 4 -5.5t7 4.5l183 231q5 5 8.5 7t11.5 2h77q9 0 11.5 -5t-2.5 -11l-180 -227q-4 -5 -2 -8
t7 -3h13t13 -1q66 -9 99 -54t38 -115l13 -180q1 -13 -12 -13h-69q-13 0 -14 12l-13 178q-1 16 -6 34t-15.5 33t-28 25t-44.5 10q-49 0 -74 -31t-25 -76v-173q0 -12 -13 -12h-74q-12 0 -12 13v177q0 47 -23 74.5t-75 27.5q-28 0 -46 -10t-29 -25t-16 -33t-6 -34l-12 -178
q0 -12 -13 -12h-69q-13 0 -12 13z" />
    <glyph glyph-name="afii10025" unicode="&#x417;" horiz-adv-x="491" 
d="M240 626q46 0 81.5 -12.5t59.5 -34t36.5 -51.5t12.5 -66q0 -20 -5.5 -39.5t-16 -37t-25 -31t-32.5 -20.5q-3 -1 -1 -6q38 -13 64.5 -50t26.5 -89q0 -45 -15.5 -81t-43 -61.5t-66.5 -39t-87 -13.5q-28 0 -56.5 4t-54 14t-46.5 26.5t-36 42.5q-7 13 6 22l45 33q8 5 13 5
t12 -8q15 -22 47 -37t68 -15q53 0 83 29t30 74q0 52 -32 78t-80 26h-66q-14 0 -14 14v55q0 8 2.5 11t10.5 3h80q39 0 64 23.5t25 61.5q0 34 -24 58.5t-75 24.5q-23 0 -51 -10.5t-51 -34.5q-5 -5 -12 -9.5t-15 1.5l-41 34q-8 5 -7.5 11.5t3.5 11.5q31 44 78.5 63.5
t104.5 19.5z" />
    <glyph glyph-name="afii10026" unicode="&#x418;" horiz-adv-x="534" 
d="M62 603q0 14 16 14h65q14 0 14 -14v-407q0 -2 1.5 -2t2.5 2q55 101 108.5 202t109.5 201q5 8 11 13t19 5h51q14 0 14 -14v-589q0 -14 -15 -14h-65q-15 0 -15 15v410q0 5 -3 1l-219 -410q-6 -11 -11 -13.5t-18 -2.5h-50q-16 0 -16 15v588z" />
    <glyph glyph-name="afii10027" unicode="&#x419;" horiz-adv-x="534" 
d="M62 603q0 14 16 14h65q14 0 14 -14v-407q0 -2 1.5 -2t2.5 2q55 101 108.5 202t109.5 201q5 8 11 13t19 5h51q14 0 14 -14v-589q0 -14 -15 -14h-65q-15 0 -15 15v410q0 5 -3 1l-219 -410q-6 -11 -11 -13.5t-18 -2.5h-50q-16 0 -16 15v588zM271 698q22 0 36 16t23 42
q2 6 5.5 9t11.5 3h34q10 0 12.5 -4.5t1.5 -11.5q-3 -25 -13 -48t-26 -40t-37.5 -27.5t-47.5 -10.5q-25 0 -46.5 10.5t-37.5 27.5t-26.5 40t-13.5 48q-1 7 1.5 11.5t12.5 4.5h34q8 0 11.5 -3t5.5 -9q9 -26 23 -42t36 -16z" />
    <glyph glyph-name="afii10028" unicode="&#x41a;" horiz-adv-x="517" 
d="M472 13q0 -13 -12 -13h-69q-13 0 -14 12l-12 181q-1 16 -5 34t-14.5 33t-29 25t-48.5 10q-51 0 -78 -30t-27 -77v-175q0 -13 -12 -13h-75q-12 0 -12 12v592q0 13 14 13h73q12 0 12 -12v-228q0 -8 4 -7t7 4l190 234q5 5 9 7t12 2h77q9 0 11.5 -5t-2.5 -11l-180 -222
q-8 -11 5 -11q20 0 38 -3q59 -10 90.5 -53t33.5 -110z" />
    <glyph glyph-name="afii10029" unicode="&#x41b;" horiz-adv-x="543" 
d="M231 532q-10 0 -10 -12v-112q0 -111 -6.5 -184.5t-25 -121.5t-51 -75t-83.5 -43q-11 -3 -14.5 -1.5t-6.5 9.5l-17 45q-3 9 -2 14.5t12 10.5q30 15 50 33t32 55t17 98.5t5 163.5v191q0 14 15 14h319q15 0 15 -14v-589q0 -14 -15 -14h-69q-14 0 -14 13v507q0 12 -12 12
h-139z" />
    </font>
</defs>
</svg>
