<svg 
 xmlns="http://www.w3.org/2000/svg"
 xmlns:xlink="http://www.w3.org/1999/xlink"
 width="1750px" height="2912px">
<path fill-rule="evenodd"  fill="rgb(244, 244, 255)"
 d="M162.000,2450.999 C-56.333,2253.389 -52.463,1800.685 172.000,1665.999 C351.016,1558.584 597.163,1581.227 662.000,1272.999 C691.840,1131.141 601.676,877.822 791.517,708.371 C871.082,637.354 997.911,605.372 1102.646,625.583 C1160.908,636.832 1235.010,653.338 1291.892,670.226 C1348.774,687.114 1420.442,703.615 1472.930,675.949 C1523.483,649.309 1553.787,565.399 1565.953,497.963 C1590.353,362.761 1611.997,257.407 1669.396,131.514 C1690.517,85.190 1750.000,-0.001 1750.000,-0.001 L1750.000,2910.999 C1750.000,2910.999 1529.720,2917.207 1323.000,2689.999 C943.788,2273.191 586.648,2835.353 162.000,2450.999 Z"/>
</svg>