<?xml version="1.0" encoding="utf-8"?>
<!-- Generator: Adobe Illustrator 24.0.2, SVG Export Plug-In . SVG Version: 6.00 Build 0)  -->
<svg version="1.1" id="Layer_1" xmlns="http://www.w3.org/2000/svg" xmlns:xlink="http://www.w3.org/1999/xlink" x="0px" y="0px"
	 viewBox="0 0 173.1 72.4" style="enable-background:new 0 0 173.1 72.4;" xml:space="preserve">
<style type="text/css">
	.st0{fill:url(#SVGID_1_);}
	.st1{opacity:0.75;fill:url(#SVGID_2_);}
	.st2{opacity:0.32;fill:url(#SVGID_3_);}
	.st3{fill:url(#SVGID_4_);}
	.st4{fill:#D26D02;}
	.st5{fill:url(#SVGID_5_);}
	.st6{fill:url(#SVGID_6_);}
	.st7{fill:url(#SVGID_7_);}
	.st8{opacity:0.75;fill:url(#SVGID_8_);}
	.st9{opacity:0.32;fill:url(#SVGID_9_);}
	.st10{fill:url(#SVGID_10_);}
	.st11{fill:url(#SVGID_11_);}
	.st12{fill:url(#SVGID_12_);}
	.st13{fill:url(#SVGID_13_);}
	.st14{opacity:0.75;fill:url(#SVGID_14_);}
	.st15{opacity:0.32;fill:url(#SVGID_15_);}
	.st16{fill:url(#SVGID_16_);}
	.st17{fill:url(#SVGID_17_);}
	.st18{fill:url(#SVGID_18_);}
	.st19{fill:url(#SVGID_19_);}
	.st20{fill:url(#SVGID_20_);}
	.st21{fill:url(#SVGID_21_);}
	.st22{fill:url(#SVGID_22_);}
	.st23{fill:url(#SVGID_23_);}
	.st24{fill:url(#SVGID_24_);}
	.st25{fill:url(#SVGID_25_);}
	.st26{fill:url(#SVGID_26_);}
	.st27{fill:url(#SVGID_27_);}
	.st28{fill:url(#SVGID_28_);}
	.st29{fill:url(#SVGID_29_);}
	.st30{opacity:0.75;fill:url(#SVGID_30_);}
	.st31{opacity:0.32;fill:url(#SVGID_31_);}
	.st32{fill:url(#SVGID_32_);}
	.st33{fill:url(#SVGID_33_);}
	.st34{fill:url(#SVGID_34_);}
	.st35{fill:url(#SVGID_35_);}
	.st36{opacity:0.75;fill:url(#SVGID_36_);}
	.st37{opacity:0.32;fill:url(#SVGID_37_);}
	.st38{fill:url(#SVGID_38_);}
	.st39{fill:url(#SVGID_39_);}
	.st40{fill:url(#SVGID_40_);}
	.st41{fill:url(#SVGID_41_);}
	.st42{opacity:0.75;fill:url(#SVGID_42_);}
	.st43{opacity:0.32;fill:url(#SVGID_43_);}
	.st44{fill:url(#SVGID_44_);}
	.st45{fill:url(#SVGID_45_);}
	.st46{fill:url(#SVGID_46_);}
</style>
<g>
	
		<linearGradient id="SVGID_1_" gradientUnits="userSpaceOnUse" x1="-147.3034" y1="190.5011" x2="-65.9038" y2="190.5011" gradientTransform="matrix(0.5 0 0 0.5 177.7717 -74.8485)">
		<stop  offset="0" style="stop-color:#FFF84A"/>
		<stop  offset="1" style="stop-color:#FFEC38"/>
	</linearGradient>
	<circle class="st0" cx="124.5" cy="20.4" r="20.3"/>
	<linearGradient id="SVGID_2_" gradientUnits="userSpaceOnUse" x1="136.8746" y1="10.3843" x2="112.0266" y2="30.4508">
		<stop  offset="0.4846" style="stop-color:#CC9434"/>
		<stop  offset="0.6795" style="stop-color:#FFEA72"/>
		<stop  offset="0.7638" style="stop-color:#FFE76C"/>
		<stop  offset="0.8718" style="stop-color:#FFDE5C"/>
		<stop  offset="0.9603" style="stop-color:#FFD44A"/>
	</linearGradient>
	<circle class="st1" cx="124.5" cy="20.4" r="16.1"/>
	<linearGradient id="SVGID_3_" gradientUnits="userSpaceOnUse" x1="117.1272" y1="5.6564" x2="131.7749" y2="35.0721">
		<stop  offset="0.4846" style="stop-color:#CC9434"/>
		<stop  offset="0.6795" style="stop-color:#FFEA72"/>
		<stop  offset="0.7638" style="stop-color:#FFE76C"/>
		<stop  offset="0.8718" style="stop-color:#FFDE5C"/>
		<stop  offset="0.9603" style="stop-color:#FFD44A"/>
	</linearGradient>
	<circle class="st2" cx="124.5" cy="20.4" r="16.1"/>
	<linearGradient id="SVGID_4_" gradientUnits="userSpaceOnUse" x1="134.3068" y1="9.5735" x2="113.3089" y2="32.6882">
		<stop  offset="0" style="stop-color:#FFE94A"/>
		<stop  offset="0.3381" style="stop-color:#FCDA34"/>
		<stop  offset="1" style="stop-color:#F5B400"/>
	</linearGradient>
	<circle class="st3" cx="124.5" cy="20.4" r="15.5"/>
	<path class="st4" d="M124.5,4.9c-8.6,0-15.5,7-15.5,15.5s7,15.5,15.5,15.5c8.6,0,15.5-7,15.5-15.5S133.1,4.9,124.5,4.9z
		 M124.5,35.6c-8.4,0-15.2-6.8-15.2-15.2s6.8-15.2,15.2-15.2c8.4,0,15.2,6.8,15.2,15.2S132.9,35.6,124.5,35.6z"/>
	<g>
		<linearGradient id="SVGID_5_" gradientUnits="userSpaceOnUse" x1="133.8731" y1="9.6486" x2="116.0078" y2="27.8526">
			<stop  offset="0" style="stop-color:#FFDB56"/>
			<stop  offset="9.118795e-03" style="stop-color:#FFDA55"/>
			<stop  offset="0.6822" style="stop-color:#F39A2F"/>
			<stop  offset="1" style="stop-color:#EE8120"/>
		</linearGradient>
		<path class="st5" d="M129.5,20.2L129.5,20.2c1.3-0.5,2.4-1.4,2.4-3.6c0-2.2-1.8-3.7-4-3.7h0v-2.1h-3.5v2.1h-1.5v-2.1h-3.5v2.1
			h-0.7h-0.5h-1.5v3.5h1.5v8.3h-1.5V28h1.5h0.5h0.7v2.1h3.5V28h1.5v2.1h3.5V28h0.1c2.3,0,4.2-1.6,4.2-4.1
			C132.2,21.5,131,20.5,129.5,20.2z M126,16.2c0.5,0,1,0.5,1,1.1v0.2c0,0.6-0.4,1.1-1,1.1h-2.9v-2.3H126z M123.1,24.4V22h3.2
			c0.6,0,1,0.5,1,1.1v0.2c0,0.6-0.4,1.1-1,1.1H123.1z"/>
		<linearGradient id="SVGID_6_" gradientUnits="userSpaceOnUse" x1="128.8652" y1="12.9086" x2="117.9145" y2="28.3185">
			<stop  offset="0" style="stop-color:#FFF84A"/>
			<stop  offset="1" style="stop-color:#FFEC38"/>
		</linearGradient>
		<path class="st6" d="M129.3,20.2L129.3,20.2c1.3-0.5,2.3-1.4,2.3-3.5c0-2.1-1.7-3.6-3.9-3.6h0v-2h-3.4v2H123v-2h-3.4v2H119h-0.5
			H117v3.4h1.5v8H117v3.4h1.5h0.5h0.7v2h3.4v-2h1.4v2h3.4v-2h0.1c2.3,0,4.1-1.6,4.1-3.9C132,21.5,130.7,20.5,129.3,20.2z M126,16.3
			c0.6,0,1,0.5,1,1.1v0.2c0,0.6-0.4,1.2-1,1.2h-3.1v-2.5H126z M122.9,24.3v-2.5h3.4c0.6,0,1,0.5,1,1.2v0.2c0,0.7-0.4,1.2-1,1.2
			H122.9z"/>
	</g>
</g>
<g>
	
		<linearGradient id="SVGID_7_" gradientUnits="userSpaceOnUse" x1="-355.5146" y1="246.5099" x2="-274.115" y2="246.5099" gradientTransform="matrix(0.5 0 0 0.5 177.7717 -74.8485)">
		<stop  offset="0" style="stop-color:#FFF84A"/>
		<stop  offset="1" style="stop-color:#FFEC38"/>
	</linearGradient>
	<circle class="st7" cx="20.4" cy="48.4" r="20.3"/>
	<linearGradient id="SVGID_8_" gradientUnits="userSpaceOnUse" x1="32.769" y1="38.3888" x2="7.9211" y2="58.4553">
		<stop  offset="0.4846" style="stop-color:#CC9434"/>
		<stop  offset="0.6795" style="stop-color:#FFEA72"/>
		<stop  offset="0.7638" style="stop-color:#FFE76C"/>
		<stop  offset="0.8718" style="stop-color:#FFDE5C"/>
		<stop  offset="0.9603" style="stop-color:#FFD44A"/>
	</linearGradient>
	<circle class="st8" cx="20.4" cy="48.4" r="16.1"/>
	<linearGradient id="SVGID_9_" gradientUnits="userSpaceOnUse" x1="13.0216" y1="33.6609" x2="27.6694" y2="63.0766">
		<stop  offset="0.4846" style="stop-color:#CC9434"/>
		<stop  offset="0.6795" style="stop-color:#FFEA72"/>
		<stop  offset="0.7638" style="stop-color:#FFE76C"/>
		<stop  offset="0.8718" style="stop-color:#FFDE5C"/>
		<stop  offset="0.9603" style="stop-color:#FFD44A"/>
	</linearGradient>
	<circle class="st9" cx="20.4" cy="48.4" r="16.1"/>
	<linearGradient id="SVGID_10_" gradientUnits="userSpaceOnUse" x1="30.2013" y1="37.5779" x2="9.2033" y2="60.6926">
		<stop  offset="0" style="stop-color:#FFE94A"/>
		<stop  offset="0.3381" style="stop-color:#FCDA34"/>
		<stop  offset="1" style="stop-color:#F5B400"/>
	</linearGradient>
	<circle class="st10" cx="20.4" cy="48.4" r="15.5"/>
	<path class="st4" d="M20.4,32.9c-8.6,0-15.5,7-15.5,15.5s7,15.5,15.5,15.5c8.6,0,15.5-7,15.5-15.5S28.9,32.9,20.4,32.9z M20.4,63.6
		c-8.4,0-15.2-6.8-15.2-15.2c0-8.4,6.8-15.2,15.2-15.2c8.4,0,15.2,6.8,15.2,15.2C35.6,56.8,28.8,63.6,20.4,63.6z"/>
	<g>
		<linearGradient id="SVGID_11_" gradientUnits="userSpaceOnUse" x1="28.7131" y1="39.8599" x2="14.1798" y2="55.1731">
			<stop  offset="0" style="stop-color:#FFDB56"/>
			<stop  offset="9.118795e-03" style="stop-color:#FFDA55"/>
			<stop  offset="0.6822" style="stop-color:#F39A2F"/>
			<stop  offset="1" style="stop-color:#EE8120"/>
		</linearGradient>
		<polygon class="st11" points="20.9,52 26.8,42.3 26.8,40.5 22.3,40.5 22.3,38.7 18.4,38.7 18.4,40.5 14.2,40.5 14.2,44.7 
			19.5,44.7 13.8,54.4 13.8,56.3 18.4,56.3 18.4,58.1 22.3,58.1 22.3,56.3 27,56.3 27,52 		"/>
		<linearGradient id="SVGID_12_" gradientUnits="userSpaceOnUse" x1="25.0949" y1="41.25" x2="15.6352" y2="56.1671">
			<stop  offset="0" style="stop-color:#FFF84A"/>
			<stop  offset="1" style="stop-color:#FFEC38"/>
		</linearGradient>
		<polygon class="st12" points="20.5,52.3 26.6,42.3 26.6,40.7 22.3,40.7 22.3,38.9 18.5,38.9 18.5,40.7 14.4,40.7 14.4,44.4 
			20.1,44.4 14,54.4 14,56 18.5,56 18.5,57.8 22.3,57.8 22.3,56 26.8,56 26.8,52.3 		"/>
	</g>
</g>
<g>
	<g>
		
			<linearGradient id="SVGID_13_" gradientUnits="userSpaceOnUse" x1="-301.612" y1="201.9313" x2="-220.2125" y2="201.9313" gradientTransform="matrix(0.5 0 0 0.5 177.7717 -74.8485)">
			<stop  offset="0" style="stop-color:#FFF84A"/>
			<stop  offset="1" style="stop-color:#FFEC38"/>
		</linearGradient>
		<circle class="st13" cx="47.3" cy="26.1" r="20.3"/>
		<linearGradient id="SVGID_14_" gradientUnits="userSpaceOnUse" x1="59.7203" y1="16.0995" x2="34.8723" y2="36.166">
			<stop  offset="0.4846" style="stop-color:#CC9434"/>
			<stop  offset="0.6795" style="stop-color:#FFEA72"/>
			<stop  offset="0.7638" style="stop-color:#FFE76C"/>
			<stop  offset="0.8718" style="stop-color:#FFDE5C"/>
			<stop  offset="0.9603" style="stop-color:#FFD44A"/>
		</linearGradient>
		<circle class="st14" cx="47.3" cy="26.1" r="16.1"/>
		<linearGradient id="SVGID_15_" gradientUnits="userSpaceOnUse" x1="39.9729" y1="11.3717" x2="54.6206" y2="40.7873">
			<stop  offset="0.4846" style="stop-color:#CC9434"/>
			<stop  offset="0.6795" style="stop-color:#FFEA72"/>
			<stop  offset="0.7638" style="stop-color:#FFE76C"/>
			<stop  offset="0.8718" style="stop-color:#FFDE5C"/>
			<stop  offset="0.9603" style="stop-color:#FFD44A"/>
		</linearGradient>
		<circle class="st15" cx="47.3" cy="26.1" r="16.1"/>
		<linearGradient id="SVGID_16_" gradientUnits="userSpaceOnUse" x1="57.1525" y1="15.2886" x2="36.1546" y2="38.4032">
			<stop  offset="0" style="stop-color:#FFE94A"/>
			<stop  offset="0.3381" style="stop-color:#FCDA34"/>
			<stop  offset="1" style="stop-color:#F5B400"/>
		</linearGradient>
		<circle class="st16" cx="47.3" cy="26.1" r="15.5"/>
		<path class="st4" d="M47.3,10.6c-8.6,0-15.5,7-15.5,15.5s7,15.5,15.5,15.5c8.6,0,15.5-7,15.5-15.5S55.9,10.6,47.3,10.6z
			 M47.3,41.3c-8.4,0-15.2-6.8-15.2-15.2c0-8.4,6.8-15.2,15.2-15.2c8.4,0,15.2,6.8,15.2,15.2C62.5,34.5,55.7,41.3,47.3,41.3z"/>
	</g>
	<g>
		<linearGradient id="SVGID_17_" gradientUnits="userSpaceOnUse" x1="57.0626" y1="24.8542" x2="38.0119" y2="36.2846">
			<stop  offset="0" style="stop-color:#FFDB56"/>
			<stop  offset="9.118795e-03" style="stop-color:#FFDA55"/>
			<stop  offset="0.6822" style="stop-color:#F39A2F"/>
			<stop  offset="1" style="stop-color:#EE8120"/>
		</linearGradient>
		<polygon class="st17" points="40.6,26.9 47.3,38.5 54,26.9 47.3,31.7 		"/>
		<linearGradient id="SVGID_18_" gradientUnits="userSpaceOnUse" x1="53.2822" y1="18.5534" x2="34.2314" y2="29.9839">
			<stop  offset="0" style="stop-color:#FFDB56"/>
			<stop  offset="9.118795e-03" style="stop-color:#FFDA55"/>
			<stop  offset="0.6822" style="stop-color:#F39A2F"/>
			<stop  offset="1" style="stop-color:#EE8120"/>
		</linearGradient>
		<polygon class="st18" points="54,25.9 47.3,13.7 40.6,25.9 47.3,30.5 		"/>
	</g>
	<g>
		<g>
			<linearGradient id="SVGID_19_" gradientUnits="userSpaceOnUse" x1="31.0025" y1="22.409" x2="44.2454" y2="22.409">
				<stop  offset="0" style="stop-color:#FFF84A"/>
				<stop  offset="1" style="stop-color:#FFEC38"/>
			</linearGradient>
			<polygon class="st19" points="53.6,25.9 47.3,14.6 41.1,25.9 47.3,30.2 			"/>
			<linearGradient id="SVGID_20_" gradientUnits="userSpaceOnUse" x1="31.0025" y1="32.2648" x2="44.2454" y2="32.2648">
				<stop  offset="0" style="stop-color:#FFF84A"/>
				<stop  offset="1" style="stop-color:#FFEC38"/>
			</linearGradient>
			<polygon class="st20" points="41.1,26.9 47.3,37.7 53.6,26.9 47.3,31.3 			"/>
		</g>
		<linearGradient id="SVGID_21_" gradientUnits="userSpaceOnUse" x1="47.3156" y1="18.7676" x2="47.3156" y2="34.9048">
			<stop  offset="0" style="stop-color:#FFF84A"/>
			<stop  offset="1" style="stop-color:#FFEC38"/>
		</linearGradient>
		<polygon class="st21" points="53.6,25.9 47.3,14.6 41.1,25.9 47.3,30.2 		"/>
		<linearGradient id="SVGID_22_" gradientUnits="userSpaceOnUse" x1="47.3156" y1="18.7676" x2="47.3156" y2="34.9048">
			<stop  offset="0" style="stop-color:#FFF84A"/>
			<stop  offset="1" style="stop-color:#FFEC38"/>
		</linearGradient>
		<polygon class="st22" points="53.6,25.9 47.3,14.6 41.1,25.9 47.3,30.2 		"/>
		<linearGradient id="SVGID_23_" gradientUnits="userSpaceOnUse" x1="47.3156" y1="18.7675" x2="47.3156" y2="34.9048">
			<stop  offset="0" style="stop-color:#FFF84A"/>
			<stop  offset="1" style="stop-color:#FFEC38"/>
		</linearGradient>
		<polygon class="st23" points="41.1,26.9 47.3,37.7 53.6,26.9 47.3,31.3 		"/>
		<linearGradient id="SVGID_24_" gradientUnits="userSpaceOnUse" x1="47.3156" y1="18.7676" x2="47.3156" y2="34.9049">
			<stop  offset="0" style="stop-color:#FFF84A"/>
			<stop  offset="1" style="stop-color:#FFEC38"/>
		</linearGradient>
		<polygon class="st24" points="53.6,25.9 47.3,14.6 41.1,25.9 47.3,23.3 		"/>
		<g>
			<linearGradient id="SVGID_25_" gradientUnits="userSpaceOnUse" x1="51.6408" y1="18.3429" x2="45.2923" y2="28.3539">
				<stop  offset="0" style="stop-color:#FFF84A"/>
				<stop  offset="1" style="stop-color:#FFEC38"/>
			</linearGradient>
			<polygon class="st25" points="53.6,25.9 47.3,14.6 47.3,30.2 			"/>
			<linearGradient id="SVGID_26_" gradientUnits="userSpaceOnUse" x1="52.1129" y1="26.9052" x2="46.1316" y2="36.3373">
				<stop  offset="0" style="stop-color:#FFF84A"/>
				<stop  offset="1" style="stop-color:#FFEC38"/>
			</linearGradient>
			<polygon class="st26" points="47.3,37.7 53.6,26.9 47.3,31.3 			"/>
		</g>
		<linearGradient id="SVGID_27_" gradientUnits="userSpaceOnUse" x1="47.3156" y1="18.7676" x2="47.3156" y2="34.9048">
			<stop  offset="0" style="stop-color:#FFF84A"/>
			<stop  offset="1" style="stop-color:#FFEC38"/>
		</linearGradient>
		<polygon class="st27" points="47.3,23.3 41.1,25.9 47.3,30.2 53.6,25.9 		"/>
		<linearGradient id="SVGID_28_" gradientUnits="userSpaceOnUse" x1="51.8877" y1="26.7907" x2="45.2779" y2="26.7907">
			<stop  offset="0" style="stop-color:#FFF84A"/>
			<stop  offset="0.3164" style="stop-color:#FFF545"/>
			<stop  offset="1" style="stop-color:#FFEC38"/>
		</linearGradient>
		<polygon class="st28" points="47.3,23.3 41.1,25.9 47.3,30.2 53.6,25.9 		"/>
	</g>
</g>
<g>
	<g>
		
			<linearGradient id="SVGID_29_" gradientUnits="userSpaceOnUse" x1="-250.5726" y1="253.8275" x2="-169.173" y2="253.8275" gradientTransform="matrix(0.5 0 0 0.5 177.7717 -74.8485)">
			<stop  offset="0" style="stop-color:#FFF84A"/>
			<stop  offset="1" style="stop-color:#FFEC38"/>
		</linearGradient>
		<circle class="st29" cx="72.8" cy="52.1" r="20.3"/>
		<linearGradient id="SVGID_30_" gradientUnits="userSpaceOnUse" x1="85.24" y1="42.0476" x2="60.3921" y2="62.1141">
			<stop  offset="0.4846" style="stop-color:#CC9434"/>
			<stop  offset="0.6795" style="stop-color:#FFEA72"/>
			<stop  offset="0.7638" style="stop-color:#FFE76C"/>
			<stop  offset="0.8718" style="stop-color:#FFDE5C"/>
			<stop  offset="0.9603" style="stop-color:#FFD44A"/>
		</linearGradient>
		<circle class="st30" cx="72.8" cy="52.1" r="16.1"/>
		<linearGradient id="SVGID_31_" gradientUnits="userSpaceOnUse" x1="65.4926" y1="37.3197" x2="80.1404" y2="66.7354">
			<stop  offset="0.4846" style="stop-color:#CC9434"/>
			<stop  offset="0.6795" style="stop-color:#FFEA72"/>
			<stop  offset="0.7638" style="stop-color:#FFE76C"/>
			<stop  offset="0.8718" style="stop-color:#FFDE5C"/>
			<stop  offset="0.9603" style="stop-color:#FFD44A"/>
		</linearGradient>
		<circle class="st31" cx="72.8" cy="52.1" r="16.1"/>
		<linearGradient id="SVGID_32_" gradientUnits="userSpaceOnUse" x1="82.6723" y1="41.2367" x2="61.6743" y2="64.3514">
			<stop  offset="0" style="stop-color:#FFE94A"/>
			<stop  offset="0.3381" style="stop-color:#FCDA34"/>
			<stop  offset="1" style="stop-color:#F5B400"/>
		</linearGradient>
		<circle class="st32" cx="72.8" cy="52.1" r="15.5"/>
		<path class="st4" d="M72.8,36.5c-8.6,0-15.5,7-15.5,15.5s7,15.5,15.5,15.5c8.6,0,15.5-7,15.5-15.5S81.4,36.5,72.8,36.5z
			 M72.8,67.3c-8.4,0-15.2-6.8-15.2-15.2s6.8-15.2,15.2-15.2c8.4,0,15.2,6.8,15.2,15.2S81.2,67.3,72.8,67.3z"/>
	</g>
	<linearGradient id="SVGID_33_" gradientUnits="userSpaceOnUse" x1="83.0084" y1="42.269" x2="66.3405" y2="63.1145">
		<stop  offset="0" style="stop-color:#FFDB56"/>
		<stop  offset="9.118795e-03" style="stop-color:#FFDA55"/>
		<stop  offset="0.6822" style="stop-color:#F39A2F"/>
		<stop  offset="1" style="stop-color:#EE8120"/>
	</linearGradient>
	<polygon class="st33" points="72.8,57.7 74.1,52.3 77.8,50.4 78.7,46 75.2,47.7 76.6,41.7 71,41.7 68.9,50.6 65.3,52.4 64.4,56.9 
		67.8,55.2 66.2,61.8 79.9,61.8 80.8,57.7 	"/>
	<linearGradient id="SVGID_34_" gradientUnits="userSpaceOnUse" x1="64.8622" y1="51.8113" x2="80.3003" y2="51.8113">
		<stop  offset="0" style="stop-color:#FFF84A"/>
		<stop  offset="1" style="stop-color:#FFEC38"/>
	</linearGradient>
	<polygon class="st34" points="72.5,58 73.9,51.9 77.6,50.1 78.3,46.4 74.8,48.1 76.2,42.1 71.2,42.1 69.1,50.9 65.6,52.6 
		64.9,56.3 68.2,54.7 66.6,61.5 79.6,61.5 80.3,58 	"/>
</g>
<g>
	<g>
		
			<linearGradient id="SVGID_35_" gradientUnits="userSpaceOnUse" x1="-213.7325" y1="214.3525" x2="-132.333" y2="214.3525" gradientTransform="matrix(0.5 0 0 0.5 177.7717 -74.8485)">
			<stop  offset="0" style="stop-color:#FFF84A"/>
			<stop  offset="1" style="stop-color:#FFEC38"/>
		</linearGradient>
		<circle class="st35" cx="91.3" cy="32.3" r="20.3"/>
		<linearGradient id="SVGID_36_" gradientUnits="userSpaceOnUse" x1="103.66" y1="22.3101" x2="78.812" y2="42.3766">
			<stop  offset="0.4846" style="stop-color:#CC9434"/>
			<stop  offset="0.6795" style="stop-color:#FFEA72"/>
			<stop  offset="0.7638" style="stop-color:#FFE76C"/>
			<stop  offset="0.8718" style="stop-color:#FFDE5C"/>
			<stop  offset="0.9603" style="stop-color:#FFD44A"/>
		</linearGradient>
		<path class="st36" d="M107.3,32.3c0,8.9-7.2,16.1-16.1,16.1s-16.1-7.2-16.1-16.1s7.2-16.1,16.1-16.1S107.3,23.4,107.3,32.3z"/>
		<linearGradient id="SVGID_37_" gradientUnits="userSpaceOnUse" x1="83.9126" y1="17.5822" x2="98.5603" y2="46.9979">
			<stop  offset="0.4846" style="stop-color:#CC9434"/>
			<stop  offset="0.6795" style="stop-color:#FFEA72"/>
			<stop  offset="0.7638" style="stop-color:#FFE76C"/>
			<stop  offset="0.8718" style="stop-color:#FFDE5C"/>
			<stop  offset="0.9603" style="stop-color:#FFD44A"/>
		</linearGradient>
		<path class="st37" d="M107.3,32.3c0,8.9-7.2,16.1-16.1,16.1s-16.1-7.2-16.1-16.1s7.2-16.1,16.1-16.1S107.3,23.4,107.3,32.3z"/>
		<linearGradient id="SVGID_38_" gradientUnits="userSpaceOnUse" x1="101.0922" y1="21.4992" x2="80.0943" y2="44.6138">
			<stop  offset="0" style="stop-color:#FFE94A"/>
			<stop  offset="0.3381" style="stop-color:#FCDA34"/>
			<stop  offset="1" style="stop-color:#F5B400"/>
		</linearGradient>
		<circle class="st38" cx="91.3" cy="32.3" r="15.5"/>
		<path class="st4" d="M91.3,16.8c-8.6,0-15.5,7-15.5,15.5c0,8.6,7,15.5,15.5,15.5c8.6,0,15.5-7,15.5-15.5
			C106.8,23.7,99.8,16.8,91.3,16.8z M91.3,47.6c-8.4,0-15.2-6.8-15.2-15.2c0-8.4,6.8-15.2,15.2-15.2c8.4,0,15.2,6.8,15.2,15.2
			C106.5,40.7,99.7,47.6,91.3,47.6z"/>
	</g>
	<g>
		<linearGradient id="SVGID_39_" gradientUnits="userSpaceOnUse" x1="101.7389" y1="21.2294" x2="89.1267" y2="36.406">
			<stop  offset="0" style="stop-color:#FFDB56"/>
			<stop  offset="9.118795e-03" style="stop-color:#FFDA55"/>
			<stop  offset="0.6822" style="stop-color:#F39A2F"/>
			<stop  offset="1" style="stop-color:#EE8120"/>
		</linearGradient>
		<polygon class="st39" points="99.6,35.7 99.6,22.7 91.3,33.7 82.9,22.7 82.9,35.7 77,35.7 78.1,39.1 86.1,39.1 86.1,32.8 
			91.3,39.1 96.4,32.8 96.4,39.1 104.5,39.1 105.5,35.7 		"/>
		<linearGradient id="SVGID_40_" gradientUnits="userSpaceOnUse" x1="77.4538" y1="31.2468" x2="105.0567" y2="31.2468">
			<stop  offset="0" style="stop-color:#FFF84A"/>
			<stop  offset="1" style="stop-color:#FFEC38"/>
		</linearGradient>
		<polygon class="st40" points="99.3,36 99.3,23.7 91.3,34.3 83.2,23.7 83.2,36 77.5,36 78.3,38.8 85.8,38.8 85.8,32.1 91.3,38.8 
			96.7,32.1 96.7,38.8 104.2,38.8 105.1,36 		"/>
	</g>
</g>
<g>
	<g>
		
			<linearGradient id="SVGID_41_" gradientUnits="userSpaceOnUse" x1="-91.3406" y1="242.6311" x2="-9.941" y2="242.6311" gradientTransform="matrix(0.5 0 0 0.5 177.7717 -74.8485)">
			<stop  offset="0" style="stop-color:#FFF84A"/>
			<stop  offset="1" style="stop-color:#FFEC38"/>
		</linearGradient>
		<circle class="st41" cx="152.5" cy="46.5" r="20.3"/>
		<linearGradient id="SVGID_42_" gradientUnits="userSpaceOnUse" x1="164.856" y1="36.4494" x2="140.0081" y2="56.5159">
			<stop  offset="0.4846" style="stop-color:#CC9434"/>
			<stop  offset="0.6795" style="stop-color:#FFEA72"/>
			<stop  offset="0.7638" style="stop-color:#FFE76C"/>
			<stop  offset="0.8718" style="stop-color:#FFDE5C"/>
			<stop  offset="0.9603" style="stop-color:#FFD44A"/>
		</linearGradient>
		<circle class="st42" cx="152.5" cy="46.5" r="16.1"/>
		<linearGradient id="SVGID_43_" gradientUnits="userSpaceOnUse" x1="145.1086" y1="31.7215" x2="159.7564" y2="61.1372">
			<stop  offset="0.4846" style="stop-color:#CC9434"/>
			<stop  offset="0.6795" style="stop-color:#FFEA72"/>
			<stop  offset="0.7638" style="stop-color:#FFE76C"/>
			<stop  offset="0.8718" style="stop-color:#FFDE5C"/>
			<stop  offset="0.9603" style="stop-color:#FFD44A"/>
		</linearGradient>
		<circle class="st43" cx="152.5" cy="46.5" r="16.1"/>
		<linearGradient id="SVGID_44_" gradientUnits="userSpaceOnUse" x1="162.2883" y1="35.6385" x2="141.2903" y2="58.7532">
			<stop  offset="0" style="stop-color:#FFE94A"/>
			<stop  offset="0.3381" style="stop-color:#FCDA34"/>
			<stop  offset="1" style="stop-color:#F5B400"/>
		</linearGradient>
		<circle class="st44" cx="152.5" cy="46.5" r="15.5"/>
		<path class="st4" d="M152.5,30.9c-8.6,0-15.5,7-15.5,15.5s7,15.5,15.5,15.5c8.6,0,15.5-7,15.5-15.5S161,30.9,152.5,30.9z
			 M152.5,61.7c-8.4,0-15.2-6.8-15.2-15.2c0-8.4,6.8-15.2,15.2-15.2c8.4,0,15.2,6.8,15.2,15.2C167.7,54.9,160.9,61.7,152.5,61.7z"/>
	</g>
	<g>
		<linearGradient id="SVGID_45_" gradientUnits="userSpaceOnUse" x1="164.2013" y1="33.0727" x2="146.5363" y2="55.9642">
			<stop  offset="0" style="stop-color:#FFDB56"/>
			<stop  offset="9.118795e-03" style="stop-color:#FFDA55"/>
			<stop  offset="0.6822" style="stop-color:#F39A2F"/>
			<stop  offset="1" style="stop-color:#EE8120"/>
		</linearGradient>
		<path class="st45" d="M157.2,48.6C157.2,48.6,157.2,48.6,157.2,48.6c-0.5,0-1-0.1-1.4-0.3c-0.6-0.3-1.3-0.9-1.5-1.7l0,0
			c0-1,0.6-1.8,1.2-2.3c0.3-0.3,0.6-0.5,1-0.6c2.2-0.7,3.7-2.9,3.3-5.4c-0.3-1.9-1.8-3.5-3.7-3.8c-3.1-0.6-5.7,1.7-5.7,4.7
			c0,1,0.3,1.9,0.8,2.7c0.3,0.5,0.5,1,0.5,1.6c0,0.6-0.2,1.3-0.7,1.9c-0.6,0.3-1.4,0.3-2,0.2c-0.5-0.1-1-0.4-1.4-0.8
			c-1.1-1.1-2.7-1.8-4.4-1.4c-1.9,0.3-3.4,1.9-3.8,3.7c-0.6,3.1,1.7,5.7,4.7,5.7c1.8,0,3.4-1,4.2-2.5c0.2-0.4,0.5-0.7,0.9-0.9
			c0.6-0.4,1.5-0.7,2.3-0.5l0,0c0.6,0.4,1,1,1.2,1.6c0.2,0.5,0.2,1.1,0,1.6c-0.2,0.5-0.2,1-0.2,1.6c0.1,2.5,2.2,4.6,4.8,4.6
			c2.6,0,4.8-2.1,4.8-4.8C162,50.8,159.8,48.6,157.2,48.6z"/>
		<linearGradient id="SVGID_46_" gradientUnits="userSpaceOnUse" x1="162.2383" y1="36.5622" x2="151.4008" y2="49.6032">
			<stop  offset="0" style="stop-color:#FFF84A"/>
			<stop  offset="1" style="stop-color:#FFEC38"/>
		</linearGradient>
		<path class="st46" d="M157,48.6C157,48.6,157,48.6,157,48.6c-0.5,0-0.9-0.1-1.3-0.3c-0.6-0.3-1.2-0.9-1.5-1.7l0,0
			c0-0.9,0.6-1.7,1.1-2.2c0.3-0.3,0.6-0.5,1-0.6c2.1-0.6,3.6-2.8,3.2-5.2c-0.3-1.9-1.8-3.4-3.6-3.7c-3-0.6-5.6,1.7-5.6,4.5
			c0,1,0.3,1.9,0.8,2.6c0.3,0.5,0.5,1,0.5,1.5c0,0.6-0.2,1.3-0.7,1.8c-0.6,0.3-1.3,0.3-1.9,0.2c-0.5-0.1-1-0.4-1.3-0.8
			c-1-1.1-2.6-1.7-4.3-1.4c-1.8,0.3-3.3,1.8-3.6,3.6c-0.6,3,1.7,5.6,4.5,5.6c1.8,0,3.3-1,4.1-2.4c0.2-0.4,0.5-0.7,0.9-0.9
			c0.6-0.3,1.4-0.7,2.2-0.5l0,0c0.6,0.4,0.9,1,1.1,1.6c0.2,0.5,0.2,1,0,1.5c-0.1,0.5-0.2,1-0.2,1.5c0.1,2.4,2.2,4.5,4.6,4.5
			c2.6,0,4.6-2.1,4.6-4.6C161.6,50.6,159.6,48.6,157,48.6z"/>
	</g>
</g>
</svg>
