<?xml version="1.0" encoding="utf-8"?>
<!-- Generator: Adobe Illustrator 24.0.2, SVG Export Plug-In . SVG Version: 6.00 Build 0)  -->
<svg version="1.1" id="OBJECTS" xmlns="http://www.w3.org/2000/svg" xmlns:xlink="http://www.w3.org/1999/xlink" x="0px" y="0px"
	 viewBox="0 0 311 322.1" style="enable-background:new 0 0 311 322.1;" xml:space="preserve">
<style type="text/css">
	.st0{fill:url(#SVGID_1_);}
	.st1{opacity:0.3;fill:url(#SVGID_2_);}
	.st2{opacity:0.3;fill:url(#SVGID_3_);}
</style>
<linearGradient id="SVGID_1_" gradientUnits="userSpaceOnUse" x1="-4.1429" y1="269.5294" x2="212.7499" y2="52.6366" gradientTransform="matrix(1 0 -0.1763 1 30.3395 0)">
	<stop  offset="0" style="stop-color:#631EBD"/>
	<stop  offset="1" style="stop-color:#E8008B"/>
</linearGradient>
<path class="st0" d="M291.8,126.3L106,6.8c-24.9-16-58-1.5-63.2,27.6L0.7,273.4c-6,33.9,29.5,59.8,60,43.9l228-119.5
	C316.8,183,318.5,143.4,291.8,126.3z"/>
<linearGradient id="SVGID_2_" gradientUnits="userSpaceOnUse" x1="74.9494" y1="202.9115" x2="222.4044" y2="55.4565">
	<stop  offset="0" style="stop-color:#FAFAFA"/>
	<stop  offset="1" style="stop-color:#FAFAFA;stop-opacity:0"/>
</linearGradient>
<path class="st1" d="M291.8,126.3L106,6.8c-24.9-16-58-1.5-63.2,27.6L22.4,150.3c23.6-12.5,51.6-17.8,76.6-8.9
	c16.9,6.1,31,18,46,27.9c38.7,25.7,86.6,38.5,132.6,31.6c2.5-0.4,5-0.8,7.5-1.3l3.7-1.9C316.8,183,318.5,143.4,291.8,126.3z"/>
<linearGradient id="SVGID_3_" gradientUnits="userSpaceOnUse" x1="34.3393" y1="94.7911" x2="310.7975" y2="94.7911">
	<stop  offset="0" style="stop-color:#FAFAFA"/>
	<stop  offset="1" style="stop-color:#FAFAFA;stop-opacity:0"/>
</linearGradient>
<path class="st2" d="M291.8,126.3L106,6.8c-24.9-16-58-1.5-63.2,27.6l-8.5,47.9c19.2-4.8,39.7-4,57.1,5.1
	c32.9,17.2,46.3,57.6,75.1,80.9c26.9,21.8,65.5,25.9,98.5,15.6c16.6-5.2,32-13.7,45.8-24.3C310.4,146.9,304.1,134.2,291.8,126.3z"/>
</svg>
