<?xml version="1.0" encoding="utf-8"?>
<!-- Generator: Adobe Illustrator 24.0.2, SVG Export Plug-In . SVG Version: 6.00 Build 0)  -->
<svg version="1.1" id="Layer_1" xmlns="http://www.w3.org/2000/svg" xmlns:xlink="http://www.w3.org/1999/xlink" x="0px" y="0px"
	 viewBox="0 0 136.8 128.2" style="enable-background:new 0 0 136.8 128.2;" xml:space="preserve">
<style type="text/css">
	.st0{fill:url(#SVGID_1_);}
	.st1{fill:url(#SVGID_2_);}
	.st2{fill:url(#SVGID_3_);}
	.st3{fill:url(#SVGID_4_);}
	.st4{fill:#100142;}
	.st5{fill:#658791;}
	.st6{fill:#374059;}
</style>
<g>
	<linearGradient id="SVGID_1_" gradientUnits="userSpaceOnUse" x1="13.6289" y1="54.054" x2="20.018" y2="63.4379">
		<stop  offset="0" style="stop-color:#A2BDCA"/>
		<stop  offset="1" style="stop-color:#7A97AF"/>
	</linearGradient>
	<path class="st0" d="M34.6,33.1c0,0-38.9,32.5-34,59.5c0,0,20.1-32.3,43.2-51.9L34.6,33.1z"/>
	<linearGradient id="SVGID_2_" gradientUnits="userSpaceOnUse" x1="13.6288" y1="54.054" x2="20.0178" y2="63.4379">
		<stop  offset="0" style="stop-color:#A7ABC7"/>
		<stop  offset="1" style="stop-color:#8288AF"/>
	</linearGradient>
	<path class="st1" d="M34.6,33.1C34.6,33.1,34.6,33.1,34.6,33.1l7.3,6.1C22.5,55.6,5.3,80.9,0.2,88.7c0,1.3,0.1,2.6,0.4,3.9
		c0,0,20.1-32.3,43.2-51.9L34.6,33.1z"/>
	<linearGradient id="SVGID_3_" gradientUnits="userSpaceOnUse" x1="64.6756" y1="7.779" x2="67.4707" y2="18.9597">
		<stop  offset="0" style="stop-color:#A2BDCA"/>
		<stop  offset="1" style="stop-color:#7A97AF"/>
	</linearGradient>
	<path class="st2" d="M42.8,25.1c0,0,26.3-23.7,35.9-24.9c8.1-1,10.7,1.9,10.7,1.9S59.4,24.2,50.6,32.7L42.8,25.1z"/>
	<linearGradient id="SVGID_4_" gradientUnits="userSpaceOnUse" x1="65.2576" y1="10.1072" x2="67.7299" y2="19.9964">
		<stop  offset="0" style="stop-color:#A7ABC7"/>
		<stop  offset="1" style="stop-color:#8288AF"/>
	</linearGradient>
	<path class="st3" d="M87.4,0.9c-5.2,3.9-30,22.2-37.9,29.9l-6.2-6.1c-0.3,0.3-0.5,0.5-0.5,0.5l7.8,7.6c8.8-8.5,38.9-30.6,38.9-30.6
		S88.9,1.5,87.4,0.9z"/>
	<path class="st4" d="M135.2,126.7L135.2,126.7c-2,2-5.2,1.9-7.1,0L46.4,43.2l7.1-7l81.7,83.5C137.2,121.7,137.1,124.8,135.2,126.7z
		"/>
	<polygon class="st5" points="58.3,35.6 39.4,16.3 27.2,28.6 46,47.8 	"/>
	<polygon class="st6" points="34.7,24.6 30.4,28.9 45.7,44.6 50.1,40.3 	"/>
	<polygon class="st6" points="40,19.2 35.6,23.5 51,39.2 55.4,34.9 	"/>
</g>
</svg>
