<?xml version="1.0" encoding="utf-8"?>
<!-- Generator: Adobe Illustrator 24.0.2, SVG Export Plug-In . SVG Version: 6.00 Build 0)  -->
<svg version="1.1" id="Layer_1" xmlns="http://www.w3.org/2000/svg" xmlns:xlink="http://www.w3.org/1999/xlink" x="0px" y="0px"
	 viewBox="0 0 441.1 345.8" style="enable-background:new 0 0 441.1 345.8;" xml:space="preserve">
<style type="text/css">
	.st0{fill:#F5AA8D;}
	.st1{fill:#CA5645;}
	.st2{fill:#100142;}
	.st3{fill:url(#SVGID_1_);}
	.st4{fill:#E37C58;}
	.st5{fill:url(#SVGID_2_);}
	.st6{opacity:0.32;fill:url(#SVGID_3_);}
	.st7{fill:url(#SVGID_4_);}
	.st8{opacity:0.32;fill:url(#SVGID_5_);}
	.st9{opacity:0.32;fill:url(#SVGID_6_);}
	.st10{fill:url(#SVGID_7_);}
	.st11{opacity:0.32;fill:url(#SVGID_8_);}
	.st12{opacity:0.32;fill:url(#SVGID_9_);}
	.st13{opacity:0.75;fill:url(#SVGID_10_);}
	.st14{fill:url(#SVGID_11_);}
	.st15{fill:url(#SVGID_12_);}
	.st16{opacity:0.32;fill:url(#SVGID_13_);}
	.st17{fill:url(#SVGID_14_);}
	.st18{fill:url(#SVGID_15_);}
	.st19{filter:url(#Adobe_OpacityMaskFilter);}
	.st20{fill:url(#SVGID_17_);}
	.st21{mask:url(#SVGID_16_);fill:url(#SVGID_18_);}
</style>
<g>
	<g>
		<path class="st0" d="M173.6,83.3c0,0-4.7,22.1,2.8,32c7.5,9.9,5.2,48-15.9,50.1c-21.1,2.2-30.6-49.3-30.6-49.3
			s23.1-29.8,23.7-53.9C153.4,62.1,168.8,81.5,173.6,83.3z"/>
		<path class="st1" d="M150.6,103.1c2.4-12.7,2-25.5,5.2-38c-1.5-1.8-2.4-2.9-2.4-2.9c-0.6,24.1-23.7,53.9-23.7,53.9s1,5.7,4.8,11
			C141.1,119.7,148.8,112.9,150.6,103.1z"/>
		<path class="st1" d="M172.7,88.5c-3.6-8-11.7-19-16-16.1c0,0-5.6,24.4,17,37.7c0,0,0,0,0,0C171.5,103.2,172,94.2,172.7,88.5z"/>
		<path class="st0" d="M208.5,54.8c0,0-2.3,26.6-9.1,36.5c-6.8,9.8-14.2,16.1-28.4,6.6c-12.4-8.3-16.7-17.4-19.2-25.1
			c0,0-6.3-5.4-8.2-11.6c-2.6-8.4,3-14,6.9-13.3c0,0,7.9,0.7,7.9,10.4c0,9.7-1-30.6,1.9-34.1c1.9-2.2,12.3,0.7,24.8,5.4
			C185.1,29.5,216.6,31.4,208.5,54.8z"/>
		<g>
			<path class="st2" d="M201.9,67.4c0,1.2-1.1,2.2-2.5,2.2c-1.4,0-2.5-1-2.5-2.2s1.1-2.2,2.5-2.2C200.8,65.3,201.9,66.2,201.9,67.4z
				"/>
		</g>
		<g>
			<path class="st2" d="M182.3,65.3c0,1.3-1.2,2.3-2.7,2.3c-1.5,0-2.7-1-2.7-2.3c0-1.3,1.2-2.3,2.7-2.3
				C181.1,62.9,182.3,64,182.3,65.3z"/>
		</g>
		<g>
			<linearGradient id="SVGID_1_" gradientUnits="userSpaceOnUse" x1="191.4412" y1="87.4043" x2="181.7851" y2="88.1691">
				<stop  offset="0" style="stop-color:#FC5653"/>
				<stop  offset="1" style="stop-color:#FC0053"/>
			</linearGradient>
			<path class="st3" d="M186.6,90.2c-1.6-0.2-3.5-1-5.4-3.5c-0.2-0.3-0.2-0.7,0.1-1c0.3-0.2,0.7-0.2,1,0.1c3.6,4.6,6.9,2.5,7,2.5
				c0.3-0.2,0.7-0.1,1,0.2c0.2,0.3,0.1,0.7-0.2,1C190,89.5,188.6,90.4,186.6,90.2z"/>
		</g>
		<g>
			<path class="st2" d="M175.8,59c-0.3,0-0.5-0.2-0.6-0.4c-0.1-0.4,0-0.8,0.4-0.9c0.2-0.1,4.9-1.8,9.6,0.4c0.3,0.2,0.5,0.6,0.3,0.9
				c-0.2,0.3-0.6,0.5-0.9,0.3c-4.2-2-8.5-0.4-8.6-0.4C176.1,59,175.9,59,175.8,59z"/>
		</g>
		<g>
			<path class="st2" d="M204.5,63.2c-0.2,0-0.3-0.1-0.4-0.2c-2.4-2.6-6.4-1.6-6.4-1.6c-0.4,0.1-0.7-0.1-0.8-0.5
				c-0.1-0.4,0.1-0.7,0.5-0.8c0.2,0,4.8-1.2,7.8,2c0.3,0.3,0.2,0.7,0,1C204.9,63.2,204.7,63.2,204.5,63.2z"/>
		</g>
		<path class="st1" d="M148.1,55c0,0,3.1-0.8,5,0.9c1.2,1.1,2.4,4.3,0.1,6.8c-1,1-4.2,1.1-3.1-2.9C150.6,57.5,150.2,56.5,148.1,55z"
			/>
		<g>
			<path class="st4" d="M188.4,82.7c-0.1,0-0.2,0-0.3,0c-0.4-0.1-0.7-0.4-0.7-0.8c0.1-0.4,0.5-0.7,0.9-0.6c1.6,0.2,2.8,0.1,3.2-0.3
				c0.6-0.7-0.1-2.6-0.7-4c-0.2-0.5-0.4-1-0.6-1.5c-0.8-2.6-0.1-8.2-0.1-8.4c0.1-0.4,0.5-0.7,0.9-0.6c0.4,0.1,0.8,0.4,0.7,0.8
				c0,0.1-0.7,5.6,0,7.9c0.1,0.4,0.3,0.8,0.5,1.3c0.8,1.8,1.7,4,0.5,5.4C192,82.7,190.6,83,188.4,82.7z"/>
		</g>
		<linearGradient id="SVGID_2_" gradientUnits="userSpaceOnUse" x1="244.2596" y1="179.6176" x2="208.1773" y2="245.9454">
			<stop  offset="0" style="stop-color:#9FCEF7"/>
			<stop  offset="1" style="stop-color:#4D7AE7"/>
		</linearGradient>
		<path class="st5" d="M196,128.8l10.1,3.4c5.5,7.4,11.3,22.7,14.1,43.1c4.7,34.7,7.1,35.9,9.9,38.7c2.8,2.8,56.9,15.9,56.9,15.9
			l-2.8,16.1c0,0-69.1-5.1-75.6-5.9c-6.5-0.8-24.3-46.2-23.9-64.4C185,157.5,196,128.8,196,128.8z"/>
		<linearGradient id="SVGID_3_" gradientUnits="userSpaceOnUse" x1="184.6182" y1="190.4685" x2="285.3038" y2="190.4685">
			<stop  offset="0" style="stop-color:#001B83"/>
			<stop  offset="0.9947" style="stop-color:#272283"/>
		</linearGradient>
		<path class="st6" d="M278.6,239.1c-8.1-0.8-15.8-2.6-23.7-4.4c-10.7-2.4-21.7-2.4-32.3-5.8c-13.8-4.5-18.4-23.5-15.8-35.8
			c0.2-0.9,1.9-12.6-4-29.3c-1.5-4.3-4-8.7-4.9-13.3c-1-5.2-2.6-10.4-3.1-15.5c-4,10.9-10,28.8-10.2,40.7
			c-0.4,18.2,17.4,63.6,23.9,64.4c6.5,0.8,75.6,5.9,75.6,5.9l1.2-6.9C283.1,239.3,280.9,239.3,278.6,239.1z"/>
		<linearGradient id="SVGID_4_" gradientUnits="userSpaceOnUse" x1="169.1963" y1="128.8009" x2="120.9097" y2="250.8442">
			<stop  offset="0" style="stop-color:#9FCEF7"/>
			<stop  offset="1" style="stop-color:#4D7AE7"/>
		</linearGradient>
		<path class="st7" d="M206.1,132.2c0,0-17.6-10.4-31.2-19.4l-0.2,0.3c-4.5,7.6-13,10.5-20.6,8.6c-13.4-3.3-18.4-15-18.4-15
			l-43.2,18c0,0,15.6,27.6,6.9,71.8c-8.7,44.2-12.6,59.2-12.6,59.2h110.6c0,0-5.5-38.3-5-59.9C192.8,174.3,193.3,154.6,206.1,132.2z
			"/>
		<linearGradient id="SVGID_5_" gradientUnits="userSpaceOnUse" x1="86.7071" y1="186.0307" x2="133.3004" y2="186.0307">
			<stop  offset="0" style="stop-color:#001B83"/>
			<stop  offset="0.9947" style="stop-color:#272283"/>
		</linearGradient>
		<path class="st8" d="M125.9,225.3c-3.6-5.1-9.2-11.2-9.6-17.9c-0.5-7.4,1.5-13.7,5.7-19.9c3.1-4.6,8.3-10.6,9.1-16.1
			c1.7-11.6-5.8-18.1-11.7-25.6c-7.3-9.4-7.7-19.3-6.4-29.5l-20.5,8.5c0,0,15.6,27.6,6.9,71.8c-8.7,44.2-12.6,59.2-12.6,59.2h46.6
			c-0.2-0.5-0.4-1-0.6-1.5C129.4,244.4,132.6,234.9,125.9,225.3z"/>
		<linearGradient id="SVGID_6_" gradientUnits="userSpaceOnUse" x1="170.8543" y1="203.2695" x2="197.9063" y2="203.2695">
			<stop  offset="0" style="stop-color:#001B83"/>
			<stop  offset="0.9947" style="stop-color:#272283"/>
		</linearGradient>
		<path class="st9" d="M192.3,195.9c0.4-15.5,0.8-30,5.6-45.2c-2.6,3-6.3,6.6-9.1,17.5c-3.2,12.5,2.8,31.4-4.1,42.8
			c-3.3,5.4-8.4,9.7-11.6,15.1c-5.8,9.8,1.2,13,2.7,21.9c0.5,2.9,0.4,5.5-0.1,7.9h21.5C197.3,255.8,191.7,217.5,192.3,195.9z"/>
		<path class="st0" d="M194.5,233.5c0,0,14.6,1.2,23.7,0c9.1-1.2,12.8-6.3,19-2c6.1,4.3,21.7,6.5,20.5,12.4
			c-1.2,5.9-16.6,5.3-23.1,4.5c-2.6-0.3-8.3-5.9-15.1-4.9c-10,1.6-25.3,6-32.5,2.6C168.9,237.6,194.5,233.5,194.5,233.5z"/>
		<linearGradient id="SVGID_7_" gradientUnits="userSpaceOnUse" x1="135.6769" y1="195.1419" x2="83.1454" y2="267.3065">
			<stop  offset="0" style="stop-color:#9FCEF7"/>
			<stop  offset="1" style="stop-color:#4D7AE7"/>
		</linearGradient>
		<path class="st10" d="M198.8,229.8l-2.8,16.6c0,0-85.4,6.3-120.1,0c-34.7-6.3-34.4-9.2-31.6-23.7c2.8-14.5,27-86.3,48.1-98
			c0,0,17.7,21.7,9.2,61.7c-1.3,6.3-12.8,25-12.1,26.8C91.5,218,168.3,224.6,198.8,229.8z"/>
		<linearGradient id="SVGID_8_" gradientUnits="userSpaceOnUse" x1="109.318" y1="174.2466" x2="85.9641" y2="209.012">
			<stop  offset="0" style="stop-color:#001B83"/>
			<stop  offset="0.9947" style="stop-color:#272283"/>
		</linearGradient>
		<path class="st11" d="M90.3,215.1c0.6-0.1,1.2-0.2,1.8-0.4c-1.4-0.5-2.3-1-2.5-1.4c-0.7-1.7,10.8-20.5,12.1-26.8
			c1.4-6.8,2.1-13.1,2.1-19c-0.5,1.3-1,2.6-1.7,3.9c-5.5,10.5-13.4,21.1-16,32.9C85.4,207.8,82.1,216.6,90.3,215.1z"/>
		<linearGradient id="SVGID_9_" gradientUnits="userSpaceOnUse" x1="43.1887" y1="187.0045" x2="196.449" y2="187.0045">
			<stop  offset="0" style="stop-color:#001B83"/>
			<stop  offset="0.9947" style="stop-color:#272283"/>
		</linearGradient>
		<path class="st12" d="M192.6,243.8c-3.3-0.2-8.6-2.8-11.4-4.4c-10.5-6.2-18.6-6.9-30-4c-5.6,1.4-11.8,3.4-17.7,2.6
			c-6.6-0.9-12.4-4.4-18.8-5.3c-11-1.6-23.4,4.1-34.3,0.8c-16.2-4.9-18.8-26.7-12.6-40.7c4.7-10.7,12.9-17.6,20.4-26.3
			c5-5.7,10.4-12.7,12.3-20.2c0.2-0.9,0.4-1.7,0.5-2.6c-3.8-14.5-8.6-18.9-8.6-18.9c-21.2,11.6-45.4,83.5-48.1,98
			c-2.8,14.5-3.2,17.4,31.6,23.7c34.7,6.3,120.1,0,120.1,0l0.4-2.6C195.1,243.9,193.8,243.9,192.6,243.8z"/>
		<rect x="26.2" y="271.8" class="st2" width="392" height="74"/>
		<linearGradient id="SVGID_10_" gradientUnits="userSpaceOnUse" x1="429.6269" y1="332.1663" x2="35.992" y2="287.8134">
			<stop  offset="0" style="stop-color:#232350"/>
			<stop  offset="1" style="stop-color:#17256E"/>
		</linearGradient>
		<polygon class="st13" points="59.4,294.7 418.2,294.7 418.2,271.8 26.2,271.8 26.2,345.8 		"/>
		<rect x="0.1" y="255.8" class="st2" width="440.9" height="18.6"/>
		<g>
			<path class="st0" d="M283.7,230.5c0,0,18.6-1.6,24.5,0c5.9,1.6,20.9,6.7,15.8,11.4c-5.1,4.7-39.1-1.9-40.3-1.6
				C278.2,242,283.7,230.5,283.7,230.5z"/>
			<linearGradient id="SVGID_11_" gradientUnits="userSpaceOnUse" x1="399.0168" y1="249.7557" x2="257.6328" y2="249.7557">
				<stop  offset="0" style="stop-color:#F83BB0"/>
				<stop  offset="0.5241" style="stop-color:#3B9EF4"/>
				<stop  offset="1" style="stop-color:#1E30DD"/>
			</linearGradient>
			<rect x="255.3" y="243.7" class="st14" width="133.1" height="12.1"/>
			<rect x="255.3" y="243.7" class="st2" width="133.1" height="2.5"/>
			<rect x="198.8" y="243.7" class="st2" width="57.6" height="12.1"/>
			<linearGradient id="SVGID_12_" gradientUnits="userSpaceOnUse" x1="409.4453" y1="177.7978" x2="270.4562" y2="239.3428">
				<stop  offset="0" style="stop-color:#F83BB0"/>
				<stop  offset="0.5241" style="stop-color:#3B9EF4"/>
				<stop  offset="1" style="stop-color:#1E30DD"/>
			</linearGradient>
			<path class="st15" d="M290.4,175.1L258,237.9c-1.4,2.7,0.6,5.8,3.6,5.8h125.6c1.5,0,2.9-0.8,3.6-2.2l32.5-62.8
				c1.4-2.7-0.6-5.8-3.6-5.8H294C292.5,172.9,291.1,173.7,290.4,175.1z"/>
			<linearGradient id="SVGID_13_" gradientUnits="userSpaceOnUse" x1="412.1677" y1="183.946" x2="273.179" y2="245.4909">
				<stop  offset="0" style="stop-color:#9300C2"/>
				<stop  offset="0.4064" style="stop-color:#5600B9"/>
				<stop  offset="1" style="stop-color:#4000A3"/>
			</linearGradient>
			<path class="st16" d="M395.6,223.3c-17.8,1.8-36.2,2.8-54.1,1.3c-23.9-2.1-44.1-14.8-60.3-31.7l-23.2,45
				c-1.4,2.7,0.6,5.8,3.6,5.8h125.6c1.5,0,2.9-0.8,3.6-2.2l9.7-18.8C398.8,222.9,397.2,223.2,395.6,223.3z"/>
			<path class="st2" d="M262.4,237.9l32.5-62.8c0.7-1.3,2.1-2.2,3.6-2.2H294c-1.5,0-2.9,0.8-3.6,2.2L258,237.9
				c-1.4,2.7,0.6,5.8,3.6,5.8h4.5C263,243.7,261.1,240.5,262.4,237.9z"/>
			<g>
				<linearGradient id="SVGID_14_" gradientUnits="userSpaceOnUse" x1="336.5069" y1="209.4673" x2="352.0005" y2="209.4673">
					<stop  offset="0" style="stop-color:#FFF84A"/>
					<stop  offset="1" style="stop-color:#FFEC38"/>
				</linearGradient>
				<path class="st17" d="M348.7,210.7L348.7,210.7c1.2-0.1,2.4-0.5,3.1-2.3c0.7-1.8-0.4-3.5-2.2-4l0,0l0.6-1.7l-2.9-0.8l-0.6,1.7
					l-1.2-0.3l0.6-1.7l-2.8-0.7l-0.6,1.6l-0.5-0.1l-0.4-0.1l-1.2-0.3l-1,2.7l1.2,0.3l-2.3,6.3l-1.1-0.4l-0.9,2.6l1.1,0.4l0.4,0.1
					l0.5,0.2l-0.6,1.5l2.6,0.9l0.6-1.5l1.1,0.4l-0.6,1.5l2.7,0.9l0.6-1.6l0.1,0c1.9,0.6,3.9-0.2,4.6-2.1
					C350.5,212.5,349.8,211.3,348.7,210.7z M347.1,206.7c0.5,0.1,0.7,0.7,0.5,1.2l-0.1,0.2c-0.2,0.5-0.7,0.8-1.2,0.7l-2.6-0.7l0.7-2
					L347.1,206.7z M342.1,212.5l0.7-2l2.8,0.8c0.5,0.1,0.7,0.7,0.5,1.2l-0.1,0.2c-0.2,0.5-0.7,0.8-1.2,0.7L342.1,212.5z"/>
				<g>
					<linearGradient id="SVGID_15_" gradientUnits="userSpaceOnUse" x1="331.6354" y1="209.4593" x2="358.2521" y2="209.4593">
						<stop  offset="0" style="stop-color:#FFF84A"/>
						<stop  offset="1" style="stop-color:#FFEC38"/>
					</linearGradient>
					<path class="st18" d="M336.9,220.1c-5.5-3.7-6.9-11.1-3.3-16.9c3.8-6.1,12-8.5,18.3-5c6.6,3.7,8.3,12.1,3.5,18.4
						C351,222.6,342.7,224,336.9,220.1z M350.5,200.4c-5.1-2.9-11.8-1-15,4c-3.1,4.8-1.9,10.9,2.7,13.9c4.7,3.1,11.6,1.9,15.2-3
						C357.2,210.2,355.9,203.4,350.5,200.4z"/>
				</g>
			</g>
		</g>
		<path class="st2" d="M201.9,11.6c-11.5-8.9-26.2-12.3-34.2-10.9c-12.7,2.2-17.2,14.3-17.2,14.3c-6.3-1.8-14.6,5-15.6,21.9
			c-1.3,21.2,10.8,34,15.1,42.6c0,0,1.3-3.7,2.2-7.2c0-0.2-7.7-10.5-8-15.4c-0.2-5.6,6.7-7.9,9.4-5c4.6,5,2.5,9.6,4.2,14.7
			c0.7,2.6,5.9,4.2,6.6,0c-1.5-6.4-0.3-14,1.6-17.6c3.3-6.3,1.8-15,1.8-15c22.7,18.4,20.3,2.2,32.1,7.1c11.7,4.9,8.5,14.6,8.5,14.6
			C218,47.9,225.5,29.9,201.9,11.6z"/>
	</g>
	<g>
		<defs>
			<filter id="Adobe_OpacityMaskFilter" filterUnits="userSpaceOnUse" x="323.4" y="174.6" width="63.4" height="60.2">
				<feColorMatrix  type="matrix" values="1 0 0 0 0  0 1 0 0 0  0 0 1 0 0  0 0 0 1 0"/>
			</filter>
		</defs>
		<mask maskUnits="userSpaceOnUse" x="323.4" y="174.6" width="63.4" height="60.2" id="SVGID_16_">
			<g class="st19">
				
					<radialGradient id="SVGID_17_" cx="67.2918" cy="265.2406" r="30.9099" gradientTransform="matrix(0.8714 0.4906 -0.4906 0.8714 426.6046 -59.4429)" gradientUnits="userSpaceOnUse">
					<stop  offset="0" style="stop-color:#FFFFFF"/>
					<stop  offset="0.2113" style="stop-color:#C4C4C4"/>
					<stop  offset="0.6019" style="stop-color:#5C5C5C"/>
					<stop  offset="0.8731" style="stop-color:#1A1A1A"/>
					<stop  offset="1" style="stop-color:#000000"/>
				</radialGradient>
				<path class="st20" d="M383.4,220.6c-7.9,14.1-27,18.4-42.6,9.6c-15.6-8.8-21.8-27.3-13.9-41.5c7.9-14.1,27-18.4,42.6-9.6
					C385.1,187.9,391.3,206.5,383.4,220.6z"/>
			</g>
		</mask>
		
			<radialGradient id="SVGID_18_" cx="67.2918" cy="265.2406" r="30.9099" gradientTransform="matrix(0.8714 0.4906 -0.4906 0.8714 426.6046 -59.4429)" gradientUnits="userSpaceOnUse">
			<stop  offset="0" style="stop-color:#A9F5FF"/>
			<stop  offset="0.6535" style="stop-color:#70DFF7"/>
			<stop  offset="1" style="stop-color:#56D5F4"/>
		</radialGradient>
		<path class="st21" d="M383.4,220.6c-7.9,14.1-27,18.4-42.6,9.6c-15.6-8.8-21.8-27.3-13.9-41.5c7.9-14.1,27-18.4,42.6-9.6
			C385.1,187.9,391.3,206.5,383.4,220.6z"/>
	</g>
</g>
</svg>
