<?xml version="1.0" encoding="utf-8"?>
<!-- Generator: Adobe Illustrator 24.0.2, SVG Export Plug-In . SVG Version: 6.00 Build 0)  -->
<svg version="1.1" id="Layer_1" xmlns="http://www.w3.org/2000/svg" xmlns:xlink="http://www.w3.org/1999/xlink" x="0px" y="0px"
	 viewBox="0 0 111.3 103.2" style="enable-background:new 0 0 111.3 103.2;" xml:space="preserve">
<style type="text/css">
	.st0{fill:url(#SVGID_1_);}
	.st1{fill:url(#SVGID_2_);}
	.st2{fill:url(#SVGID_3_);}
	.st3{fill:url(#SVGID_4_);}
	.st4{fill:url(#SVGID_5_);}
	.st5{fill:url(#SVGID_6_);}
	.st6{fill:url(#SVGID_7_);}
	.st7{fill:url(#SVGID_8_);}
	.st8{opacity:0.75;fill:url(#SVGID_9_);}
	.st9{opacity:0.32;fill:url(#SVGID_10_);}
	.st10{fill:url(#SVGID_11_);}
	.st11{fill:#D26D02;}
	.st12{fill:url(#SVGID_12_);}
	.st13{fill:url(#SVGID_13_);}
	.st14{fill:url(#SVGID_14_);}
	.st15{opacity:0.75;fill:url(#SVGID_15_);}
	.st16{opacity:0.32;fill:url(#SVGID_16_);}
	.st17{fill:url(#SVGID_17_);}
	.st18{fill:url(#SVGID_18_);}
	.st19{fill:url(#SVGID_19_);}
	.st20{fill:url(#SVGID_20_);}
	.st21{opacity:0.75;fill:url(#SVGID_21_);}
	.st22{opacity:0.32;fill:url(#SVGID_22_);}
	.st23{fill:url(#SVGID_23_);}
	.st24{fill:url(#SVGID_24_);}
	.st25{fill:url(#SVGID_25_);}
	.st26{fill:url(#SVGID_26_);}
	.st27{opacity:0.75;fill:url(#SVGID_27_);}
	.st28{opacity:0.32;fill:url(#SVGID_28_);}
	.st29{fill:url(#SVGID_29_);}
	.st30{fill:url(#SVGID_30_);}
	.st31{fill:url(#SVGID_31_);}
</style>
<g>
	<linearGradient id="SVGID_1_" gradientUnits="userSpaceOnUse" x1="91.7932" y1="35.8642" x2="-14.9208" y2="268.2134">
		<stop  offset="0" style="stop-color:#F9C359"/>
		<stop  offset="1" style="stop-color:#28B4AC"/>
	</linearGradient>
	<path class="st0" d="M78.8,58.3c1.4-0.4,3-0.6,4.5-0.4c0.7,1.2,0.7,2.8,0.2,4.1c-0.5,1.3-1.4,2.5-2.3,3.6c-1.3,1.6-2.9,3.1-4.8,3.7
		c0.8-0.4,0.9-1.4,0.9-2.2c0-2.2,0-4.4-0.1-6.6c0-0.4,0-0.8,0.2-1.1C77.6,58.8,78.2,58.5,78.8,58.3z"/>
	<linearGradient id="SVGID_2_" gradientUnits="userSpaceOnUse" x1="69.3788" y1="25.5696" x2="-37.335" y2="257.9185">
		<stop  offset="0" style="stop-color:#F9C359"/>
		<stop  offset="1" style="stop-color:#28B4AC"/>
	</linearGradient>
	<path class="st1" d="M58.4,40.2c-0.3-0.7-0.5-1.3-0.5-2c0-1.7,1.4-2.9,2.8-4c1.4-1.1,3-2.2,4.7-2.2c1,1.7,0.8,3.7,0.6,5.7
		c-0.4,3.9-1,7.8-1.7,11.7c-2.4-0.8-3.6-3.3-4.5-5.7C59.4,42.6,58.9,41.4,58.4,40.2z"/>
	<linearGradient id="SVGID_3_" gradientUnits="userSpaceOnUse" x1="54.1493" y1="18.5747" x2="-52.5651" y2="250.9249">
		<stop  offset="0" style="stop-color:#F9C359"/>
		<stop  offset="1" style="stop-color:#28B4AC"/>
	</linearGradient>
	<path class="st2" d="M35.9,46.5c-0.5-1.1-0.3-2.5,0.3-3.6c0.6-1.1,1.5-2,2.5-2.7c0.4-0.3,0.9-0.6,1.4-0.5c0.6,0.1,1,0.7,1.3,1.3
		c1.9,3.3,3.8,6.7,4.5,10.4c-2.3-0.4-4.5-1.1-6.6-2C37.9,48.7,36.5,47.9,35.9,46.5z"/>
	<linearGradient id="SVGID_4_" gradientUnits="userSpaceOnUse" x1="64.5806" y1="23.3651" x2="-42.1346" y2="255.717">
		<stop  offset="0" style="stop-color:#F9C359"/>
		<stop  offset="1" style="stop-color:#28B4AC"/>
	</linearGradient>
	<path class="st3" d="M30.8,82.9c0,0.8,0.1,1.6,0.5,2.2c0.5,0.6,1.3,0.9,2.1,1.1c3.4,0.7,7,0.2,10.2-1.2c0.3-0.1,0.6-0.3,0.7-0.5
		c0.3-0.4,0.1-1-0.3-1.4c-0.4-0.4-0.9-0.5-1.3-0.7c-2.8-1-5.5-2.4-8-4c-0.6-0.4-1.3-0.9-2.1-0.7c-0.7,0.1-1.2,0.8-1.5,1.4
		C30.7,80.2,30.7,81.6,30.8,82.9z"/>
	<linearGradient id="SVGID_5_" gradientUnits="userSpaceOnUse" x1="48.941" y1="12.4524" x2="-61.4925" y2="252.9001">
		<stop  offset="0" style="stop-color:#F9C359"/>
		<stop  offset="1" style="stop-color:#28B4AC"/>
	</linearGradient>
	<path class="st4" d="M2.9,101.9c0.8,0.8,2.2,0.9,3.4,0.8c3.9-0.5,7.4-2.6,10.8-4.7c1.1-0.7,2.3-1.7,1.7-3c-1.3-0.5-2-0.8-3.3-1.3
		c-2.8,1-5.8-1-8.9-0.8c-1.3,0.1-2.6,0.5-3.4,1.6c-0.8,1.1-1,2.5-1,3.9C2,99.6,2,101,2.9,101.9z"/>
	<linearGradient id="SVGID_6_" gradientUnits="userSpaceOnUse" x1="53.4505" y1="18.2538" x2="-53.2638" y2="250.6038">
		<stop  offset="0" style="stop-color:#F9C359"/>
		<stop  offset="1" style="stop-color:#28B4AC"/>
	</linearGradient>
	<path class="st5" d="M57.1,0.2c-1.1,0.4-1.7,1.6-2,2.8c-1.1,3.8-0.5,7.8,0.1,11.7c0.2,1.1,0.5,2.4,1.5,2.7c1.8-2.3,3.5-4.7,5.3-7
		c0.8-1,1.6-2.1,2-3.3c0.5-1.2,0.5-2.6-0.1-3.8c-0.7-1.2-1.9-1.9-3.1-2.5C59.6,0.3,58.3-0.2,57.1,0.2z"/>
	<linearGradient id="SVGID_7_" gradientUnits="userSpaceOnUse" x1="66.5469" y1="24.2693" x2="-40.1665" y2="256.6173">
		<stop  offset="0" style="stop-color:#F9C359"/>
		<stop  offset="1" style="stop-color:#28B4AC"/>
	</linearGradient>
	<path class="st6" d="M27.7,102.9c0.8,0.6,2,0.1,2.9-0.4c2.8-1.7,5.5-3.3,7.9-5.5c0.6-0.6,1.2-1.3,1.1-2.1c-0.1-0.8-1-1.4-1.8-1.5
		c-0.8-0.1-1.7,0.1-2.5,0.2c-2.3,0.3-4.9,0-6.5,1.5c-1.5,1.3-1.6,3.6-1.7,5.6C27,101.4,27.1,102.4,27.7,102.9z"/>
</g>
<g>
	<g>
		
			<linearGradient id="SVGID_8_" gradientUnits="userSpaceOnUse" x1="-56.2368" y1="-96.4465" x2="-6.8305" y2="-96.4465" gradientTransform="matrix(0.4738 -0.1598 0.1598 0.4738 10.3892 12.4298)">
			<stop  offset="0" style="stop-color:#FFF84A"/>
			<stop  offset="1" style="stop-color:#FFEC38"/>
		</linearGradient>
		<path class="st7" d="M-8.3-32.2c2.2,6.5-1.3,13.5-7.8,15.7c-6.5,2.2-13.5-1.3-15.7-7.8c-2.2-6.5,1.3-13.5,7.8-15.7
			C-17.4-42.1-10.4-38.6-8.3-32.2z"/>
		
			<linearGradient id="SVGID_9_" gradientUnits="userSpaceOnUse" x1="-29.6893" y1="-19.2811" x2="-44.7723" y2="-7.1005" gradientTransform="matrix(0.9475 -0.3196 0.3196 0.9475 19.5203 -27.6154)">
			<stop  offset="0.4846" style="stop-color:#CC9434"/>
			<stop  offset="0.6795" style="stop-color:#FFEA72"/>
			<stop  offset="0.7638" style="stop-color:#FFE76C"/>
			<stop  offset="0.8718" style="stop-color:#FFDE5C"/>
			<stop  offset="0.9603" style="stop-color:#FFD44A"/>
		</linearGradient>
		<path class="st8" d="M-10.7-31.3c1.7,5.1-1,10.6-6.1,12.4c-5.1,1.7-10.6-1-12.4-6.1c-1.7-5.1,1-10.6,6.1-12.4
			C-18-39.2-12.4-36.5-10.7-31.3z"/>
		
			<linearGradient id="SVGID_10_" gradientUnits="userSpaceOnUse" x1="-41.6762" y1="-22.1511" x2="-32.7848" y2="-4.2953" gradientTransform="matrix(0.9475 -0.3196 0.3196 0.9475 19.5203 -27.6154)">
			<stop  offset="0.4846" style="stop-color:#CC9434"/>
			<stop  offset="0.6795" style="stop-color:#FFEA72"/>
			<stop  offset="0.7638" style="stop-color:#FFE76C"/>
			<stop  offset="0.8718" style="stop-color:#FFDE5C"/>
			<stop  offset="0.9603" style="stop-color:#FFD44A"/>
		</linearGradient>
		<path class="st9" d="M-10.7-31.3c1.7,5.1-1,10.6-6.1,12.4c-5.1,1.7-10.6-1-12.4-6.1c-1.7-5.1,1-10.6,6.1-12.4
			C-18-39.2-12.4-36.5-10.7-31.3z"/>
		
			<linearGradient id="SVGID_11_" gradientUnits="userSpaceOnUse" x1="-31.248" y1="-19.7734" x2="-43.994" y2="-5.7425" gradientTransform="matrix(0.9475 -0.3196 0.3196 0.9475 19.5203 -27.6154)">
			<stop  offset="0" style="stop-color:#FFE94A"/>
			<stop  offset="0.3381" style="stop-color:#FCDA34"/>
			<stop  offset="1" style="stop-color:#F5B400"/>
		</linearGradient>
		<path class="st10" d="M-11-31.2c1.7,4.9-1,10.3-5.9,12c-4.9,1.7-10.3-1-12-5.9c-1.7-4.9,1-10.3,5.9-12C-18-38.8-12.7-36.2-11-31.2
			z"/>
		<path class="st11" d="M-23-37.2c-4.9,1.7-7.6,7-5.9,12c1.7,4.9,7,7.6,12,5.9c4.9-1.7,7.6-7,5.9-12C-12.7-36.2-18-38.8-23-37.2z
			 M-17-19.5c-4.8,1.6-10.1-1-11.7-5.8c-1.6-4.8,1-10.1,5.8-11.7c4.8-1.6,10.1,1,11.7,5.8C-9.6-26.3-12.2-21.1-17-19.5z"/>
		<g>
			
				<linearGradient id="SVGID_12_" gradientUnits="userSpaceOnUse" x1="-31.5112" y1="-19.7278" x2="-42.3557" y2="-8.6777" gradientTransform="matrix(0.9475 -0.3196 0.3196 0.9475 19.5203 -27.6154)">
				<stop  offset="0" style="stop-color:#FFDB56"/>
				<stop  offset="9.118795e-03" style="stop-color:#FFDA55"/>
				<stop  offset="0.6822" style="stop-color:#F39A2F"/>
				<stop  offset="1" style="stop-color:#EE8120"/>
			</linearGradient>
			<path class="st12" d="M-17.1-29.3L-17.1-29.3c0.7-0.5,1.1-1.3,0.7-2.6c-0.4-1.3-1.8-1.8-3-1.4l0,0l-0.4-1.2l-2,0.7l0.4,1.2
				l-0.8,0.3l-0.4-1.2l-2,0.7l0.4,1.2l-0.4,0.1l-0.3,0.1l-0.9,0.3l0.7,2l0.9-0.3l1.6,4.7l-0.9,0.3l0.7,2l0.9-0.3l0.3-0.1l0.4-0.1
				l0.4,1.2l2-0.7l-0.4-1.2l0.8-0.3l0.4,1.2l2-0.7l-0.4-1.2l0.1,0c1.3-0.5,2.1-1.7,1.6-3.2C-15.3-29.1-16.2-29.4-17.1-29.3z
				 M-19.9-30.9c0.3-0.1,0.7,0.1,0.8,0.4l0,0.1c0.1,0.3,0,0.7-0.3,0.8l-1.7,0.6l-0.5-1.3L-19.9-30.9z M-20-25.7l-0.5-1.4l1.8-0.6
				c0.3-0.1,0.7,0.1,0.8,0.4l0,0.1c0.1,0.4,0,0.7-0.3,0.8L-20-25.7z"/>
			
				<linearGradient id="SVGID_13_" gradientUnits="userSpaceOnUse" x1="-34.5512" y1="-17.7489" x2="-41.1983" y2="-8.3949" gradientTransform="matrix(0.9475 -0.3196 0.3196 0.9475 19.5203 -27.6154)">
				<stop  offset="0" style="stop-color:#FFF84A"/>
				<stop  offset="1" style="stop-color:#FFEC38"/>
			</linearGradient>
			<path class="st13" d="M-17.2-29.3L-17.2-29.3c0.6-0.5,1.1-1.2,0.7-2.5c-0.4-1.2-1.7-1.7-2.9-1.3l0,0l-0.4-1.1l-1.9,0.7l0.4,1.1
				l-0.8,0.3l-0.4-1.1l-1.9,0.7l0.4,1.1l-0.4,0.1l-0.3,0.1l-0.8,0.3l0.7,1.9l0.8-0.3l1.5,4.6l-0.8,0.3l0.7,1.9l0.8-0.3l0.3-0.1
				l0.4-0.1l0.4,1.1l1.9-0.7l-0.4-1.1l0.8-0.3l0.4,1.1l1.9-0.7l-0.4-1.1l0.1,0c1.3-0.4,2-1.7,1.6-3C-15.4-29.1-16.3-29.4-17.2-29.3z
				 M-19.9-30.9c0.3-0.1,0.7,0.1,0.8,0.5l0,0.1c0.1,0.4,0,0.8-0.4,0.9l-1.8,0.6l-0.5-1.4L-19.9-30.9z M-20.1-25.7l-0.5-1.5l2-0.7
				c0.3-0.1,0.7,0.1,0.8,0.5l0,0.1c0.1,0.4,0,0.8-0.4,0.9L-20.1-25.7z"/>
		</g>
	</g>
	<g>
		<g>
			
				<linearGradient id="SVGID_14_" gradientUnits="userSpaceOnUse" x1="95.3241" y1="-207.3107" x2="129.4444" y2="-207.3107" gradientTransform="matrix(0.4859 0.1177 -0.1177 0.4859 -51.942 35.5283)">
				<stop  offset="0" style="stop-color:#FFF84A"/>
				<stop  offset="1" style="stop-color:#FFEC38"/>
			</linearGradient>
			<path class="st14" d="M35.4-50c-1.1,4.6-5.7,7.4-10.3,6.3c-4.6-1.1-7.4-5.7-6.3-10.3c1.1-4.6,5.7-7.4,10.3-6.3
				C33.7-59.2,36.5-54.5,35.4-50z"/>
			
				<linearGradient id="SVGID_15_" gradientUnits="userSpaceOnUse" x1="39.2423" y1="-74.5157" x2="28.828" y2="-66.1055" gradientTransform="matrix(0.9719 0.2355 -0.2355 0.9719 -22.5804 8.3477)">
				<stop  offset="0.4846" style="stop-color:#CC9434"/>
				<stop  offset="0.6795" style="stop-color:#FFEA72"/>
				<stop  offset="0.7638" style="stop-color:#FFE76C"/>
				<stop  offset="0.8718" style="stop-color:#FFDE5C"/>
				<stop  offset="0.9603" style="stop-color:#FFD44A"/>
			</linearGradient>
			<path class="st15" d="M33.6-50.4c-0.9,3.6-4.5,5.8-8.1,5c-3.6-0.9-5.8-4.5-5-8.1c0.9-3.6,4.5-5.8,8.1-5
				C32.3-57.6,34.5-54,33.6-50.4z"/>
			
				<linearGradient id="SVGID_16_" gradientUnits="userSpaceOnUse" x1="30.9658" y1="-76.4972" x2="37.105" y2="-64.1686" gradientTransform="matrix(0.9719 0.2355 -0.2355 0.9719 -22.5804 8.3477)">
				<stop  offset="0.4846" style="stop-color:#CC9434"/>
				<stop  offset="0.6795" style="stop-color:#FFEA72"/>
				<stop  offset="0.7638" style="stop-color:#FFE76C"/>
				<stop  offset="0.8718" style="stop-color:#FFDE5C"/>
				<stop  offset="0.9603" style="stop-color:#FFD44A"/>
			</linearGradient>
			<path class="st16" d="M33.6-50.4c-0.9,3.6-4.5,5.8-8.1,5c-3.6-0.9-5.8-4.5-5-8.1c0.9-3.6,4.5-5.8,8.1-5
				C32.3-57.6,34.5-54,33.6-50.4z"/>
			
				<linearGradient id="SVGID_17_" gradientUnits="userSpaceOnUse" x1="38.1662" y1="-74.8556" x2="29.3655" y2="-65.1677" gradientTransform="matrix(0.9719 0.2355 -0.2355 0.9719 -22.5804 8.3477)">
				<stop  offset="0" style="stop-color:#FFE94A"/>
				<stop  offset="0.3381" style="stop-color:#FCDA34"/>
				<stop  offset="1" style="stop-color:#F5B400"/>
			</linearGradient>
			<path class="st17" d="M33.4-50.4c-0.8,3.5-4.4,5.6-7.9,4.8c-3.5-0.8-5.6-4.4-4.8-7.9c0.8-3.5,4.4-5.6,7.9-4.8
				C32.1-57.5,34.2-53.9,33.4-50.4z"/>
			<path class="st11" d="M28.6-58.3c-3.5-0.8-7,1.3-7.9,4.8c-0.8,3.5,1.3,7,4.8,7.9c3.5,0.8,7-1.3,7.9-4.8
				C34.2-53.9,32.1-57.5,28.6-58.3z M25.6-45.8c-3.4-0.8-5.5-4.3-4.7-7.7c0.8-3.4,4.3-5.5,7.7-4.7c3.4,0.8,5.5,4.3,4.7,7.7
				C32.4-47,29-44.9,25.6-45.8z"/>
			<g>
				
					<linearGradient id="SVGID_18_" gradientUnits="userSpaceOnUse" x1="37.9844" y1="-74.824" x2="30.4968" y2="-67.1944" gradientTransform="matrix(0.9719 0.2355 -0.2355 0.9719 -22.5804 8.3477)">
					<stop  offset="0" style="stop-color:#FFDB56"/>
					<stop  offset="9.118795e-03" style="stop-color:#FFDA55"/>
					<stop  offset="0.6822" style="stop-color:#F39A2F"/>
					<stop  offset="1" style="stop-color:#EE8120"/>
				</linearGradient>
				<path class="st18" d="M29.1-51.6L29.1-51.6c0.6-0.1,1.1-0.3,1.3-1.2c0.2-0.9-0.4-1.7-1.3-1.9l0,0l0.2-0.8L28-55.9l-0.2,0.8
					l-0.6-0.1l0.2-0.8L26-56.4l-0.2,0.8l-0.3-0.1l-0.2-0.1l-0.6-0.2l-0.3,1.4l0.6,0.2l-0.8,3.4l-0.6-0.2l-0.3,1.4l0.6,0.2l0.2,0.1
					l0.3,0.1l-0.2,0.8l1.4,0.3l0.2-0.8l0.6,0.1L26.1-48l1.4,0.3l0.2-0.8l0,0c1,0.2,1.9-0.2,2.1-1.2C30.1-50.8,29.7-51.3,29.1-51.6z
					 M28.1-53.5c0.2,0.1,0.3,0.3,0.3,0.5l0,0.1c-0.1,0.2-0.3,0.4-0.5,0.3l-1.2-0.3l0.2-1L28.1-53.5z M26.1-50.5l0.2-1l1.3,0.3
					c0.2,0.1,0.3,0.3,0.3,0.5l0,0.1c-0.1,0.3-0.3,0.4-0.5,0.3L26.1-50.5z"/>
				
					<linearGradient id="SVGID_19_" gradientUnits="userSpaceOnUse" x1="35.8854" y1="-73.4576" x2="31.2958" y2="-66.9991" gradientTransform="matrix(0.9719 0.2355 -0.2355 0.9719 -22.5804 8.3477)">
					<stop  offset="0" style="stop-color:#FFF84A"/>
					<stop  offset="1" style="stop-color:#FFEC38"/>
				</linearGradient>
				<path class="st19" d="M29.1-51.6L29.1-51.6c0.6-0.1,1.1-0.3,1.3-1.2c0.2-0.9-0.4-1.6-1.2-1.9l0,0l0.2-0.8L28-55.8L27.8-55
					l-0.6-0.1l0.2-0.8L26-56.3l-0.2,0.8l-0.3-0.1l-0.2-0.1l-0.6-0.1l-0.3,1.4l0.6,0.1l-0.8,3.2l-0.6-0.1l-0.3,1.4l0.6,0.1l0.2,0.1
					l0.3,0.1l-0.2,0.8l1.4,0.3l0.2-0.8l0.6,0.1l-0.2,0.8l1.4,0.3l0.2-0.8l0,0c0.9,0.2,1.8-0.2,2-1.2C30-50.8,29.6-51.3,29.1-51.6z
					 M28.1-53.5c0.2,0.1,0.4,0.3,0.3,0.6l0,0.1c-0.1,0.3-0.3,0.4-0.5,0.4l-1.3-0.3l0.2-1L28.1-53.5z M26.1-50.5l0.2-1l1.4,0.3
					c0.2,0.1,0.4,0.3,0.3,0.6l0,0.1c-0.1,0.3-0.3,0.4-0.5,0.4L26.1-50.5z"/>
			</g>
		</g>
		<g>
			
				<linearGradient id="SVGID_20_" gradientUnits="userSpaceOnUse" x1="-92.0783" y1="-152.7234" x2="-57.9628" y2="-152.7234" gradientTransform="matrix(0.487 -0.1134 0.1134 0.487 3.2353 4.0913)">
				<stop  offset="0" style="stop-color:#FFF84A"/>
				<stop  offset="1" style="stop-color:#FFEC38"/>
			</linearGradient>
			<path class="st20" d="M-42.3-63.7c1.1,4.6-1.8,9.2-6.4,10.2c-4.6,1.1-9.2-1.8-10.2-6.4c-1.1-4.6,1.8-9.2,6.4-10.2
				C-48-71.2-43.4-68.3-42.3-63.7z"/>
			
				<linearGradient id="SVGID_21_" gradientUnits="userSpaceOnUse" x1="-54.5499" y1="-45.1723" x2="-64.9647" y2="-36.7617" gradientTransform="matrix(0.9739 -0.2269 0.2269 0.9739 16.8682 -35.4306)">
				<stop  offset="0.4846" style="stop-color:#CC9434"/>
				<stop  offset="0.6795" style="stop-color:#FFEA72"/>
				<stop  offset="0.7638" style="stop-color:#FFE76C"/>
				<stop  offset="0.8718" style="stop-color:#FFDE5C"/>
				<stop  offset="0.9603" style="stop-color:#FFD44A"/>
			</linearGradient>
			<path class="st21" d="M-44.1-63.3c0.8,3.6-1.4,7.2-5,8.1c-3.6,0.8-7.2-1.4-8.1-5c-0.8-3.6,1.4-7.2,5-8.1
				C-48.5-69.2-44.9-66.9-44.1-63.3z"/>
			
				<linearGradient id="SVGID_22_" gradientUnits="userSpaceOnUse" x1="-62.8268" y1="-47.1539" x2="-56.6874" y2="-34.8248" gradientTransform="matrix(0.9739 -0.2269 0.2269 0.9739 16.8682 -35.4306)">
				<stop  offset="0.4846" style="stop-color:#CC9434"/>
				<stop  offset="0.6795" style="stop-color:#FFEA72"/>
				<stop  offset="0.7638" style="stop-color:#FFE76C"/>
				<stop  offset="0.8718" style="stop-color:#FFDE5C"/>
				<stop  offset="0.9603" style="stop-color:#FFD44A"/>
			</linearGradient>
			<path class="st22" d="M-44.1-63.3c0.8,3.6-1.4,7.2-5,8.1c-3.6,0.8-7.2-1.4-8.1-5c-0.8-3.6,1.4-7.2,5-8.1
				C-48.5-69.2-44.9-66.9-44.1-63.3z"/>
			
				<linearGradient id="SVGID_23_" gradientUnits="userSpaceOnUse" x1="-55.6262" y1="-45.5122" x2="-64.4273" y2="-35.824" gradientTransform="matrix(0.9739 -0.2269 0.2269 0.9739 16.8682 -35.4306)">
				<stop  offset="0" style="stop-color:#FFE94A"/>
				<stop  offset="0.3381" style="stop-color:#FCDA34"/>
				<stop  offset="1" style="stop-color:#F5B400"/>
			</linearGradient>
			<path class="st23" d="M-44.3-63.3c0.8,3.5-1.4,7-4.9,7.8c-3.5,0.8-7-1.4-7.8-4.9c-0.8-3.5,1.4-7,4.9-7.8
				C-48.6-68.9-45.1-66.8-44.3-63.3z"/>
			<path class="st11" d="M-52.1-68.1c-3.5,0.8-5.7,4.3-4.9,7.8c0.8,3.5,4.3,5.7,7.8,4.9c3.5-0.8,5.7-4.3,4.9-7.8
				C-45.1-66.8-48.6-68.9-52.1-68.1z M-49.2-55.6c-3.4,0.8-6.9-1.3-7.7-4.8c-0.8-3.4,1.3-6.9,4.8-7.7c3.4-0.8,6.9,1.3,7.7,4.8
				C-43.6-59.8-45.7-56.4-49.2-55.6z"/>
			<g>
				
					<linearGradient id="SVGID_24_" gradientUnits="userSpaceOnUse" x1="-55.808" y1="-45.4809" x2="-63.2961" y2="-37.8508" gradientTransform="matrix(0.9739 -0.2269 0.2269 0.9739 16.8682 -35.4306)">
					<stop  offset="0" style="stop-color:#FFDB56"/>
					<stop  offset="9.118795e-03" style="stop-color:#FFDA55"/>
					<stop  offset="0.6822" style="stop-color:#F39A2F"/>
					<stop  offset="1" style="stop-color:#EE8120"/>
				</linearGradient>
				<path class="st24" d="M-48.6-62.4L-48.6-62.4c0.5-0.3,0.9-0.8,0.6-1.7c-0.2-0.9-1.1-1.4-2-1.1l0,0l-0.2-0.8l-1.4,0.3l0.2,0.8
					l-0.6,0.1l-0.2-0.8l-1.4,0.3l0.2,0.8l-0.3,0.1l-0.2,0.1l-0.6,0.1l0.3,1.4l0.6-0.1l0.8,3.4l-0.6,0.1l0.3,1.4l0.6-0.1l0.2-0.1
					l0.3-0.1l0.2,0.8l1.4-0.3l-0.2-0.8l0.6-0.1l0.2,0.8l1.4-0.3l-0.2-0.8l0,0c1-0.2,1.6-1.1,1.3-2.1C-47.3-62.1-48-62.3-48.6-62.4z
					 M-50.4-63.6c0.2-0.1,0.4,0.1,0.5,0.3l0,0.1c0.1,0.2-0.1,0.5-0.3,0.5l-1.2,0.3l-0.2-1L-50.4-63.6z M-50.8-60l-0.2-1l1.3-0.3
					c0.2-0.1,0.4,0.1,0.5,0.3l0,0.1c0.1,0.3-0.1,0.5-0.3,0.5L-50.8-60z"/>
				
					<linearGradient id="SVGID_25_" gradientUnits="userSpaceOnUse" x1="-57.9071" y1="-44.1143" x2="-62.4969" y2="-37.6554" gradientTransform="matrix(0.9739 -0.2269 0.2269 0.9739 16.8682 -35.4306)">
					<stop  offset="0" style="stop-color:#FFF84A"/>
					<stop  offset="1" style="stop-color:#FFEC38"/>
				</linearGradient>
				<path class="st25" d="M-48.7-62.3L-48.7-62.3c0.5-0.3,0.8-0.8,0.6-1.7c-0.2-0.9-1.1-1.3-1.9-1.1l0,0l-0.2-0.8l-1.4,0.3l0.2,0.8
					l-0.6,0.1l-0.2-0.8l-1.4,0.3l0.2,0.8l-0.3,0.1l-0.2,0l-0.6,0.1l0.3,1.4l0.6-0.1l0.8,3.3l-0.6,0.1l0.3,1.4l0.6-0.1l0.2,0l0.3-0.1
					l0.2,0.8l1.4-0.3l-0.2-0.8l0.6-0.1l0.2,0.8l1.4-0.3l-0.2-0.8l0,0c0.9-0.2,1.5-1,1.3-2C-47.5-62-48.1-62.3-48.7-62.3z
					 M-50.4-63.6c0.2-0.1,0.5,0.1,0.5,0.4l0,0.1c0.1,0.3-0.1,0.5-0.3,0.6l-1.3,0.3l-0.2-1L-50.4-63.6z M-50.9-60l-0.2-1l1.4-0.3
					c0.2-0.1,0.5,0.1,0.5,0.4l0,0.1c0.1,0.3-0.1,0.5-0.3,0.6L-50.9-60z"/>
			</g>
		</g>
		<g>
			
				<linearGradient id="SVGID_26_" gradientUnits="userSpaceOnUse" x1="-185.6831" y1="-56.4846" x2="-140.0023" y2="-56.4846" gradientTransform="matrix(0.4078 -0.2893 0.2893 0.4078 18.6313 -45.9854)">
				<stop  offset="0" style="stop-color:#FFF84A"/>
				<stop  offset="1" style="stop-color:#FFEC38"/>
			</linearGradient>
			<circle class="st26" cx="-64.1" cy="-21.9" r="11.4"/>
			
				<linearGradient id="SVGID_27_" gradientUnits="userSpaceOnUse" x1="-97.1233" y1="0.3262" x2="-111.0669" y2="11.5866" gradientTransform="matrix(0.8156 -0.5787 0.5787 0.8156 17.3323 -86.9939)">
				<stop  offset="0.4846" style="stop-color:#CC9434"/>
				<stop  offset="0.6795" style="stop-color:#FFEA72"/>
				<stop  offset="0.7638" style="stop-color:#FFE76C"/>
				<stop  offset="0.8718" style="stop-color:#FFDE5C"/>
				<stop  offset="0.9603" style="stop-color:#FFD44A"/>
			</linearGradient>
			<path class="st27" d="M-56.8-27.1c2.9,4.1,1.9,9.7-2.1,12.6c-4.1,2.9-9.7,1.9-12.6-2.1c-2.9-4.1-1.9-9.7,2.1-12.6
				C-65.3-32.2-59.6-31.2-56.8-27.1z"/>
			
				<linearGradient id="SVGID_28_" gradientUnits="userSpaceOnUse" x1="-108.2048" y1="-2.3269" x2="-99.985" y2="14.1799" gradientTransform="matrix(0.8156 -0.5787 0.5787 0.8156 17.3323 -86.9939)">
				<stop  offset="0.4846" style="stop-color:#CC9434"/>
				<stop  offset="0.6795" style="stop-color:#FFEA72"/>
				<stop  offset="0.7638" style="stop-color:#FFE76C"/>
				<stop  offset="0.8718" style="stop-color:#FFDE5C"/>
				<stop  offset="0.9603" style="stop-color:#FFD44A"/>
			</linearGradient>
			<path class="st28" d="M-56.8-27.1c2.9,4.1,1.9,9.7-2.1,12.6c-4.1,2.9-9.7,1.9-12.6-2.1c-2.9-4.1-1.9-9.7,2.1-12.6
				C-65.3-32.2-59.6-31.2-56.8-27.1z"/>
			
				<linearGradient id="SVGID_29_" gradientUnits="userSpaceOnUse" x1="-98.5642" y1="-0.1289" x2="-110.3474" y2="12.8421" gradientTransform="matrix(0.8156 -0.5787 0.5787 0.8156 17.3323 -86.9939)">
				<stop  offset="0" style="stop-color:#FFE94A"/>
				<stop  offset="0.3381" style="stop-color:#FCDA34"/>
				<stop  offset="1" style="stop-color:#F5B400"/>
			</linearGradient>
			<path class="st29" d="M-57-27c2.8,3.9,1.9,9.4-2.1,12.2c-3.9,2.8-9.4,1.9-12.2-2.1c-2.8-3.9-1.9-9.4,2.1-12.2
				C-65.2-31.8-59.8-30.9-57-27z"/>
			<path class="st11" d="M-69.2-29c-3.9,2.8-4.9,8.2-2.1,12.2c2.8,3.9,8.2,4.9,12.2,2.1c3.9-2.8,4.9-8.2,2.1-12.2
				C-59.8-30.9-65.2-31.8-69.2-29z M-59.2-14.9c-3.9,2.7-9.2,1.8-11.9-2c-2.7-3.9-1.8-9.2,2-11.9c3.8-2.7,9.2-1.8,11.9,2
				C-54.4-23-55.3-17.7-59.2-14.9z"/>
			<g>
				
					<linearGradient id="SVGID_30_" gradientUnits="userSpaceOnUse" x1="-98.8077" y1="-8.657445e-02" x2="-108.8329" y2="10.1287" gradientTransform="matrix(0.8156 -0.5787 0.5787 0.8156 17.3323 -86.9939)">
					<stop  offset="0" style="stop-color:#FFDB56"/>
					<stop  offset="9.118795e-03" style="stop-color:#FFDA55"/>
					<stop  offset="0.6822" style="stop-color:#F39A2F"/>
					<stop  offset="1" style="stop-color:#EE8120"/>
				</linearGradient>
				<path class="st30" d="M-61.9-23.6L-61.9-23.6c0.4-0.6,0.6-1.4-0.1-2.5c-0.7-1-2-1.1-3-0.4l0,0l-0.7-0.9l-1.6,1.1l0.7,0.9
					l-0.7,0.5l-0.7-0.9l-1.6,1.1l0.7,0.9l-0.3,0.2l-0.2,0.2l-0.7,0.5l1.1,1.6l0.7-0.5l2.7,3.8l-0.7,0.5l1.1,1.6l0.7-0.5l0.2-0.2
					l0.3-0.2l0.7,0.9l1.6-1.1l-0.7-0.9l0.7-0.5l0.7,0.9l1.6-1.1l-0.7-0.9l0,0c1.1-0.8,1.4-2.1,0.6-3.2C-60.2-23.9-61.1-24-61.9-23.6
					z M-64.8-24.3c0.2-0.2,0.6-0.1,0.8,0.2l0.1,0.1c0.2,0.3,0.2,0.6-0.1,0.8l-1.3,0.9l-0.8-1.1L-64.8-24.3z M-63.5-19.7l-0.8-1.1
					l1.5-1c0.3-0.2,0.6-0.1,0.8,0.2l0.1,0.1c0.2,0.3,0.2,0.6-0.1,0.8L-63.5-19.7z"/>
				
					<linearGradient id="SVGID_31_" gradientUnits="userSpaceOnUse" x1="-101.6179" y1="1.7427" x2="-107.763" y2="10.3901" gradientTransform="matrix(0.8156 -0.5787 0.5787 0.8156 17.3323 -86.9939)">
					<stop  offset="0" style="stop-color:#FFF84A"/>
					<stop  offset="1" style="stop-color:#FFEC38"/>
				</linearGradient>
				<path class="st31" d="M-62-23.6L-62-23.6c0.4-0.6,0.6-1.4-0.1-2.4c-0.7-1-2-1.1-2.9-0.4l0,0l-0.6-0.9l-1.5,1.1l0.6,0.9l-0.6,0.5
					l-0.6-0.9l-1.5,1.1l0.6,0.9l-0.3,0.2l-0.2,0.2l-0.7,0.5l1.1,1.5l0.7-0.5l2.6,3.6l-0.7,0.5l1.1,1.5l0.7-0.5l0.2-0.2l0.3-0.2
					l0.6,0.9l1.5-1.1l-0.6-0.9l0.6-0.5l0.6,0.9l1.5-1.1l-0.6-0.9l0,0c1-0.7,1.4-2,0.6-3.1C-60.3-23.8-61.2-23.9-62-23.6z
					 M-64.7-24.3c0.3-0.2,0.6-0.1,0.8,0.2l0.1,0.1c0.2,0.3,0.2,0.7-0.1,0.9l-1.4,1l-0.8-1.1L-64.7-24.3z M-63.5-19.6l-0.8-1.2
					l1.6-1.1c0.3-0.2,0.6-0.1,0.9,0.2l0.1,0.1c0.2,0.3,0.2,0.7-0.1,0.9L-63.5-19.6z"/>
			</g>
		</g>
	</g>
</g>
</svg>
