<?xml version="1.0" encoding="utf-8"?>
<!-- Generator: Adobe Illustrator 24.0.2, SVG Export Plug-In . SVG Version: 6.00 Build 0)  -->
<svg version="1.1" id="Layer_1" xmlns="http://www.w3.org/2000/svg" xmlns:xlink="http://www.w3.org/1999/xlink" x="0px" y="0px"
	 viewBox="0 0 174.9 71.3" style="enable-background:new 0 0 174.9 71.3;" xml:space="preserve">
<style type="text/css">
	.st0{fill:url(#SVGID_1_);}
	.st1{opacity:0.75;fill:url(#SVGID_2_);}
	.st2{opacity:0.32;fill:url(#SVGID_3_);}
	.st3{fill:url(#SVGID_4_);}
	.st4{fill:#D26D02;}
	.st5{fill:url(#SVGID_5_);}
	.st6{fill:url(#SVGID_6_);}
	.st7{fill:url(#SVGID_7_);}
	.st8{opacity:0.75;fill:url(#SVGID_8_);}
	.st9{opacity:0.32;fill:url(#SVGID_9_);}
	.st10{fill:url(#SVGID_10_);}
	.st11{fill:url(#SVGID_11_);}
	.st12{fill:url(#SVGID_12_);}
	.st13{fill:url(#SVGID_13_);}
	.st14{fill:url(#SVGID_14_);}
	.st15{fill:url(#SVGID_15_);}
	.st16{fill:url(#SVGID_16_);}
	.st17{fill:url(#SVGID_17_);}
	.st18{fill:url(#SVGID_18_);}
	.st19{fill:url(#SVGID_19_);}
	.st20{fill:url(#SVGID_20_);}
	.st21{fill:url(#SVGID_21_);}
	.st22{fill:url(#SVGID_22_);}
	.st23{fill:url(#SVGID_23_);}
	.st24{opacity:0.75;fill:url(#SVGID_24_);}
	.st25{opacity:0.32;fill:url(#SVGID_25_);}
	.st26{fill:url(#SVGID_26_);}
	.st27{fill:url(#SVGID_27_);}
	.st28{fill:url(#SVGID_28_);}
	.st29{fill:url(#SVGID_29_);}
	.st30{opacity:0.75;fill:url(#SVGID_30_);}
	.st31{opacity:0.32;fill:url(#SVGID_31_);}
	.st32{fill:url(#SVGID_32_);}
	.st33{fill:url(#SVGID_33_);}
	.st34{fill:url(#SVGID_34_);}
	.st35{fill:url(#SVGID_35_);}
	.st36{opacity:0.75;fill:url(#SVGID_36_);}
	.st37{opacity:0.32;fill:url(#SVGID_37_);}
	.st38{fill:url(#SVGID_38_);}
	.st39{fill:url(#SVGID_39_);}
	.st40{fill:url(#SVGID_40_);}
	.st41{fill:url(#SVGID_41_);}
	.st42{opacity:0.75;fill:url(#SVGID_42_);}
	.st43{opacity:0.32;fill:url(#SVGID_43_);}
	.st44{fill:url(#SVGID_44_);}
	.st45{fill:url(#SVGID_45_);}
	.st46{fill:url(#SVGID_46_);}
</style>
<g>
	
		<linearGradient id="SVGID_1_" gradientUnits="userSpaceOnUse" x1="185.8096" y1="251.2841" x2="267.2092" y2="251.2841" gradientTransform="matrix(0.5 0 0 0.5 -92.8007 -74.684)">
		<stop  offset="0" style="stop-color:#FFF84A"/>
		<stop  offset="1" style="stop-color:#FFEC38"/>
	</linearGradient>
	<circle class="st0" cx="20.5" cy="51" r="20.3"/>
	<linearGradient id="SVGID_2_" gradientUnits="userSpaceOnUse" x1="32.8587" y1="40.9405" x2="8.0108" y2="61.0069">
		<stop  offset="0.4846" style="stop-color:#CC9434"/>
		<stop  offset="0.6795" style="stop-color:#FFEA72"/>
		<stop  offset="0.7638" style="stop-color:#FFE76C"/>
		<stop  offset="0.8718" style="stop-color:#FFDE5C"/>
		<stop  offset="0.9603" style="stop-color:#FFD44A"/>
	</linearGradient>
	<circle class="st1" cx="20.5" cy="51" r="16.1"/>
	<linearGradient id="SVGID_3_" gradientUnits="userSpaceOnUse" x1="13.1113" y1="36.2126" x2="27.759" y2="65.6282">
		<stop  offset="0.4846" style="stop-color:#CC9434"/>
		<stop  offset="0.6795" style="stop-color:#FFEA72"/>
		<stop  offset="0.7638" style="stop-color:#FFE76C"/>
		<stop  offset="0.8718" style="stop-color:#FFDE5C"/>
		<stop  offset="0.9603" style="stop-color:#FFD44A"/>
	</linearGradient>
	<circle class="st2" cx="20.5" cy="51" r="16.1"/>
	<linearGradient id="SVGID_4_" gradientUnits="userSpaceOnUse" x1="30.2909" y1="40.1295" x2="9.293" y2="63.2442">
		<stop  offset="0" style="stop-color:#FFE94A"/>
		<stop  offset="0.3381" style="stop-color:#FCDA34"/>
		<stop  offset="1" style="stop-color:#F5B400"/>
	</linearGradient>
	<circle class="st3" cx="20.5" cy="51" r="15.5"/>
	<path class="st4" d="M20.5,35.4c-8.6,0-15.5,7-15.5,15.5s7,15.5,15.5,15.5C29,66.5,36,59.5,36,51S29,35.4,20.5,35.4z M20.5,66.2
		C12,66.2,5.2,59.4,5.2,51c0-8.4,6.8-15.2,15.2-15.2c8.4,0,15.2,6.8,15.2,15.2C35.7,59.4,28.9,66.2,20.5,66.2z"/>
	<g>
		<linearGradient id="SVGID_5_" gradientUnits="userSpaceOnUse" x1="28.8028" y1="42.4115" x2="14.2695" y2="57.7247">
			<stop  offset="0" style="stop-color:#FFDB56"/>
			<stop  offset="9.118795e-03" style="stop-color:#FFDA55"/>
			<stop  offset="0.6822" style="stop-color:#F39A2F"/>
			<stop  offset="1" style="stop-color:#EE8120"/>
		</linearGradient>
		<polygon class="st5" points="21,54.6 26.9,44.9 26.9,43.1 22.4,43.1 22.4,41.3 18.5,41.3 18.5,43.1 14.3,43.1 14.3,47.2 
			19.6,47.2 13.9,56.9 13.9,58.8 18.5,58.8 18.5,60.6 22.4,60.6 22.4,58.8 27.1,58.8 27.1,54.6 		"/>
		<linearGradient id="SVGID_6_" gradientUnits="userSpaceOnUse" x1="25.1846" y1="43.8016" x2="15.7249" y2="58.7188">
			<stop  offset="0" style="stop-color:#FFF84A"/>
			<stop  offset="1" style="stop-color:#FFEC38"/>
		</linearGradient>
		<polygon class="st6" points="20.6,54.9 26.7,44.8 26.7,43.2 22.3,43.2 22.3,41.5 18.6,41.5 18.6,43.2 14.5,43.2 14.5,46.9 
			20.2,46.9 14.1,57 14.1,58.6 18.6,58.6 18.6,60.3 22.3,60.3 22.3,58.6 26.8,58.6 26.8,54.9 		"/>
	</g>
</g>
<g>
	<g>
		
			<linearGradient id="SVGID_7_" gradientUnits="userSpaceOnUse" x1="254.083" y1="202.8395" x2="335.4826" y2="202.8395" gradientTransform="matrix(0.5 0 0 0.5 -92.8007 -74.684)">
			<stop  offset="0" style="stop-color:#FFF84A"/>
			<stop  offset="1" style="stop-color:#FFEC38"/>
		</linearGradient>
		<circle class="st7" cx="54.6" cy="26.7" r="20.3"/>
		<linearGradient id="SVGID_8_" gradientUnits="userSpaceOnUse" x1="66.9954" y1="16.7181" x2="42.1474" y2="36.7846">
			<stop  offset="0.4846" style="stop-color:#CC9434"/>
			<stop  offset="0.6795" style="stop-color:#FFEA72"/>
			<stop  offset="0.7638" style="stop-color:#FFE76C"/>
			<stop  offset="0.8718" style="stop-color:#FFDE5C"/>
			<stop  offset="0.9603" style="stop-color:#FFD44A"/>
		</linearGradient>
		<circle class="st8" cx="54.6" cy="26.7" r="16.1"/>
		<linearGradient id="SVGID_9_" gradientUnits="userSpaceOnUse" x1="47.2479" y1="11.9903" x2="61.8957" y2="41.4059">
			<stop  offset="0.4846" style="stop-color:#CC9434"/>
			<stop  offset="0.6795" style="stop-color:#FFEA72"/>
			<stop  offset="0.7638" style="stop-color:#FFE76C"/>
			<stop  offset="0.8718" style="stop-color:#FFDE5C"/>
			<stop  offset="0.9603" style="stop-color:#FFD44A"/>
		</linearGradient>
		<circle class="st9" cx="54.6" cy="26.7" r="16.1"/>
		<linearGradient id="SVGID_10_" gradientUnits="userSpaceOnUse" x1="64.4276" y1="15.9072" x2="43.4296" y2="39.0219">
			<stop  offset="0" style="stop-color:#FFE94A"/>
			<stop  offset="0.3381" style="stop-color:#FCDA34"/>
			<stop  offset="1" style="stop-color:#F5B400"/>
		</linearGradient>
		<circle class="st10" cx="54.6" cy="26.7" r="15.5"/>
		<path class="st4" d="M54.6,11.2c-8.6,0-15.5,7-15.5,15.5s7,15.5,15.5,15.5c8.6,0,15.5-7,15.5-15.5S63.2,11.2,54.6,11.2z M54.6,42
			c-8.4,0-15.2-6.8-15.2-15.2c0-8.4,6.8-15.2,15.2-15.2c8.4,0,15.2,6.8,15.2,15.2C69.8,35.1,63,42,54.6,42z"/>
	</g>
	<g>
		<linearGradient id="SVGID_11_" gradientUnits="userSpaceOnUse" x1="64.3377" y1="25.4728" x2="45.287" y2="36.9032">
			<stop  offset="0" style="stop-color:#FFDB56"/>
			<stop  offset="9.118795e-03" style="stop-color:#FFDA55"/>
			<stop  offset="0.6822" style="stop-color:#F39A2F"/>
			<stop  offset="1" style="stop-color:#EE8120"/>
		</linearGradient>
		<polygon class="st11" points="47.9,27.5 54.6,39.1 61.3,27.5 54.6,32.3 		"/>
		<linearGradient id="SVGID_12_" gradientUnits="userSpaceOnUse" x1="60.5573" y1="19.1721" x2="41.5065" y2="30.6025">
			<stop  offset="0" style="stop-color:#FFDB56"/>
			<stop  offset="9.118795e-03" style="stop-color:#FFDA55"/>
			<stop  offset="0.6822" style="stop-color:#F39A2F"/>
			<stop  offset="1" style="stop-color:#EE8120"/>
		</linearGradient>
		<polygon class="st12" points="61.3,26.5 54.6,14.3 47.9,26.5 54.6,31.2 		"/>
	</g>
	<g>
		<g>
			<linearGradient id="SVGID_13_" gradientUnits="userSpaceOnUse" x1="38.2776" y1="23.0276" x2="51.5205" y2="23.0276">
				<stop  offset="0" style="stop-color:#FFF84A"/>
				<stop  offset="1" style="stop-color:#FFEC38"/>
			</linearGradient>
			<polygon class="st13" points="60.9,26.5 54.6,15.2 48.3,26.5 54.6,30.9 			"/>
			<linearGradient id="SVGID_14_" gradientUnits="userSpaceOnUse" x1="38.2776" y1="32.8834" x2="51.5205" y2="32.8834">
				<stop  offset="0" style="stop-color:#FFF84A"/>
				<stop  offset="1" style="stop-color:#FFEC38"/>
			</linearGradient>
			<polygon class="st14" points="48.3,27.5 54.6,38.3 60.9,27.5 54.6,31.9 			"/>
		</g>
		<linearGradient id="SVGID_15_" gradientUnits="userSpaceOnUse" x1="54.5906" y1="19.3862" x2="54.5906" y2="35.5234">
			<stop  offset="0" style="stop-color:#FFF84A"/>
			<stop  offset="1" style="stop-color:#FFEC38"/>
		</linearGradient>
		<polygon class="st15" points="60.9,26.5 54.6,15.2 48.3,26.5 54.6,30.9 		"/>
		<linearGradient id="SVGID_16_" gradientUnits="userSpaceOnUse" x1="54.5906" y1="19.3862" x2="54.5906" y2="35.5234">
			<stop  offset="0" style="stop-color:#FFF84A"/>
			<stop  offset="1" style="stop-color:#FFEC38"/>
		</linearGradient>
		<polygon class="st16" points="60.9,26.5 54.6,15.2 48.3,26.5 54.6,30.9 		"/>
		<linearGradient id="SVGID_17_" gradientUnits="userSpaceOnUse" x1="54.5906" y1="19.3861" x2="54.5906" y2="35.5234">
			<stop  offset="0" style="stop-color:#FFF84A"/>
			<stop  offset="1" style="stop-color:#FFEC38"/>
		</linearGradient>
		<polygon class="st17" points="48.3,27.5 54.6,38.3 60.9,27.5 54.6,31.9 		"/>
		<linearGradient id="SVGID_18_" gradientUnits="userSpaceOnUse" x1="54.5906" y1="19.3862" x2="54.5906" y2="35.5235">
			<stop  offset="0" style="stop-color:#FFF84A"/>
			<stop  offset="1" style="stop-color:#FFEC38"/>
		</linearGradient>
		<polygon class="st18" points="60.9,26.5 54.6,15.2 48.3,26.5 54.6,24 		"/>
		<g>
			<linearGradient id="SVGID_19_" gradientUnits="userSpaceOnUse" x1="58.9158" y1="18.9615" x2="52.5674" y2="28.9725">
				<stop  offset="0" style="stop-color:#FFF84A"/>
				<stop  offset="1" style="stop-color:#FFEC38"/>
			</linearGradient>
			<polygon class="st19" points="60.9,26.5 54.6,15.2 54.6,30.9 			"/>
			<linearGradient id="SVGID_20_" gradientUnits="userSpaceOnUse" x1="59.388" y1="27.5238" x2="53.4066" y2="36.9559">
				<stop  offset="0" style="stop-color:#FFF84A"/>
				<stop  offset="1" style="stop-color:#FFEC38"/>
			</linearGradient>
			<polygon class="st20" points="54.6,38.3 60.9,27.5 54.6,31.9 			"/>
		</g>
		<linearGradient id="SVGID_21_" gradientUnits="userSpaceOnUse" x1="54.5906" y1="19.3862" x2="54.5906" y2="35.5234">
			<stop  offset="0" style="stop-color:#FFF84A"/>
			<stop  offset="1" style="stop-color:#FFEC38"/>
		</linearGradient>
		<polygon class="st21" points="54.6,24 48.3,26.5 54.6,30.9 60.9,26.5 		"/>
		<linearGradient id="SVGID_22_" gradientUnits="userSpaceOnUse" x1="59.1628" y1="27.4093" x2="52.553" y2="27.4093">
			<stop  offset="0" style="stop-color:#FFF84A"/>
			<stop  offset="0.3164" style="stop-color:#FFF545"/>
			<stop  offset="1" style="stop-color:#FFEC38"/>
		</linearGradient>
		<polygon class="st22" points="54.6,24 48.3,26.5 54.6,30.9 60.9,26.5 		"/>
	</g>
</g>
<g>
	<g>
		
			<linearGradient id="SVGID_23_" gradientUnits="userSpaceOnUse" x1="309.7128" y1="234.9969" x2="391.1124" y2="234.9969" gradientTransform="matrix(0.5 0 0 0.5 -92.8007 -74.684)">
			<stop  offset="0" style="stop-color:#FFF84A"/>
			<stop  offset="1" style="stop-color:#FFEC38"/>
		</linearGradient>
		<circle class="st23" cx="82.4" cy="42.8" r="20.3"/>
		<linearGradient id="SVGID_24_" gradientUnits="userSpaceOnUse" x1="94.8103" y1="32.7969" x2="69.9624" y2="52.8633">
			<stop  offset="0.4846" style="stop-color:#CC9434"/>
			<stop  offset="0.6795" style="stop-color:#FFEA72"/>
			<stop  offset="0.7638" style="stop-color:#FFE76C"/>
			<stop  offset="0.8718" style="stop-color:#FFDE5C"/>
			<stop  offset="0.9603" style="stop-color:#FFD44A"/>
		</linearGradient>
		<circle class="st24" cx="82.4" cy="42.8" r="16.1"/>
		<linearGradient id="SVGID_25_" gradientUnits="userSpaceOnUse" x1="75.0629" y1="28.069" x2="89.7106" y2="57.4846">
			<stop  offset="0.4846" style="stop-color:#CC9434"/>
			<stop  offset="0.6795" style="stop-color:#FFEA72"/>
			<stop  offset="0.7638" style="stop-color:#FFE76C"/>
			<stop  offset="0.8718" style="stop-color:#FFDE5C"/>
			<stop  offset="0.9603" style="stop-color:#FFD44A"/>
		</linearGradient>
		<circle class="st25" cx="82.4" cy="42.8" r="16.1"/>
		<linearGradient id="SVGID_26_" gradientUnits="userSpaceOnUse" x1="92.2425" y1="31.9859" x2="71.2446" y2="55.1006">
			<stop  offset="0" style="stop-color:#FFE94A"/>
			<stop  offset="0.3381" style="stop-color:#FCDA34"/>
			<stop  offset="1" style="stop-color:#F5B400"/>
		</linearGradient>
		<circle class="st26" cx="82.4" cy="42.8" r="15.5"/>
		<path class="st4" d="M82.4,27.3c-8.6,0-15.5,7-15.5,15.5s7,15.5,15.5,15.5c8.6,0,15.5-7,15.5-15.5S91,27.3,82.4,27.3z M82.4,58
			c-8.4,0-15.2-6.8-15.2-15.2S74,27.6,82.4,27.6c8.4,0,15.2,6.8,15.2,15.2S90.8,58,82.4,58z"/>
	</g>
	<linearGradient id="SVGID_27_" gradientUnits="userSpaceOnUse" x1="92.5786" y1="33.0182" x2="75.9107" y2="53.8638">
		<stop  offset="0" style="stop-color:#FFDB56"/>
		<stop  offset="9.118795e-03" style="stop-color:#FFDA55"/>
		<stop  offset="0.6822" style="stop-color:#F39A2F"/>
		<stop  offset="1" style="stop-color:#EE8120"/>
	</linearGradient>
	<polygon class="st27" points="82.4,48.5 83.7,43 87.4,41.1 88.3,36.7 84.8,38.4 86.2,32.4 80.5,32.4 78.5,41.4 74.9,43.2 74,47.6 
		77.4,45.9 75.8,52.5 89.5,52.5 90.3,48.5 	"/>
	<linearGradient id="SVGID_28_" gradientUnits="userSpaceOnUse" x1="74.4325" y1="42.5605" x2="89.8706" y2="42.5605">
		<stop  offset="0" style="stop-color:#FFF84A"/>
		<stop  offset="1" style="stop-color:#FFEC38"/>
	</linearGradient>
	<polygon class="st28" points="82,48.8 83.5,42.7 87.2,40.9 87.9,37.2 84.4,38.9 85.8,32.9 80.8,32.9 78.7,41.6 75.1,43.4 74.4,47 
		77.8,45.4 76.2,52.3 89.2,52.3 89.9,48.8 	"/>
</g>
<g>
	
		<linearGradient id="SVGID_29_" gradientUnits="userSpaceOnUse" x1="396.4348" y1="245.7681" x2="477.8344" y2="245.7681" gradientTransform="matrix(0.5 0 0 0.5 -92.8007 -74.684)">
		<stop  offset="0" style="stop-color:#FFF84A"/>
		<stop  offset="1" style="stop-color:#FFEC38"/>
	</linearGradient>
	<circle class="st29" cx="125.8" cy="48.2" r="20.3"/>
	<linearGradient id="SVGID_30_" gradientUnits="userSpaceOnUse" x1="138.1713" y1="38.1823" x2="113.3233" y2="58.2488">
		<stop  offset="0.4846" style="stop-color:#CC9434"/>
		<stop  offset="0.6795" style="stop-color:#FFEA72"/>
		<stop  offset="0.7638" style="stop-color:#FFE76C"/>
		<stop  offset="0.8718" style="stop-color:#FFDE5C"/>
		<stop  offset="0.9603" style="stop-color:#FFD44A"/>
	</linearGradient>
	<circle class="st30" cx="125.8" cy="48.2" r="16.1"/>
	<linearGradient id="SVGID_31_" gradientUnits="userSpaceOnUse" x1="118.4238" y1="33.4545" x2="133.0716" y2="62.8701">
		<stop  offset="0.4846" style="stop-color:#CC9434"/>
		<stop  offset="0.6795" style="stop-color:#FFEA72"/>
		<stop  offset="0.7638" style="stop-color:#FFE76C"/>
		<stop  offset="0.8718" style="stop-color:#FFDE5C"/>
		<stop  offset="0.9603" style="stop-color:#FFD44A"/>
	</linearGradient>
	<circle class="st31" cx="125.8" cy="48.2" r="16.1"/>
	<linearGradient id="SVGID_32_" gradientUnits="userSpaceOnUse" x1="135.6035" y1="37.3715" x2="114.6055" y2="60.4862">
		<stop  offset="0" style="stop-color:#FFE94A"/>
		<stop  offset="0.3381" style="stop-color:#FCDA34"/>
		<stop  offset="1" style="stop-color:#F5B400"/>
	</linearGradient>
	<circle class="st32" cx="125.8" cy="48.2" r="15.5"/>
	<path class="st4" d="M125.8,32.7c-8.6,0-15.5,7-15.5,15.5s7,15.5,15.5,15.5c8.6,0,15.5-7,15.5-15.5S134.3,32.7,125.8,32.7z
		 M125.8,63.4c-8.4,0-15.2-6.8-15.2-15.2S117.4,33,125.8,33c8.4,0,15.2,6.8,15.2,15.2S134.2,63.4,125.8,63.4z"/>
	<g>
		<linearGradient id="SVGID_33_" gradientUnits="userSpaceOnUse" x1="135.1698" y1="37.4466" x2="117.3045" y2="55.6506">
			<stop  offset="0" style="stop-color:#FFDB56"/>
			<stop  offset="9.118795e-03" style="stop-color:#FFDA55"/>
			<stop  offset="0.6822" style="stop-color:#F39A2F"/>
			<stop  offset="1" style="stop-color:#EE8120"/>
		</linearGradient>
		<path class="st33" d="M130.8,48L130.8,48c1.3-0.5,2.4-1.4,2.4-3.6c0-2.2-1.8-3.7-4-3.7h0v-2.1h-3.5v2.1h-1.5v-2.1h-3.5v2.1h-0.7
			h-0.5H118v3.5h1.5v8.3H118v3.5h1.5h0.5h0.7v2.1h3.5v-2.1h1.5v2.1h3.5v-2.1h0.1c2.3,0,4.2-1.6,4.2-4.1
			C133.5,49.3,132.3,48.3,130.8,48z M127.3,44c0.5,0,1,0.5,1,1.1v0.2c0,0.6-0.4,1.1-1,1.1h-2.9V44H127.3z M124.4,52.2v-2.4h3.2
			c0.6,0,1,0.5,1,1.1v0.2c0,0.6-0.4,1.1-1,1.1H124.4z"/>
		<linearGradient id="SVGID_34_" gradientUnits="userSpaceOnUse" x1="130.1618" y1="40.7066" x2="119.2112" y2="56.1165">
			<stop  offset="0" style="stop-color:#FFF84A"/>
			<stop  offset="1" style="stop-color:#FFEC38"/>
		</linearGradient>
		<path class="st34" d="M130.6,48L130.6,48c1.3-0.5,2.3-1.4,2.3-3.5c0-2.1-1.7-3.6-3.9-3.6h0v-2h-3.4v2h-1.4v-2h-3.4v2h-0.7h-0.5
			h-1.5v3.4h1.5v8h-1.5v3.4h1.5h0.5h0.7v2h3.4v-2h1.4v2h3.4v-2h0.1c2.3,0,4.1-1.6,4.1-3.9C133.3,49.3,132,48.3,130.6,48z
			 M127.3,44.1c0.6,0,1,0.5,1,1.1v0.2c0,0.6-0.4,1.2-1,1.2h-3.1v-2.5H127.3z M124.2,52.1v-2.5h3.4c0.6,0,1,0.5,1,1.2V51
			c0,0.7-0.4,1.2-1,1.2H124.2z"/>
	</g>
</g>
<g>
	<g>
		
			<linearGradient id="SVGID_35_" gradientUnits="userSpaceOnUse" x1="367.9216" y1="190.2389" x2="449.3212" y2="190.2389" gradientTransform="matrix(0.5 0 0 0.5 -92.8007 -74.684)">
			<stop  offset="0" style="stop-color:#FFF84A"/>
			<stop  offset="1" style="stop-color:#FFEC38"/>
		</linearGradient>
		<circle class="st35" cx="111.5" cy="20.4" r="20.3"/>
		<linearGradient id="SVGID_36_" gradientUnits="userSpaceOnUse" x1="123.9147" y1="10.4178" x2="99.0667" y2="30.4843">
			<stop  offset="0.4846" style="stop-color:#CC9434"/>
			<stop  offset="0.6795" style="stop-color:#FFEA72"/>
			<stop  offset="0.7638" style="stop-color:#FFE76C"/>
			<stop  offset="0.8718" style="stop-color:#FFDE5C"/>
			<stop  offset="0.9603" style="stop-color:#FFD44A"/>
		</linearGradient>
		<path class="st36" d="M127.6,20.4c0,8.9-7.2,16.1-16.1,16.1s-16.1-7.2-16.1-16.1s7.2-16.1,16.1-16.1S127.6,11.6,127.6,20.4z"/>
		<linearGradient id="SVGID_37_" gradientUnits="userSpaceOnUse" x1="104.1672" y1="5.6899" x2="118.815" y2="35.1056">
			<stop  offset="0.4846" style="stop-color:#CC9434"/>
			<stop  offset="0.6795" style="stop-color:#FFEA72"/>
			<stop  offset="0.7638" style="stop-color:#FFE76C"/>
			<stop  offset="0.8718" style="stop-color:#FFDE5C"/>
			<stop  offset="0.9603" style="stop-color:#FFD44A"/>
		</linearGradient>
		<path class="st37" d="M127.6,20.4c0,8.9-7.2,16.1-16.1,16.1s-16.1-7.2-16.1-16.1s7.2-16.1,16.1-16.1S127.6,11.6,127.6,20.4z"/>
		<linearGradient id="SVGID_38_" gradientUnits="userSpaceOnUse" x1="121.3469" y1="9.6069" x2="100.3489" y2="32.7215">
			<stop  offset="0" style="stop-color:#FFE94A"/>
			<stop  offset="0.3381" style="stop-color:#FCDA34"/>
			<stop  offset="1" style="stop-color:#F5B400"/>
		</linearGradient>
		<circle class="st38" cx="111.5" cy="20.4" r="15.5"/>
		<path class="st4" d="M111.5,4.9c-8.6,0-15.5,7-15.5,15.5c0,8.6,7,15.5,15.5,15.5c8.6,0,15.5-7,15.5-15.5
			C127,11.9,120.1,4.9,111.5,4.9z M111.5,35.7c-8.4,0-15.2-6.8-15.2-15.2c0-8.4,6.8-15.2,15.2-15.2c8.4,0,15.2,6.8,15.2,15.2
			C126.7,28.8,119.9,35.7,111.5,35.7z"/>
	</g>
	<g>
		<linearGradient id="SVGID_39_" gradientUnits="userSpaceOnUse" x1="121.9936" y1="9.3371" x2="109.3814" y2="24.5137">
			<stop  offset="0" style="stop-color:#FFDB56"/>
			<stop  offset="9.118795e-03" style="stop-color:#FFDA55"/>
			<stop  offset="0.6822" style="stop-color:#F39A2F"/>
			<stop  offset="1" style="stop-color:#EE8120"/>
		</linearGradient>
		<polygon class="st39" points="119.8,23.8 119.8,10.8 111.5,21.8 103.2,10.8 103.2,23.8 97.3,23.8 98.3,27.2 106.3,27.2 
			106.3,20.9 111.5,27.2 116.7,20.9 116.7,27.2 124.8,27.2 125.8,23.8 		"/>
		<linearGradient id="SVGID_40_" gradientUnits="userSpaceOnUse" x1="97.7085" y1="19.3545" x2="125.3114" y2="19.3545">
			<stop  offset="0" style="stop-color:#FFF84A"/>
			<stop  offset="1" style="stop-color:#FFEC38"/>
		</linearGradient>
		<polygon class="st40" points="119.6,24.1 119.6,11.8 111.5,22.4 103.4,11.8 103.4,24.1 97.7,24.1 98.5,26.9 106.1,26.9 
			106.1,20.2 111.5,26.9 116.9,20.2 116.9,26.9 124.5,26.9 125.3,24.1 		"/>
	</g>
</g>
<g>
	<g>
		
			<linearGradient id="SVGID_41_" gradientUnits="userSpaceOnUse" x1="453.6988" y1="222.3963" x2="535.0984" y2="222.3963" gradientTransform="matrix(0.5 0 0 0.5 -92.8007 -74.684)">
			<stop  offset="0" style="stop-color:#FFF84A"/>
			<stop  offset="1" style="stop-color:#FFEC38"/>
		</linearGradient>
		<circle class="st41" cx="154.4" cy="36.5" r="20.3"/>
		<linearGradient id="SVGID_42_" gradientUnits="userSpaceOnUse" x1="166.8033" y1="26.4966" x2="141.9554" y2="46.563">
			<stop  offset="0.4846" style="stop-color:#CC9434"/>
			<stop  offset="0.6795" style="stop-color:#FFEA72"/>
			<stop  offset="0.7638" style="stop-color:#FFE76C"/>
			<stop  offset="0.8718" style="stop-color:#FFDE5C"/>
			<stop  offset="0.9603" style="stop-color:#FFD44A"/>
		</linearGradient>
		<circle class="st42" cx="154.4" cy="36.5" r="16.1"/>
		<linearGradient id="SVGID_43_" gradientUnits="userSpaceOnUse" x1="147.0559" y1="21.7687" x2="161.7036" y2="51.1843">
			<stop  offset="0.4846" style="stop-color:#CC9434"/>
			<stop  offset="0.6795" style="stop-color:#FFEA72"/>
			<stop  offset="0.7638" style="stop-color:#FFE76C"/>
			<stop  offset="0.8718" style="stop-color:#FFDE5C"/>
			<stop  offset="0.9603" style="stop-color:#FFD44A"/>
		</linearGradient>
		<circle class="st43" cx="154.4" cy="36.5" r="16.1"/>
		<linearGradient id="SVGID_44_" gradientUnits="userSpaceOnUse" x1="164.2355" y1="25.6856" x2="143.2375" y2="48.8003">
			<stop  offset="0" style="stop-color:#FFE94A"/>
			<stop  offset="0.3381" style="stop-color:#FCDA34"/>
			<stop  offset="1" style="stop-color:#F5B400"/>
		</linearGradient>
		<circle class="st44" cx="154.4" cy="36.5" r="15.5"/>
		<path class="st4" d="M154.4,21c-8.6,0-15.5,7-15.5,15.5s7,15.5,15.5,15.5c8.6,0,15.5-7,15.5-15.5S163,21,154.4,21z M154.4,51.7
			c-8.4,0-15.2-6.8-15.2-15.2c0-8.4,6.8-15.2,15.2-15.2c8.4,0,15.2,6.8,15.2,15.2C169.6,44.9,162.8,51.7,154.4,51.7z"/>
	</g>
	<g>
		<linearGradient id="SVGID_45_" gradientUnits="userSpaceOnUse" x1="166.1486" y1="23.1198" x2="148.4836" y2="46.0113">
			<stop  offset="0" style="stop-color:#FFDB56"/>
			<stop  offset="9.118795e-03" style="stop-color:#FFDA55"/>
			<stop  offset="0.6822" style="stop-color:#F39A2F"/>
			<stop  offset="1" style="stop-color:#EE8120"/>
		</linearGradient>
		<path class="st45" d="M159.1,38.7C159.1,38.7,159.1,38.7,159.1,38.7c-0.5,0-1-0.1-1.4-0.3c-0.6-0.3-1.3-0.9-1.5-1.7l0,0
			c0-1,0.6-1.8,1.2-2.3c0.3-0.3,0.6-0.5,1-0.6c2.2-0.7,3.7-2.9,3.3-5.4c-0.3-1.9-1.8-3.5-3.7-3.8c-3.1-0.6-5.7,1.7-5.7,4.7
			c0,1,0.3,1.9,0.8,2.7c0.3,0.5,0.5,1,0.5,1.6c0,0.6-0.2,1.3-0.7,1.9c-0.6,0.3-1.4,0.3-2,0.2c-0.5-0.1-1-0.4-1.4-0.8
			c-1.1-1.1-2.7-1.8-4.4-1.4c-1.9,0.3-3.4,1.9-3.8,3.7c-0.6,3.1,1.7,5.7,4.7,5.7c1.8,0,3.4-1,4.2-2.5c0.2-0.4,0.5-0.7,0.9-0.9
			c0.6-0.4,1.5-0.7,2.3-0.5l0,0c0.6,0.4,1,1,1.2,1.6c0.2,0.5,0.2,1.1,0,1.6c-0.2,0.5-0.2,1-0.2,1.6c0.1,2.5,2.2,4.6,4.8,4.6
			c2.6,0,4.8-2.1,4.8-4.8C163.9,40.8,161.8,38.7,159.1,38.7z"/>
		<linearGradient id="SVGID_46_" gradientUnits="userSpaceOnUse" x1="164.1855" y1="26.6093" x2="153.3481" y2="39.6503">
			<stop  offset="0" style="stop-color:#FFF84A"/>
			<stop  offset="1" style="stop-color:#FFEC38"/>
		</linearGradient>
		<path class="st46" d="M158.9,38.6C158.9,38.6,158.9,38.6,158.9,38.6c-0.5,0-0.9-0.1-1.3-0.3c-0.6-0.3-1.2-0.9-1.5-1.7l0,0
			c0-0.9,0.6-1.7,1.1-2.2c0.3-0.3,0.6-0.5,1-0.6c2.1-0.6,3.6-2.8,3.2-5.2c-0.3-1.9-1.8-3.4-3.6-3.7c-3-0.6-5.6,1.7-5.6,4.5
			c0,1,0.3,1.9,0.8,2.6c0.3,0.5,0.5,1,0.5,1.5c0,0.6-0.2,1.3-0.7,1.8c-0.6,0.3-1.3,0.3-1.9,0.2c-0.5-0.1-1-0.4-1.3-0.8
			c-1-1.1-2.6-1.7-4.3-1.4c-1.8,0.3-3.3,1.8-3.6,3.6c-0.6,3,1.7,5.6,4.5,5.6c1.8,0,3.3-1,4.1-2.4c0.2-0.4,0.5-0.7,0.9-0.9
			c0.6-0.3,1.4-0.7,2.2-0.5l0,0c0.6,0.4,0.9,1,1.1,1.6c0.2,0.5,0.2,1,0,1.5c-0.1,0.5-0.2,1-0.2,1.5c0.1,2.4,2.2,4.5,4.6,4.5
			c2.6,0,4.6-2.1,4.6-4.6C163.6,40.7,161.5,38.6,158.9,38.6z"/>
	</g>
</g>
</svg>
