<?xml version="1.0" encoding="utf-8"?>
<!-- Generator: Adobe Illustrator 24.0.2, SVG Export Plug-In . SVG Version: 6.00 Build 0)  -->
<svg version="1.1" id="chatbot" xmlns="http://www.w3.org/2000/svg" xmlns:xlink="http://www.w3.org/1999/xlink" x="0px" y="0px"
	 viewBox="0 0 150.7 137" style="enable-background:new 0 0 150.7 137;" xml:space="preserve">
<style type="text/css">
	.st0{fill:url(#SVGID_1_);}
	.st1{opacity:0.3;fill:url(#SVGID_2_);}
	.st2{fill:url(#SVGID_3_);}
	.st3{fill:url(#SVGID_4_);}
	.st4{fill:url(#SVGID_5_);}
	.st5{fill:url(#SVGID_6_);}
	.st6{opacity:0.3;fill:url(#SVGID_7_);}
	.st7{opacity:0.5;fill:url(#SVGID_8_);}
	.st8{fill:url(#SVGID_9_);}
	.st9{fill:#DFE3FB;}
	.st10{fill:url(#SVGID_10_);}
	.st11{fill:url(#SVGID_11_);}
	.st12{fill:url(#SVGID_12_);}
	.st13{fill:url(#SVGID_13_);}
	.st14{opacity:0.5;fill:url(#SVGID_14_);}
	.st15{opacity:0.5;fill:url(#SVGID_15_);}
	.st16{opacity:0.5;fill:url(#SVGID_16_);}
	.st17{opacity:0.72;fill:url(#SVGID_17_);}
	.st18{opacity:0.72;fill:url(#SVGID_18_);}
	.st19{fill:#2F95CD;}
	.st20{fill:url(#SVGID_19_);}
	.st21{opacity:0.3;fill:url(#SVGID_20_);}
	.st22{fill:url(#SVGID_21_);}
	.st23{fill:url(#SVGID_22_);}
	.st24{opacity:0.5;fill:url(#SVGID_23_);}
	.st25{opacity:0.72;fill:url(#SVGID_24_);}
	.st26{opacity:0.72;fill:url(#SVGID_25_);}
	.st27{fill:#FFFFFF;}
	.st28{fill:url(#SVGID_26_);}
	.st29{fill:#6340A2;}
	.st30{opacity:0.5;fill:url(#SVGID_27_);}
	.st31{fill:url(#SVGID_28_);}
	.st32{fill:url(#SVGID_29_);}
	.st33{fill:url(#SVGID_30_);}
	.st34{fill:url(#SVGID_31_);}
	.st35{fill:url(#SVGID_32_);}
	.st36{opacity:0.3;fill:url(#SVGID_33_);}
	.st37{opacity:0.3;fill:url(#SVGID_34_);}
	.st38{fill:url(#SVGID_35_);}
	.st39{fill:url(#SVGID_36_);}
	.st40{fill:url(#SVGID_37_);}
	.st41{opacity:0.5;fill:url(#SVGID_38_);}
	.st42{fill:url(#SVGID_39_);}
	.st43{fill:url(#SVGID_40_);}
	.st44{fill:url(#SVGID_41_);}
	.st45{fill:url(#SVGID_42_);}
</style>
<linearGradient id="SVGID_1_" gradientUnits="userSpaceOnUse" x1="105.7273" y1="149.567" x2="111.0742" y2="129.6683">
	<stop  offset="0" style="stop-color:#CBC1F7"/>
	<stop  offset="1" style="stop-color:#E8DCF7"/>
</linearGradient>
<path class="st0" d="M93.8,145.1c0,0,21.2,9.2,25.1,5.5c4.2-4-10-22.7-14.6-22.7C97.5,127.9,93.1,142.4,93.8,145.1z"/>
<linearGradient id="SVGID_2_" gradientUnits="userSpaceOnUse" x1="104.7047" y1="151.3667" x2="104.7047" y2="129.7209">
	<stop  offset="0" style="stop-color:#9D68C2"/>
	<stop  offset="1" style="stop-color:#CCEDFF"/>
</linearGradient>
<path class="st1" d="M107.8,130.2c0,0-6.5,5.2-5.7,9.9c0.8,4.6,11.8,11.3,11.8,11.3s-9.6-1.9-18.2-5.3l11-16.3L107.8,130.2z"/>
<linearGradient id="SVGID_3_" gradientUnits="userSpaceOnUse" x1="0.8347" y1="37.0329" x2="0.8347" y2="11.3942" gradientTransform="matrix(-0.8478 0.5303 0.5303 0.8478 65.5221 -7.6247)">
	<stop  offset="0" style="stop-color:#45FFCD"/>
	<stop  offset="1" style="stop-color:#22E0FF"/>
</linearGradient>
<path class="st2" d="M70.6,2.6c0,0,9.8,2.5,17.6,13.6C96.1,27.3,72.4,19,72.4,19L70.6,2.6z"/>
<linearGradient id="SVGID_4_" gradientUnits="userSpaceOnUse" x1="8.0286" y1="26.2406" x2="8.0286" y2="4.3535" gradientTransform="matrix(-0.8478 0.5303 0.5303 0.8478 65.5221 -7.6247)">
	<stop  offset="0" style="stop-color:#B9ACF4"/>
	<stop  offset="1" style="stop-color:#E1D1F5"/>
</linearGradient>
<path class="st3" d="M82.3,12.8c0,0-11.5-12.5-17.8-12.7c-6.3-0.3-12.5,7.4-12.5,7.4L82.3,12.8z"/>
<linearGradient id="SVGID_5_" gradientUnits="userSpaceOnUse" x1="29.9835" y1="84.3491" x2="40.3279" y2="1.9859" gradientTransform="matrix(-0.8478 0.5303 0.5303 0.8478 65.5221 -7.6247)">
	<stop  offset="0" style="stop-color:#CBC1F7"/>
	<stop  offset="1" style="stop-color:#E8DCF7"/>
</linearGradient>
<path class="st4" d="M35.2,88.3c19.8,9.4,70.7-19,74.3-32.1c1.4-5.2,1-10.7-0.8-16l0,0C100.8,17.5,67-2.3,39.6,10.8
	C21,19.7,15.5,43.1,19,62.2C21.2,74.1,26.9,84.3,35.2,88.3z"/>
<linearGradient id="SVGID_6_" gradientUnits="userSpaceOnUse" x1="4.9354" y1="74.1274" x2="72.5446" y2="74.1274" gradientTransform="matrix(-0.8478 0.5303 0.5303 0.8478 65.5221 -7.6247)">
	<stop  offset="0" style="stop-color:#8879EA"/>
	<stop  offset="1" style="stop-color:#9E8CEF"/>
</linearGradient>
<path class="st5" d="M49.6,89.8c7.8-1.1,18.5-4.3,25.2-7.4C87.2,76.7,95.5,71.3,99.6,67l0,0c2.7-2.8,3.6-5.1,2.6-6.6
	c-0.6-0.9-3.4-0.7-7.6,0.4c-12.2,3.1-35.8,13-47.5,20.7c-1,0.7-1.9,1.3-2.7,1.9c-0.2,0.1-0.3,0.3-0.5,0.4c0,0-0.1,0-0.1,0.1
	c-1.9,1.5-3.2,2.9-3.5,4c-0.1,0.3-0.1,0.5-0.1,0.8C40.5,90.4,44.4,90.6,49.6,89.8z"/>
<linearGradient id="SVGID_7_" gradientUnits="userSpaceOnUse" x1="34.4037" y1="82.5213" x2="34.4037" y2="28.7443" gradientTransform="matrix(-0.8478 0.5303 0.5303 0.8478 65.5221 -7.6247)">
	<stop  offset="0" style="stop-color:#9D68C2"/>
	<stop  offset="1" style="stop-color:#CCEDFF"/>
</linearGradient>
<path class="st6" d="M35.2,88.3c19.8,9.4,70.7-19,74.3-32.1c1.4-5.2,1-10.7-0.8-16l0,0c0,0-0.4,8.5-10.5,14.7
	c-10.1,6.2-42.2,18.8-50.7,17C39,70.1,31.6,47.5,31.6,47.5L19,62.2C21.2,74.1,26.9,84.3,35.2,88.3z"/>
<linearGradient id="SVGID_8_" gradientUnits="userSpaceOnUse" x1="38.74" y1="81.3699" x2="38.74" y2="65.7321" gradientTransform="matrix(-0.8478 0.5303 0.5303 0.8478 65.5221 -7.6247)">
	<stop  offset="0" style="stop-color:#8DA4E5"/>
	<stop  offset="1" style="stop-color:#755CBB"/>
</linearGradient>
<path class="st7" d="M49.6,89.8c4.3-4.8,17.2-17.9,31-20.8c16.9-3.5,19-2,19-2l0,0c2.7-2.8,3.6-5.1,2.6-6.6
	c-0.6-0.9-3.4-0.7-7.6,0.4c-12.2,3.1-35.8,13-47.5,20.7c-1.2,0.8-2.3,1.6-3.2,2.3c0,0-0.1,0-0.1,0.1c-1.9,1.5-3.2,2.9-3.5,4
	c-0.1,0.3-0.1,0.5-0.1,0.8C40.5,90.4,44.4,90.6,49.6,89.8z"/>
<linearGradient id="SVGID_9_" gradientUnits="userSpaceOnUse" x1="39.5525" y1="124.7403" x2="40.8318" y2="114.5541" gradientTransform="matrix(-0.9107 0.4131 0.4131 0.9107 57.435 -52.3506)">
	<stop  offset="0" style="stop-color:#5E36CC"/>
	<stop  offset="1" style="stop-color:#6C4A96"/>
</linearGradient>
<path class="st8" d="M44.4,83.3c4.2,1.5,19.4-2.5,27.4-6.1c14.4-6.5,22.1-12.8,22.9-16.4C81.4,64.1,54.7,75.6,44.4,83.3z"/>
<path class="st9" d="M109.2,41.1c0.7,7.6-43.8,30.7-60.7,24.5S25.3,16.3,51,8.9C75.6,1.7,107.9,27.4,109.2,41.1z"/>
<linearGradient id="SVGID_10_" gradientUnits="userSpaceOnUse" x1="21.9604" y1="66.6602" x2="21.9604" y2="4.307" gradientTransform="matrix(-0.8478 0.5303 0.5303 0.8478 65.5221 -7.6247)">
	<stop  offset="0" style="stop-color:#0665BD"/>
	<stop  offset="1" style="stop-color:#1A1F77"/>
</linearGradient>
<path class="st10" d="M108.7,40.2c0.7,7.6-43.8,30.7-60.7,24.5c-16.9-6.2-23.2-49.3,2.5-56.8C75,0.8,107.3,26.5,108.7,40.2z"/>
<linearGradient id="SVGID_11_" gradientUnits="userSpaceOnUse" x1="63.842" y1="34.2843" x2="63.842" y2="-7.9284" gradientTransform="matrix(-0.9346 0.3556 0.3556 0.9346 76.1423 5.1359)">
	<stop  offset="0" style="stop-color:#B9ACF4"/>
	<stop  offset="1" style="stop-color:#E1D1F5"/>
</linearGradient>
<path class="st11" d="M28.1,24.4c0,0,11.3,22.1,0.2,35.6c0,0-6.7,3.4-12.4,0.7c0,0,8.6,3.5,12.9-5.2c4.3-8.7-3.8-25.1-10.9-28.8
	S3.9,27.4,3.9,27.4l1.9-3.7C5.8,23.6,15.7,17.4,28.1,24.4z"/>
<linearGradient id="SVGID_12_" gradientUnits="userSpaceOnUse" x1="67.0754" y1="32.6815" x2="67.0754" y2="-7.7323" gradientTransform="matrix(-0.9346 0.3556 0.3556 0.9346 76.1423 5.1359)">
	<stop  offset="0" style="stop-color:#BE9DEA"/>
	<stop  offset="1" style="stop-color:#9E8CEF"/>
</linearGradient>
<path class="st12" d="M5.8,23.6c0,0,7.6-3.7,16.6,3.3c9.6,7.5,11.7,26,5.6,31.2C21.9,63.5,4.3,39,4.3,39l0-12.4
	C4.3,26.6,4.6,24.7,5.8,23.6z"/>
<linearGradient id="SVGID_13_" gradientUnits="userSpaceOnUse" x1="70.1257" y1="33.6851" x2="70.1257" y2="-5.9282" gradientTransform="matrix(-0.9346 0.3556 0.3556 0.9346 76.1423 5.1359)">
	<stop  offset="0" style="stop-color:#45FFCD"/>
	<stop  offset="1" style="stop-color:#22E0FF"/>
</linearGradient>
<path class="st13" d="M4.4,50.7c3,4.9,6.8,8.4,10.7,10l0,0l1.1,0.4l0,0c3,1,6.1,0.8,8.9-0.7c9.2-4.9,5.1-19.3,1-26.8
	c-4.8-8.6-14.7-11.1-20.6-8C-1.4,29.5-1.5,41.2,4.4,50.7z"/>
<linearGradient id="SVGID_14_" gradientUnits="userSpaceOnUse" x1="-3.5033" y1="18.1662" x2="50.0849" y2="18.1662" gradientTransform="matrix(-0.8478 0.5303 0.5303 0.8478 65.5221 -7.6247)">
	<stop  offset="0" style="stop-color:#000000"/>
	<stop  offset="1" style="stop-color:#6A9BFF"/>
</linearGradient>
<path class="st14" d="M84.7,16.6c-0.4,2-11,0.8-20.3,5.6C55,26.9,48.1,40.5,39.7,42.4C33,43.9,32.6,18,47.9,9.8
	C63.2,1.6,85.1,14.7,84.7,16.6z"/>
<linearGradient id="SVGID_15_" gradientUnits="userSpaceOnUse" x1="-0.1946" y1="61.4473" x2="39.0752" y2="61.4473" gradientTransform="matrix(-0.8478 0.5303 0.5303 0.8478 65.5221 -7.6247)">
	<stop  offset="0" style="stop-color:#000000"/>
	<stop  offset="1" style="stop-color:#6A9BFF"/>
</linearGradient>
<path class="st15" d="M99.4,46.1c0,0-11.1,1.2-23.1,7.4c-11.9,6.2-13.4,8.3-12.7,9.4c0.7,1.1,10.7,0,21.6-5.6
	C96.2,51.7,99.4,46.1,99.4,46.1z"/>
<linearGradient id="SVGID_16_" gradientUnits="userSpaceOnUse" x1="-9.0551" y1="61.4459" x2="-9.0551" y2="35.8566" gradientTransform="matrix(-0.8478 0.5303 0.5303 0.8478 65.5221 -7.6247)">
	<stop  offset="0" style="stop-color:#000000"/>
	<stop  offset="1" style="stop-color:#6A9BFF"/>
</linearGradient>
<path class="st16" d="M107.6,38.5c0,0-2.1-9.3-14.8-18.6c0,0-2.5-1.3-3-0.3C89.3,20.6,100.7,26.5,107.6,38.5z"/>
<linearGradient id="SVGID_17_" gradientUnits="userSpaceOnUse" x1="69.3678" y1="32.3908" x2="69.3678" y2="20.8219" gradientTransform="matrix(-0.9346 0.3556 0.3556 0.9346 76.1423 5.1359)">
	<stop  offset="0" style="stop-color:#D4E2FF"/>
	<stop  offset="1" style="stop-color:#000000"/>
</linearGradient>
<path class="st17" d="M28.9,45.4c0,0,2.2,8.9-3.3,13.2c-5.6,4.2-12.4,1.6-16.5-4.2c0,0,4.1,4.8,11.7,0.3
	C28.4,50.1,28.9,45.4,28.9,45.4z"/>
<linearGradient id="SVGID_18_" gradientUnits="userSpaceOnUse" x1="59.7496" y1="1.3176" x2="82.4177" y2="1.3176" gradientTransform="matrix(-0.9346 0.3556 0.3556 0.9346 76.1423 5.1359)">
	<stop  offset="0" style="stop-color:#000000"/>
	<stop  offset="1" style="stop-color:#D4E2FF"/>
</linearGradient>
<path class="st18" d="M21.6,29.7c0.5,1.6-12.3,2.7-15.7,4.6c-3.5,1.9-3.3,7-4,7.1c-0.6,0.1-3.1-11,3.5-14.4
	C11.8,23.6,21.2,28.6,21.6,29.7z"/>
<path class="st19" d="M86.5,34.7c0,0-11.6,6.4-18.7,7.2c0,0,7.2,9.7,14.6,6.8C89.8,45.9,86.5,34.7,86.5,34.7z"/>
<g>
	
		<linearGradient id="SVGID_19_" gradientUnits="userSpaceOnUse" x1="43.3423" y1="148.6724" x2="53.1346" y2="70.7054" gradientTransform="matrix(-0.9961 -8.860000e-02 -8.860000e-02 0.9961 140.2801 4.3663)">
		<stop  offset="0" style="stop-color:#CBC1F7"/>
		<stop  offset="1" style="stop-color:#E8DCF7"/>
	</linearGradient>
	<path class="st20" d="M57.1,123.3c2.1,16.3,10.6,24,27,25.2c16.1,1.2,27.5-15.3,24.1-36.2c-2.1-13.3-5-25.3-11.2-33.1c0,0,0,0,0,0
		l0,0c-3.5-4.4-8.1-7.5-14.3-8.8c-4.9-1-9.2,1.3-12.8,5.5C60.5,86.8,55.5,110.7,57.1,123.3z"/>
	
		<linearGradient id="SVGID_20_" gradientUnits="userSpaceOnUse" x1="58.2411" y1="148.51" x2="58.2411" y2="86.1634" gradientTransform="matrix(-0.9961 -8.860000e-02 -8.860000e-02 0.9961 140.2801 4.3663)">
		<stop  offset="0" style="stop-color:#9D68C2"/>
		<stop  offset="1" style="stop-color:#CCEDFF"/>
	</linearGradient>
	<path class="st21" d="M81.4,88c0,0-9.9,16.6-10,25c-0.2,28.4,12.7,35.5,12.7,35.5s-11.5-0.9-16.3-5.1c-5.2-4.6-12-13-10.8-30.5
		c0.9-13.8,7.7-28.7,7.7-28.7L81.4,88z"/>
	
		<linearGradient id="SVGID_21_" gradientUnits="userSpaceOnUse" x1="26.2928" y1="121.4937" x2="64.5298" y2="121.4937" gradientTransform="matrix(-0.7487 -6.660000e-02 -8.860000e-02 0.9961 138.5828 4.2664)">
		<stop  offset="0" style="stop-color:#BE9DEA"/>
		<stop  offset="1" style="stop-color:#9E8CEF"/>
	</linearGradient>
	<path class="st22" d="M108.8,112.5c0,0-1.7-12.3-10.4-13.1c-10.4-0.9-18.8,13.7-19.1,24.2c-0.3,10.4,1.2,20.4,11,21.6
		C90.3,145.2,108.8,146.3,108.8,112.5z"/>
	
		<radialGradient id="SVGID_22_" cx="46.1816" cy="138.9554" r="28.8969" gradientTransform="matrix(-0.7487 -6.660000e-02 -8.860000e-02 0.9961 138.5828 4.2664)" gradientUnits="userSpaceOnUse">
		<stop  offset="0" style="stop-color:#45FFCD"/>
		<stop  offset="1" style="stop-color:#22E0FF"/>
	</radialGradient>
	<path class="st23" d="M108.6,114c0,0-1.7-12.3-10.4-13.1c-10.4-0.9-18.8,13.7-19.1,24.2c-0.3,10.4,1.2,20.4,11,21.6
		C90.1,146.7,108.5,147.8,108.6,114z"/>
	
		<linearGradient id="SVGID_23_" gradientUnits="userSpaceOnUse" x1="49.5931" y1="82.9824" x2="49.5931" y2="70.6025" gradientTransform="matrix(-0.9961 -8.860000e-02 -8.860000e-02 0.9961 140.2801 4.3663)">
		<stop  offset="0" style="stop-color:#8DA4E5"/>
		<stop  offset="1" style="stop-color:#755CBB"/>
	</linearGradient>
	<path class="st24" d="M70.2,75.7c0,0,16.3,7.9,22.9,7.7c6.4-0.1,4.3-4.1,4.2-4.4c0,0,0,0,0,0l0,0c-3.5-4.4-8.1-7.5-14.3-8.8
		C78.1,69.2,73.8,71.5,70.2,75.7z"/>
	
		<linearGradient id="SVGID_24_" gradientUnits="userSpaceOnUse" x1="28.2823" y1="108.0584" x2="60.0093" y2="108.0584" gradientTransform="matrix(-0.7487 -6.660000e-02 -8.860000e-02 0.9961 138.5828 4.2664)">
		<stop  offset="0" style="stop-color:#000000"/>
		<stop  offset="1" style="stop-color:#D4E2FF"/>
	</linearGradient>
	<path class="st25" d="M107.5,112.8c-1.6,3.2-6.1-1.5-12.3-1.1c-6.2,0.4-9.8,4.4-11.5,3.1c-1.6-1.3,4.9-13,14.3-12.6
		C105.6,102.4,108.1,111.7,107.5,112.8z"/>
	
		<linearGradient id="SVGID_25_" gradientUnits="userSpaceOnUse" x1="45.7186" y1="144.728" x2="45.7186" y2="141.0642" gradientTransform="matrix(-0.7487 -6.660000e-02 -8.860000e-02 0.9961 138.5828 4.2664)">
		<stop  offset="0" style="stop-color:#D4E2FF"/>
		<stop  offset="1" style="stop-color:#000000"/>
	</linearGradient>
	<path class="st26" d="M98.1,142.3c0,0-2.9,3.2-7.1,3c-4.2-0.2-5.4-3-5.4-3s2-0.9,4.9,0.1C93.3,143.5,96.1,143.2,98.1,142.3z"/>
	<path class="st27" d="M80.2,86.6c1,0.1,1.8,9.8,1,10.1c-0.8,0.2-1.7-1.9-2.2-5.1C78.5,88.4,79.2,86.4,80.2,86.6z"/>
	<linearGradient id="SVGID_26_" gradientUnits="userSpaceOnUse" x1="73.5693" y1="93.164" x2="62.2992" y2="92.1621">
		<stop  offset="0" style="stop-color:#8879EA"/>
		<stop  offset="1" style="stop-color:#9E8CEF"/>
	</linearGradient>
	<path class="st28" d="M73.5,91.4c-1.1,5.3-4,11.2-6.5,13.7c-0.9,0.9-1.7,1.3-2.4,1.2c-2.7-0.4-4.3-7.9-0.7-17.1
		c3-7.6,7.1-10.5,8.6-10c0.7,0.2,1.4,1.3,1.7,3.6C74.4,84.7,74.2,87.5,73.5,91.4z"/>
	<path class="st29" d="M73.5,91.4c-1.1,5.3-4,11.2-6.5,13.7c0,0-3.5-17.6,7.2-22.3C74.4,84.7,74.2,87.5,73.5,91.4z"/>
</g>
<linearGradient id="SVGID_27_" gradientUnits="userSpaceOnUse" x1="86.9122" y1="106.9786" x2="86.9122" y2="93.0767">
	<stop  offset="0" style="stop-color:#8DA4E5"/>
	<stop  offset="1" style="stop-color:#755CBB"/>
</linearGradient>
<path class="st30" d="M68.9,103.2c0,0,13.3,5.7,24.8,3.1c11.5-2.6,11.2-10.4,11.2-10.4l-0.8-2.8L68.9,103.2z"/>
<linearGradient id="SVGID_28_" gradientUnits="userSpaceOnUse" x1="56.3817" y1="165.1098" x2="67.3906" y2="124.1393">
	<stop  offset="0" style="stop-color:#CBC1F7"/>
	<stop  offset="1" style="stop-color:#E8DCF7"/>
</linearGradient>
<path class="st31" d="M76.1,135.9c0,0-3.5,28.9-10.9,31.1c-0.2,0.1-0.4,0.1-0.6,0.1C58.8,167.9,52,139,53,128.9
	c0.3-2.6,1.3-4.3,2.8-5.3C61.1,120,72.2,125.3,76.1,135.9z"/>
<linearGradient id="SVGID_29_" gradientUnits="userSpaceOnUse" x1="90.4292" y1="108.9447" x2="104.0026" y2="58.4301">
	<stop  offset="0" style="stop-color:#CBC1F7"/>
	<stop  offset="1" style="stop-color:#E8DCF7"/>
</linearGradient>
<path class="st32" d="M127.8,77.4C127.8,77.4,127.8,77.4,127.8,77.4c-30.1,25.3-58.9,25.8-58.9,25.8c-3.3-6.3-1.8-21.1,1.5-23.2
	c0.2-0.1,0.3-0.2,0.5-0.2c0,0,0,0,0,0c18.7-4.3,37.2-10,47.1-13.3l0.1,0c3.6-1.2,6-2,6.8-2.3l0.3-0.1c0,0,0,0,0.1,0.1
	c0.5,0.2,0.9,0.4,1.2,0.8c0,0,0,0,0,0C129.4,68,127.9,76.8,127.8,77.4z"/>
<linearGradient id="SVGID_30_" gradientUnits="userSpaceOnUse" x1="128.8674" y1="72.2002" x2="118.9069" y2="71.3148">
	<stop  offset="0" style="stop-color:#8879EA"/>
	<stop  offset="1" style="stop-color:#9E8CEF"/>
</linearGradient>
<path class="st33" d="M125.2,64.1c0,0-6.2,4.9-6.6,10.9c-0.4,6,6.7,4.8,9.2,2.4C127.8,77.4,131.6,66.1,125.2,64.1z"/>
<linearGradient id="SVGID_31_" gradientUnits="userSpaceOnUse" x1="88.8033" y1="26.7304" x2="86.9161" y2="17.3993">
	<stop  offset="0" style="stop-color:#45FFCD"/>
	<stop  offset="1" style="stop-color:#22E0FF"/>
</linearGradient>
<path class="st34" d="M83.9,27.6c-1.7-0.1-2.4-8.2,0.6-9.7c3-1.5,9.3,2.5,9.5,5.4c0.1,1.3-3.3,1-4.8,1.8
	C87.4,26.1,85.5,27.7,83.9,27.6z"/>
<linearGradient id="SVGID_32_" gradientUnits="userSpaceOnUse" x1="52.4236" y1="43.1268" x2="49.736" y2="29.8382">
	<stop  offset="0" style="stop-color:#45FFCD"/>
	<stop  offset="1" style="stop-color:#22E0FF"/>
</linearGradient>
<path class="st35" d="M62.1,35.4c1.5-2.6-13.3-8.1-18.7-3.4s-2.7,11.3-0.3,12.8c1.4,0.9,4.9-3.3,9.8-5.3
	C57.4,37.5,61.3,36.8,62.1,35.4z"/>
<linearGradient id="SVGID_33_" gradientUnits="userSpaceOnUse" x1="65.9662" y1="167.0868" x2="65.9662" y2="122.4667">
	<stop  offset="0" style="stop-color:#9D68C2"/>
	<stop  offset="1" style="stop-color:#CCEDFF"/>
</linearGradient>
<path class="st36" d="M76.1,135.9c0,0-3.5,28.9-10.9,31.1c6.3-5.6,10.2-28,0-40.8c-2.9-3.6-7.6-3-9.5-2.7
	C61.1,120,72.2,125.3,76.1,135.9z"/>
<linearGradient id="SVGID_34_" gradientUnits="userSpaceOnUse" x1="98.2685" y1="103.1668" x2="98.2685" y2="64.1168">
	<stop  offset="0" style="stop-color:#9D68C2"/>
	<stop  offset="1" style="stop-color:#CCEDFF"/>
</linearGradient>
<path class="st37" d="M127.8,77.4C127.8,77.4,127.8,77.4,127.8,77.4c-30.1,25.3-58.9,25.8-58.9,25.8c-3.3-6.3-1.8-21.1,1.5-23.2
	l0.5-0.2c-0.3,0.4-6.6,10.3-0.6,16.3c6.1,6.2,38-7.8,43.5-17.6c5.5-9.8,3.6-11.8,3.6-11.8l0.5-0.2l0.1,0l6.8-2.3l0.3-0.1
	c0,0,0,0,0.1,0.1c0.2,0.1,0.7,0.4,1.2,0.8c0,0,0,0,0,0C128.4,66.5,131.3,70.2,127.8,77.4z"/>
<linearGradient id="SVGID_35_" gradientUnits="userSpaceOnUse" x1="132.1292" y1="79.7143" x2="140.0055" y2="50.4019">
	<stop  offset="0" style="stop-color:#CBC1F7"/>
	<stop  offset="1" style="stop-color:#E8DCF7"/>
</linearGradient>
<path class="st38" d="M121.5,72.2c-0.8,6.2,9.4,8.5,16.6,4.4c7.2-4.1,10.2-9.4,11.9-13.3c1.6-3.9-0.6-9.9-2.1-10.8
	c-1.5-0.9-16.1,4.7-18.6,5.9C121.5,62.3,122,68.5,121.5,72.2z"/>
<linearGradient id="SVGID_36_" gradientUnits="userSpaceOnUse" x1="146.304" y1="50.2742" x2="122.7319" y2="67.5906">
	<stop  offset="0" style="stop-color:#BE9DEA"/>
	<stop  offset="1" style="stop-color:#9E8CEF"/>
</linearGradient>
<path class="st39" d="M122.2,66.8c0,0,18.6-4.4,26-14c0,0-0.3-1.3-3.5-0.4l-16.2,5.9C128.4,58.4,122.4,62.8,122.2,66.8z"/>
<linearGradient id="SVGID_37_" gradientUnits="userSpaceOnUse" x1="127.2775" y1="66.8637" x2="132.4731" y2="47.5277">
	<stop  offset="0" style="stop-color:#CBC1F7"/>
	<stop  offset="1" style="stop-color:#E8DCF7"/>
</linearGradient>
<path class="st40" d="M122.9,65.7c0,0,0.2-4.6,1.7-7.7c3.7-7.5,9.7-10,9.7-10s1.8,1.7,2.2,3.9c0.4,2.2-4.5,10.5-4.5,10.5
	S127.4,65.8,122.9,65.7z"/>
<linearGradient id="SVGID_38_" gradientUnits="userSpaceOnUse" x1="140.3604" y1="55.9862" x2="131.8852" y2="62.2122">
	<stop  offset="0" style="stop-color:#8DA4E5"/>
	<stop  offset="1" style="stop-color:#755CBB"/>
</linearGradient>
<path class="st41" d="M135.2,56.2l6.9,2.2c0,0-5,3.1-10.1,4L135.2,56.2z"/>
<path class="st27" d="M64.7,138.8c-1.1-0.2-1.4,9.5,0,10.4C66,150.1,66.4,139.2,64.7,138.8z"/>
<path class="st27" d="M75.6,83.6c0.2,1.2,8-0.2,8-1.8C83.5,80.2,75.4,82.4,75.6,83.6z"/>
<path class="st27" d="M84.9,81.3c-0.2-0.5,2.9-1.4,3.4-1c0.5,0.4-0.7,1.1-1.5,1.4C86.1,82,85.1,81.7,84.9,81.3z"/>
<path class="st27" d="M126.8,57.4c-1.5,0.2,1.3-4.3,2.1-4.3C129.8,53.1,127.9,57.2,126.8,57.4z"/>
<path class="st27" d="M110.2,135.5c-0.7,0.3,1.2,3.7,2.3,3C113.5,137.7,111.9,134.8,110.2,135.5z"/>
<linearGradient id="SVGID_39_" gradientUnits="userSpaceOnUse" x1="29.4968" y1="75.6877" x2="34.5188" y2="35.7021" gradientTransform="matrix(0.7722 -0.6354 0.6354 0.7722 -29.8034 40.2489)">
	<stop  offset="0" style="stop-color:#BE9DEA"/>
	<stop  offset="1" style="stop-color:#9E8CEF"/>
</linearGradient>
<path class="st42" d="M11.5,51c0,0,4.8-0.6,6.6,5.8c0,0-0.6,14,8.2,21c7.5,6,25.9-11,25.9-11l0.8,3.3c0,0-14.3,14.3-23.5,15.2
	c0,0-6.3,0.1-11.5-11.8C12.8,61.5,11.5,51,11.5,51z"/>
<linearGradient id="SVGID_40_" gradientUnits="userSpaceOnUse" x1="32.1173" y1="-76.7871" x2="32.1173" y2="-88.1275" gradientTransform="matrix(0.8973 -0.4415 0.4415 0.8973 67.4212 151.131)">
	<stop  offset="0" style="stop-color:#DD1A8F"/>
	<stop  offset="1" style="stop-color:#FE117E"/>
</linearGradient>
<path class="st43" d="M52,68.2c-0.1,3.6,5.6,2.7,9.1,0.4c3.9-2.6,9.1-9.2,5.8-12.6C63.5,52.7,52.3,59.8,52,68.2z"/>
<linearGradient id="SVGID_41_" gradientUnits="userSpaceOnUse" x1="54.1862" y1="74.5211" x2="54.1862" y2="69.7063" gradientTransform="matrix(0.7722 -0.6354 0.6354 0.7722 -29.8034 40.2489)">
	<stop  offset="0" style="stop-color:#D93DE3"/>
	<stop  offset="1" style="stop-color:#FF6DBA"/>
</linearGradient>
<path class="st44" d="M52.6,68.4c0.4,0.7,13.3-9.7,11.8-12.3C62.8,53.6,49.6,63.1,52.6,68.4z"/>
<linearGradient id="SVGID_42_" gradientUnits="userSpaceOnUse" x1="22.1319" y1="52.0072" x2="22.1319" y2="40.7482" gradientTransform="matrix(0.5585 -0.8295 0.8295 0.5585 -34.6923 58.8231)">
	<stop  offset="0" style="stop-color:#CBC1F7"/>
	<stop  offset="1" style="stop-color:#E8DCF7"/>
</linearGradient>
<path class="st45" d="M13.8,59.7c0,0,3.7,13.4,4.6,13.3C19.3,72.9,15,59.8,13.8,59.7z"/>
</svg>
