<?xml version="1.0" encoding="utf-8"?>
<!-- Generator: Adobe Illustrator 24.0.2, SVG Export Plug-In . SVG Version: 6.00 Build 0)  -->
<svg version="1.1" id="chatbot" xmlns="http://www.w3.org/2000/svg" xmlns:xlink="http://www.w3.org/1999/xlink" x="0px" y="0px"
	 viewBox="0 0 204.3 167.4" style="enable-background:new 0 0 204.3 167.4;" xml:space="preserve">
<style type="text/css">
	.st0{fill:url(#SVGID_1_);}
	.st1{opacity:0.3;fill:url(#SVGID_2_);}
	.st2{fill:url(#SVGID_3_);}
	.st3{fill:url(#SVGID_4_);}
	.st4{fill:url(#SVGID_5_);}
	.st5{fill:url(#SVGID_6_);}
	.st6{fill:url(#SVGID_7_);}
	.st7{opacity:0.3;fill:url(#SVGID_8_);}
	.st8{opacity:0.5;fill:url(#SVGID_9_);}
	.st9{fill:url(#SVGID_10_);}
	.st10{fill:#DFE3FB;}
	.st11{fill:url(#SVGID_11_);}
	.st12{fill:url(#SVGID_12_);}
	.st13{fill:url(#SVGID_13_);}
	.st14{fill:url(#SVGID_14_);}
	.st15{opacity:0.5;fill:url(#SVGID_15_);}
	.st16{opacity:0.5;fill:url(#SVGID_16_);}
	.st17{opacity:0.5;fill:url(#SVGID_17_);}
	.st18{opacity:0.72;fill:url(#SVGID_18_);}
	.st19{opacity:0.72;fill:url(#SVGID_19_);}
	.st20{fill:#2F95CD;}
	.st21{fill:url(#SVGID_20_);}
	.st22{opacity:0.3;fill:url(#SVGID_21_);}
	.st23{fill:url(#SVGID_22_);}
	.st24{fill:url(#SVGID_23_);}
	.st25{opacity:0.5;fill:url(#SVGID_24_);}
	.st26{opacity:0.72;fill:url(#SVGID_25_);}
	.st27{opacity:0.72;fill:url(#SVGID_26_);}
	.st28{fill:#FFFFFF;}
	.st29{fill:url(#SVGID_27_);}
	.st30{fill:#6340A2;}
	.st31{opacity:0.5;fill:url(#SVGID_28_);}
	.st32{fill:url(#SVGID_29_);}
	.st33{fill:url(#SVGID_30_);}
	.st34{fill:url(#SVGID_31_);}
	.st35{fill:url(#SVGID_32_);}
	.st36{fill:url(#SVGID_33_);}
	.st37{fill:url(#SVGID_34_);}
	.st38{fill:url(#SVGID_35_);}
	.st39{opacity:0.5;fill:url(#SVGID_36_);}
	.st40{fill:url(#SVGID_37_);}
	.st41{fill:url(#SVGID_38_);}
	.st42{opacity:0.3;fill:url(#SVGID_39_);}
	.st43{opacity:0.5;fill:url(#SVGID_40_);}
	.st44{opacity:0.3;fill:url(#SVGID_41_);}
	.st45{fill:url(#SVGID_42_);}
	.st46{fill:url(#SVGID_43_);}
	.st47{fill:url(#SVGID_44_);}
	.st48{opacity:0.5;fill:url(#SVGID_45_);}
	.st49{fill:url(#SVGID_46_);}
	.st50{fill:url(#SVGID_47_);}
	.st51{fill:url(#SVGID_48_);}
	.st52{fill:url(#SVGID_49_);}
	.st53{fill:url(#SVGID_50_);}
	.st54{fill:url(#SVGID_51_);}
	.st55{opacity:0.3;fill:url(#SVGID_52_);}
	.st56{opacity:0.72;fill:url(#SVGID_53_);}
</style>
<g>
	
		<linearGradient id="SVGID_1_" gradientUnits="userSpaceOnUse" x1="105.8122" y1="149.534" x2="111.1591" y2="129.6353" gradientTransform="matrix(-1 0 0 1 204.3008 0)">
		<stop  offset="0" style="stop-color:#CBC1F7"/>
		<stop  offset="1" style="stop-color:#E8DCF7"/>
	</linearGradient>
	<path class="st0" d="M110.4,145.1c0,0-21.2,9.2-25.1,5.5c-4.2-4,10-22.7,14.6-22.7C106.7,127.9,111.2,142.3,110.4,145.1z"/>
	
		<linearGradient id="SVGID_2_" gradientUnits="userSpaceOnUse" x1="104.7896" y1="151.3337" x2="104.7896" y2="129.6879" gradientTransform="matrix(-1 0 0 1 204.3008 0)">
		<stop  offset="0" style="stop-color:#9D68C2"/>
		<stop  offset="1" style="stop-color:#CCEDFF"/>
	</linearGradient>
	<path class="st1" d="M96.5,130.2c0,0,6.5,5.2,5.7,9.9c-0.8,4.6-11.8,11.3-11.8,11.3s9.6-1.9,18.2-5.3l-11-16.3L96.5,130.2z"/>
	
		<linearGradient id="SVGID_3_" gradientUnits="userSpaceOnUse" x1="105.4919" y1="90.8763" x2="107.1841" y2="44.6371" gradientTransform="matrix(-1 0 0 1 204.3008 0)">
		<stop  offset="0" style="stop-color:#BE9DEA"/>
		<stop  offset="1" style="stop-color:#9E8CEF"/>
	</linearGradient>
	<path class="st2" d="M104.6,67c0,0-16.7-7.4-30.3-21.5c0,0-4.4,4.7-0.9,15.3c0,0,25.8,27.6,40.4,29.4c14.6,1.8,9.1-18.4,9.1-18.4
		S110.6,71.2,104.6,67z"/>
	
		<linearGradient id="SVGID_4_" gradientUnits="userSpaceOnUse" x1="0.9196" y1="36.9999" x2="0.9196" y2="11.3612" gradientTransform="matrix(0.8478 0.5303 -0.5303 0.8478 138.6043 -7.6747)">
		<stop  offset="0" style="stop-color:#45FFCD"/>
		<stop  offset="1" style="stop-color:#22E0FF"/>
	</linearGradient>
	<path class="st3" d="M133.6,2.6c0,0-9.8,2.5-17.6,13.6c-7.8,11.1,15.8,2.8,15.8,2.8L133.6,2.6z"/>
	
		<linearGradient id="SVGID_5_" gradientUnits="userSpaceOnUse" x1="8.1135" y1="26.2076" x2="8.1135" y2="4.3205" gradientTransform="matrix(0.8478 0.5303 -0.5303 0.8478 138.6043 -7.6747)">
		<stop  offset="0" style="stop-color:#B9ACF4"/>
		<stop  offset="1" style="stop-color:#E1D1F5"/>
	</linearGradient>
	<path class="st4" d="M121.9,12.8c0,0,11.5-12.5,17.8-12.7c6.3-0.3,12.5,7.4,12.5,7.4L121.9,12.8z"/>
	
		<linearGradient id="SVGID_6_" gradientUnits="userSpaceOnUse" x1="30.0684" y1="84.3162" x2="40.4128" y2="1.953" gradientTransform="matrix(0.8478 0.5303 -0.5303 0.8478 138.6043 -7.6747)">
		<stop  offset="0" style="stop-color:#CBC1F7"/>
		<stop  offset="1" style="stop-color:#E8DCF7"/>
	</linearGradient>
	<path class="st5" d="M169,88.3c-19.8,9.4-70.7-19-74.3-32.1c-1.4-5.2-1-10.7,0.8-16l0,0c7.9-22.7,41.7-42.5,69.1-29.4
		c18.6,8.9,24.1,32.3,20.5,51.4C183,74.1,177.3,84.3,169,88.3z"/>
	
		<linearGradient id="SVGID_7_" gradientUnits="userSpaceOnUse" x1="5.0203" y1="74.0944" x2="72.6295" y2="74.0944" gradientTransform="matrix(0.8478 0.5303 -0.5303 0.8478 138.6043 -7.6747)">
		<stop  offset="0" style="stop-color:#8879EA"/>
		<stop  offset="1" style="stop-color:#9E8CEF"/>
	</linearGradient>
	<path class="st6" d="M154.6,89.7c-7.8-1.1-18.5-4.3-25.2-7.4C117,76.7,108.7,71.3,104.6,67l0,0c-2.7-2.8-3.6-5.1-2.6-6.6
		c0.6-0.9,3.4-0.7,7.6,0.4c12.2,3.1,35.8,13,47.5,20.7c1,0.7,1.9,1.3,2.7,1.9c0.2,0.1,0.3,0.3,0.5,0.4c0,0,0.1,0,0.1,0.1
		c1.9,1.5,3.2,2.9,3.5,4c0.1,0.3,0.1,0.5,0.1,0.8C163.7,90.3,159.9,90.5,154.6,89.7z"/>
	
		<linearGradient id="SVGID_8_" gradientUnits="userSpaceOnUse" x1="34.4886" y1="82.4883" x2="34.4886" y2="28.7113" gradientTransform="matrix(0.8478 0.5303 -0.5303 0.8478 138.6043 -7.6747)">
		<stop  offset="0" style="stop-color:#9D68C2"/>
		<stop  offset="1" style="stop-color:#CCEDFF"/>
	</linearGradient>
	<path class="st7" d="M169,88.3c-19.8,9.4-70.7-19-74.3-32.1c-1.4-5.2-1-10.7,0.8-16l0,0c0,0,0.4,8.5,10.5,14.7
		c10.1,6.2,42.2,18.8,50.7,17c8.5-1.8,15.8-24.4,15.8-24.4l12.6,14.7C183,74.1,177.3,84.3,169,88.3z"/>
	
		<linearGradient id="SVGID_9_" gradientUnits="userSpaceOnUse" x1="38.8249" y1="81.3369" x2="38.8249" y2="65.6992" gradientTransform="matrix(0.8478 0.5303 -0.5303 0.8478 138.6043 -7.6747)">
		<stop  offset="0" style="stop-color:#8DA4E5"/>
		<stop  offset="1" style="stop-color:#755CBB"/>
	</linearGradient>
	<path class="st8" d="M154.6,89.7c-4.3-4.8-17.2-17.9-31-20.8c-16.9-3.5-19-2-19-2l0,0c-2.7-2.8-3.6-5.1-2.6-6.6
		c0.6-0.9,3.4-0.7,7.6,0.4c12.2,3.1,35.8,13,47.5,20.7c1.2,0.8,2.3,1.6,3.2,2.3c0,0,0.1,0,0.1,0.1c1.9,1.5,3.2,2.9,3.5,4
		c0.1,0.3,0.1,0.5,0.1,0.8C163.7,90.3,159.9,90.5,154.6,89.7z"/>
	
		<linearGradient id="SVGID_10_" gradientUnits="userSpaceOnUse" x1="39.6374" y1="124.7073" x2="40.9168" y2="114.5211" gradientTransform="matrix(0.9107 0.4131 -0.4131 0.9107 146.6899 -52.3886)">
		<stop  offset="0" style="stop-color:#5E36CC"/>
		<stop  offset="1" style="stop-color:#6C4A96"/>
	</linearGradient>
	<path class="st9" d="M159.8,83.3c-4.2,1.5-19.4-2.5-27.4-6.1c-14.4-6.5-22.1-12.8-22.9-16.4C122.8,64.1,149.5,75.5,159.8,83.3z"/>
	<path class="st10" d="M95,41.1c-0.7,7.6,43.8,30.7,60.7,24.5s23.2-49.3-2.5-56.8C128.7,1.7,96.3,27.4,95,41.1z"/>
	
		<linearGradient id="SVGID_11_" gradientUnits="userSpaceOnUse" x1="22.0453" y1="66.6272" x2="22.0453" y2="4.274" gradientTransform="matrix(0.8478 0.5303 -0.5303 0.8478 138.6043 -7.6747)">
		<stop  offset="0" style="stop-color:#0665BD"/>
		<stop  offset="1" style="stop-color:#1A1F77"/>
	</linearGradient>
	<path class="st11" d="M95.6,40.2c-0.7,7.6,43.8,30.7,60.7,24.5c16.9-6.2,23.2-49.3-2.5-56.8C129.2,0.7,96.9,26.4,95.6,40.2z"/>
	
		<linearGradient id="SVGID_12_" gradientUnits="userSpaceOnUse" x1="63.9269" y1="34.2514" x2="63.9269" y2="-7.9613" gradientTransform="matrix(0.9346 0.3556 -0.3556 0.9346 127.9825 5.1036)">
		<stop  offset="0" style="stop-color:#B9ACF4"/>
		<stop  offset="1" style="stop-color:#E1D1F5"/>
	</linearGradient>
	<path class="st12" d="M176.2,24.3c0,0-11.3,22.1-0.2,35.6c0,0,6.7,3.4,12.4,0.7c0,0-8.6,3.5-12.9-5.2c-4.3-8.7,3.8-25.1,10.9-28.8
		s13.9,0.6,13.9,0.6l-1.9-3.7C198.4,23.6,188.5,17.3,176.2,24.3z"/>
	
		<linearGradient id="SVGID_13_" gradientUnits="userSpaceOnUse" x1="67.1604" y1="32.6485" x2="67.1604" y2="-7.7653" gradientTransform="matrix(0.9346 0.3556 -0.3556 0.9346 127.9825 5.1036)">
		<stop  offset="0" style="stop-color:#BE9DEA"/>
		<stop  offset="1" style="stop-color:#9E8CEF"/>
	</linearGradient>
	<path class="st13" d="M198.4,23.6c0,0-7.6-3.7-16.6,3.3c-9.6,7.5-11.7,26-5.6,31.2c6.2,5.3,23.7-19.2,23.7-19.2l0-12.4
		C199.9,26.5,199.6,24.7,198.4,23.6z"/>
	
		<linearGradient id="SVGID_14_" gradientUnits="userSpaceOnUse" x1="70.2106" y1="33.6521" x2="70.2106" y2="-5.9611" gradientTransform="matrix(0.9346 0.3556 -0.3556 0.9346 127.9825 5.1036)">
		<stop  offset="0" style="stop-color:#45FFCD"/>
		<stop  offset="1" style="stop-color:#22E0FF"/>
	</linearGradient>
	<path class="st14" d="M199.8,50.7c-3,4.9-6.8,8.4-10.7,10l0,0l-1.1,0.4l0,0c-3,1-6.1,0.8-8.9-0.7c-9.2-4.9-5.1-19.3-1-26.8
		c4.8-8.6,14.7-11.1,20.6-8C205.6,29.5,205.7,41.2,199.8,50.7z"/>
	
		<linearGradient id="SVGID_15_" gradientUnits="userSpaceOnUse" x1="-3.4184" y1="18.1333" x2="50.1698" y2="18.1333" gradientTransform="matrix(0.8478 0.5303 -0.5303 0.8478 138.6043 -7.6747)">
		<stop  offset="0" style="stop-color:#000000"/>
		<stop  offset="1" style="stop-color:#6A9BFF"/>
	</linearGradient>
	<path class="st15" d="M119.5,16.6c0.4,2,11,0.8,20.3,5.6c9.3,4.7,16.3,18.3,24.7,20.2c6.7,1.5,7.1-24.4-8.2-32.6
		C141.1,1.5,119.1,14.6,119.5,16.6z"/>
	
		<linearGradient id="SVGID_16_" gradientUnits="userSpaceOnUse" x1="-0.1097" y1="61.4144" x2="39.1601" y2="61.4144" gradientTransform="matrix(0.8478 0.5303 -0.5303 0.8478 138.6043 -7.6747)">
		<stop  offset="0" style="stop-color:#000000"/>
		<stop  offset="1" style="stop-color:#6A9BFF"/>
	</linearGradient>
	<path class="st16" d="M104.8,46.1c0,0,11.1,1.2,23.1,7.4c11.9,6.2,13.4,8.3,12.7,9.4c-0.7,1.1-10.7,0-21.6-5.6
		C108,51.6,104.8,46.1,104.8,46.1z"/>
	
		<linearGradient id="SVGID_17_" gradientUnits="userSpaceOnUse" x1="-8.9702" y1="61.4129" x2="-8.9702" y2="35.8237" gradientTransform="matrix(0.8478 0.5303 -0.5303 0.8478 138.6043 -7.6747)">
		<stop  offset="0" style="stop-color:#000000"/>
		<stop  offset="1" style="stop-color:#6A9BFF"/>
	</linearGradient>
	<path class="st17" d="M96.6,38.5c0,0,2.1-9.3,14.8-18.6c0,0,2.5-1.3,3-0.3C114.9,20.6,103.5,26.5,96.6,38.5z"/>
	
		<linearGradient id="SVGID_18_" gradientUnits="userSpaceOnUse" x1="69.4527" y1="32.3578" x2="69.4527" y2="20.7889" gradientTransform="matrix(0.9346 0.3556 -0.3556 0.9346 127.9825 5.1036)">
		<stop  offset="0" style="stop-color:#D4E2FF"/>
		<stop  offset="1" style="stop-color:#000000"/>
	</linearGradient>
	<path class="st18" d="M175.4,45.4c0,0-2.2,8.9,3.3,13.2c5.6,4.2,12.4,1.6,16.5-4.2c0,0-4.1,4.8-11.7,0.3
		C175.8,50.1,175.4,45.4,175.4,45.4z"/>
	
		<linearGradient id="SVGID_19_" gradientUnits="userSpaceOnUse" x1="59.8345" y1="1.2846" x2="82.5026" y2="1.2846" gradientTransform="matrix(0.9346 0.3556 -0.3556 0.9346 127.9825 5.1036)">
		<stop  offset="0" style="stop-color:#000000"/>
		<stop  offset="1" style="stop-color:#D4E2FF"/>
	</linearGradient>
	<path class="st19" d="M182.7,29.7c-0.5,1.6,12.3,2.7,15.7,4.6c3.5,1.9,3.3,7,4,7.1c0.6,0.1,3.1-11-3.5-14.4
		C192.4,23.6,183,28.5,182.7,29.7z"/>
	<path class="st20" d="M117.8,34.7c0,0,11.6,6.4,18.7,7.2c0,0-7.2,9.7-14.6,6.8C114.4,45.8,117.8,34.7,117.8,34.7z"/>
	<g>
		
			<linearGradient id="SVGID_20_" gradientUnits="userSpaceOnUse" x1="43.4272" y1="148.6394" x2="53.2195" y2="70.6725" gradientTransform="matrix(0.9961 -8.860000e-02 8.860000e-02 0.9961 63.8541 4.3737)">
			<stop  offset="0" style="stop-color:#CBC1F7"/>
			<stop  offset="1" style="stop-color:#E8DCF7"/>
		</linearGradient>
		<path class="st21" d="M147.1,123.2c-2.1,16.3-10.6,24-27,25.2c-16.1,1.2-27.5-15.3-24.1-36.2c2.1-13.3,5-25.3,11.2-33.1
			c0,0,0,0,0,0l0,0c3.5-4.4,8.1-7.5,14.3-8.8c4.9-1,9.2,1.3,12.8,5.5C143.7,86.7,148.7,110.7,147.1,123.2z"/>
		
			<linearGradient id="SVGID_21_" gradientUnits="userSpaceOnUse" x1="58.326" y1="148.4771" x2="58.326" y2="86.1305" gradientTransform="matrix(0.9961 -8.860000e-02 8.860000e-02 0.9961 63.8541 4.3737)">
			<stop  offset="0" style="stop-color:#9D68C2"/>
			<stop  offset="1" style="stop-color:#CCEDFF"/>
		</linearGradient>
		<path class="st22" d="M122.8,88c0,0,9.9,16.6,10,25c0.2,28.4-12.7,35.5-12.7,35.5s11.5-0.9,16.3-5.1c5.2-4.6,12-13,10.8-30.5
			c-0.9-13.8-7.7-28.7-7.7-28.7L122.8,88z"/>
		
			<linearGradient id="SVGID_22_" gradientUnits="userSpaceOnUse" x1="26.3777" y1="121.4607" x2="64.6147" y2="121.4607" gradientTransform="matrix(0.7487 -6.660000e-02 8.860000e-02 0.9961 65.5724 4.2719)">
			<stop  offset="0" style="stop-color:#BE9DEA"/>
			<stop  offset="1" style="stop-color:#9E8CEF"/>
		</linearGradient>
		<path class="st23" d="M95.4,112.5c0,0,1.7-12.3,10.4-13.1c10.4-0.9,18.8,13.7,19.1,24.2s-1.2,20.4-11,21.6
			C113.9,145.2,95.4,146.3,95.4,112.5z"/>
		
			<radialGradient id="SVGID_23_" cx="46.2665" cy="138.9225" r="28.8969" gradientTransform="matrix(0.7487 -6.660000e-02 8.860000e-02 0.9961 65.5724 4.2719)" gradientUnits="userSpaceOnUse">
			<stop  offset="0" style="stop-color:#45FFCD"/>
			<stop  offset="1" style="stop-color:#22E0FF"/>
		</radialGradient>
		<path class="st24" d="M95.7,113.9c0,0,1.7-12.3,10.4-13.1c10.4-0.9,18.8,13.7,19.1,24.2c0.3,10.4-1.2,20.4-11,21.6
			C114.1,146.6,95.7,147.7,95.7,113.9z"/>
		
			<linearGradient id="SVGID_24_" gradientUnits="userSpaceOnUse" x1="49.678" y1="82.9494" x2="49.678" y2="70.5695" gradientTransform="matrix(0.9961 -8.860000e-02 8.860000e-02 0.9961 63.8541 4.3737)">
			<stop  offset="0" style="stop-color:#8DA4E5"/>
			<stop  offset="1" style="stop-color:#755CBB"/>
		</linearGradient>
		<path class="st25" d="M134.1,75.7c0,0-16.3,7.9-22.9,7.7c-6.4-0.1-4.3-4.1-4.2-4.4c0,0,0,0,0,0l0,0c3.5-4.4,8.1-7.5,14.3-8.8
			C126.1,69.2,130.4,71.5,134.1,75.7z"/>
		
			<linearGradient id="SVGID_25_" gradientUnits="userSpaceOnUse" x1="28.3672" y1="108.0255" x2="60.0942" y2="108.0255" gradientTransform="matrix(0.7487 -6.660000e-02 8.860000e-02 0.9961 65.5724 4.2719)">
			<stop  offset="0" style="stop-color:#000000"/>
			<stop  offset="1" style="stop-color:#D4E2FF"/>
		</linearGradient>
		<path class="st26" d="M96.7,112.7c1.6,3.2,6.1-1.5,12.3-1.1c6.2,0.4,9.8,4.4,11.5,3.1c1.6-1.3-4.9-13-14.3-12.6
			C98.6,102.4,96.1,111.6,96.7,112.7z"/>
		
			<linearGradient id="SVGID_26_" gradientUnits="userSpaceOnUse" x1="45.8035" y1="144.695" x2="45.8035" y2="141.0312" gradientTransform="matrix(0.7487 -6.660000e-02 8.860000e-02 0.9961 65.5724 4.2719)">
			<stop  offset="0" style="stop-color:#D4E2FF"/>
			<stop  offset="1" style="stop-color:#000000"/>
		</linearGradient>
		<path class="st27" d="M106.2,142.3c0,0,2.9,3.2,7.1,3c4.2-0.2,5.4-3,5.4-3s-2-0.9-4.9,0.1S108.1,143.2,106.2,142.3z"/>
		<path class="st28" d="M124.1,86.5c-1,0.1-1.8,9.8-1,10.1c0.8,0.2,1.7-1.9,2.2-5.1C125.7,88.3,125,86.4,124.1,86.5z"/>
		
			<linearGradient id="SVGID_27_" gradientUnits="userSpaceOnUse" x1="73.6543" y1="93.131" x2="62.3841" y2="92.1291" gradientTransform="matrix(-1 0 0 1 204.3008 0)">
			<stop  offset="0" style="stop-color:#8879EA"/>
			<stop  offset="1" style="stop-color:#9E8CEF"/>
		</linearGradient>
		<path class="st29" d="M130.8,91.3c1.1,5.3,4,11.2,6.5,13.7c0.9,0.9,1.7,1.3,2.4,1.2c2.7-0.4,4.3-7.9,0.7-17.1
			c-3-7.6-7.1-10.5-8.6-10c-0.7,0.2-1.4,1.3-1.7,3.6C129.9,84.6,130,87.4,130.8,91.3z"/>
		<path class="st30" d="M130.8,91.3c1.1,5.3,4,11.2,6.5,13.7c0,0,3.5-17.6-7.2-22.3C129.9,84.6,130,87.4,130.8,91.3z"/>
	</g>
	
		<linearGradient id="SVGID_28_" gradientUnits="userSpaceOnUse" x1="86.9971" y1="106.9456" x2="86.9971" y2="93.0437" gradientTransform="matrix(-1 0 0 1 204.3008 0)">
		<stop  offset="0" style="stop-color:#8DA4E5"/>
		<stop  offset="1" style="stop-color:#755CBB"/>
	</linearGradient>
	<path class="st31" d="M135.3,103.1c0,0-13.3,5.7-24.8,3.1C99,103.7,99.3,95.9,99.3,95.9l0.8-2.8L135.3,103.1z"/>
	
		<linearGradient id="SVGID_29_" gradientUnits="userSpaceOnUse" x1="56.4666" y1="165.0769" x2="67.4755" y2="124.1064" gradientTransform="matrix(-1 0 0 1 204.3008 0)">
		<stop  offset="0" style="stop-color:#CBC1F7"/>
		<stop  offset="1" style="stop-color:#E8DCF7"/>
	</linearGradient>
	<path class="st32" d="M128.1,135.9c0,0,3.5,28.9,10.9,31.1c0.2,0.1,0.4,0.1,0.6,0.1c5.9,0.7,12.6-28.2,11.7-38.3
		c-0.3-2.6-1.3-4.3-2.8-5.3C143.2,120,132.1,125.3,128.1,135.9z"/>
	
		<linearGradient id="SVGID_30_" gradientUnits="userSpaceOnUse" x1="90.5141" y1="108.9118" x2="104.0875" y2="58.3971" gradientTransform="matrix(-1 0 0 1 204.3008 0)">
		<stop  offset="0" style="stop-color:#CBC1F7"/>
		<stop  offset="1" style="stop-color:#E8DCF7"/>
	</linearGradient>
	<path class="st33" d="M76.4,77.4C76.4,77.4,76.4,77.4,76.4,77.4c30.1,25.3,58.9,25.8,58.9,25.8c3.3-6.3,1.8-21.1-1.5-23.2
		c-0.2-0.1-0.3-0.2-0.5-0.2c0,0,0,0,0,0c-18.7-4.3-37.2-10-47.1-13.3l-0.1,0c-3.6-1.2-6-2-6.8-2.3L79,64.1c0,0,0,0-0.1,0
		c-0.5,0.2-0.9,0.4-1.2,0.8c0,0,0,0,0,0C74.9,68,76.3,76.8,76.4,77.4z"/>
	
		<linearGradient id="SVGID_31_" gradientUnits="userSpaceOnUse" x1="128.9523" y1="72.1673" x2="118.9918" y2="71.2818" gradientTransform="matrix(-1 0 0 1 204.3008 0)">
		<stop  offset="0" style="stop-color:#8879EA"/>
		<stop  offset="1" style="stop-color:#9E8CEF"/>
	</linearGradient>
	<path class="st34" d="M79.1,64.1c0,0,6.2,4.9,6.6,10.9c0.4,6-6.7,4.8-9.2,2.4C76.4,77.4,72.6,66,79.1,64.1z"/>
	
		<linearGradient id="SVGID_32_" gradientUnits="userSpaceOnUse" x1="152.7563" y1="86.1648" x2="169.8741" y2="0.1404" gradientTransform="matrix(-1 0 0 1 204.3008 0)">
		<stop  offset="0" style="stop-color:#D93DE3"/>
		<stop  offset="1" style="stop-color:#DB63C3"/>
	</linearGradient>
	<path class="st35" d="M0.2,50.6c0,0,0.4,0.8,1,2C5.2,60,13,67.5,13.4,67.9c0,0,0,0,0,0c24.8,10.4,52.1,15.5,52.1,15.5
		c12.8-23.2,18.8-51.8,19.1-53.3c0,0,0-0.1,0-0.1C49.9,10.4,17.7,3.9,16.7,3.7l0,0c0,0,0,0-0.1,0.1c-1.4,2.2-2.7,4.9-4,7.8
		c0,0,0,0.1,0,0.1C9,20,5.7,30.2,3.5,38.1C1.6,44.8,0.4,49.8,0.2,50.6C0.3,50.6,0.2,50.6,0.2,50.6z"/>
	
		<linearGradient id="SVGID_33_" gradientUnits="userSpaceOnUse" x1="196.4473" y1="66.7642" x2="184.0354" y2="4.3893" gradientTransform="matrix(-1 0 0 1 204.3008 0)">
		<stop  offset="0" style="stop-color:#A242EA"/>
		<stop  offset="1" style="stop-color:#FE117E"/>
	</linearGradient>
	<path class="st36" d="M0.2,50.6c0,0,0.4,0.8,1,2c1.9,3.7,6.4,11.6,12.1,15.2c0,0,0,0,0,0S21,35.3,29.3,13.9L16.7,3.7l0,0
		c0,0,0,0-0.1,0.1c-0.4,0.6-1.9,3.4-4,7.8c0,0,0,0.1,0,0.1c-2.8,5.8-6.4,14.5-9.2,24.4C2.1,40.7,1,45.5,0.2,50.6
		C0.3,50.6,0.2,50.6,0.2,50.6z"/>
	
		<linearGradient id="SVGID_34_" gradientUnits="userSpaceOnUse" x1="154.8974" y1="23.0377" x2="152.4384" y2="10.6801" gradientTransform="matrix(-1 0 0 1 204.3008 0)">
		<stop  offset="0" style="stop-color:#E88AEE"/>
		<stop  offset="1" style="stop-color:#FF6DBA"/>
	</linearGradient>
	<path class="st37" d="M84.6,30c0,0-32.8-12.7-55.3-16.1L16.7,3.7C16.7,3.7,63.3,12.6,84.6,30z"/>
	
		<linearGradient id="SVGID_35_" gradientUnits="userSpaceOnUse" x1="88.8882" y1="26.6975" x2="87.001" y2="17.3663" gradientTransform="matrix(-1 0 0 1 204.3008 0)">
		<stop  offset="0" style="stop-color:#45FFCD"/>
		<stop  offset="1" style="stop-color:#22E0FF"/>
	</linearGradient>
	<path class="st38" d="M120.3,27.6c1.7-0.1,2.4-8.2-0.6-9.7c-3-1.5-9.3,2.5-9.5,5.4c-0.1,1.3,3.3,1,4.8,1.8
		C116.8,26.1,118.7,27.7,120.3,27.6z"/>
	
		<linearGradient id="SVGID_36_" gradientUnits="userSpaceOnUse" x1="177.5285" y1="65.1588" x2="177.5285" y2="34.6565" gradientTransform="matrix(-1 0 0 1 204.3008 0)">
		<stop  offset="0" style="stop-color:#9D68C2"/>
		<stop  offset="1" style="stop-color:#CCEDFF"/>
	</linearGradient>
	<polygon class="st39" points="26.5,64.1 24.2,65.2 16.1,56.8 8.7,53 12.5,50.9 37.4,34.7 44.8,40.8 	"/>
	
		<linearGradient id="SVGID_37_" gradientUnits="userSpaceOnUse" x1="52.5085" y1="43.0938" x2="49.8209" y2="29.8053" gradientTransform="matrix(-1 0 0 1 204.3008 0)">
		<stop  offset="0" style="stop-color:#45FFCD"/>
		<stop  offset="1" style="stop-color:#22E0FF"/>
	</linearGradient>
	<path class="st40" d="M142.1,35.4c-1.5-2.6,13.3-8.1,18.7-3.4c5.4,4.7,2.7,11.3,0.3,12.8c-1.4,0.9-4.9-3.3-9.8-5.3
		C146.8,37.5,142.9,36.8,142.1,35.4z"/>
	
		<radialGradient id="SVGID_38_" cx="155.5788" cy="42.962" r="25.4342" gradientTransform="matrix(-1 0 0 1 204.3008 0)" gradientUnits="userSpaceOnUse">
		<stop  offset="0" style="stop-color:#45FFCD"/>
		<stop  offset="1" style="stop-color:#22E0FF"/>
	</radialGradient>
	<path class="st41" d="M38.4,76.7c0,0,18.7-25.2,22.8-54.7c0,0-7.3-5-19.8-12l-2.3-0.7L56,20.3c0,0-3.5,25.8-19.8,56L38.4,76.7z"/>
	
		<linearGradient id="SVGID_39_" gradientUnits="userSpaceOnUse" x1="66.0511" y1="167.0538" x2="66.0511" y2="122.4337" gradientTransform="matrix(-1 0 0 1 204.3008 0)">
		<stop  offset="0" style="stop-color:#9D68C2"/>
		<stop  offset="1" style="stop-color:#CCEDFF"/>
	</linearGradient>
	<path class="st42" d="M128.1,135.9c0,0,3.5,28.9,10.9,31.1c-6.3-5.6-10.2-28,0-40.8c2.9-3.6,7.6-3,9.4-2.7
		C143.2,120,132.1,125.3,128.1,135.9z"/>
	
		<linearGradient id="SVGID_40_" gradientUnits="userSpaceOnUse" x1="148.1067" y1="85.2396" x2="157.579" y2="37.6371" gradientTransform="matrix(-1 0 0 1 204.3008 0)">
		<stop  offset="0" style="stop-color:#9D68C2"/>
		<stop  offset="1" style="stop-color:#CCEDFF"/>
	</linearGradient>
	<path class="st43" d="M13.4,67.9c24.8,10.4,52.1,15.5,52.1,15.5c12.8-23.2,18.8-51.8,19.1-53.3c-0.4,1.3-6.2,21.6-12.3,24.3
		c-6.3,2.8-18.5,1.3-18.5,1.3s-9.6,7.2-22.2,10.1C18.9,68.6,13.4,67.9,13.4,67.9z"/>
	
		<linearGradient id="SVGID_41_" gradientUnits="userSpaceOnUse" x1="98.3534" y1="103.1338" x2="98.3534" y2="64.0838" gradientTransform="matrix(-1 0 0 1 204.3008 0)">
		<stop  offset="0" style="stop-color:#9D68C2"/>
		<stop  offset="1" style="stop-color:#CCEDFF"/>
	</linearGradient>
	<path class="st44" d="M76.4,77.4C76.4,77.4,76.4,77.4,76.4,77.4c30.1,25.3,58.9,25.8,58.9,25.8c3.3-6.3,1.8-21.1-1.5-23.2l-0.5-0.2
		c0.3,0.4,6.6,10.3,0.6,16.3c-6.1,6.2-38-7.8-43.5-17.6c-5.5-9.8-3.7-11.8-3.7-11.8l-0.5-0.2l-0.1,0l-6.8-2.3L79,64.1c0,0,0,0-0.1,0
		c-0.2,0.1-0.7,0.4-1.2,0.8c0,0,0,0,0,0C75.8,66.5,72.9,70.2,76.4,77.4z"/>
	
		<linearGradient id="SVGID_42_" gradientUnits="userSpaceOnUse" x1="132.2141" y1="79.6813" x2="140.0904" y2="50.3689" gradientTransform="matrix(-1 0 0 1 204.3008 0)">
		<stop  offset="0" style="stop-color:#CBC1F7"/>
		<stop  offset="1" style="stop-color:#E8DCF7"/>
	</linearGradient>
	<path class="st45" d="M82.8,72.2c0.8,6.2-9.4,8.5-16.6,4.4S56,67.1,54.3,63.3c-1.6-3.9,0.6-9.9,2.1-10.8c1.5-0.9,16.1,4.7,18.6,5.9
		C82.8,62.3,82.3,68.5,82.8,72.2z"/>
	
		<linearGradient id="SVGID_43_" gradientUnits="userSpaceOnUse" x1="146.3889" y1="50.2413" x2="122.8168" y2="67.5576" gradientTransform="matrix(-1 0 0 1 204.3008 0)">
		<stop  offset="0" style="stop-color:#BE9DEA"/>
		<stop  offset="1" style="stop-color:#9E8CEF"/>
	</linearGradient>
	<path class="st46" d="M82,66.8c0,0-18.6-4.4-26-14c0,0,0.3-1.3,3.5-0.4l16.2,5.9C75.8,58.4,81.8,62.8,82,66.8z"/>
	
		<linearGradient id="SVGID_44_" gradientUnits="userSpaceOnUse" x1="127.3624" y1="66.8307" x2="132.558" y2="47.4947" gradientTransform="matrix(-1 0 0 1 204.3008 0)">
		<stop  offset="0" style="stop-color:#CBC1F7"/>
		<stop  offset="1" style="stop-color:#E8DCF7"/>
	</linearGradient>
	<path class="st47" d="M81.3,65.6c0,0-0.2-4.6-1.7-7.7c-3.7-7.5-9.7-10-9.7-10s-1.8,1.7-2.2,3.9c-0.4,2.2,4.5,10.5,4.5,10.5
		S76.8,65.8,81.3,65.6z"/>
	
		<linearGradient id="SVGID_45_" gradientUnits="userSpaceOnUse" x1="140.4453" y1="55.9533" x2="131.9702" y2="62.1792" gradientTransform="matrix(-1 0 0 1 204.3008 0)">
		<stop  offset="0" style="stop-color:#8DA4E5"/>
		<stop  offset="1" style="stop-color:#755CBB"/>
	</linearGradient>
	<path class="st48" d="M69,56.1l-6.9,2.2c0,0,5,3.1,10.1,4L69,56.1z"/>
	
		<linearGradient id="SVGID_46_" gradientUnits="userSpaceOnUse" x1="186.3628" y1="50.9709" x2="186.3628" y2="18.9941" gradientTransform="matrix(-0.6988 -0.7153 -0.7153 0.6988 185.982 155.6406)">
		<stop  offset="0" style="stop-color:#CBC1F7"/>
		<stop  offset="1" style="stop-color:#E8DCF7"/>
	</linearGradient>
	<path class="st49" d="M11.4,49.9l16.5,15.5l19.4-19l-1.9-7.6l-6.4-6.5l-7.2-1.7L11.4,49.9z M36.8,37.5c1.2-1.1,3-1.1,4.1,0
		c1.1,1.2,1.1,3,0,4.1c-1.1,1.1-3,1.1-4.1-0.1C35.6,40.5,35.6,38.7,36.8,37.5z"/>
	
		<radialGradient id="SVGID_47_" cx="156.3052" cy="27.824" r="9.6113" gradientTransform="matrix(-1 0 0 1 204.3008 0)" gradientUnits="userSpaceOnUse">
		<stop  offset="0" style="stop-color:#45FFCD"/>
		<stop  offset="1" style="stop-color:#22E0FF"/>
	</radialGradient>
	<path class="st50" d="M56,20.3c0,0-9.1,13.3-14.5,18.4L40,37c0,0,8-4.5,15.3-16.8l-4.6-3.3C50.6,16.9,56.1,19.8,56,20.3z"/>
	<path class="st28" d="M139.5,138.8c1.1-0.2,1.4,9.5,0,10.4C138.2,150.1,137.9,139.2,139.5,138.8z"/>
	<path class="st28" d="M128.6,83.6c-0.2,1.2-8-0.2-8-1.8C120.7,80.2,128.8,82.4,128.6,83.6z"/>
	<path class="st28" d="M119.3,81.2c0.2-0.5-2.9-1.4-3.4-1c-0.5,0.4,0.7,1.1,1.5,1.4C118.1,82,119.1,81.7,119.3,81.2z"/>
	<path class="st28" d="M77.4,57.3c1.5,0.2-1.3-4.3-2.1-4.3C74.4,53,76.4,57.2,77.4,57.3z"/>
	<path class="st28" d="M94,135.4c0.7,0.3-1.2,3.7-2.3,3C90.7,137.7,92.3,134.8,94,135.4z"/>
	
		<linearGradient id="SVGID_48_" gradientUnits="userSpaceOnUse" x1="29.5817" y1="75.6547" x2="34.6037" y2="35.6691" gradientTransform="matrix(-0.7722 -0.6354 -0.6354 0.7722 234.0639 40.2954)">
		<stop  offset="0" style="stop-color:#BE9DEA"/>
		<stop  offset="1" style="stop-color:#9E8CEF"/>
	</linearGradient>
	<path class="st51" d="M192.7,50.9c0,0-4.8-0.6-6.6,5.8c0,0,0.6,14-8.2,21c-7.5,6-25.9-11-25.9-11l-0.8,3.3c0,0,14.3,14.3,23.5,15.2
		c0,0,6.3,0.1,11.5-11.8C191.5,61.5,192.7,50.9,192.7,50.9z"/>
	
		<linearGradient id="SVGID_49_" gradientUnits="userSpaceOnUse" x1="32.2022" y1="-76.8201" x2="32.2022" y2="-88.1605" gradientTransform="matrix(-0.8973 -0.4415 -0.4415 0.8973 136.8563 151.1651)">
		<stop  offset="0" style="stop-color:#DD1A8F"/>
		<stop  offset="1" style="stop-color:#FE117E"/>
	</linearGradient>
	<path class="st52" d="M152.2,68.1c0.1,3.6-5.6,2.7-9.1,0.4c-3.9-2.6-9.1-9.2-5.8-12.6C140.7,52.6,151.9,59.7,152.2,68.1z"/>
	
		<linearGradient id="SVGID_50_" gradientUnits="userSpaceOnUse" x1="54.2711" y1="74.4881" x2="54.2711" y2="69.6733" gradientTransform="matrix(-0.7722 -0.6354 -0.6354 0.7722 234.0639 40.2954)">
		<stop  offset="0" style="stop-color:#D93DE3"/>
		<stop  offset="1" style="stop-color:#FF6DBA"/>
	</linearGradient>
	<path class="st53" d="M151.7,68.3c-0.4,0.7-13.3-9.7-11.8-12.3S154.6,63,151.7,68.3z"/>
	
		<linearGradient id="SVGID_51_" gradientUnits="userSpaceOnUse" x1="22.2168" y1="51.9743" x2="22.2168" y2="40.7153" gradientTransform="matrix(-0.5585 -0.8295 -0.8295 0.5585 238.9282 58.879)">
		<stop  offset="0" style="stop-color:#CBC1F7"/>
		<stop  offset="1" style="stop-color:#E8DCF7"/>
	</linearGradient>
	<path class="st54" d="M190.4,59.7c0,0-3.7,13.4-4.6,13.3C184.9,72.9,189.2,59.8,190.4,59.7z"/>
	
		<linearGradient id="SVGID_52_" gradientUnits="userSpaceOnUse" x1="195.5923" y1="68.7813" x2="202.052" y2="36.3188" gradientTransform="matrix(-1 0 0 1 204.3008 0)">
		<stop  offset="0" style="stop-color:#9D68C2"/>
		<stop  offset="1" style="stop-color:#CCEDFF"/>
	</linearGradient>
	<path class="st55" d="M0.2,50.6c0,0,0.4,0.8,1,2c1.9,3.7,6.4,11.6,12.1,15.2c-0.3-0.5-8.9-16.1-9.8-29.7c-0.1-0.7-0.1-1.4-0.1-2
		C2.1,40.7,1,45.5,0.2,50.6C0.3,50.6,0.2,50.6,0.2,50.6z"/>
	
		<linearGradient id="SVGID_53_" gradientUnits="userSpaceOnUse" x1="119.7211" y1="16.8909" x2="187.6337" y2="16.8909" gradientTransform="matrix(-1 0 0 1 204.3008 0)">
		<stop  offset="0" style="stop-color:#000000"/>
		<stop  offset="1" style="stop-color:#9295BB"/>
	</linearGradient>
	<path class="st56" d="M84.6,30.1c0,0-37.7-14.6-50-18.4C22.4,8,16.7,3.7,16.7,3.7l12.6,10.3C29.3,13.9,63.8,20.6,84.6,30.1z"/>
</g>
</svg>
