<?xml version="1.0" encoding="utf-8"?>
<!-- Generator: Adobe Illustrator 24.0.2, SVG Export Plug-In . SVG Version: 6.00 Build 0)  -->
<svg version="1.1" id="chatbot" xmlns="http://www.w3.org/2000/svg" xmlns:xlink="http://www.w3.org/1999/xlink" x="0px" y="0px"
	 viewBox="0 0 158.9 143.5" style="enable-background:new 0 0 158.9 143.5;" xml:space="preserve">
<style type="text/css">
	.st0{fill:url(#SVGID_1_);}
	.st1{fill:url(#SVGID_2_);}
	.st2{fill:url(#SVGID_3_);}
	.st3{fill:url(#SVGID_4_);}
	.st4{opacity:0.3;fill:url(#SVGID_5_);}
	.st5{opacity:0.5;fill:url(#SVGID_6_);}
	.st6{fill:url(#SVGID_7_);}
	.st7{fill:#DFE3FB;}
	.st8{fill:url(#SVGID_8_);}
	.st9{fill:url(#SVGID_9_);}
	.st10{fill:url(#SVGID_10_);}
	.st11{fill:url(#SVGID_11_);}
	.st12{fill:url(#SVGID_12_);}
	.st13{fill:url(#SVGID_13_);}
	.st14{fill:url(#SVGID_14_);}
	.st15{fill:url(#SVGID_15_);}
	.st16{fill:url(#SVGID_16_);}
	.st17{opacity:0.5;fill:url(#SVGID_17_);}
	.st18{opacity:0.5;fill:url(#SVGID_18_);}
	.st19{opacity:0.5;fill:url(#SVGID_19_);}
	.st20{opacity:0.72;fill:url(#SVGID_20_);}
	.st21{opacity:0.72;fill:url(#SVGID_21_);}
	.st22{fill:#2F95CD;}
	.st23{fill:url(#SVGID_22_);}
	.st24{fill:url(#SVGID_23_);}
	.st25{opacity:0.3;fill:url(#SVGID_24_);}
	.st26{fill:url(#SVGID_25_);}
	.st27{fill:url(#SVGID_26_);}
	.st28{opacity:0.3;fill:url(#SVGID_27_);}
	.st29{fill:#FFFFFF;}
	.st30{fill:url(#SVGID_28_);}
	.st31{opacity:0.3;fill:url(#SVGID_29_);}
	.st32{fill:url(#SVGID_30_);}
	.st33{fill:url(#SVGID_31_);}
	.st34{fill:url(#SVGID_32_);}
	.st35{fill:#6340A2;}
	.st36{opacity:0.5;fill:url(#SVGID_33_);}
	.st37{opacity:0.72;fill:url(#SVGID_34_);}
	.st38{opacity:0.72;fill:url(#SVGID_35_);}
	.st39{fill:url(#SVGID_36_);}
	.st40{fill:url(#SVGID_37_);}
	.st41{opacity:0.3;fill:url(#SVGID_38_);}
	.st42{fill:url(#SVGID_39_);}
	.st43{fill:url(#SVGID_40_);}
	.st44{opacity:0.5;fill:url(#SVGID_41_);}
	.st45{fill:url(#SVGID_42_);}
	.st46{fill:url(#SVGID_43_);}
	.st47{opacity:0.3;fill:url(#SVGID_44_);}
	.st48{fill:url(#SVGID_45_);}
	.st49{fill:url(#SVGID_46_);}
	.st50{fill:url(#SVGID_47_);}
	.st51{fill:url(#SVGID_48_);}
	.st52{fill:url(#SVGID_49_);}
</style>
<g>
	
		<linearGradient id="SVGID_1_" gradientUnits="userSpaceOnUse" x1="59.311" y1="116.2035" x2="59.311" y2="90.5644" gradientTransform="matrix(-0.9819 0.1893 0.1893 0.9819 143.0789 -94.6706)">
		<stop  offset="0" style="stop-color:#45FFCD"/>
		<stop  offset="1" style="stop-color:#22E0FF"/>
	</linearGradient>
	<path class="st0" d="M101.7,5.5c0,0,8.2,5.9,11.5,19c3.3,13.1-15.8-3.1-15.8-3.1L101.7,5.5z"/>
	
		<linearGradient id="SVGID_2_" gradientUnits="userSpaceOnUse" x1="66.5045" y1="105.411" x2="66.5045" y2="83.5231" gradientTransform="matrix(-0.9819 0.1893 0.1893 0.9819 143.0789 -94.6706)">
		<stop  offset="0" style="stop-color:#B9ACF4"/>
		<stop  offset="1" style="stop-color:#E1D1F5"/>
	</linearGradient>
	<path class="st1" d="M108.9,19.3c0,0-6.2-15.8-12-18.3c-5.8-2.5-14.3,2.4-14.3,2.4L108.9,19.3z"/>
	
		<linearGradient id="SVGID_3_" gradientUnits="userSpaceOnUse" x1="88.4608" y1="163.5196" x2="98.8054" y2="81.1548" gradientTransform="matrix(-0.9819 0.1893 0.1893 0.9819 143.0789 -94.6706)">
		<stop  offset="0" style="stop-color:#CBC1F7"/>
		<stop  offset="1" style="stop-color:#E8DCF7"/>
	</linearGradient>
	<path class="st2" d="M37.8,72.7c15,15.9,72.8,7.8,80.8-3.2c3.2-4.4,4.8-9.6,5-15.2l0,0c0.8-24-23.6-54.7-53.9-52.3
		C49.3,3.6,35.7,23.4,32.1,42.5C29.9,54.4,31.5,66,37.8,72.7z"/>
	
		<linearGradient id="SVGID_4_" gradientUnits="userSpaceOnUse" x1="63.4134" y1="153.2967" x2="131.0231" y2="153.2967" gradientTransform="matrix(-0.9819 0.1893 0.1893 0.9819 143.0789 -94.6706)">
		<stop  offset="0" style="stop-color:#8879EA"/>
		<stop  offset="1" style="stop-color:#9E8CEF"/>
	</linearGradient>
	<path class="st3" d="M50.7,79.3c7.6,1.7,18.8,2.6,26.2,2.2c13.6-0.8,23.3-2.9,28.7-5.4l0,0c3.5-1.7,5.2-3.5,4.8-5.2
		c-0.2-1.1-2.9-1.9-7.2-2.4c-12.5-1.5-38.1-0.7-51.8,2.1c-1.2,0.3-2.3,0.5-3.2,0.8c-0.2,0.1-0.4,0.1-0.6,0.2c0,0-0.1,0-0.1,0
		c-2.3,0.7-4,1.5-4.7,2.4c-0.2,0.2-0.3,0.5-0.4,0.7C42,76.5,45.5,78.1,50.7,79.3z"/>
	
		<linearGradient id="SVGID_5_" gradientUnits="userSpaceOnUse" x1="92.8814" y1="161.6914" x2="92.8814" y2="107.9125" gradientTransform="matrix(-0.9819 0.1893 0.1893 0.9819 143.0789 -94.6706)">
		<stop  offset="0" style="stop-color:#9D68C2"/>
		<stop  offset="1" style="stop-color:#CCEDFF"/>
	</linearGradient>
	<path class="st4" d="M37.8,72.7c15,15.9,72.8,7.8,80.8-3.2c3.2-4.4,4.8-9.6,5-15.2l0,0c0,0-3.4,7.8-15.1,9.9
		c-11.7,2.1-46.1,2.4-53.4-2.4c-7.3-4.8-5.9-28.5-5.9-28.5l-17.1,9.2C29.9,54.4,31.5,66,37.8,72.7z"/>
	
		<linearGradient id="SVGID_6_" gradientUnits="userSpaceOnUse" x1="97.2182" y1="160.5404" x2="97.2182" y2="144.9006" gradientTransform="matrix(-0.9819 0.1893 0.1893 0.9819 143.0789 -94.6706)">
		<stop  offset="0" style="stop-color:#8DA4E5"/>
		<stop  offset="1" style="stop-color:#755CBB"/>
	</linearGradient>
	<path class="st5" d="M50.7,79.3c5.7-2.9,22.5-10.5,36.4-8.2c17.1,2.8,18.5,5,18.5,5l0,0c3.5-1.7,5.2-3.5,4.8-5.2
		c-0.2-1.1-2.9-1.9-7.2-2.4c-12.5-1.5-38.1-0.7-51.8,2.1c-1.4,0.3-2.7,0.7-3.9,1c0,0-0.1,0-0.1,0c-2.3,0.7-4,1.5-4.7,2.4
		c-0.2,0.2-0.3,0.5-0.4,0.7C42,76.5,45.5,78.1,50.7,79.3z"/>
	
		<linearGradient id="SVGID_7_" gradientUnits="userSpaceOnUse" x1="91.5043" y1="149.4904" x2="92.7837" y2="139.3037" gradientTransform="matrix(-0.9984 5.730000e-02 5.730000e-02 0.9984 159.6666 -78.1919)">
		<stop  offset="0" style="stop-color:#5E36CC"/>
		<stop  offset="1" style="stop-color:#6C4A96"/>
	</linearGradient>
	<path class="st6" d="M48.2,71.4c3.4,2.9,19,4.7,27.8,4.2c15.8-0.9,25.2-4,27.3-7.1C89.6,66.8,60.6,67.8,48.2,71.4z"/>
	<path class="st7" d="M123.9,55.4c-2,7.3-51.9,12.8-65.4,1S54.5,2,81.2,4.3C106.6,6.5,127.6,42.1,123.9,55.4z"/>
	
		<linearGradient id="SVGID_8_" gradientUnits="userSpaceOnUse" x1="80.4376" y1="145.8307" x2="80.4376" y2="83.4762" gradientTransform="matrix(-0.9819 0.1893 0.1893 0.9819 143.0789 -94.6706)">
		<stop  offset="0" style="stop-color:#0665BD"/>
		<stop  offset="1" style="stop-color:#1A1F77"/>
	</linearGradient>
	<path class="st8" d="M123.7,54.3c-2,7.3-51.9,12.8-65.4,1C44.7,43.5,54.3,0.9,81,3.2C106.4,5.4,127.4,41,123.7,54.3z"/>
	
		<linearGradient id="SVGID_9_" gradientUnits="userSpaceOnUse" x1="114.861" y1="33.7539" x2="114.861" y2="-8.4568" gradientTransform="matrix(-1 -5.000000e-03 -5.000000e-03 1 156.9789 10.6514)">
		<stop  offset="0" style="stop-color:#B9ACF4"/>
		<stop  offset="1" style="stop-color:#E1D1F5"/>
	</linearGradient>
	<path class="st9" d="M54.2,10.5c0,0,2.6,24.7-12.7,33.3c0,0-7.5,0.8-11.8-3.8c0,0,6.7,6.4,13.9-0.2C50.8,33.2,49.1,15,43.8,9
		c-5.4-6-13.2-4.4-13.2-4.4l3.1-2.8C33.7,1.8,45.2-0.5,54.2,10.5z"/>
	
		<linearGradient id="SVGID_10_" gradientUnits="userSpaceOnUse" x1="118.0945" y1="32.151" x2="118.0945" y2="-8.2607" gradientTransform="matrix(-1 -5.000000e-03 -5.000000e-03 1 156.9789 10.6514)">
		<stop  offset="0" style="stop-color:#BE9DEA"/>
		<stop  offset="1" style="stop-color:#9E8CEF"/>
	</linearGradient>
	<path class="st10" d="M33.7,1.8c0,0,8.5-0.7,14.3,9.1C54.3,21.4,49.6,39.3,42,42c-7.6,2.7-15.2-26.5-15.2-26.5L31.2,4
		C31.2,4,32.1,2.4,33.7,1.8z"/>
	
		<linearGradient id="SVGID_11_" gradientUnits="userSpaceOnUse" x1="121.1445" y1="33.1548" x2="121.1445" y2="-6.4566" gradientTransform="matrix(-1 -5.000000e-03 -5.000000e-03 1 156.9789 10.6514)">
		<stop  offset="0" style="stop-color:#45FFCD"/>
		<stop  offset="1" style="stop-color:#22E0FF"/>
	</linearGradient>
	<path class="st11" d="M22.6,26.6c1.1,5.6,3.3,10.2,6.4,13.2l0,0l0.9,0.8h0c2.5,2,5.4,3,8.6,2.6C48.8,41.9,50.3,27,49.1,18.5
		C47.7,8.7,39.4,2.8,32.8,3.7C24.8,4.6,20.6,15.5,22.6,26.6z"/>
	
		<linearGradient id="SVGID_12_" gradientUnits="userSpaceOnUse" x1="35.8629" y1="158.2572" x2="38.7602" y2="135.1881" gradientTransform="matrix(-0.9819 0.1893 0.1893 0.9819 143.0789 -94.6706)">
		<stop  offset="0" style="stop-color:#BE9DEA"/>
		<stop  offset="1" style="stop-color:#9E8CEF"/>
	</linearGradient>
	<path class="st12" d="M123.9,47.6c0,0,7.2,1.6,14,7.2c6.8,5.6,8.6,12.4,0.2,11.8l-3.9-2.3c0,0,5,0.7,4.3-4.4
		c-0.7-5.1-14.5-11.4-14.5-11.4L123.9,47.6z"/>
	
		<linearGradient id="SVGID_13_" gradientUnits="userSpaceOnUse" x1="43.2969" y1="104.8928" x2="43.2969" y2="94.3625" gradientTransform="matrix(-0.9595 0.2817 0.2817 0.9595 143.7027 -44.3205)">
		<stop  offset="0" style="stop-color:#DD1A8F"/>
		<stop  offset="1" style="stop-color:#FE117E"/>
	</linearGradient>
	<path class="st13" d="M139.6,62.4c2.5,2.6-2.4,4.9-6.5,5.6c-4.6,0.8-13,0.3-12.7-4.5C120.6,58.8,133.7,56.4,139.6,62.4z"/>
	
		<linearGradient id="SVGID_14_" gradientUnits="userSpaceOnUse" x1="37.282" y1="148.7891" x2="37.282" y2="143.9739" gradientTransform="matrix(-0.9985 5.430000e-02 5.430000e-02 0.9985 160.0783 -86.7353)">
		<stop  offset="0" style="stop-color:#D93DE3"/>
		<stop  offset="1" style="stop-color:#FF6DBA"/>
	</linearGradient>
	<path class="st14" d="M139.3,62.9c0.2,0.8-16.4,1.8-17-1.1C121.8,58.9,137.9,57,139.3,62.9z"/>
	
		<linearGradient id="SVGID_15_" gradientUnits="userSpaceOnUse" x1="94.0299" y1="113.6286" x2="94.0299" y2="107.9089" gradientTransform="matrix(-0.9819 0.1893 0.1893 0.9819 143.0789 -94.6706)">
		<stop  offset="0" style="stop-color:#45FFCD"/>
		<stop  offset="1" style="stop-color:#22E0FF"/>
	</linearGradient>
	<path class="st15" d="M80.8,33c0.4,0.5-6.5-4-17.5,0.3C62.1,33.8,73.7,23.4,80.8,33z"/>
	
		<linearGradient id="SVGID_16_" gradientUnits="userSpaceOnUse" x1="57.6406" y1="120.2483" x2="57.6406" y2="114.939" gradientTransform="matrix(-0.9819 0.1893 0.1893 0.9819 143.0789 -94.6706)">
		<stop  offset="0" style="stop-color:#45FFCD"/>
		<stop  offset="1" style="stop-color:#22E0FF"/>
	</linearGradient>
	<path class="st16" d="M115.4,33.1c0.4,0.5-3.3-3-12.9-0.7C101.4,32.7,109.1,24.5,115.4,33.1z"/>
	
		<linearGradient id="SVGID_17_" gradientUnits="userSpaceOnUse" x1="54.973" y1="97.3361" x2="108.5616" y2="97.3361" gradientTransform="matrix(-0.9819 0.1893 0.1893 0.9819 143.0789 -94.6706)">
		<stop  offset="0" style="stop-color:#000000"/>
		<stop  offset="1" style="stop-color:#6A9BFF"/>
	</linearGradient>
	<path class="st17" d="M109.8,23.7c-1.1,1.7-10.6-3.2-21-2.1S67,32.8,58.5,31.5c-6.8-1,2.2-25.3,19.4-27.5S110.9,22,109.8,23.7z"/>
	
		<linearGradient id="SVGID_18_" gradientUnits="userSpaceOnUse" x1="58.2829" y1="140.6172" x2="97.5529" y2="140.6172" gradientTransform="matrix(-0.9819 0.1893 0.1893 0.9819 143.0789 -94.6706)">
		<stop  offset="0" style="stop-color:#000000"/>
		<stop  offset="1" style="stop-color:#6A9BFF"/>
	</linearGradient>
	<path class="st18" d="M112.9,56.5c0,0-10.8-2.9-24.2-1.4c-13.4,1.5-15.5,2.9-15.3,4.2s10,3.8,22.2,2.5
		C107.9,60.5,112.9,56.5,112.9,56.5z"/>
	
		<linearGradient id="SVGID_19_" gradientUnits="userSpaceOnUse" x1="49.4216" y1="140.6169" x2="49.4216" y2="115.0273" gradientTransform="matrix(-0.9819 0.1893 0.1893 0.9819 143.0789 -94.6706)">
		<stop  offset="0" style="stop-color:#000000"/>
		<stop  offset="1" style="stop-color:#6A9BFF"/>
	</linearGradient>
	<path class="st19" d="M123.3,52.3c0,0,1.4-9.4-7.1-22.7c0,0-1.8-2.1-2.7-1.3C112.7,29,121.2,38.7,123.3,52.3z"/>
	
		<linearGradient id="SVGID_20_" gradientUnits="userSpaceOnUse" x1="120.3864" y1="31.8605" x2="120.3864" y2="20.2918" gradientTransform="matrix(-1 -5.000000e-03 -5.000000e-03 1 156.9789 10.6514)">
		<stop  offset="0" style="stop-color:#D4E2FF"/>
		<stop  offset="1" style="stop-color:#000000"/>
	</linearGradient>
	<path class="st20" d="M47.3,30.4c0,0-1.1,9.1-7.9,11.1c-6.7,1.9-12.2-2.9-13.9-9.8c0,0,2.1,5.9,10.8,4.5
		C45.2,34.7,47.3,30.4,47.3,30.4z"/>
	
		<linearGradient id="SVGID_21_" gradientUnits="userSpaceOnUse" x1="110.7691" y1="0.7889" x2="133.4361" y2="0.7889" gradientTransform="matrix(-1 -5.000000e-03 -5.000000e-03 1 156.9789 10.6514)">
		<stop  offset="0" style="stop-color:#000000"/>
		<stop  offset="1" style="stop-color:#D4E2FF"/>
	</linearGradient>
	<path class="st21" d="M46.2,13.1c-0.1,1.7-12.4-1.9-16.3-1.4c-3.9,0.5-5.6,5.3-6.2,5.2S24.7,5.5,32,4.7S46.3,11.9,46.2,13.1z"/>
	<path class="st22" d="M104.1,42.5c0,0-12.3,0.4-19.2-1.3c0,0,1.6,11.5,9.6,11.5C102.5,52.7,104.1,42.5,104.1,42.5z"/>
</g>
<linearGradient id="SVGID_22_" gradientUnits="userSpaceOnUse" x1="41.4112" y1="123.0759" x2="46.9055" y2="79.33" gradientTransform="matrix(-1 0 0 1 158.9638 0)">
	<stop  offset="0" style="stop-color:#CBC1F7"/>
	<stop  offset="1" style="stop-color:#D4BEF1"/>
</linearGradient>
<path class="st23" d="M104.6,110.3c0,0,20.6,11.7,25.4,11.2c4.8-0.5,2.7-11.5,2.7-11.5c-0.6-0.8-1.4-1.5-2.1-2.3l0,0
	c-7.7-8.2-20.9-18.6-28.5-23.5l0,0c-3.2-2.1-5.4-3.2-5.8-2.8C93.5,84.5,104.6,110.3,104.6,110.3z"/>
<linearGradient id="SVGID_23_" gradientUnits="userSpaceOnUse" x1="30.0856" y1="121.3959" x2="28.8434" y2="109.2012" gradientTransform="matrix(-1 0 0 1 158.9638 0)">
	<stop  offset="0" style="stop-color:#BE9DEA"/>
	<stop  offset="1" style="stop-color:#9E8CEF"/>
</linearGradient>
<path class="st24" d="M132.7,110c0,0-2.7-2.3-6,0.8c-3.3,3,0.1,10.3,3.3,10.7C133.2,121.9,135.2,114.8,132.7,110z"/>
<linearGradient id="SVGID_24_" gradientUnits="userSpaceOnUse" x1="44.4771" y1="121.5253" x2="44.4771" y2="81.2859" gradientTransform="matrix(-1 0 0 1 158.9638 0)">
	<stop  offset="0" style="stop-color:#9D68C2"/>
	<stop  offset="1" style="stop-color:#CCEDFF"/>
</linearGradient>
<path class="st25" d="M104.6,110.3c0,0,20.6,11.7,25.4,11.2c4.8-0.5,2.7-11.5,2.7-11.5c-0.6-0.8-1.4-1.5-2.1-2.3l0,0
	c0,0-5,3-14.3,1.5C107,107.8,102,84.2,102,84.2l0,0c-3.2-2.1-5.4-3.2-5.8-2.8C93.5,84.5,104.6,110.3,104.6,110.3z"/>
<g>
	
		<linearGradient id="SVGID_25_" gradientUnits="userSpaceOnUse" x1="68.3138" y1="108.7128" x2="72.8218" y2="72.8198" gradientTransform="matrix(-0.9886 -0.1506 -0.1506 0.9886 175.2387 76.3254)">
		<stop  offset="0" style="stop-color:#CBC1F7"/>
		<stop  offset="1" style="stop-color:#E8DCF7"/>
	</linearGradient>
	<path class="st26" d="M80.6,148.4c-0.3,4.4,4.4,19.2,9.2,23.8c0,0,0,0,0,0c0.9,0.9,1.9,1.4,2.7,1.3c4-0.2,8.6-18.3,10.4-28.7
		c0.7-4,0.9-6.8,0.5-7C100.1,136.3,81,143.2,80.6,148.4z"/>
	
		<linearGradient id="SVGID_26_" gradientUnits="userSpaceOnUse" x1="61.5428" y1="79.5933" x2="82.954" y2="79.5933" gradientTransform="matrix(-0.9886 -0.1506 -0.1506 0.9886 175.2387 76.3254)">
		<stop  offset="0" style="stop-color:#8879EA"/>
		<stop  offset="1" style="stop-color:#9E8CEF"/>
	</linearGradient>
	<path class="st27" d="M80.4,149.8c0,0,4.3,3.3,12.3,0.7c6.2-2,11.5-10.9,10.8-12.7C102.7,136,78.7,142.7,80.4,149.8z"/>
	
		<linearGradient id="SVGID_27_" gradientUnits="userSpaceOnUse" x1="71.9386" y1="107.633" x2="71.9386" y2="71.5283" gradientTransform="matrix(-0.9886 -0.1506 -0.1506 0.9886 175.2387 76.3254)">
		<stop  offset="0" style="stop-color:#9D68C2"/>
		<stop  offset="1" style="stop-color:#CCEDFF"/>
	</linearGradient>
	<path class="st28" d="M80.6,148.4c-0.3,4.4,4.4,19.2,9.2,23.8c-3.3-5.2-2-14.7,1.2-18.6c2.4-3,8.9-7,11.9-8.7c0.7-4,0.9-6.8,0.5-7
		C100.1,136.3,81,143.2,80.6,148.4z"/>
	<path class="st29" d="M95.7,155c1.2-0.1,0.4,3.2,0.2,3.4c-0.2,0.2-0.8-0.9-0.8-1.8C95,155.7,95.3,155,95.7,155z"/>
</g>
<g>
	
		<linearGradient id="SVGID_28_" gradientUnits="userSpaceOnUse" x1="91.7279" y1="31.6466" x2="101.5206" y2="-46.3236" gradientTransform="matrix(-0.9584 -0.2854 -0.2854 0.9584 170.2054 147.8319)">
		<stop  offset="0" style="stop-color:#CBC1F7"/>
		<stop  offset="1" style="stop-color:#E8DCF7"/>
	</linearGradient>
	<path class="st30" d="M52,121.8c-1.2,16.4,5.6,25.6,21.5,30.1c15.5,4.4,30-9.5,30.9-30.7c0.6-13.5,0.2-25.7-4.3-34.6c0,0,0,0,0,0
		l0,0c-2.6-5-6.4-9-12.2-11.5c-4.6-2-9.2-0.6-13.7,2.8C62.6,86.7,53,109.2,52,121.8z"/>
	
		<linearGradient id="SVGID_29_" gradientUnits="userSpaceOnUse" x1="114.9658" y1="19.0009" x2="114.9658" y2="-21.3435" gradientTransform="matrix(-0.9584 -0.2854 -0.2854 0.9584 170.2054 147.8319)">
		<stop  offset="0" style="stop-color:#9D68C2"/>
		<stop  offset="1" style="stop-color:#CCEDFF"/>
	</linearGradient>
	<path class="st31" d="M68.9,95.4c0,0-5.2,11.5-7.6,19.5c-2.8,9.5-0.2,20.3-0.2,20.3l-9.3-10.6c0,0-0.4-6.9,2.1-13
		c2.4-6.2,3.8-8.9,3.8-8.9L68.9,95.4z"/>
	
		<linearGradient id="SVGID_30_" gradientUnits="userSpaceOnUse" x1="69.2962" y1="6.8341" x2="107.5314" y2="6.8341" gradientTransform="matrix(-0.9584 -0.2854 -0.2854 0.9584 170.2054 147.8319)">
		<stop  offset="0" style="stop-color:#BE9DEA"/>
		<stop  offset="1" style="stop-color:#9E8CEF"/>
	</linearGradient>
	<path class="st32" d="M104.6,123.9c0,0-0.1-12.7-11.2-16c-13.3-4-26.7,8.1-28.8,18.3c-2.2,10.2-1.9,20.5,10.6,24.6
		C75.1,150.8,98.8,157.3,104.6,123.9z"/>
	
		<radialGradient id="SVGID_31_" cx="89.1841" cy="24.2964" r="28.8959" gradientTransform="matrix(-0.9584 -0.2854 -0.2854 0.9584 170.2054 147.8319)" gradientUnits="userSpaceOnUse">
		<stop  offset="0" style="stop-color:#45FFCD"/>
		<stop  offset="1" style="stop-color:#22E0FF"/>
	</radialGradient>
	<path class="st33" d="M104,125.3c0,0-0.1-12.7-11.2-16c-13.3-4-26.7,8.1-28.8,18.3c-2.2,10.2-1.9,20.5,10.6,24.6
		C74.5,152.2,98.2,158.7,104,125.3z"/>
	
		<linearGradient id="SVGID_32_" gradientUnits="userSpaceOnUse" x1="110.6268" y1="-21.4767" x2="120.471" y2="-21.4767" gradientTransform="matrix(-0.9584 -0.2854 -0.2854 0.9584 170.2054 147.8319)">
		<stop  offset="0" style="stop-color:#8879EA"/>
		<stop  offset="1" style="stop-color:#9E8CEF"/>
	</linearGradient>
	<path class="st34" d="M59,106.3c0.6,0.2,1.3-0.1,2.2-0.8c3.9-2.9,10-12.7,11.8-18.7c0.7-2.3,0.7-4-0.3-4.6
		c-1.7-0.8-7.1,4.1-11.3,12C58.8,98.9,56.5,105.6,59,106.3z"/>
	<path class="st35" d="M61.2,105.6c3.9-2.9,10-12.7,11.8-18.7c-2.4,1.7-5.8,5.7-8.7,11.1C62.9,100.3,61.7,103.2,61.2,105.6z"/>
	
		<linearGradient id="SVGID_33_" gradientUnits="userSpaceOnUse" x1="97.9777" y1="-34.046" x2="97.9777" y2="-46.4267" gradientTransform="matrix(-0.9584 -0.2854 -0.2854 0.9584 170.2054 147.8319)">
		<stop  offset="0" style="stop-color:#8DA4E5"/>
		<stop  offset="1" style="stop-color:#755CBB"/>
	</linearGradient>
	<path class="st36" d="M74.3,77.8c0,0,14.4,11,20.9,12.1c6.3,1.1,5.1-3.2,5-3.4c0,0,0,0,0,0l0,0c-2.6-5-6.4-9-12.2-11.5
		C83.4,73,78.7,74.4,74.3,77.8z"/>
	
		<linearGradient id="SVGID_34_" gradientUnits="userSpaceOnUse" x1="71.2853" y1="-6.6018" x2="103.0107" y2="-6.6018" gradientTransform="matrix(-0.9584 -0.2854 -0.2854 0.9584 170.2054 147.8319)">
		<stop  offset="0" style="stop-color:#000000"/>
		<stop  offset="1" style="stop-color:#D4E2FF"/>
	</linearGradient>
	<path class="st37" d="M102.9,123.8c-2.6,2.7-7.7-3.3-15.7-4.7c-8.1-1.4-13.5,1.5-15.4-0.3c-1.9-1.8,8.6-11.3,20.7-8.3
		C102.2,113,103.8,122.9,102.9,123.8z"/>
	
		<linearGradient id="SVGID_35_" gradientUnits="userSpaceOnUse" x1="88.7221" y1="30.0692" x2="88.7221" y2="26.4056" gradientTransform="matrix(-0.9584 -0.2854 -0.2854 0.9584 170.2054 147.8319)">
		<stop  offset="0" style="stop-color:#D4E2FF"/>
		<stop  offset="1" style="stop-color:#000000"/>
	</linearGradient>
	<path class="st38" d="M85.6,150.2c0,0-4.3,2.3-9.7,0.9c-5.5-1.4-6.5-4.6-6.5-4.6s2.7-0.3,6.3,1.6C79.3,150,82.9,150.5,85.6,150.2z"
		/>
	<path class="st29" d="M81.9,90.4c0.9,0.3-0.1,10-1,10.1c-0.9,0.1-1.3-2.2-1.1-5.4C79.9,91.8,81,90.1,81.9,90.4z"/>
</g>
<g>
	
		<linearGradient id="SVGID_36_" gradientUnits="userSpaceOnUse" x1="180.8794" y1="-77.8809" x2="188.2684" y2="-136.7125" gradientTransform="matrix(-0.8595 -0.5111 -0.5111 0.8595 145.5583 292.4073)">
		<stop  offset="0" style="stop-color:#CBC1F7"/>
		<stop  offset="1" style="stop-color:#E8DCF7"/>
	</linearGradient>
	<path class="st39" d="M15.6,119.2c-1.5,6.2,4.3,10.3,6.8,10.1c2.2-0.2,9.5-2.7,19.1-9.4c0,0,0,0,0,0c1.4-1,2.9-2.1,4.4-3.3
		c11.7-9.3,28.3-29.3,23-31.3c0,0,0,0,0,0C53.7,79.7,17.1,113.1,15.6,119.2z"/>
	
		<linearGradient id="SVGID_37_" gradientUnits="userSpaceOnUse" x1="193.0468" y1="-77.5241" x2="193.0468" y2="-88.8476" gradientTransform="matrix(-0.8595 -0.5111 -0.5111 0.8595 145.5583 292.4073)">
		<stop  offset="0" style="stop-color:#BE9DEA"/>
		<stop  offset="1" style="stop-color:#9E8CEF"/>
	</linearGradient>
	<path class="st40" d="M27.3,127.9c0,0,2.8-4.8-0.5-9c-3.2-4.2-10.7-1-10.7-1s-3.2,5.3,2.4,8.8C24.3,130.2,27.3,127.9,27.3,127.9z"
		/>
	
		<linearGradient id="SVGID_38_" gradientUnits="userSpaceOnUse" x1="186.0681" y1="-76.5522" x2="186.0681" y2="-138.7793" gradientTransform="matrix(-0.8595 -0.5111 -0.5111 0.8595 145.5583 292.4073)">
		<stop  offset="0" style="stop-color:#9D68C2"/>
		<stop  offset="1" style="stop-color:#CCEDFF"/>
	</linearGradient>
	<path class="st41" d="M15.6,119.2c-1.5,6.2,4.3,10.3,6.8,10.1c2.2-0.2,9.5-2.7,19.1-9.4c-0.9,0.5-7.2,4.4-9.9,2.8
		c-2.9-1.7-3.7-13.1,12-26.6c15.2-13.1,24.7-10.9,25.3-10.7C53.7,79.7,17.1,113.1,15.6,119.2z"/>
	
		<linearGradient id="SVGID_39_" gradientUnits="userSpaceOnUse" x1="210.6569" y1="-51.6718" x2="214.7189" y2="-84.0138" gradientTransform="matrix(0.8033 0.5956 -0.5956 0.8033 -198.819 59.5832)">
		<stop  offset="0" style="stop-color:#CBC1F7"/>
		<stop  offset="1" style="stop-color:#E8DCF7"/>
	</linearGradient>
	<path class="st42" d="M24.6,120.8c-2-2.1-6.9-2.4-9.4-1.2c-2.5,1.2-10.6,7.4-15,19.1c0,0,0.8,6.9,5.4,8.2c3.5,1,9.7-7.6,14.3-13.6
		C24.6,127.3,27.9,124.3,24.6,120.8z"/>
	
		<linearGradient id="SVGID_40_" gradientUnits="userSpaceOnUse" x1="217.7946" y1="-51.2216" x2="217.7946" y2="-80.5183" gradientTransform="matrix(0.8033 0.5956 -0.5956 0.8033 -198.819 59.5832)">
		<stop  offset="0" style="stop-color:#BE9DEA"/>
		<stop  offset="1" style="stop-color:#9E8CEF"/>
	</linearGradient>
	<path class="st43" d="M4.8,146.8c0,0,11.1-22,21.8-20.3c0,0-2,3.5-8.5,10.4C11.7,143.8,7.1,147.5,4.8,146.8z"/>
	
		<linearGradient id="SVGID_41_" gradientUnits="userSpaceOnUse" x1="218.3925" y1="-60.2901" x2="218.3925" y2="-71.6181" gradientTransform="matrix(0.8033 0.5956 -0.5956 0.8033 -198.819 59.5832)">
		<stop  offset="0" style="stop-color:#8DA4E5"/>
		<stop  offset="1" style="stop-color:#755CBB"/>
	</linearGradient>
	<path class="st44" d="M12.3,135.6c0,0-0.2,4.3,0.8,5.8c1,1.5,2.4,1.8,2.4,1.8l1.6-12.6C17.2,130.6,13.6,133.4,12.3,135.6z"/>
	
		<linearGradient id="SVGID_42_" gradientUnits="userSpaceOnUse" x1="219.1522" y1="-60.8249" x2="221.5553" y2="-79.9578" gradientTransform="matrix(0.8033 0.5956 -0.5956 0.8033 -198.819 59.5832)">
		<stop  offset="0" style="stop-color:#CBC1F7"/>
		<stop  offset="1" style="stop-color:#E8DCF7"/>
	</linearGradient>
	<path class="st45" d="M17.2,130.6c0,0,5.1-4.6,9.4-3.5c0,0,0.8,5.2-8.6,16.3c0,0-3.4,1-4.1-3C13.8,140.4,14.8,134.9,17.2,130.6z"/>
	<path class="st29" d="M20.4,130c-1.1-0.8-3.1,5.3-2.4,5.7C18.7,136,21.4,130.7,20.4,130z"/>
	<path class="st29" d="M54.8,103.1c1.3,2.5-3,4.3-4.1,3.9C49.6,106.6,53.9,101.4,54.8,103.1z"/>
	<path class="st29" d="M49.8,107.9c0.4,0.3-1.3,1.9-1.8,2.1c-0.8,0.5-2.4,0.7-2.5,0.4C45.5,110.2,49.4,107.6,49.8,107.9z"/>
</g>
<path class="st29" d="M123.2,102.3c-0.2,0.7-5.1-1.5-5.1-3.6C118.1,96.6,123.5,101.3,123.2,102.3z"/>
<g>
	
		<linearGradient id="SVGID_43_" gradientUnits="userSpaceOnUse" x1="128.7769" y1="32.8664" x2="134.5661" y2="-13.2282" gradientTransform="matrix(-0.9446 -0.3282 -0.3282 0.9446 180.0282 182.6379)">
		<stop  offset="0" style="stop-color:#CBC1F7"/>
		<stop  offset="1" style="stop-color:#E8DCF7"/>
	</linearGradient>
	<path class="st46" d="M36.2,168.7c0.9,0.9,2.5,0.8,4.5,0.2c2.2-0.7,5-2.1,7.8-3.9c0,0,0,0,0,0l0,0c8-4.9,16.7-12.6,17.2-14.8
		c1.6-7.7-6.2-17.6-11.2-22.5c-1.9-1.9-3.5-3.1-3.8-3C49.5,124.8,31.8,164.2,36.2,168.7z"/>
	
		<linearGradient id="SVGID_44_" gradientUnits="userSpaceOnUse" x1="136.7315" y1="34.1992" x2="136.7315" y2="-12.418" gradientTransform="matrix(-0.9446 -0.3282 -0.3282 0.9446 180.0282 182.6379)">
		<stop  offset="0" style="stop-color:#9D68C2"/>
		<stop  offset="1" style="stop-color:#CCEDFF"/>
	</linearGradient>
	<path class="st47" d="M36.2,168.7c0.9,0.9,2.5,0.8,4.5,0.2l7.8-3.9c-0.7,0.3-9.2,3.7-6.3-8.5c3-12.7,12.7-27.9,12.7-27.9l-0.3-1
		c-1.9-1.9-3.5-3.1-3.8-3C49.5,124.8,31.8,164.2,36.2,168.7z"/>
	<path class="st29" d="M59.6,147.6c1.9,1.2-2.8,5.1-3.3,5.1c-0.5,0-0.2-2.2,0.7-3.6C57.7,147.9,58.9,147.2,59.6,147.6z"/>
	<path class="st29" d="M55.6,153.1c0.3,0.4-1.2,1.7-1.4,1.2c-0.2-0.4,0.1-1.2,0.4-1.4C54.9,152.7,55.4,152.9,55.6,153.1z"/>
</g>
<path class="st29" d="M147.2,112c-0.1,0.8-5.9-1.9-5.9-2.9C141.3,108.1,147.3,110.6,147.2,112z"/>
<linearGradient id="SVGID_45_" gradientUnits="userSpaceOnUse" x1="20.1665" y1="126.7197" x2="10.9293" y2="114.2605" gradientTransform="matrix(-1 0 0 1 158.9638 0)">
	<stop  offset="0" style="stop-color:#BE9DEA"/>
	<stop  offset="1" style="stop-color:#9E8CEF"/>
</linearGradient>
<path class="st48" d="M158.8,122.2c0,0-0.1,1.8-1.1,3.8c0,0-2.9,2-8.4,1.7c-5.6-0.2-17.1-6.1-18.7-7.1c-1.6-1.1-2.4-4.3-2.4-4.3
	L158.8,122.2z"/>
<linearGradient id="SVGID_46_" gradientUnits="userSpaceOnUse" x1="14.6724" y1="127.0594" x2="17.0022" y2="108.5099" gradientTransform="matrix(-1 0 0 1 158.9638 0)">
	<stop  offset="0" style="stop-color:#E8DCF7"/>
	<stop  offset="1" style="stop-color:#CBC1F7"/>
</linearGradient>
<path class="st49" d="M128.6,110.3c2.8-1.1,10.1,0.4,14.5,2.1c4.5,1.6,11.7,6.7,15.7,9.8c0,0-0.1,3-5.9,3.7
	c-5.8,0.7-21.5-5.9-24.1-8.7C126.2,114.4,128.6,110.3,128.6,110.3z"/>
<linearGradient id="SVGID_47_" gradientUnits="userSpaceOnUse" x1="19.0954" y1="114.5986" x2="16.222" y2="110.7229" gradientTransform="matrix(-1 0 0 1 158.9638 0)">
	<stop  offset="0" style="stop-color:#BE9DEA"/>
	<stop  offset="1" style="stop-color:#9E8CEF"/>
</linearGradient>
<path class="st50" d="M148.8,115.2c0,0-9.9-1.3-14.9-5.1C133.8,110.1,142.3,109.8,148.8,115.2z"/>
<linearGradient id="SVGID_48_" gradientUnits="userSpaceOnUse" x1="13.8287" y1="114.6482" x2="14.6406" y2="108.1839" gradientTransform="matrix(-1 0 0 1 158.9638 0)">
	<stop  offset="0" style="stop-color:#CBC1F7"/>
	<stop  offset="1" style="stop-color:#E8DCF7"/>
</linearGradient>
<path class="st51" d="M135.3,110.3c0,0,5.8,3.4,11.9,3.6c0,0,6.2,0.1,6.5-0.6c0.3-0.7,0.5-3.4-1.1-4.1
	C151.1,108.5,140.4,107.3,135.3,110.3z"/>
<linearGradient id="SVGID_49_" gradientUnits="userSpaceOnUse" x1="13.0355" y1="112.5155" x2="25.5808" y2="121.7314" gradientTransform="matrix(-1 0 0 1 158.9638 0)">
	<stop  offset="0" style="stop-color:#BE9DEA"/>
	<stop  offset="1" style="stop-color:#9E8CEF"/>
</linearGradient>
<path class="st52" d="M147.8,115.1c0,0-7.4,0.5-15.4,4.6l-0.9-0.5C131.5,119.2,137.3,115.1,147.8,115.1z"/>
<path class="st29" d="M148.1,123.8c0,0-3.3-2-6.8-1.8C141.3,122,146,124.2,148.1,123.8z"/>
</svg>
