<?xml version="1.0" encoding="utf-8"?>
<!-- Generator: Adobe Illustrator 24.0.2, SVG Export Plug-In . SVG Version: 6.00 Build 0)  -->
<svg version="1.1" id="chatbot" xmlns="http://www.w3.org/2000/svg" xmlns:xlink="http://www.w3.org/1999/xlink" x="0px" y="0px"
	 viewBox="0 0 203.8 205.4" style="enable-background:new 0 0 203.8 205.4;" xml:space="preserve">
<style type="text/css">
	.st0{opacity:0.5;fill:url(#SVGID_1_);}
	.st1{fill:#E5F6FF;}
	.st2{fill:url(#SVGID_2_);}
	.st3{fill:url(#SVGID_3_);}
	.st4{fill:url(#SVGID_4_);}
	.st5{fill:url(#SVGID_5_);}
	.st6{opacity:0.3;fill:url(#SVGID_6_);}
	.st7{opacity:0.5;fill:url(#SVGID_7_);}
	.st8{fill:url(#SVGID_8_);}
	.st9{fill:#DFE3FB;}
	.st10{fill:url(#SVGID_9_);}
	.st11{fill:url(#SVGID_10_);}
	.st12{fill:url(#SVGID_11_);}
	.st13{fill:url(#SVGID_12_);}
	.st14{fill:url(#SVGID_13_);}
	.st15{fill:url(#SVGID_14_);}
	.st16{fill:url(#SVGID_15_);}
	.st17{fill:url(#SVGID_16_);}
	.st18{fill:url(#SVGID_17_);}
	.st19{opacity:0.5;fill:url(#SVGID_18_);}
	.st20{opacity:0.5;fill:url(#SVGID_19_);}
	.st21{opacity:0.5;fill:url(#SVGID_20_);}
	.st22{opacity:0.72;fill:url(#SVGID_21_);}
	.st23{opacity:0.72;fill:url(#SVGID_22_);}
	.st24{fill:#2F95CD;}
	.st25{fill:url(#SVGID_23_);}
	.st26{fill:url(#SVGID_24_);}
	.st27{opacity:0.3;fill:url(#SVGID_25_);}
	.st28{fill:url(#SVGID_26_);}
	.st29{fill:url(#SVGID_27_);}
	.st30{opacity:0.3;fill:url(#SVGID_28_);}
	.st31{fill:#FFFFFF;}
	.st32{fill:url(#SVGID_29_);}
	.st33{opacity:0.3;fill:url(#SVGID_30_);}
	.st34{fill:url(#SVGID_31_);}
	.st35{fill:url(#SVGID_32_);}
	.st36{fill:url(#SVGID_33_);}
	.st37{fill:#6340A2;}
	.st38{opacity:0.5;fill:url(#SVGID_34_);}
	.st39{opacity:0.72;fill:url(#SVGID_35_);}
	.st40{opacity:0.72;fill:url(#SVGID_36_);}
	.st41{fill:url(#SVGID_37_);}
	.st42{fill:url(#SVGID_38_);}
	.st43{opacity:0.3;fill:url(#SVGID_39_);}
	.st44{fill:url(#SVGID_40_);}
	.st45{fill:url(#SVGID_41_);}
	.st46{opacity:0.5;fill:url(#SVGID_42_);}
	.st47{fill:url(#SVGID_43_);}
	.st48{fill:url(#SVGID_44_);}
	.st49{opacity:0.3;fill:url(#SVGID_45_);}
	.st50{fill:url(#SVGID_46_);}
	.st51{fill:url(#SVGID_47_);}
	.st52{fill:url(#SVGID_48_);}
	.st53{fill:url(#SVGID_49_);}
	.st54{fill:url(#SVGID_50_);}
	.st55{fill:url(#SVGID_51_);}
	.st56{fill:#FF7AE8;}
	.st57{fill:url(#SVGID_52_);}
	.st58{fill:url(#SVGID_53_);}
	.st59{fill:url(#SVGID_54_);}
	.st60{fill:url(#SVGID_55_);}
	.st61{fill:url(#SVGID_56_);}
	.st62{fill:url(#SVGID_57_);}
	.st63{opacity:0.3;fill:url(#SVGID_58_);}
	.st64{opacity:0.72;fill:url(#SVGID_59_);}
	.st65{opacity:0.5;fill:#C44FE5;}
	.st66{opacity:0.72;fill:url(#SVGID_60_);}
</style>
<radialGradient id="SVGID_1_" cx="108.2058" cy="-92.8235" r="40.7874" gradientTransform="matrix(1 0 0 0.2225 0 213.4727)" gradientUnits="userSpaceOnUse">
	<stop  offset="0" style="stop-color:#BE9DEA"/>
	<stop  offset="0.3883" style="stop-color:#E0BFF5"/>
	<stop  offset="1" style="stop-color:#FFFFFF"/>
</radialGradient>
<ellipse class="st0" cx="108.2" cy="192.8" rx="40.8" ry="9.1"/>
<g>
	<path class="st1" d="M50.8,161.6c8.3,13.8,78.1,10,104.2-2.7c26.1-12.8,28.7-122.5,16.3-138.9C158.9,3.6,80.1-1.6,47.7,16.2
		S39.7,143.3,50.8,161.6z"/>
	<path class="st1" d="M172,12.8c0.1-6.7,15.2-14.4,23.9-12.1c8.7,2.3,10.1,32.3-3.2,33.3C179.4,34.9,171.9,21.2,172,12.8z"/>
	<path class="st1" d="M34.4,154.7c-1.2-5,2.7-10.4,6.3-9.5c3.6,0.9,7.6,17.7,2.2,18.1C37.5,163.8,35.2,158.1,34.4,154.7z"/>
</g>
<g>
	<g>
		
			<linearGradient id="SVGID_2_" gradientUnits="userSpaceOnUse" x1="75.5563" y1="121.4676" x2="75.5563" y2="95.8285" gradientTransform="matrix(0.9819 0.1893 -0.1893 0.9819 17.1754 -97.6505)">
			<stop  offset="0" style="stop-color:#45FFCD"/>
			<stop  offset="1" style="stop-color:#22E0FF"/>
		</linearGradient>
		<path class="st2" d="M73.5,10.8c0,0-8.2,5.9-11.5,19c-3.3,13.1,15.8-3.1,15.8-3.1L73.5,10.8z"/>
		
			<linearGradient id="SVGID_3_" gradientUnits="userSpaceOnUse" x1="82.7497" y1="110.6752" x2="82.7497" y2="88.7873" gradientTransform="matrix(0.9819 0.1893 -0.1893 0.9819 17.1754 -97.6505)">
			<stop  offset="0" style="stop-color:#B9ACF4"/>
			<stop  offset="1" style="stop-color:#E1D1F5"/>
		</linearGradient>
		<path class="st3" d="M66.3,24.5c0,0,6.2-15.8,12-18.3C84,3.7,92.6,8.7,92.6,8.7L66.3,24.5z"/>
		
			<linearGradient id="SVGID_4_" gradientUnits="userSpaceOnUse" x1="104.7061" y1="168.7837" x2="115.0507" y2="86.4189" gradientTransform="matrix(0.9819 0.1893 -0.1893 0.9819 17.1754 -97.6505)">
			<stop  offset="0" style="stop-color:#CBC1F7"/>
			<stop  offset="1" style="stop-color:#E8DCF7"/>
		</linearGradient>
		<path class="st4" d="M137.4,78c-15,15.9-72.8,7.8-80.8-3.2c-3.2-4.4-4.8-9.6-5-15.2l0,0c-0.8-24,23.6-54.7,53.9-52.3
			c20.5,1.6,34.1,21.4,37.7,40.5C145.3,59.7,143.7,71.3,137.4,78z"/>
		
			<linearGradient id="SVGID_5_" gradientUnits="userSpaceOnUse" x1="79.6587" y1="158.5608" x2="147.2683" y2="158.5608" gradientTransform="matrix(0.9819 0.1893 -0.1893 0.9819 17.1754 -97.6505)">
			<stop  offset="0" style="stop-color:#8879EA"/>
			<stop  offset="1" style="stop-color:#9E8CEF"/>
		</linearGradient>
		<path class="st5" d="M124.5,84.5c-7.6,1.7-18.8,2.6-26.2,2.2c-13.6-0.8-23.3-2.9-28.7-5.4l0,0c-3.5-1.7-5.2-3.5-4.8-5.2
			c0.2-1.1,2.9-1.9,7.2-2.4c12.5-1.5,38.1-0.7,51.8,2.1c1.2,0.3,2.3,0.5,3.2,0.8c0.2,0.1,0.4,0.1,0.6,0.2c0,0,0.1,0,0.1,0
			c2.3,0.7,4,1.5,4.7,2.4c0.2,0.2,0.3,0.5,0.4,0.7C133.2,81.8,129.7,83.4,124.5,84.5z"/>
		
			<linearGradient id="SVGID_6_" gradientUnits="userSpaceOnUse" x1="109.1267" y1="166.9556" x2="109.1267" y2="113.1767" gradientTransform="matrix(0.9819 0.1893 -0.1893 0.9819 17.1754 -97.6505)">
			<stop  offset="0" style="stop-color:#9D68C2"/>
			<stop  offset="1" style="stop-color:#CCEDFF"/>
		</linearGradient>
		<path class="st6" d="M137.4,78c-15,15.9-72.8,7.8-80.8-3.2c-3.2-4.4-4.8-9.6-5-15.2l0,0c0,0,3.4,7.8,15.1,9.9
			c11.7,2.1,46.1,2.4,53.4-2.4c7.3-4.8,5.9-28.5,5.9-28.5l17.1,9.2C145.3,59.7,143.7,71.3,137.4,78z"/>
		
			<linearGradient id="SVGID_7_" gradientUnits="userSpaceOnUse" x1="113.4635" y1="165.8046" x2="113.4635" y2="150.1647" gradientTransform="matrix(0.9819 0.1893 -0.1893 0.9819 17.1754 -97.6505)">
			<stop  offset="0" style="stop-color:#8DA4E5"/>
			<stop  offset="1" style="stop-color:#755CBB"/>
		</linearGradient>
		<path class="st7" d="M124.5,84.5c-5.7-2.9-22.5-10.5-36.4-8.2c-17.1,2.8-18.5,5-18.5,5l0,0c-3.5-1.7-5.2-3.5-4.8-5.2
			c0.2-1.1,2.9-1.9,7.2-2.4c12.5-1.5,38.1-0.7,51.8,2.1c1.4,0.3,2.7,0.7,3.9,1c0,0,0.1,0,0.1,0c2.3,0.7,4,1.5,4.7,2.4
			c0.2,0.2,0.3,0.5,0.4,0.7C133.2,81.8,129.7,83.4,124.5,84.5z"/>
		
			<linearGradient id="SVGID_8_" gradientUnits="userSpaceOnUse" x1="107.7495" y1="154.7545" x2="109.0289" y2="144.5679" gradientTransform="matrix(0.9984 5.730000e-02 -5.730000e-02 0.9984 -0.3752 -79.1143)">
			<stop  offset="0" style="stop-color:#5E36CC"/>
			<stop  offset="1" style="stop-color:#6C4A96"/>
		</linearGradient>
		<path class="st8" d="M127,76.6c-3.4,2.9-19,4.7-27.8,4.2c-15.8-0.9-25.2-4-27.3-7.1C85.6,72,114.6,73.1,127,76.6z"/>
		<path class="st9" d="M51.3,60.6c2,7.3,51.9,12.8,65.4,1S120.7,7.3,94,9.6C68.6,11.7,47.6,47.4,51.3,60.6z"/>
		
			<linearGradient id="SVGID_9_" gradientUnits="userSpaceOnUse" x1="96.6829" y1="151.0949" x2="96.6829" y2="88.7403" gradientTransform="matrix(0.9819 0.1893 -0.1893 0.9819 17.1754 -97.6505)">
			<stop  offset="0" style="stop-color:#0665BD"/>
			<stop  offset="1" style="stop-color:#1A1F77"/>
		</linearGradient>
		<path class="st10" d="M51.5,59.6c2,7.3,51.9,12.8,65.4,1c13.5-11.8,3.9-54.4-22.8-52.1C68.8,10.6,47.8,46.3,51.5,59.6z"/>
		
			<linearGradient id="SVGID_10_" gradientUnits="userSpaceOnUse" x1="131.1063" y1="39.0181" x2="131.1063" y2="-3.1926" gradientTransform="matrix(1 -5.000000e-03 5.000000e-03 1 1.9586 10.7326)">
			<stop  offset="0" style="stop-color:#B9ACF4"/>
			<stop  offset="1" style="stop-color:#E1D1F5"/>
		</linearGradient>
		<path class="st11" d="M121,15.7c0,0-2.6,24.7,12.7,33.3c0,0,7.5,0.8,11.8-3.8c0,0-6.7,6.4-13.9-0.2c-7.2-6.6-5.5-24.8-0.2-30.8
			c5.4-6,13.2-4.4,13.2-4.4l-3.1-2.8C141.5,7.1,130,4.8,121,15.7z"/>
		
			<linearGradient id="SVGID_11_" gradientUnits="userSpaceOnUse" x1="134.3398" y1="37.4152" x2="134.3398" y2="-2.9965" gradientTransform="matrix(1 -5.000000e-03 5.000000e-03 1 1.9586 10.7326)">
			<stop  offset="0" style="stop-color:#BE9DEA"/>
			<stop  offset="1" style="stop-color:#9E8CEF"/>
		</linearGradient>
		<path class="st12" d="M141.5,7.1c0,0-8.5-0.7-14.3,9.1c-6.2,10.5-1.6,28.5,6.1,31.2c7.6,2.7,15.2-26.5,15.2-26.5L144,9.2
			C144,9.2,143.1,7.6,141.5,7.1z"/>
		
			<linearGradient id="SVGID_12_" gradientUnits="userSpaceOnUse" x1="137.3898" y1="38.4189" x2="137.3898" y2="-1.1925" gradientTransform="matrix(1 -5.000000e-03 5.000000e-03 1 1.9586 10.7326)">
			<stop  offset="0" style="stop-color:#45FFCD"/>
			<stop  offset="1" style="stop-color:#22E0FF"/>
		</linearGradient>
		<path class="st13" d="M152.6,31.8c-1.1,5.6-3.3,10.2-6.4,13.2l0,0l-0.9,0.8h0c-2.5,2-5.4,3-8.6,2.6c-10.3-1.3-11.8-16.2-10.6-24.6
			c1.4-9.8,9.7-15.7,16.3-14.8C150.4,9.9,154.6,20.8,152.6,31.8z"/>
		
			<linearGradient id="SVGID_13_" gradientUnits="userSpaceOnUse" x1="52.1081" y1="163.5214" x2="55.0055" y2="140.4522" gradientTransform="matrix(0.9819 0.1893 -0.1893 0.9819 17.1754 -97.6505)">
			<stop  offset="0" style="stop-color:#BE9DEA"/>
			<stop  offset="1" style="stop-color:#9E8CEF"/>
		</linearGradient>
		<path class="st14" d="M51.3,52.8c0,0-7.2,1.6-14,7.2c-6.8,5.6-8.6,12.4-0.2,11.8l3.9-2.3c0,0-5,0.7-4.3-4.4
			c0.7-5.1,14.5-11.4,14.5-11.4L51.3,52.8z"/>
		
			<linearGradient id="SVGID_14_" gradientUnits="userSpaceOnUse" x1="59.5422" y1="110.1569" x2="59.5422" y2="99.6266" gradientTransform="matrix(0.9595 0.2817 -0.2817 0.9595 17.4019 -48.6836)">
			<stop  offset="0" style="stop-color:#DD1A8F"/>
			<stop  offset="1" style="stop-color:#FE117E"/>
		</linearGradient>
		<path class="st15" d="M35.6,67.7c-2.5,2.6,2.4,4.9,6.5,5.6c4.6,0.8,13,0.3,12.7-4.5C54.6,64.1,41.5,61.7,35.6,67.7z"/>
		
			<linearGradient id="SVGID_15_" gradientUnits="userSpaceOnUse" x1="53.5273" y1="154.0532" x2="53.5273" y2="149.2381" gradientTransform="matrix(0.9985 5.430000e-02 -5.430000e-02 0.9985 -0.8043 -87.6095)">
			<stop  offset="0" style="stop-color:#D93DE3"/>
			<stop  offset="1" style="stop-color:#FF6DBA"/>
		</linearGradient>
		<path class="st16" d="M35.9,68.2c-0.2,0.8,16.4,1.8,17-1.1S37.3,62.3,35.9,68.2z"/>
		
			<linearGradient id="SVGID_16_" gradientUnits="userSpaceOnUse" x1="110.2752" y1="118.8928" x2="110.2752" y2="113.1731" gradientTransform="matrix(0.9819 0.1893 -0.1893 0.9819 17.1754 -97.6505)">
			<stop  offset="0" style="stop-color:#45FFCD"/>
			<stop  offset="1" style="stop-color:#22E0FF"/>
		</linearGradient>
		<path class="st17" d="M94.4,38.3c-0.4,0.5,6.5-4,17.5,0.3C113.1,39,101.5,28.6,94.4,38.3z"/>
		
			<linearGradient id="SVGID_17_" gradientUnits="userSpaceOnUse" x1="73.8859" y1="125.5125" x2="73.8859" y2="120.2032" gradientTransform="matrix(0.9819 0.1893 -0.1893 0.9819 17.1754 -97.6505)">
			<stop  offset="0" style="stop-color:#45FFCD"/>
			<stop  offset="1" style="stop-color:#22E0FF"/>
		</linearGradient>
		<path class="st18" d="M59.8,38.3c-0.4,0.5,3.3-3,12.9-0.7C73.8,37.9,66.1,29.7,59.8,38.3z"/>
		
			<linearGradient id="SVGID_18_" gradientUnits="userSpaceOnUse" x1="71.2182" y1="102.6002" x2="124.8069" y2="102.6002" gradientTransform="matrix(0.9819 0.1893 -0.1893 0.9819 17.1754 -97.6505)">
			<stop  offset="0" style="stop-color:#000000"/>
			<stop  offset="1" style="stop-color:#6A9BFF"/>
		</linearGradient>
		<path class="st19" d="M65.4,29c1.1,1.7,10.6-3.2,21-2.1s21.8,11.3,30.3,10c6.8-1-2.2-25.3-19.4-27.5S64.3,27.3,65.4,29z"/>
		
			<linearGradient id="SVGID_19_" gradientUnits="userSpaceOnUse" x1="74.5282" y1="145.8813" x2="113.7982" y2="145.8813" gradientTransform="matrix(0.9819 0.1893 -0.1893 0.9819 17.1754 -97.6505)">
			<stop  offset="0" style="stop-color:#000000"/>
			<stop  offset="1" style="stop-color:#6A9BFF"/>
		</linearGradient>
		<path class="st20" d="M62.3,61.8c0,0,10.8-2.9,24.2-1.4c13.4,1.5,15.5,2.9,15.3,4.2c-0.2,1.3-10,3.8-22.2,2.5
			C67.3,65.8,62.3,61.8,62.3,61.8z"/>
		
			<linearGradient id="SVGID_20_" gradientUnits="userSpaceOnUse" x1="65.6669" y1="145.881" x2="65.6669" y2="120.2914" gradientTransform="matrix(0.9819 0.1893 -0.1893 0.9819 17.1754 -97.6505)">
			<stop  offset="0" style="stop-color:#000000"/>
			<stop  offset="1" style="stop-color:#6A9BFF"/>
		</linearGradient>
		<path class="st21" d="M51.9,57.6c0,0-1.4-9.4,7.1-22.7c0,0,1.8-2.1,2.7-1.3C62.5,34.3,54,43.9,51.9,57.6z"/>
		
			<linearGradient id="SVGID_21_" gradientUnits="userSpaceOnUse" x1="136.6317" y1="37.1246" x2="136.6317" y2="25.556" gradientTransform="matrix(1 -5.000000e-03 5.000000e-03 1 1.9586 10.7326)">
			<stop  offset="0" style="stop-color:#D4E2FF"/>
			<stop  offset="1" style="stop-color:#000000"/>
		</linearGradient>
		<path class="st22" d="M127.9,35.7c0,0,1.1,9.1,7.9,11.1c6.7,1.9,12.2-2.9,13.9-9.8c0,0-2.1,5.9-10.8,4.5S127.9,35.7,127.9,35.7z"
			/>
		
			<linearGradient id="SVGID_22_" gradientUnits="userSpaceOnUse" x1="127.0144" y1="6.0531" x2="149.6814" y2="6.0531" gradientTransform="matrix(1 -5.000000e-03 5.000000e-03 1 1.9586 10.7326)">
			<stop  offset="0" style="stop-color:#000000"/>
			<stop  offset="1" style="stop-color:#D4E2FF"/>
		</linearGradient>
		<path class="st23" d="M129,18.4c0.1,1.7,12.4-1.9,16.3-1.4s5.6,5.3,6.2,5.2c0.6-0.1-1.1-11.4-8.4-12.2S129,17.2,129,18.4z"/>
		<path class="st24" d="M71.1,47.8c0,0,12.3,0.4,19.2-1.3c0,0-1.6,11.5-9.6,11.5C72.7,57.9,71.1,47.8,71.1,47.8z"/>
	</g>
	<linearGradient id="SVGID_23_" gradientUnits="userSpaceOnUse" x1="57.6565" y1="128.3401" x2="63.1508" y2="84.5941">
		<stop  offset="0" style="stop-color:#CBC1F7"/>
		<stop  offset="1" style="stop-color:#D4BEF1"/>
	</linearGradient>
	<path class="st25" d="M70.6,115.6c0,0-20.6,11.7-25.4,11.2c-4.8-0.5-2.7-11.5-2.7-11.5c0.6-0.8,1.4-1.5,2.1-2.3l0,0
		c7.7-8.2,20.9-18.6,28.5-23.5l0,0c3.2-2.1,5.4-3.2,5.8-2.8C81.8,89.8,70.6,115.6,70.6,115.6z"/>
	<linearGradient id="SVGID_24_" gradientUnits="userSpaceOnUse" x1="46.3309" y1="126.6601" x2="45.0887" y2="114.4653">
		<stop  offset="0" style="stop-color:#BE9DEA"/>
		<stop  offset="1" style="stop-color:#9E8CEF"/>
	</linearGradient>
	<path class="st26" d="M42.5,115.3c0,0,2.7-2.3,6,0.8c3.3,3-0.1,10.3-3.3,10.7C42,127.1,40,120,42.5,115.3z"/>
	<linearGradient id="SVGID_25_" gradientUnits="userSpaceOnUse" x1="60.7223" y1="126.7895" x2="60.7223" y2="86.5501">
		<stop  offset="0" style="stop-color:#9D68C2"/>
		<stop  offset="1" style="stop-color:#CCEDFF"/>
	</linearGradient>
	<path class="st27" d="M70.6,115.6c0,0-20.6,11.7-25.4,11.2c-4.8-0.5-2.7-11.5-2.7-11.5c0.6-0.8,1.4-1.5,2.1-2.3l0,0
		c0,0,5,3,14.3,1.5c9.3-1.4,14.2-25.1,14.2-25.1l0,0c3.2-2.1,5.4-3.2,5.8-2.8C81.8,89.8,70.6,115.6,70.6,115.6z"/>
	<g>
		
			<linearGradient id="SVGID_26_" gradientUnits="userSpaceOnUse" x1="84.559" y1="113.977" x2="89.067" y2="78.084" gradientTransform="matrix(0.9886 -0.1506 0.1506 0.9886 -16.8826 78.832)">
			<stop  offset="0" style="stop-color:#CBC1F7"/>
			<stop  offset="1" style="stop-color:#E8DCF7"/>
		</linearGradient>
		<path class="st28" d="M94.6,153.6c0.3,4.4-4.4,19.2-9.2,23.8c0,0,0,0,0,0c-0.9,0.9-1.9,1.4-2.7,1.3c-4-0.2-8.6-18.3-10.4-28.7
			c-0.7-4-0.9-6.8-0.5-7C75.1,141.6,94.3,148.4,94.6,153.6z"/>
		
			<linearGradient id="SVGID_27_" gradientUnits="userSpaceOnUse" x1="77.7881" y1="84.8575" x2="99.1993" y2="84.8575" gradientTransform="matrix(0.9886 -0.1506 0.1506 0.9886 -16.8826 78.832)">
			<stop  offset="0" style="stop-color:#8879EA"/>
			<stop  offset="1" style="stop-color:#9E8CEF"/>
		</linearGradient>
		<path class="st29" d="M94.8,155c0,0-4.3,3.3-12.3,0.7c-6.2-2-11.5-10.9-10.8-12.7C72.5,141.3,96.5,147.9,94.8,155z"/>
		
			<linearGradient id="SVGID_28_" gradientUnits="userSpaceOnUse" x1="88.1839" y1="112.8971" x2="88.1839" y2="76.7924" gradientTransform="matrix(0.9886 -0.1506 0.1506 0.9886 -16.8826 78.832)">
			<stop  offset="0" style="stop-color:#9D68C2"/>
			<stop  offset="1" style="stop-color:#CCEDFF"/>
		</linearGradient>
		<path class="st30" d="M94.6,153.6c0.3,4.4-4.4,19.2-9.2,23.8c3.3-5.2,2-14.7-1.2-18.6c-2.4-3-8.9-7-11.9-8.7c-0.7-4-0.9-6.8-0.5-7
			C75.1,141.6,94.3,148.4,94.6,153.6z"/>
		<path class="st31" d="M79.5,160.2c-1.2-0.1-0.4,3.2-0.2,3.4c0.2,0.2,0.8-0.9,0.8-1.8C80.2,161,79.9,160.2,79.5,160.2z"/>
	</g>
	<g>
		
			<linearGradient id="SVGID_29_" gradientUnits="userSpaceOnUse" x1="107.9731" y1="36.9108" x2="117.7658" y2="-41.0595" gradientTransform="matrix(0.9584 -0.2854 0.2854 0.9584 -12.0682 152.6873)">
			<stop  offset="0" style="stop-color:#CBC1F7"/>
			<stop  offset="1" style="stop-color:#E8DCF7"/>
		</linearGradient>
		<path class="st32" d="M123.2,127.1c1.2,16.4-5.6,25.6-21.5,30.1c-15.5,4.4-30-9.5-30.9-30.7c-0.6-13.5-0.2-25.7,4.3-34.6
			c0,0,0,0,0,0l0,0c2.6-5,6.4-9,12.2-11.5c4.6-2,9.2-0.6,13.7,2.8C112.6,92,122.2,114.4,123.2,127.1z"/>
		
			<linearGradient id="SVGID_30_" gradientUnits="userSpaceOnUse" x1="131.2111" y1="24.2651" x2="131.2111" y2="-16.0793" gradientTransform="matrix(0.9584 -0.2854 0.2854 0.9584 -12.0682 152.6873)">
			<stop  offset="0" style="stop-color:#9D68C2"/>
			<stop  offset="1" style="stop-color:#CCEDFF"/>
		</linearGradient>
		<path class="st33" d="M106.3,100.7c0,0,5.2,11.5,7.6,19.5c2.8,9.5,0.2,20.3,0.2,20.3l9.3-10.6c0,0,0.4-6.9-2.1-13
			c-2.4-6.2-3.8-8.9-3.8-8.9L106.3,100.7z"/>
		
			<linearGradient id="SVGID_31_" gradientUnits="userSpaceOnUse" x1="85.5415" y1="12.0982" x2="123.7767" y2="12.0982" gradientTransform="matrix(0.9584 -0.2854 0.2854 0.9584 -12.0682 152.6873)">
			<stop  offset="0" style="stop-color:#BE9DEA"/>
			<stop  offset="1" style="stop-color:#9E8CEF"/>
		</linearGradient>
		<path class="st34" d="M70.6,129.2c0,0,0.1-12.7,11.2-16c13.3-4,26.7,8.1,28.8,18.3c2.2,10.2,1.9,20.5-10.6,24.6
			C100.2,156.1,76.4,162.6,70.6,129.2z"/>
		
			<radialGradient id="SVGID_32_" cx="105.4294" cy="29.5606" r="28.8959" gradientTransform="matrix(0.9584 -0.2854 0.2854 0.9584 -12.0682 152.6873)" gradientUnits="userSpaceOnUse">
			<stop  offset="0" style="stop-color:#45FFCD"/>
			<stop  offset="1" style="stop-color:#22E0FF"/>
		</radialGradient>
		<path class="st35" d="M71.2,130.5c0,0,0.1-12.7,11.2-16c13.3-4,26.7,8.1,28.8,18.3c2.2,10.2,1.9,20.5-10.6,24.6
			C100.7,157.5,77,163.9,71.2,130.5z"/>
		
			<linearGradient id="SVGID_33_" gradientUnits="userSpaceOnUse" x1="126.8721" y1="-16.2126" x2="136.7162" y2="-16.2126" gradientTransform="matrix(0.9584 -0.2854 0.2854 0.9584 -12.0682 152.6873)">
			<stop  offset="0" style="stop-color:#8879EA"/>
			<stop  offset="1" style="stop-color:#9E8CEF"/>
		</linearGradient>
		<path class="st36" d="M116.2,111.6c-0.6,0.2-1.3-0.1-2.2-0.8c-3.9-2.9-10-12.7-11.8-18.7c-0.7-2.3-0.7-4,0.3-4.6
			c1.7-0.8,7.1,4.1,11.3,12C116.4,104.2,118.7,110.9,116.2,111.6z"/>
		<path class="st37" d="M114,110.8c-3.9-2.9-10-12.7-11.8-18.7c2.4,1.7,5.8,5.7,8.7,11.1C112.3,105.6,113.5,108.5,114,110.8z"/>
		
			<linearGradient id="SVGID_34_" gradientUnits="userSpaceOnUse" x1="114.223" y1="-28.7818" x2="114.223" y2="-41.1625" gradientTransform="matrix(0.9584 -0.2854 0.2854 0.9584 -12.0682 152.6873)">
			<stop  offset="0" style="stop-color:#8DA4E5"/>
			<stop  offset="1" style="stop-color:#755CBB"/>
		</linearGradient>
		<path class="st38" d="M100.9,83c0,0-14.4,11-20.9,12.1c-6.3,1.1-5.1-3.2-5-3.4c0,0,0,0,0,0l0,0c2.6-5,6.4-9,12.2-11.5
			C91.8,78.3,96.5,79.7,100.9,83z"/>
		
			<linearGradient id="SVGID_35_" gradientUnits="userSpaceOnUse" x1="87.5306" y1="-1.3377" x2="119.256" y2="-1.3377" gradientTransform="matrix(0.9584 -0.2854 0.2854 0.9584 -12.0682 152.6873)">
			<stop  offset="0" style="stop-color:#000000"/>
			<stop  offset="1" style="stop-color:#D4E2FF"/>
		</linearGradient>
		<path class="st39" d="M72.3,129c2.6,2.7,7.7-3.3,15.7-4.7c8.1-1.4,13.5,1.5,15.4-0.3c1.9-1.8-8.6-11.3-20.7-8.3
			C73,118.2,71.4,128.1,72.3,129z"/>
		
			<linearGradient id="SVGID_36_" gradientUnits="userSpaceOnUse" x1="104.9674" y1="35.3333" x2="104.9674" y2="31.6697" gradientTransform="matrix(0.9584 -0.2854 0.2854 0.9584 -12.0682 152.6873)">
			<stop  offset="0" style="stop-color:#D4E2FF"/>
			<stop  offset="1" style="stop-color:#000000"/>
		</linearGradient>
		<path class="st40" d="M89.6,155.4c0,0,4.3,2.3,9.7,0.9c5.5-1.4,6.5-4.6,6.5-4.6s-2.7-0.3-6.3,1.6
			C95.9,155.2,92.3,155.8,89.6,155.4z"/>
		<path class="st31" d="M93.3,95.7c-0.9,0.3,0.1,10,1,10.1c0.9,0.1,1.3-2.2,1.1-5.4C95.3,97.1,94.2,95.4,93.3,95.7z"/>
	</g>
	<g>
		
			<linearGradient id="SVGID_37_" gradientUnits="userSpaceOnUse" x1="197.1246" y1="-72.6167" x2="204.5136" y2="-131.4484" gradientTransform="matrix(0.8595 -0.5111 0.5111 0.8595 12.9975 301.4499)">
			<stop  offset="0" style="stop-color:#CBC1F7"/>
			<stop  offset="1" style="stop-color:#E8DCF7"/>
		</linearGradient>
		<path class="st41" d="M159.6,124.5c1.5,6.2-4.3,10.3-6.8,10.1c-2.2-0.2-9.5-2.7-19.1-9.4c0,0,0,0,0,0c-1.4-1-2.9-2.1-4.4-3.3
			c-11.7-9.3-28.3-29.3-23-31.3c0,0,0,0,0,0C121.5,85,158.1,118.4,159.6,124.5z"/>
		
			<linearGradient id="SVGID_38_" gradientUnits="userSpaceOnUse" x1="209.292" y1="-72.2599" x2="209.292" y2="-83.5834" gradientTransform="matrix(0.8595 -0.5111 0.5111 0.8595 12.9975 301.4499)">
			<stop  offset="0" style="stop-color:#BE9DEA"/>
			<stop  offset="1" style="stop-color:#9E8CEF"/>
		</linearGradient>
		<path class="st42" d="M147.9,133.2c0,0-2.8-4.8,0.5-9c3.2-4.2,10.7-1,10.7-1s3.2,5.3-2.4,8.8C150.9,135.5,147.9,133.2,147.9,133.2
			z"/>
		
			<linearGradient id="SVGID_39_" gradientUnits="userSpaceOnUse" x1="202.3133" y1="-71.288" x2="202.3133" y2="-133.5151" gradientTransform="matrix(0.8595 -0.5111 0.5111 0.8595 12.9975 301.4499)">
			<stop  offset="0" style="stop-color:#9D68C2"/>
			<stop  offset="1" style="stop-color:#CCEDFF"/>
		</linearGradient>
		<path class="st43" d="M159.6,124.5c1.5,6.2-4.3,10.3-6.8,10.1c-2.2-0.2-9.5-2.7-19.1-9.4c0.9,0.5,7.2,4.4,9.9,2.8
			c2.9-1.7,3.7-13.1-12-26.6c-15.2-13.1-24.7-10.9-25.3-10.7C121.5,85,158.1,118.4,159.6,124.5z"/>
		
			<linearGradient id="SVGID_40_" gradientUnits="userSpaceOnUse" x1="226.9022" y1="-46.4076" x2="230.9642" y2="-78.7496" gradientTransform="matrix(-0.8033 0.5956 0.5956 0.8033 383.9425 50.943)">
			<stop  offset="0" style="stop-color:#CBC1F7"/>
			<stop  offset="1" style="stop-color:#E8DCF7"/>
		</linearGradient>
		<path class="st44" d="M150.6,126.1c2-2.1,6.9-2.4,9.4-1.2c2.5,1.2,10.6,7.4,15,19.1c0,0-0.8,6.9-5.4,8.2c-3.5,1-9.7-7.6-14.3-13.6
			C150.6,132.6,147.3,129.5,150.6,126.1z"/>
		
			<linearGradient id="SVGID_41_" gradientUnits="userSpaceOnUse" x1="234.0399" y1="-45.9575" x2="234.0399" y2="-75.2542" gradientTransform="matrix(-0.8033 0.5956 0.5956 0.8033 383.9425 50.943)">
			<stop  offset="0" style="stop-color:#BE9DEA"/>
			<stop  offset="1" style="stop-color:#9E8CEF"/>
		</linearGradient>
		<path class="st45" d="M170.4,152.1c0,0-11.1-22-21.8-20.3c0,0,2,3.5,8.5,10.4C163.5,149,168.1,152.8,170.4,152.1z"/>
		
			<linearGradient id="SVGID_42_" gradientUnits="userSpaceOnUse" x1="234.6378" y1="-55.0259" x2="234.6378" y2="-66.3539" gradientTransform="matrix(-0.8033 0.5956 0.5956 0.8033 383.9425 50.943)">
			<stop  offset="0" style="stop-color:#8DA4E5"/>
			<stop  offset="1" style="stop-color:#755CBB"/>
		</linearGradient>
		<path class="st46" d="M162.9,140.8c0,0,0.2,4.3-0.8,5.8c-1,1.5-2.4,1.8-2.4,1.8l-1.6-12.6C158.1,135.8,161.6,138.7,162.9,140.8z"
			/>
		
			<linearGradient id="SVGID_43_" gradientUnits="userSpaceOnUse" x1="235.3975" y1="-55.5607" x2="237.8005" y2="-74.6936" gradientTransform="matrix(-0.8033 0.5956 0.5956 0.8033 383.9425 50.943)">
			<stop  offset="0" style="stop-color:#CBC1F7"/>
			<stop  offset="1" style="stop-color:#E8DCF7"/>
		</linearGradient>
		<path class="st47" d="M158.1,135.8c0,0-5.1-4.6-9.4-3.5c0,0-0.8,5.2,8.6,16.3c0,0,3.4,1,4.1-3
			C161.4,145.6,160.4,140.2,158.1,135.8z"/>
		<path class="st31" d="M154.8,135.3c1.1-0.8,3.1,5.3,2.4,5.7C156.5,141.3,153.8,136,154.8,135.3z"/>
		<path class="st31" d="M120.4,108.4c-1.3,2.5,3,4.3,4.1,3.9C125.6,111.9,121.3,106.7,120.4,108.4z"/>
		<path class="st31" d="M125.4,113.2c-0.4,0.3,1.3,1.9,1.8,2.1c0.8,0.5,2.4,0.7,2.5,0.4C129.7,115.4,125.8,112.9,125.4,113.2z"/>
	</g>
	<path class="st31" d="M52,107.6c0.2,0.7,5.1-1.5,5.1-3.6C57.1,101.9,51.7,106.5,52,107.6z"/>
	<g>
		
			<linearGradient id="SVGID_44_" gradientUnits="userSpaceOnUse" x1="145.0221" y1="38.1305" x2="150.8114" y2="-7.9641" gradientTransform="matrix(0.9446 -0.3282 0.3282 0.9446 -21.8921 188.2613)">
			<stop  offset="0" style="stop-color:#CBC1F7"/>
			<stop  offset="1" style="stop-color:#E8DCF7"/>
		</linearGradient>
		<path class="st48" d="M139,173.9c-0.9,0.9-2.5,0.8-4.5,0.2c-2.2-0.7-5-2.1-7.8-3.9c0,0,0,0,0,0l0,0c-8-4.9-16.7-12.6-17.2-14.8
			c-1.6-7.7,6.2-17.6,11.2-22.5c1.9-1.9,3.5-3.1,3.8-3C125.7,130,143.4,169.5,139,173.9z"/>
		
			<linearGradient id="SVGID_45_" gradientUnits="userSpaceOnUse" x1="152.9768" y1="39.4633" x2="152.9768" y2="-7.1538" gradientTransform="matrix(0.9446 -0.3282 0.3282 0.9446 -21.8921 188.2613)">
			<stop  offset="0" style="stop-color:#9D68C2"/>
			<stop  offset="1" style="stop-color:#CCEDFF"/>
		</linearGradient>
		<path class="st49" d="M139,173.9c-0.9,0.9-2.5,0.8-4.5,0.2l-7.8-3.9c0.7,0.3,9.2,3.7,6.3-8.5c-3-12.7-12.7-27.9-12.7-27.9l0.3-1
			c1.9-1.9,3.5-3.1,3.8-3C125.7,130,143.4,169.5,139,173.9z"/>
		<path class="st31" d="M115.6,152.8c-1.9,1.2,2.8,5.1,3.3,5.1c0.5,0,0.2-2.2-0.7-3.6C117.5,153.2,116.3,152.4,115.6,152.8z"/>
		<path class="st31" d="M119.6,158.4c-0.3,0.4,1.2,1.7,1.4,1.2s-0.1-1.2-0.4-1.4C120.3,158,119.8,158.2,119.6,158.4z"/>
	</g>
	<path class="st31" d="M28,117.3c0.1,0.8,5.9-1.9,5.9-2.9C33.9,113.4,27.9,115.9,28,117.3z"/>
	<linearGradient id="SVGID_46_" gradientUnits="userSpaceOnUse" x1="36.4118" y1="131.9838" x2="27.1746" y2="119.5247">
		<stop  offset="0" style="stop-color:#BE9DEA"/>
		<stop  offset="1" style="stop-color:#9E8CEF"/>
	</linearGradient>
	<path class="st50" d="M16.4,127.5c0,0,0.1,1.8,1.1,3.8c0,0,2.9,2,8.4,1.7c5.6-0.2,17.1-6.1,18.7-7.1c1.6-1.1,2.4-4.3,2.4-4.3
		L16.4,127.5z"/>
	<linearGradient id="SVGID_47_" gradientUnits="userSpaceOnUse" x1="30.9177" y1="132.3236" x2="33.2475" y2="113.7741">
		<stop  offset="0" style="stop-color:#E8DCF7"/>
		<stop  offset="1" style="stop-color:#CBC1F7"/>
	</linearGradient>
	<path class="st51" d="M46.6,115.6c-2.8-1.1-10.1,0.4-14.5,2.1c-4.5,1.6-11.7,6.7-15.7,9.8c0,0,0.1,3,5.9,3.7
		c5.8,0.7,21.5-5.9,24.1-8.7C49,119.6,46.6,115.6,46.6,115.6z"/>
	<linearGradient id="SVGID_48_" gradientUnits="userSpaceOnUse" x1="35.3407" y1="119.8627" x2="32.4673" y2="115.987">
		<stop  offset="0" style="stop-color:#BE9DEA"/>
		<stop  offset="1" style="stop-color:#9E8CEF"/>
	</linearGradient>
	<path class="st52" d="M26.5,120.5c0,0,9.9-1.3,14.9-5.1C41.4,115.4,32.9,115,26.5,120.5z"/>
	<linearGradient id="SVGID_49_" gradientUnits="userSpaceOnUse" x1="30.074" y1="119.9123" x2="30.8859" y2="113.4481">
		<stop  offset="0" style="stop-color:#CBC1F7"/>
		<stop  offset="1" style="stop-color:#E8DCF7"/>
	</linearGradient>
	<path class="st53" d="M39.9,115.6c0,0-5.8,3.4-11.9,3.6c0,0-6.2,0.1-6.5-0.6c-0.3-0.7-0.5-3.4,1.1-4.1
		C24.1,113.7,34.8,112.5,39.9,115.6z"/>
	<linearGradient id="SVGID_50_" gradientUnits="userSpaceOnUse" x1="29.2808" y1="117.7797" x2="41.8261" y2="126.9956">
		<stop  offset="0" style="stop-color:#BE9DEA"/>
		<stop  offset="1" style="stop-color:#9E8CEF"/>
	</linearGradient>
	<path class="st54" d="M27.4,120.3c0,0,7.4,0.5,15.4,4.6l0.9-0.5C43.7,124.4,37.9,120.4,27.4,120.3z"/>
	<g>
		<linearGradient id="SVGID_51_" gradientUnits="userSpaceOnUse" x1="21.8984" y1="119.8589" x2="21.8984" y2="66.9943">
			<stop  offset="0" style="stop-color:#DD1A8F"/>
			<stop  offset="1" style="stop-color:#FE117E"/>
		</linearGradient>
		<path class="st55" d="M14,67.1c0,0,4.4-0.8,9,1.6c0,0,10.1,6,9.2,25.5c-0.9,19.7-9.5,24-9.5,24s-6.6,2.8-10,1.3
			C9.3,118,14,67.1,14,67.1z"/>
		<ellipse class="st56" cx="14" cy="93.3" rx="13.5" ry="26.2"/>
		<linearGradient id="SVGID_52_" gradientUnits="userSpaceOnUse" x1="8.5741" y1="118.5664" x2="18.6389" y2="67.9866">
			<stop  offset="0" style="stop-color:#D93DE3"/>
			<stop  offset="1" style="stop-color:#FF6DBA"/>
		</linearGradient>
		<ellipse class="st57" cx="13.6" cy="93.3" rx="13.1" ry="26.2"/>
		<linearGradient id="SVGID_53_" gradientUnits="userSpaceOnUse" x1="9.7478" y1="113.1826" x2="17.6711" y2="73.3648">
			<stop  offset="0" style="stop-color:#DD1A8F"/>
			<stop  offset="1" style="stop-color:#FE117E"/>
		</linearGradient>
		<path class="st58" d="M24.2,93.3c0,11.4-4.7,20.6-10.5,20.6c-0.8,0-1.6-0.2-2.3-0.5c-4.7-2-8.2-10.3-8.2-20.1
			c0-11.4,4.7-20.6,10.5-20.6c1.2,0,2.4,0.4,3.5,1.2C21.3,76.7,24.2,84.3,24.2,93.3z"/>
		<linearGradient id="SVGID_54_" gradientUnits="userSpaceOnUse" x1="10.4071" y1="113.3138" x2="18.2451" y2="73.9247">
			<stop  offset="0" style="stop-color:#D93DE3"/>
			<stop  offset="1" style="stop-color:#E652AD"/>
		</linearGradient>
		<path class="st59" d="M24.2,93.3c0,11.4-4.7,20.6-10.5,20.6c-0.8,0-1.6-0.2-2.3-0.5c-4.1-2.8-7-10.5-7-19.4
			c0-11.4,4.7-20.6,10.5-20.6c0.8,0,1.5,0.2,2.3,0.5C21.3,76.7,24.2,84.3,24.2,93.3z"/>
		<g>
			<g>
				<g>
					<linearGradient id="SVGID_55_" gradientUnits="userSpaceOnUse" x1="10.3511" y1="92.543" x2="20.0354" y2="92.543">
						<stop  offset="0" style="stop-color:#DD1A8F"/>
						<stop  offset="1" style="stop-color:#FE117E"/>
					</linearGradient>
					<path class="st60" d="M20,87.5c0,0.6-0.1,1.3-0.2,1.9c-0.1,0.7-0.3,1.3-0.6,1.9c-0.3,0.6-0.7,1.2-1.1,1.7
						c-0.4,0.5-1,0.9-1.6,1.3c0.6,0.3,1.1,0.6,1.4,1c0.3,0.4,0.6,0.8,0.8,1.2c0.2,0.4,0.3,0.8,0.3,1.2c0.1,0.4,0.1,0.7,0.1,0.9
						c0,0.8-0.1,1.4-0.3,2c-0.2,0.5-0.5,1-0.9,1.4c-0.4,0.4-0.7,0.7-1.2,0.9c-0.4,0.2-0.9,0.4-1.3,0.5c-0.4,0.1-0.8,0.2-1.2,0.2
						c-0.4,0-0.7,0.1-0.9,0.1c-0.3,0-0.6,0-0.9-0.1c-0.3,0-0.5-0.1-0.8-0.2c-0.3-0.1-0.5-0.2-0.8-0.3c0.1-1.9,0.1-3.8,0.1-5.7
						c0-2.6-0.1-5.1-0.2-7.7c-0.1-2.5-0.3-5.1-0.5-7.6c0.5-0.1,0.9-0.3,1.4-0.3c0.5-0.1,0.9-0.1,1.2-0.2c0.4,0,0.8-0.1,1.2-0.1
						c0.3,0,0.7,0,1.1,0.1c0.4,0.1,0.8,0.2,1.3,0.4c0.4,0.2,0.9,0.4,1.3,0.7s0.8,0.7,1.1,1.1c0.3,0.4,0.6,1,0.8,1.6
						C19.9,86,20,86.7,20,87.5z M16.3,98.2c0-0.5-0.1-0.9-0.3-1.3c-0.1-0.2-0.2-0.3-0.3-0.5c-0.1-0.2-0.2-0.3-0.4-0.5
						c-0.2-0.1-0.4-0.3-0.6-0.4c-0.2-0.1-0.5-0.2-0.8-0.2c0,1.1-0.1,2.1-0.1,3.1s0,2.1,0,3.1c0.3-0.1,0.6-0.2,0.8-0.4
						s0.4-0.3,0.6-0.5c0.2-0.2,0.3-0.4,0.4-0.5c0.1-0.2,0.2-0.4,0.3-0.6C16.1,99.1,16.2,98.6,16.3,98.2z M17.1,88.2c0,0,0-0.1,0-0.3
						c0-0.2,0-0.4-0.1-0.7c0-0.3-0.1-0.6-0.2-0.9c-0.1-0.3-0.3-0.7-0.5-1c-0.2-0.3-0.5-0.6-0.8-0.8c-0.3-0.2-0.8-0.4-1.3-0.4
						c-0.1,1.7-0.1,3.3-0.2,5C14,90.7,14,92.3,14,94c0.4-0.1,0.7-0.3,1-0.6c0.3-0.2,0.5-0.5,0.8-0.8c0.2-0.3,0.4-0.6,0.5-0.9
						c0.2-0.3,0.3-0.7,0.4-1C16.9,89.9,17,89.1,17.1,88.2z"/>
				</g>
			</g>
			<linearGradient id="SVGID_56_" gradientUnits="userSpaceOnUse" x1="12.7659" y1="80.2038" x2="15.1933" y2="80.2038">
				<stop  offset="0" style="stop-color:#DD1A8F"/>
				<stop  offset="1" style="stop-color:#FE117E"/>
			</linearGradient>
			<rect x="12.8" y="78.2" class="st61" width="2.4" height="4"/>
			<linearGradient id="SVGID_57_" gradientUnits="userSpaceOnUse" x1="12.7659" y1="104.5425" x2="15.1933" y2="104.5425">
				<stop  offset="0" style="stop-color:#DD1A8F"/>
				<stop  offset="1" style="stop-color:#FE117E"/>
			</linearGradient>
			<rect x="12.8" y="102.3" class="st62" width="2.4" height="4.5"/>
		</g>
		<g>
			<g>
				<g>
					<path class="st56" d="M18.6,87.3c0,0.6-0.1,1.3-0.2,1.9c-0.1,0.7-0.3,1.3-0.6,1.9c-0.3,0.6-0.7,1.2-1.1,1.7
						c-0.4,0.5-1,0.9-1.6,1.3c0.6,0.3,1.1,0.6,1.4,1c0.3,0.4,0.6,0.8,0.8,1.2c0.2,0.4,0.3,0.8,0.3,1.2c0.1,0.4,0.1,0.7,0.1,0.9
						c0,0.8-0.1,1.4-0.3,2c-0.2,0.5-0.5,1-0.9,1.4c-0.4,0.4-0.7,0.7-1.2,0.9c-0.4,0.2-0.9,0.4-1.3,0.5c-0.4,0.1-0.8,0.2-1.2,0.2
						c-0.4,0-0.7,0.1-0.9,0.1c-0.3,0-0.6,0-0.9-0.1c-0.3,0-0.5-0.1-0.8-0.2c-0.3-0.1-0.5-0.2-0.8-0.3c0.1-1.9,0.1-3.8,0.1-5.7
						c0-2.6-0.1-5.1-0.2-7.7c-0.1-2.5-0.3-5.1-0.5-7.6c0.5-0.1,0.9-0.3,1.4-0.3c0.5-0.1,0.9-0.1,1.2-0.2c0.4,0,0.8-0.1,1.2-0.1
						c0.3,0,0.7,0,1.1,0.1c0.4,0.1,0.8,0.2,1.3,0.4c0.4,0.2,0.9,0.4,1.3,0.7c0.4,0.3,0.8,0.7,1.1,1.1c0.3,0.4,0.6,1,0.8,1.6
						C18.5,85.8,18.6,86.5,18.6,87.3z M14.8,98c0-0.5-0.1-0.9-0.3-1.3c-0.1-0.2-0.2-0.3-0.3-0.5c-0.1-0.2-0.2-0.3-0.4-0.5
						c-0.2-0.1-0.4-0.3-0.6-0.4c-0.2-0.1-0.5-0.2-0.8-0.2c0,1.1-0.1,2.1-0.1,3.1c0,1,0,2.1,0,3.1c0.3-0.1,0.6-0.2,0.8-0.4
						c0.2-0.2,0.4-0.3,0.6-0.5c0.2-0.2,0.3-0.4,0.4-0.5c0.1-0.2,0.2-0.4,0.3-0.6C14.6,98.9,14.8,98.5,14.8,98z M15.6,88
						c0,0,0-0.1,0-0.3c0-0.2,0-0.4-0.1-0.7c0-0.3-0.1-0.6-0.2-0.9c-0.1-0.3-0.3-0.7-0.5-1c-0.2-0.3-0.5-0.6-0.8-0.8
						c-0.3-0.2-0.8-0.4-1.3-0.4c-0.1,1.7-0.1,3.3-0.2,5c-0.1,1.6-0.1,3.3-0.1,5c0.4-0.1,0.7-0.3,1-0.6c0.3-0.2,0.5-0.5,0.8-0.8
						c0.2-0.3,0.4-0.6,0.5-0.9c0.2-0.3,0.3-0.7,0.4-1C15.4,89.7,15.6,88.9,15.6,88z"/>
				</g>
			</g>
			<rect x="11.3" y="78.1" class="st56" width="2.4" height="4"/>
			<rect x="11.3" y="102.2" class="st56" width="2.4" height="4.5"/>
		</g>
		<linearGradient id="SVGID_58_" gradientUnits="userSpaceOnUse" x1="0.6613" y1="90.7566" x2="27.3439" y2="90.7566">
			<stop  offset="0" style="stop-color:#000000"/>
			<stop  offset="1" style="stop-color:#FF955C"/>
		</linearGradient>
		<path class="st63" d="M0.7,97.4l24.4-19.3c0,0,2,5.2,2.3,10.2L1.6,103.5C1.6,103.5,0.8,99.3,0.7,97.4z"/>
		<linearGradient id="SVGID_59_" gradientUnits="userSpaceOnUse" x1="25.0577" y1="82.9723" x2="32.1697" y2="82.9723">
			<stop  offset="0" style="stop-color:#000000"/>
			<stop  offset="1" style="stop-color:#FF955C"/>
		</linearGradient>
		<path class="st64" d="M25.1,78.1l4.8-0.4c0,0,2.2,5.4,2.4,10.2l-4.8,0.5C27.3,88.3,26.6,81.5,25.1,78.1z"/>
		<path class="st65" d="M22.6,113.6h4.6c0,0-2.1,3.2-4.4,4.5l-4.2-0.2C18.6,117.9,21.1,116.2,22.6,113.6z"/>
		<linearGradient id="SVGID_60_" gradientUnits="userSpaceOnUse" x1="14.042" y1="68.8482" x2="25.374" y2="68.8482">
			<stop  offset="0" style="stop-color:#000000"/>
			<stop  offset="1" style="stop-color:#FF955C"/>
		</linearGradient>
		<path class="st66" d="M19.3,69.2c0,0,4,0.5,6,1.4c0,0-1.3-1.5-2.1-1.8c-0.8-0.4-4.1-2-9.2-1.7C14,67.1,16.9,67.3,19.3,69.2z"/>
	</g>
	<path class="st31" d="M27.1,129.1c0,0,3.3-2,6.8-1.8C33.9,127.3,29.2,129.5,27.1,129.1z"/>
</g>
</svg>
