<?xml version="1.0" encoding="utf-8"?>
<!-- Generator: Adobe Illustrator 24.0.2, SVG Export Plug-In . SVG Version: 6.00 Build 0)  -->
<svg version="1.1" id="chatbot" xmlns="http://www.w3.org/2000/svg" xmlns:xlink="http://www.w3.org/1999/xlink" x="0px" y="0px"
	 viewBox="0 0 191.4 206.3" style="enable-background:new 0 0 191.4 206.3;" xml:space="preserve">
<style type="text/css">
	.st0{opacity:0.5;fill:url(#SVGID_1_);}
	.st1{fill:#E5F6FF;}
	.st2{fill:url(#SVGID_2_);}
	.st3{fill:url(#SVGID_3_);}
	.st4{opacity:0.3;fill:url(#SVGID_4_);}
	.st5{fill:url(#SVGID_5_);}
	.st6{fill:url(#SVGID_6_);}
	.st7{fill:#FFFFFF;}
	.st8{opacity:0.3;fill:url(#SVGID_7_);}
	.st9{fill:url(#SVGID_8_);}
	.st10{fill:url(#SVGID_9_);}
	.st11{fill:url(#SVGID_10_);}
	.st12{fill:url(#SVGID_11_);}
	.st13{fill:url(#SVGID_12_);}
	.st14{fill:url(#SVGID_13_);}
	.st15{fill:url(#SVGID_14_);}
	.st16{fill:#DFE3FB;}
	.st17{fill:url(#SVGID_15_);}
	.st18{opacity:0.3;fill:url(#SVGID_16_);}
	.st19{fill:url(#SVGID_17_);}
	.st20{opacity:0.5;fill:url(#SVGID_18_);}
	.st21{fill:url(#SVGID_19_);}
	.st22{opacity:0.5;fill:url(#SVGID_20_);}
	.st23{fill:url(#SVGID_21_);}
	.st24{fill:url(#SVGID_22_);}
	.st25{opacity:0.5;fill:url(#SVGID_23_);}
	.st26{opacity:0.5;fill:url(#SVGID_24_);}
	.st27{opacity:0.3;fill:url(#SVGID_25_);}
	.st28{fill:url(#SVGID_26_);}
	.st29{opacity:0.2;fill:url(#SVGID_27_);}
	.st30{opacity:0.72;fill:url(#SVGID_28_);}
	.st31{opacity:0.72;fill:url(#SVGID_29_);}
	.st32{fill:url(#SVGID_30_);}
	.st33{opacity:0.3;fill:url(#SVGID_31_);}
	.st34{fill:url(#SVGID_32_);}
	.st35{fill:url(#SVGID_33_);}
	.st36{opacity:0.3;fill:url(#SVGID_34_);}
	.st37{fill:url(#SVGID_35_);}
	.st38{fill:url(#SVGID_36_);}
	.st39{fill:url(#SVGID_37_);}
	.st40{opacity:0.5;fill:url(#SVGID_38_);}
	.st41{fill:url(#SVGID_39_);}
	.st42{fill:url(#SVGID_40_);}
	.st43{fill:url(#SVGID_41_);}
	.st44{fill:#2F95CD;}
	.st45{fill:url(#SVGID_42_);}
	.st46{opacity:0.3;fill:url(#SVGID_43_);}
	.st47{fill:url(#SVGID_44_);}
	.st48{fill:url(#SVGID_45_);}
	.st49{opacity:0.5;fill:url(#SVGID_46_);}
	.st50{opacity:0.72;fill:url(#SVGID_47_);}
	.st51{opacity:0.72;fill:url(#SVGID_48_);}
	.st52{fill:#39F5DE;}
</style>
<radialGradient id="SVGID_1_" cx="88.7268" cy="-91.6914" r="40.7875" gradientTransform="matrix(1 0 0 0.2225 0 214.3529)" gradientUnits="userSpaceOnUse">
	<stop  offset="0" style="stop-color:#BE9DEA"/>
	<stop  offset="0.3883" style="stop-color:#E0BFF5"/>
	<stop  offset="1" style="stop-color:#FFFFFF"/>
</radialGradient>
<ellipse class="st0" cx="88.7" cy="194" rx="40.8" ry="9.1"/>
<g>
	<path class="st1" d="M16.6,160.9c10.6,22.3,112.9,19,138.7,1.7c25.8-17.3,32.8-164.3-36.5-161.3C68.2,3.6-10.6,103.8,16.6,160.9z"
		/>
	<path class="st1" d="M172.6,146.9c-3.9-2.1,0.8-25,7.2-27.6c6.3-2.6,13.2,10.5,10.7,17.9C188,144.5,179.4,150.4,172.6,146.9z"/>
	<path class="st1" d="M17,82c3.6,2.3-2.5,22.5-8.4,24c-5.9,1.5-9.8-10.2-7.5-16C3.4,84.2,11.8,78.7,17,82z"/>
</g>
<linearGradient id="SVGID_2_" gradientUnits="userSpaceOnUse" x1="118.7564" y1="168.6888" x2="124.4055" y2="123.7099" gradientTransform="matrix(0.9259 -0.3778 0.3778 0.9259 -56.164 71.4539)">
	<stop  offset="0" style="stop-color:#CBC1F7"/>
	<stop  offset="1" style="stop-color:#E8DCF7"/>
</linearGradient>
<path class="st2" d="M118.7,144.4c0.2,0.6,0.3,1.3,0.5,2c2.7,10.3,5.8,25.7,5,32.1c-0.2,1.5-0.6,2.5-1.3,2.9
	c-0.2,0.1-0.4,0.1-0.6,0.1c-0.7,0.1-1.6-0.2-2.7-0.7l0,0c-6.4-3.2-17.6-16.2-19.6-20.6c-0.3-0.5-0.4-1-0.3-1.2
	c1.1-4.4,14.6-23.6,16.2-22.6C116.4,136.6,117.4,139.8,118.7,144.4z"/>
<linearGradient id="SVGID_3_" gradientUnits="userSpaceOnUse" x1="122.9663" y1="141.4543" x2="122.9663" y2="125.108" gradientTransform="matrix(0.9259 -0.3778 0.3778 0.9259 -56.164 71.4539)">
	<stop  offset="0" style="stop-color:#BE9DEA"/>
	<stop  offset="1" style="stop-color:#9E8CEF"/>
</linearGradient>
<path class="st3" d="M100,160.2c0,1.6,18-9.4,15.9-23.8C115.9,136.4,100,145.1,100,160.2z"/>
<linearGradient id="SVGID_4_" gradientUnits="userSpaceOnUse" x1="123.0351" y1="167.6262" x2="123.0351" y2="124.9823" gradientTransform="matrix(0.9259 -0.3778 0.3778 0.9259 -56.164 71.4539)">
	<stop  offset="0" style="stop-color:#9D68C2"/>
	<stop  offset="1" style="stop-color:#CCEDFF"/>
</linearGradient>
<path class="st4" d="M118.7,144.4c0,0-9.3,7.4-9.7,13.5c-0.4,6,5.4,17.5,10.7,22.9c-6.4-3.2-17.6-16.2-19.6-20.6
	c-0.3-0.5-0.4-1-0.3-1.2c1.1-4.4,14.6-23.6,16.2-22.6C116.4,136.6,117.4,139.8,118.7,144.4z"/>
<linearGradient id="SVGID_5_" gradientUnits="userSpaceOnUse" x1="127.7051" y1="175.0025" x2="133.3543" y2="130.0236" gradientTransform="matrix(-0.9259 -0.3778 -0.3778 0.9259 240.9798 71.4539)">
	<stop  offset="0" style="stop-color:#CBC1F7"/>
	<stop  offset="1" style="stop-color:#E8DCF7"/>
</linearGradient>
<path class="st5" d="M55.5,146.8c-0.2,0.6-0.3,1.3-0.5,2c-2.7,10.3-5.8,25.7-5,32.1c0.2,1.5,0.6,2.5,1.3,2.9
	c0.2,0.1,0.4,0.1,0.6,0.1c0.7,0.1,1.6-0.2,2.7-0.7l0,0c6.4-3.2,17.6-16.2,19.6-20.6c0.3-0.5,0.4-1,0.3-1.2
	c-1.1-4.4-14.6-23.6-16.2-22.6C57.8,139.1,56.7,142.3,55.5,146.8z"/>
<linearGradient id="SVGID_6_" gradientUnits="userSpaceOnUse" x1="131.9151" y1="147.7679" x2="131.9151" y2="131.4217" gradientTransform="matrix(-0.9259 -0.3778 -0.3778 0.9259 240.9798 71.4539)">
	<stop  offset="0" style="stop-color:#BE9DEA"/>
	<stop  offset="1" style="stop-color:#9E8CEF"/>
</linearGradient>
<path class="st6" d="M74.1,162.6c0,1.6-18-9.4-15.9-23.8C58.2,138.8,74.1,147.6,74.1,162.6z"/>
<path class="st7" d="M61.6,162.8c0.7,0.6-1.7,6.9-3.2,6.7C57,169.4,60,161.5,61.6,162.8z"/>
<path class="st7" d="M115.8,172.1c0.9-0.1,2.9,3.6,1.7,4.5C116.3,177.5,113.7,172.3,115.8,172.1z"/>
<linearGradient id="SVGID_7_" gradientUnits="userSpaceOnUse" x1="131.9839" y1="173.9398" x2="131.9839" y2="131.2959" gradientTransform="matrix(-0.9259 -0.3778 -0.3778 0.9259 240.9798 71.4539)">
	<stop  offset="0" style="stop-color:#9D68C2"/>
	<stop  offset="1" style="stop-color:#CCEDFF"/>
</linearGradient>
<path class="st8" d="M55.5,146.8c0,0,9.3,7.4,9.7,13.5c0.4,6-5.4,17.5-10.7,22.9c6.4-3.2,17.6-16.2,19.6-20.6c0.3-0.5,0.4-1,0.3-1.2
	c-1.1-4.4-14.6-23.6-16.2-22.6C57.8,139.1,56.7,142.3,55.5,146.8z"/>
<linearGradient id="SVGID_8_" gradientUnits="userSpaceOnUse" x1="-909.1406" y1="49.0553" x2="-909.1406" y2="14.38" gradientTransform="matrix(-1 0 0 1 -859.1393 0)">
	<stop  offset="0" style="stop-color:#B9ACF4"/>
	<stop  offset="1" style="stop-color:#E1D1F5"/>
</linearGradient>
<path class="st9" d="M59.9,20.7c0,0-6.3-5.4-13.9-6.3c0,0-2.3,1.1-5.1,9.6c-2.7,8.4,2.3,25.1,2.3,25.1L59.9,20.7z"/>
<linearGradient id="SVGID_9_" gradientUnits="userSpaceOnUse" x1="47.5187" y1="35.9555" x2="47.5187" y2="14.38">
	<stop  offset="0" style="stop-color:#BE9DEA"/>
	<stop  offset="1" style="stop-color:#9E8CEF"/>
</linearGradient>
<path class="st10" d="M43,18.6c0,0,1.2-2.9,3-4.2c0,0,6.3,5.8,6,19.7L50.2,36L43,18.6z"/>
<linearGradient id="SVGID_10_" gradientUnits="userSpaceOnUse" x1="121.5246" y1="49.0553" x2="121.5246" y2="14.38">
	<stop  offset="0" style="stop-color:#B9ACF4"/>
	<stop  offset="1" style="stop-color:#E1D1F5"/>
</linearGradient>
<path class="st11" d="M111.6,20.7c0,0,6.3-5.4,13.9-6.3c0,0,2.3,1.1,5.1,9.6c2.7,8.4-2.3,25.1-2.3,25.1L111.6,20.7z"/>
<linearGradient id="SVGID_11_" gradientUnits="userSpaceOnUse" x1="124.0428" y1="33.2275" x2="124.0428" y2="14.3774">
	<stop  offset="0" style="stop-color:#BE9DEA"/>
	<stop  offset="1" style="stop-color:#9E8CEF"/>
</linearGradient>
<path class="st12" d="M125.6,14.4c0,0-6.2,6.6-6.2,17.3l2.4,1.5l7-14.4C128.7,18.8,126.4,14.3,125.6,14.4z"/>
<linearGradient id="SVGID_12_" gradientUnits="userSpaceOnUse" x1="128.729" y1="50.7144" x2="128.729" y2="16.6449">
	<stop  offset="0" style="stop-color:#DD1A8F"/>
	<stop  offset="1" style="stop-color:#FE117E"/>
</linearGradient>
<path class="st13" d="M121.5,32.5c0,0-1.6-9.1,4.4-15.9c0,0,6.8,3.2,9.6,15.1c2.8,11.9-4.5,19-4.5,19L121.5,32.5z"/>
<linearGradient id="SVGID_13_" gradientUnits="userSpaceOnUse" x1="-901.9362" y1="50.7144" x2="-901.9362" y2="16.6449" gradientTransform="matrix(-1 0 0 1 -859.1393 0)">
	<stop  offset="0" style="stop-color:#DD1A8F"/>
	<stop  offset="1" style="stop-color:#FE117E"/>
</linearGradient>
<path class="st14" d="M50,32.5c0,0,1.6-9.1-4.4-15.9c0,0-6.8,3.2-9.6,15.1c-2.8,11.9,4.5,19,4.5,19L50,32.5z"/>
<linearGradient id="SVGID_14_" gradientUnits="userSpaceOnUse" x1="82.0228" y1="98.238" x2="93.0468" y2="10.4643">
	<stop  offset="0" style="stop-color:#CBC1F7"/>
	<stop  offset="1" style="stop-color:#E8DCF7"/>
</linearGradient>
<path class="st15" d="M129.9,83c-14,19.6-79.6,18.1-88.1,2.3c-5.6-10.3-5-25.9,0.4-40.2c7-18.8,22.3-35.4,42.5-35.4
	c23.8,0,42.1,23.7,47.6,45.3C135,66,134.6,76.4,129.9,83z"/>
<path class="st16" d="M46.7,64.9c3.1,13.3,60.8,14.8,74.9,2.7s-6.2-55-37.5-53.1C55.6,16.2,41.6,43,46.7,64.9z"/>
<linearGradient id="SVGID_15_" gradientUnits="userSpaceOnUse" x1="85.6199" y1="74.1757" x2="85.6199" y2="12.7585">
	<stop  offset="0" style="stop-color:#0665BD"/>
	<stop  offset="1" style="stop-color:#1A1F77"/>
</linearGradient>
<path class="st17" d="M46.4,63.2c3.1,13.3,60.8,14.8,74.9,2.7c14.2-12.1-6.2-55-37.5-53.1C55.3,14.5,41.3,41.4,46.4,63.2z"/>
<linearGradient id="SVGID_16_" gradientUnits="userSpaceOnUse" x1="85.922" y1="97.4266" x2="85.922" y2="45.1088">
	<stop  offset="0" style="stop-color:#9D68C2"/>
	<stop  offset="1" style="stop-color:#CCEDFF"/>
</linearGradient>
<path class="st18" d="M129.9,83c-14,19.6-79.6,18.1-88.1,2.3c-5.6-10.3-5-25.9,0.4-40.2c0,0,0,0,0,0C42,45.9,36.5,66,42.1,74.8
	c5.7,9,28.4,7.8,52.8,6.7c24.4-1,32.4-4.6,36.5-11.5c3.2-5.4,0-17.3-1.5-22.2l2.4,7.1C135,66,134.6,76.4,129.9,83z"/>
<linearGradient id="SVGID_17_" gradientUnits="userSpaceOnUse" x1="50.6602" y1="90.6256" x2="118.8369" y2="90.6256">
	<stop  offset="0" style="stop-color:#8879EA"/>
	<stop  offset="1" style="stop-color:#9E8CEF"/>
</linearGradient>
<path class="st19" d="M84.8,97.4c-13.6,0-23.5-1.5-29-3.8h0c-3.6-1.4-5.4-3.2-5.1-4.9c0.2-1.1,2.8-2,7-2.8c12.4-2.2,38-2.9,51.8-0.8
	c1.2,0.2,2.3,0.4,3.3,0.6c0.2,0,0.4,0.1,0.6,0.1c0,0,0.1,0,0.1,0c2.4,0.6,4.1,1.3,4.8,2.2c0.2,0.2,0.3,0.4,0.4,0.7
	C120.1,93.1,97.1,97.4,84.8,97.4z"/>
<linearGradient id="SVGID_18_" gradientUnits="userSpaceOnUse" x1="84.6488" y1="93.6637" x2="84.6488" y2="83.8367">
	<stop  offset="0" style="stop-color:#8DA4E5"/>
	<stop  offset="1" style="stop-color:#755CBB"/>
</linearGradient>
<path class="st20" d="M118.6,87.6c0,0.1-0.1,0.3-0.2,0.4c-1.3,1.9-6.8,4.3-6.8,4.3S90.8,83.9,74,87.6c-16.9,3.8-18.2,6-18.2,6h0
	c-3.6-1.4-5.4-3.2-5.1-4.9c0.2-1.1,2.8-2,7-2.8c12.4-2.2,38-2.9,51.8-0.8c1.4,0.3,2.8,0.5,3.9,0.8c0,0,0.1,0,0.1,0
	C116.8,86.6,118.8,87.2,118.6,87.6z"/>
<linearGradient id="SVGID_19_" gradientUnits="userSpaceOnUse" x1="84.4758" y1="92.273" x2="85.7554" y2="82.0848">
	<stop  offset="0" style="stop-color:#5E36CC"/>
	<stop  offset="1" style="stop-color:#6C4A96"/>
</linearGradient>
<path class="st21" d="M112.8,85.7c-3.2,3.1-18.7,5.7-27.5,5.7c-15.8,0-25.4-2.5-27.6-5.5C71.2,83.5,100.3,82.9,112.8,85.7z"/>
<linearGradient id="SVGID_20_" gradientUnits="userSpaceOnUse" x1="49.8464" y1="85.2964" x2="49.8464" y2="71.5086">
	<stop  offset="0" style="stop-color:#8DA4E5"/>
	<stop  offset="1" style="stop-color:#755CBB"/>
</linearGradient>
<path class="st22" d="M41.8,85.3c0,0,2.8-3.2,8.2-5.8c5.4-2.6,10.4-4.6,11.2-6.7c0.8-2.1-14.9-0.9-14.9-0.9l-7.8,3.4
	C38.5,75.3,39.7,81.6,41.8,85.3z"/>
<linearGradient id="SVGID_21_" gradientUnits="userSpaceOnUse" x1="31.1283" y1="76.2868" x2="36.1812" y2="36.0553">
	<stop  offset="0" style="stop-color:#BE9DEA"/>
	<stop  offset="1" style="stop-color:#9E8CEF"/>
</linearGradient>
<path class="st23" d="M35.4,36c0,0,4,2.6,1.4,8.6c0,0-18.9,10.3-17.8,21.5c0.9,9.4,27,4.8,27,4.8l0.9,3.1c0,0-22.2,4.3-29.8-0.9
	c0,0-2.6-6.2,3.9-17.3C27.4,44.7,35.4,36,35.4,36z"/>
<linearGradient id="SVGID_22_" gradientUnits="userSpaceOnUse" x1="32.0382" y1="-23.8305" x2="32.0382" y2="-35.1711" gradientTransform="matrix(0.9734 0.2292 -0.2292 0.9734 14.1001 92.379)">
	<stop  offset="0" style="stop-color:#DD1A8F"/>
	<stop  offset="1" style="stop-color:#FE117E"/>
</linearGradient>
<path class="st24" d="M42.7,70.1c-2.4,2.7,2.7,5.6,6.8,6.1c4.7,0.5,12.9-1.3,12.4-6C61.4,65.4,48.3,63.7,42.7,70.1z"/>
<linearGradient id="SVGID_23_" gradientUnits="userSpaceOnUse" x1="55.7995" y1="27.2087" x2="118.6298" y2="27.2087">
	<stop  offset="0" style="stop-color:#000000"/>
	<stop  offset="1" style="stop-color:#6A9BFF"/>
</linearGradient>
<path class="st25" d="M55.8,29.5c-0.7,4.3,8.9,4.1,22,3.7c15.7-0.5,31.5,13,40.7,3.3c1.5-1.6-13.5-22.6-31.7-22.2
	S56.5,25.8,55.8,29.5z"/>
<linearGradient id="SVGID_24_" gradientUnits="userSpaceOnUse" x1="64.6818" y1="69.0685" x2="110.2187" y2="69.0685">
	<stop  offset="0" style="stop-color:#000000"/>
	<stop  offset="1" style="stop-color:#6A9BFF"/>
</linearGradient>
<path class="st26" d="M64.8,67.1c-0.8,3.1,5.7,5.7,21.8,5.5c20.4-0.2,24-5.2,23.6-5.5c0,0-8.5,5-24.4,1.4
	C75.2,66.2,65.6,63.8,64.8,67.1z"/>
<linearGradient id="SVGID_25_" gradientUnits="userSpaceOnUse" x1="129.4978" y1="47.4994" x2="129.4978" y2="46.0815">
	<stop  offset="0" style="stop-color:#9D68C2"/>
	<stop  offset="1" style="stop-color:#CCEDFF"/>
</linearGradient>
<path class="st27" d="M129.7,47.5l-0.5-1.4C129.4,46.4,129.5,46.8,129.7,47.5z"/>
<path class="st7" d="M139.1,53c-0.6-0.1-0.4,5.5,0.4,5.2C140.2,58,140,53.1,139.1,53z"/>
<linearGradient id="SVGID_26_" gradientUnits="userSpaceOnUse" x1="51.4484" y1="71.0337" x2="51.4484" y2="66.2187">
	<stop  offset="0" style="stop-color:#D93DE3"/>
	<stop  offset="1" style="stop-color:#FF6DBA"/>
</linearGradient>
<path class="st28" d="M43,70.5c-0.1,0.8,16.5,1,16.9-2C60.3,65.6,44.1,64.6,43,70.5z"/>
<linearGradient id="SVGID_27_" gradientUnits="userSpaceOnUse" x1="45.9283" y1="31.1787" x2="45.9283" y2="8.4034" gradientTransform="matrix(0.9977 6.840000e-02 -6.840000e-02 0.9977 6.0454 27.2242)">
	<stop  offset="0" style="stop-color:#000000"/>
	<stop  offset="1" style="stop-color:#00E3FF"/>
</linearGradient>
<path class="st29" d="M47.1,58.8c0,0-0.7-4.5,0.1-10.6c0.8-6.1,2.4-10,3.4-9.5c1,0.6,0.8,6.5,1.4,12.4c0.4,4.6,1.3,8.9,1.3,8.9
	S49.1,64,47.1,58.8z"/>
<linearGradient id="SVGID_28_" gradientUnits="userSpaceOnUse" x1="123.3139" y1="25.1678" x2="132.1782" y2="25.1678">
	<stop  offset="0" style="stop-color:#000000"/>
	<stop  offset="1" style="stop-color:#D4E2FF"/>
</linearGradient>
<path class="st30" d="M131.1,22c0,0-2.2-2.7-5.2-2c-3,0.7-3.2,10.2-1.4,10.4c1.8,0.2,2.6-5.2,3.9-6.1c1.4-0.9,3.8-0.5,3.8-0.5
	L131.1,22z"/>
<linearGradient id="SVGID_29_" gradientUnits="userSpaceOnUse" x1="38.2806" y1="23.7995" x2="48.0497" y2="23.7995">
	<stop  offset="0" style="stop-color:#D4E2FF"/>
	<stop  offset="1" style="stop-color:#000000"/>
</linearGradient>
<path class="st31" d="M38.3,25.3c0,0,1.2-1.3,3.8-0.9c2.6,0.4,4.1,5.8,5.4,5.2c1.3-0.5,0.4-9.2-3.2-11.7
	C44.3,17.9,39.8,21.8,38.3,25.3z"/>
<linearGradient id="SVGID_30_" gradientUnits="userSpaceOnUse" x1="41.3715" y1="147.9587" x2="48.9223" y2="87.8389" gradientTransform="matrix(0.9822 0.1878 -0.1878 0.9822 26.0416 -12.0642)">
	<stop  offset="0" style="stop-color:#CBC1F7"/>
	<stop  offset="1" style="stop-color:#E8DCF7"/>
</linearGradient>
<path class="st32" d="M66.7,93.7c-1.2,5.9-3.6,14.3-7.6,20.7c-6.6,10.6-16.1,23.7-16.4,24.1l0,0c-4.6,1.7-9.4,0.6-12.4-0.4
	c-1.8-0.6-3-1.3-3-1.3s3.9-12.9,13.9-26.3c5-6.8,11-12.8,15.9-17.2c0,0,0,0,0.1-0.1c0.1-0.1,0.1-0.1,0.2-0.2c0,0,0.1-0.1,0.1-0.1
	c0,0,0.1-0.1,0.1-0.1c0,0,0.1-0.1,0.1-0.1c0,0,0,0,0,0c0,0,0,0,0,0c5-4.4,8.9-6.8,9.5-6.3C67.6,86.9,67.4,89.7,66.7,93.7z"/>
<linearGradient id="SVGID_31_" gradientUnits="userSpaceOnUse" x1="44.4565" y1="146.8173" x2="44.4565" y2="96.3006" gradientTransform="matrix(0.9822 0.1878 -0.1878 0.9822 26.0416 -12.0642)">
	<stop  offset="0" style="stop-color:#9D68C2"/>
	<stop  offset="1" style="stop-color:#CCEDFF"/>
</linearGradient>
<path class="st33" d="M66.7,93.7c-1.2,5.9-3.6,14.3-7.6,20.7c-6.6,10.6-16.1,23.7-16.4,24.1l0,0l-12.4-0.4c-1.8-0.6-3-1.3-3-1.3
	s3.9-12.9,13.9-26.3c5-6.8,11-12.8,15.9-17.2c-2.8,2.6-14.9,13.8-19.6,24.4c-5.3,12.1,7.4,9.5,13.7,2.6c6.3-6.9,15.3-26.8,15.3-26.8
	L66.7,93.7z"/>
<path class="st7" d="M53.6,106.1c-0.9-0.5,2.3-5.5,3.8-5.3C59,101,54.3,106.6,53.6,106.1z"/>
<path class="st7" d="M48.9,113.1c-0.7-0.5-1.8,1.4-1.2,1.9C48.4,115.4,49.7,113.7,48.9,113.1z"/>
<linearGradient id="SVGID_32_" gradientUnits="userSpaceOnUse" x1="59.8732" y1="99.0237" x2="65.2262" y2="99.0237" gradientTransform="matrix(0.9979 6.490000e-02 -6.490000e-02 0.9979 8.5881 -4.5192)">
	<stop  offset="0" style="stop-color:#8879EA"/>
	<stop  offset="1" style="stop-color:#9E8CEF"/>
</linearGradient>
<path class="st34" d="M67.2,86.5c0,0-6.6,11-5.9,23.6C61.4,110.1,69.9,94.7,67.2,86.5z"/>
<linearGradient id="SVGID_33_" gradientUnits="userSpaceOnUse" x1="215.5196" y1="113.6189" x2="223.0703" y2="53.4992" gradientTransform="matrix(-0.9822 0.1878 0.1878 0.9822 322.9816 -12.0642)">
	<stop  offset="0" style="stop-color:#CBC1F7"/>
	<stop  offset="1" style="stop-color:#E8DCF7"/>
</linearGradient>
<path class="st35" d="M104.9,92.7c1.2,5.9,3.6,14.3,7.6,20.7c6.6,10.6,16.1,23.7,16.4,24.1l0,0c4.6,1.7,9.4,0.6,12.4-0.4
	c1.8-0.6,3-1.3,3-1.3s-3.9-12.9-13.9-26.3c-5-6.8-11-12.8-15.9-17.2c0,0,0,0-0.1-0.1c-0.1-0.1-0.1-0.1-0.2-0.2c0,0-0.1-0.1-0.1-0.1
	c0,0-0.1-0.1-0.1-0.1c0,0-0.1-0.1-0.1-0.1c0,0,0,0,0,0c0,0,0,0,0,0c-5-4.4-8.9-6.8-9.5-6.3C103.9,85.8,104.1,88.7,104.9,92.7z"/>
<linearGradient id="SVGID_34_" gradientUnits="userSpaceOnUse" x1="218.6045" y1="112.4775" x2="218.6045" y2="61.9608" gradientTransform="matrix(-0.9822 0.1878 0.1878 0.9822 322.9816 -12.0642)">
	<stop  offset="0" style="stop-color:#9D68C2"/>
	<stop  offset="1" style="stop-color:#CCEDFF"/>
</linearGradient>
<path class="st36" d="M104.9,92.7c1.2,5.9,3.6,14.3,7.6,20.7c6.6,10.6,16.1,23.7,16.4,24.1l0,0l12.4-0.4c1.8-0.6,3-1.3,3-1.3
	s-3.9-12.9-13.9-26.3c-5-6.8-11-12.8-15.9-17.2c2.8,2.6,14.9,13.8,19.6,24.4c5.3,12.1-7.4,9.5-13.7,2.6C114,112.6,105,92.7,105,92.7
	L104.9,92.7z"/>
<path class="st7" d="M117.9,105.1c0.9-0.5-2.3-5.5-3.8-5.3C112.6,100,117.2,105.6,117.9,105.1z"/>
<linearGradient id="SVGID_35_" gradientUnits="userSpaceOnUse" x1="211.9514" y1="129.8857" x2="210.6465" y2="117.0764" gradientTransform="matrix(-0.9979 6.490000e-02 6.490000e-02 0.9979 340.4351 -4.5192)">
	<stop  offset="0" style="stop-color:#BE9DEA"/>
	<stop  offset="1" style="stop-color:#9E8CEF"/>
</linearGradient>
<path class="st37" d="M142.2,130.3c0,0-3.2-6.4-8.6-3.8c-5.4,2.5-1.5,11.3-1.5,11.3s7.2,3.3,12.2-1.9
	C144.3,135.9,143.7,133.6,142.2,130.3z"/>
<linearGradient id="SVGID_36_" gradientUnits="userSpaceOnUse" x1="90.7378" y1="387.9288" x2="94.7427" y2="356.0415" gradientTransform="matrix(-0.592 0.8059 -0.8059 -0.592 497.643 286.7766)">
	<stop  offset="0" style="stop-color:#CBC1F7"/>
	<stop  offset="1" style="stop-color:#E8DCF7"/>
</linearGradient>
<path class="st38" d="M142.4,128.8c0,0-6.9-2.8-10.1,0.4c-2.6,2.6-1.6,8.2-0.1,11.8c1.5,3.6,12,15.1,16.7,15
	c4.7-0.2,7.2-5.3,5.3-11.3C154.2,144.7,147.5,132.8,142.4,128.8z"/>
<linearGradient id="SVGID_37_" gradientUnits="userSpaceOnUse" x1="90.1361" y1="382.0844" x2="90.1361" y2="356.3092" gradientTransform="matrix(-0.592 0.8059 -0.8059 -0.592 497.643 286.7766)">
	<stop  offset="0" style="stop-color:#BE9DEA"/>
	<stop  offset="1" style="stop-color:#9E8CEF"/>
</linearGradient>
<path class="st39" d="M140.1,128.1c0,0,1.6,6.9,6.5,11.5c4.4,4.1,6.8,14,6.8,14s2.2-2.4,0.9-8.9
	C152.9,138.2,140.1,128.1,140.1,128.1z"/>
<linearGradient id="SVGID_38_" gradientUnits="userSpaceOnUse" x1="87.6901" y1="382.0844" x2="87.6901" y2="361.9242" gradientTransform="matrix(-0.592 0.8059 -0.8059 -0.592 497.643 286.7766)">
	<stop  offset="0" style="stop-color:#8DA4E5"/>
	<stop  offset="1" style="stop-color:#755CBB"/>
</linearGradient>
<path class="st40" d="M153.9,143.4l-3.4,2c0,0-1.3-3-3.2-5c-5.9-6.2-7.1-12.3-7.1-12.3l8,7.3c0,0,2,2.1,3.4,4
	C152.3,140.4,153.9,143.4,153.9,143.4z"/>
<linearGradient id="SVGID_39_" gradientUnits="userSpaceOnUse" x1="52.9143" y1="378.8527" x2="55.1199" y2="361.291" gradientTransform="matrix(0.1175 0.9931 -0.9931 0.1175 510.1142 34.8012)">
	<stop  offset="0" style="stop-color:#CBC1F7"/>
	<stop  offset="1" style="stop-color:#E8DCF7"/>
</linearGradient>
<path class="st41" d="M140.1,128.1c0,0,1.6-0.5,7.3-0.6c5.8-0.1,8.9,1.5,9.7,2c0.8,0.5,1,2.7-0.1,3.9c-1.1,1.2-11.3,3-11.3,3
	S142,132.4,140.1,128.1z"/>
<linearGradient id="SVGID_40_" gradientUnits="userSpaceOnUse" x1="94.0503" y1="382.0986" x2="94.0503" y2="369.0406" gradientTransform="matrix(-0.592 0.8059 -0.8059 -0.592 497.643 286.7766)">
	<stop  offset="0" style="stop-color:#BE9DEA"/>
	<stop  offset="1" style="stop-color:#9E8CEF"/>
</linearGradient>
<path class="st42" d="M146.6,139.6c0,0-8.5-3-14.9,0l0.6,1.4c0,0,6.5-3.2,15.1-0.6L146.6,139.6z"/>
<path class="st7" d="M152.5,128.9c0.1-0.6-5.5-0.5-5.2,0.3C147.5,130,152.4,129.8,152.5,128.9z"/>
<linearGradient id="SVGID_41_" gradientUnits="userSpaceOnUse" x1="236.9283" y1="86.483" x2="242.2813" y2="86.483" gradientTransform="matrix(-0.9979 6.490000e-02 6.490000e-02 0.9979 340.4351 -4.5192)">
	<stop  offset="0" style="stop-color:#8879EA"/>
	<stop  offset="1" style="stop-color:#9E8CEF"/>
</linearGradient>
<path class="st43" d="M104.3,85.5c0,0,6.6,11,5.9,23.6C110.1,109.1,101.6,93.7,104.3,85.5z"/>
<path class="st44" d="M79,63.1c0,0,3.9-4.9,8-5.8c4.1-0.9,5.5,4.1,5.5,4.1S84.9,60.9,79,63.1z"/>
<linearGradient id="SVGID_42_" gradientUnits="userSpaceOnUse" x1="82.5008" y1="161.2397" x2="92.0778" y2="84.9866">
	<stop  offset="0" style="stop-color:#CBC1F7"/>
	<stop  offset="1" style="stop-color:#E8DCF7"/>
</linearGradient>
<path class="st45" d="M112.9,142.6c-1.9,11.2-12,18.7-26.4,18.7c-12.6,0-23.2-4.7-26-15c-2.8-10.3-1.7-29.4,2-41.2
	c0.6-1.8,1.2-3.5,2-5.1l0,0c0.7-1.5,1.5-2.9,2.4-4.2c0,0,0,0,0,0c4.6-6.9,11.3-11.4,18.9-11.4c7.9,0,13.9,3.2,18.1,8.1
	c1.9,2.2,3.4,4.8,4.5,7.5c1.2,3.1,2.3,6.5,3.1,9.9c0,0,0,0.1,0,0.1C114.1,120.8,114.6,132.6,112.9,142.6z"/>
<linearGradient id="SVGID_43_" gradientUnits="userSpaceOnUse" x1="86.3935" y1="161.3701" x2="86.3935" y2="100.0211">
	<stop  offset="0" style="stop-color:#9D68C2"/>
	<stop  offset="1" style="stop-color:#CCEDFF"/>
</linearGradient>
<path class="st46" d="M112.9,142.6c-1.9,11.2-12,18.7-26.4,18.7c-12.6,0-23.2-4.7-26-15c-2.8-10.3-1.7-29.4,2-41.2
	c0.6-1.8,1.2-3.5,2-5.1l0,0c0,0-7.6,25.2-1.5,41.3c6.1,16.1,34.4,15.7,44,5c9.1-10.1,4.9-34,4.5-36.3
	C114.1,120.8,114.6,132.6,112.9,142.6z"/>
<linearGradient id="SVGID_44_" gradientUnits="userSpaceOnUse" x1="85.8058" y1="160.1227" x2="85.8058" y2="111.8044">
	<stop  offset="0" style="stop-color:#BE9DEA"/>
	<stop  offset="1" style="stop-color:#9E8CEF"/>
</linearGradient>
<path class="st47" d="M61,136c2.1-15.1,14.3-25.3,27.7-24c14.5,1.4,22.3,15.2,22.1,27.1c-0.2,11.9-8.9,21.1-24.4,21.1
	C70.8,160.1,59,150.1,61,136z"/>
<radialGradient id="SVGID_45_" cx="87.4572" cy="155.4026" r="38.5875" gradientUnits="userSpaceOnUse">
	<stop  offset="0" style="stop-color:#CE40E0"/>
	<stop  offset="1" style="stop-color:#DD1A8F"/>
</radialGradient>
<path class="st48" d="M61.2,137.2c2.1-15.1,14.3-25.3,27.7-24c14.5,1.4,22.3,15.2,22.1,27.1c-0.2,11.9-8.9,21.1-24.4,21.1
	S59.2,151.3,61.2,137.2z"/>
<linearGradient id="SVGID_46_" gradientUnits="userSpaceOnUse" x1="85.3348" y1="99.3714" x2="85.3348" y2="84.4159">
	<stop  offset="0" style="stop-color:#8DA4E5"/>
	<stop  offset="1" style="stop-color:#755CBB"/>
</linearGradient>
<path class="st49" d="M103.9,92.5c-3.1,4.8-20,7.6-29.8,6.7c-8.5-0.8-7.2-3.1-7.2-3.4c0,0,0,0,0,0c4.6-6.9,11.3-11.4,18.9-11.4
	C93.7,84.4,99.7,87.7,103.9,92.5z"/>
<path class="st7" d="M97.8,100.8c-0.8,0.3-0.8,6.6,0,7.6c0.8,1,2.1,0.7,2.6-0.8C100.9,106.2,99,100.4,97.8,100.8z"/>
<linearGradient id="SVGID_47_" gradientUnits="userSpaceOnUse" x1="66.2519" y1="125.0234" x2="108.2689" y2="125.0234">
	<stop  offset="0" style="stop-color:#000000"/>
	<stop  offset="1" style="stop-color:#FF955C"/>
</linearGradient>
<path class="st50" d="M66.3,127.6c2.6,4.1,13.1,1.9,24.9,3.1c11.8,1.2,13.9,5,16.4,4.2c2.5-0.8-1.4-18.6-19.2-19.8
	C70.7,113.9,65.7,126.6,66.3,127.6z"/>
<linearGradient id="SVGID_48_" gradientUnits="userSpaceOnUse" x1="87.2604" y1="159.164" x2="87.2604" y2="150.7943">
	<stop  offset="0" style="stop-color:#FF4B90"/>
	<stop  offset="1" style="stop-color:#000000"/>
</linearGradient>
<path class="st51" d="M70,153.1c0,0,3.5,6,16.4,6.1c12.9,0.1,18.2-7.7,18.2-7.7s-6,3.9-14.5,1.6C81.5,150.7,73.1,149.4,70,153.1z"/>
<g>
	<path class="st52" d="M100.6,28.1h-1.2v-2.8c0-2-1.6-3.5-3.5-3.5s-3.5,1.6-3.5,3.5v1c0,1.2-0.8,2.3-2,2.7l-1.1,0.3v0
		c0-0.7-0.5-1.2-1.2-1.2h-4.7c-0.6,0-1.2,0.5-1.2,1.2v5.3H68.3c-1.9,0-3.5,1.6-3.5,3.5v22.8c0,0.4,0.2,0.8,0.6,1
		c0.2,0.1,0.4,0.1,0.6,0.1c0.2,0,0.5-0.1,0.7-0.2l4.4-3h22.4c1.9,0,3.5-1.6,3.5-3.5V43h3.7c2.4,0,4.3-1.9,4.3-4.3v-6.3
		C104.9,30,103,28.1,100.6,28.1z M84.5,30.4h2.4v10.2h-2.4V30.4z M94.5,55.4c0,0.7-0.5,1.2-1.2,1.2H70.6c-0.2,0-0.5,0.1-0.7,0.2
		l-2.9,1.9V38.1c0-0.7,0.5-1.2,1.2-1.2h13.9v5c0,0.7,0.5,1.2,1.2,1.2H88c0.6,0,1.1-0.5,1.2-1c1,0.7,2.3,1,3.6,1h1.8V55.4z
		 M102.5,38.7c0,1.1-0.9,2-2,2h-7.8c-1.4,0-2.8-0.7-3.6-1.9v-7l1.8-0.5c2.2-0.6,3.7-2.6,3.7-4.9v-1c0-0.7,0.5-1.2,1.2-1.2
		s1.2,0.5,1.2,1.2v3.9c0,0.7,0.5,1.2,1.2,1.2h2.4c1.1,0,2,0.9,2,2V38.7z"/>
	<path class="st52" d="M70.6,44h7.8c0.6,0,1.2-0.5,1.2-1.2s-0.5-1.2-1.2-1.2h-7.8c-0.6,0-1.2,0.5-1.2,1.2S70,44,70.6,44z"/>
	<path class="st52" d="M91,46.3H70.6c-0.6,0-1.2,0.5-1.2,1.2c0,0.7,0.5,1.2,1.2,1.2H91c0.6,0,1.2-0.5,1.2-1.2
		C92.2,46.9,91.7,46.3,91,46.3z"/>
	<path class="st52" d="M91,51.1H70.6c-0.6,0-1.2,0.5-1.2,1.2c0,0.7,0.5,1.2,1.2,1.2H91c0.6,0,1.2-0.5,1.2-1.2
		C92.2,51.6,91.7,51.1,91,51.1z"/>
</g>
</svg>
