<?xml version="1.0" encoding="utf-8"?>
<!-- Generator: Adobe Illustrator 24.0.2, SVG Export Plug-In . SVG Version: 6.00 Build 0)  -->
<svg version="1.1" id="OBJECTS" xmlns="http://www.w3.org/2000/svg" xmlns:xlink="http://www.w3.org/1999/xlink" x="0px" y="0px"
	 viewBox="0 0 142.6 120.8" style="enable-background:new 0 0 142.6 120.8;" xml:space="preserve">
<style type="text/css">
	.st0{fill:#006FD3;}
	.st1{fill:none;stroke:#006FD3;stroke-miterlimit:10;}
</style>
<g>
	<g transform="matrix(1 0 0 1 -1.5755 -1.3491)">
		<circle class="st0" cx="60.5" cy="60.4" r="45.1"/>
	</g>
</g>
<g>
	<g transform="matrix(1 0 0 1 14.4245 15.6509)">
		<circle class="st0" cx="59.9" cy="60.4" r="28.7"/>
	</g>
</g>
<path class="st1" d="M96.7,12.9C86,4.7,72.5,0.1,57.9,0.7C26.5,2.1,1.2,28.1,0.8,59.5c-0.5,33.4,26.5,60.6,59.7,60.6
	c30.3,0,55.3-22.5,59.2-51.7c0.6-4.6,4.4-8.1,9.1-8.1h11.3"/>
<path class="st0" d="M142.5,60.4c0,1.3-1.1,2.4-2.4,2.4c-1.3,0-2.4-1.1-2.4-2.4c0-1.3,1.1-2.4,2.4-2.4C141.4,58,142.5,59,142.5,60.4
	z"/>
</svg>
